<?xml version="1.0" encoding="utf-8"?>
<!-- Generator: Adobe Illustrator 21.0.0, SVG Export Plug-In . SVG Version: 6.00 Build 0)  -->
<svg version="1.1" id="Layer_1" xmlns="http://www.w3.org/2000/svg" xmlns:xlink="http://www.w3.org/1999/xlink" x="0px" y="0px"
	 viewBox="0 0 48.7 41.4" style="enable-background:new 0 0 48.7 41.4;" xml:space="preserve">
<style type="text/css">
	.st0{fill:#999999;}
	.st1{fill:#4EB214;}
	.st2{fill:#FFFFFF;}
	.st3{fill:#FFFFFF;stroke:#FFFFFF;stroke-miterlimit:10;}
</style>
<title>Asset 1</title>
<polygon class="st0" points="35.8,0.2 35.8,41.4 48.7,34.5 48.7,0.2 "/>
<path class="st1" d="M48.7,0H17.1C7.7,0,0,7.7,0,17.1s7.7,17.1,17.1,17.1h31.6V0z"/>
<rect x="14.1" y="16.3" class="st2" width="12.7" height="2.7"/>
<rect x="18.7" y="10.9" class="st2" width="2.9" height="12.7"/>
<path class="st3" d="M31.4,16.9c0,6.2-5,11.2-11.2,11.2S9,23.1,9,16.9S14,5.7,20.2,5.7l0,0C26.3,5.8,31.3,10.8,31.4,16.9 M33.3,16.9
	c0-7.2-5.9-13.1-13.1-13.1C13,3.8,7.1,9.7,7.1,16.9S13,30,20.2,30l0,0C27.4,30,33.3,24.2,33.3,16.9L33.3,16.9z"/>
</svg>
