<?xml version="1.0" encoding="utf-8"?>
<!-- Generator: Adobe Illustrator 21.0.0, SVG Export Plug-In . SVG Version: 6.00 Build 0)  -->
<svg version="1.1" id="Layer_1" xmlns="http://www.w3.org/2000/svg" xmlns:xlink="http://www.w3.org/1999/xlink" x="0px" y="0px"
	 viewBox="0 0 48.7 41.4" style="enable-background:new 0 0 48.7 41.4;" xml:space="preserve">
<style type="text/css">
	.st0{fill:#999999;}
	.st1{fill:#5C81EA;}
	.st2{fill:#FFFFFF;}
	.st3{fill:none;stroke:#FFFFFF;stroke-width:2;stroke-miterlimit:10;}
	.st4{fill:#FFFFFF;stroke:#F9F9F9;stroke-width:1.1626;stroke-miterlimit:10;}
</style>
<title>Asset 1</title>
<polygon class="st0" points="35.8,0.2 35.8,41.4 48.7,34.5 48.7,0.2 "/>
<path class="st1" d="M48.7,0H17.1C7.7,0,0,7.7,0,17.1s7.7,17.1,17.1,17.1h31.6V0z"/>
<path class="st2" d="M18.5,28.5L18.5,28.5c0-0.1,0-0.1-0.1-0.1l0,0c-0.2-0.2-0.5-0.2-0.7,0s-0.2,0.5,0,0.7c0.1,0.1,0.5,0.2,0.6,0
	C18.5,29,18.6,28.7,18.5,28.5L18.5,28.5L18.5,28.5z"/>
<path class="st2" d="M24.4,18.4h-0.1c-1-1.2-2.3-2.2-3.7-2.9c-0.2-0.1-0.4,0-0.6,0.1c-1,1.1-2.5,1.8-4,1.8s-2.9-0.7-4-1.8
	c-0.2-0.2-0.4-0.2-0.6-0.1c-1.8,0.8-3.3,2.2-4.3,3.8C6,21,5.4,23,5.4,25c0,0.1,0,0.3,0.1,0.4c2.8,2.5,6.5,3.9,10.3,4h0.6
	c0.3,0,0.5-0.2,0.5-0.5s-0.2-1.3-0.4-1.3l-0.9-0.2c-0.9-0.2-1.8-0.1-2.7-0.2c-0.8-0.1-1.6-0.4-2.3-0.7C9.8,26.1,9,25.6,8.4,25
	c-0.3-0.2-0.8-0.5-0.9-0.8c-0.2-0.6,0.1-1.7,0.4-2.3c0.5-1,0.7-1.6,1.3-2.3c0.4-0.4,0.7-0.9,1.2-1.2c0.1-0.1,1.4-1.1,1.5-1
	c2.5,2.4,5.9,2,8.4-0.4c1,0.5,1.4,0.9,2.2,1.8c-3.4,0.7-4.9,4-4.2,7.4c0.7,3.4,4.1,5.6,7.6,4.9c3-0.6,5.1-3.2,5.1-6.3
	C30.8,21.2,28,18.4,24.4,18.4C24.4,18.3,24.4,18.3,24.4,18.4L24.4,18.4z"/>
<path class="st2" d="M24.4,30.2c-3,0-5.4-2.4-5.4-5.4s2.4-5.4,5.4-5.4s5.4,2.4,5.4,5.4C29.8,27.7,27.4,30.1,24.4,30.2z"/>
<circle class="st3" cx="15.8" cy="9.8" r="5.4"/>
<circle class="st1" cx="24.4" cy="25" r="4.3"/>
<path class="st4" d="M19.9,24.6h5.5L24,23.1c-0.2-0.2-0.2-0.4,0-0.6s0.4-0.2,0.6,0l2.1,2.3c0.2,0.1,0.2,0.4,0.1,0.5
	c0,0,0,0.1-0.1,0.1l-2.1,2.3c-0.2,0.1-0.4,0.1-0.6,0s-0.2-0.4-0.1-0.5c0,0,0-0.1,0.1-0.1l1.4-1.5h-5.5c-0.2,0-0.4-0.2-0.4-0.4
	C19.5,24.8,19.7,24.6,19.9,24.6L19.9,24.6z"/>
</svg>
