<?xml version="1.0" encoding="utf-8"?>
<!-- Generator: Adobe Illustrator 21.0.0, SVG Export Plug-In . SVG Version: 6.00 Build 0)  -->
<svg version="1.1" id="Layer_1" xmlns="http://www.w3.org/2000/svg" xmlns:xlink="http://www.w3.org/1999/xlink" x="0px" y="0px"
	 viewBox="0 0 48.7 41.4" style="enable-background:new 0 0 48.7 41.4;" xml:space="preserve">
<style type="text/css">
	.st0{fill:#999999;}
	.st1{fill:#206EAF;}
	.st2{fill:#F0F0F7;}
	.st3{fill:#F0F0F7;stroke:#F9F2F2;stroke-miterlimit:10;}
	.st4{fill:#FFFFFF;}
	.st5{font-family:'MyriadPro-Regular';}
	.st6{font-size:12.9093px;}
	.st7{fill:none;stroke:#F9EDED;stroke-width:0.5;stroke-miterlimit:10;}
</style>
<title>Asset 1</title>
<polygon class="st0" points="35.8,0.2 35.8,41.4 48.7,34.5 48.7,0.2 "/>
<path class="st1" d="M48.7,0H17.1C7.7,0,0,7.7,0,17.1s7.7,17.1,17.1,17.1h31.6V0z"/>
<polygon class="st2" points="47.4,24.5 7.6,24.5 7,25.4 48.4,25.4 "/>
<path class="st3" d="M8.5,23.5h38.7L45,21.3h-0.6l-1.5-9.6h0.6V10h-1.8v0.1l-7.4,0.2c0-0.1-0.2-0.2-0.3-0.2c-0.2,0-0.4,0.2-0.4,0.4
	s0.1,0.3,0.3,0.3c0,0,0,0,0.1,0v4.7c-0.1,0-0.2,0.1-0.2,0.2c0,0.1,0.1,0.2,0.2,0.2c0.1,0,0.2-0.1,0.2-0.2c0-0.1-0.1-0.2-0.2-0.2
	v-4.7c0.1,0,0.2-0.1,0.2-0.2l7,0.9v0.1h1L41,21.2H22.3l-4.5-4.9h-17l6.7,7.2C7.5,23.4,8.5,23.5,8.5,23.5z M38.9,10.3l-1,0.5L37,10.3
	H38.9z M34.3,10.5L34.3,10.5l0.9-0.1l-0.4,0.2l0,0L34.3,10.5z M34.9,10.6l0.4-0.2l0.5,0.3L34.9,10.6z M35.6,10.4h1.1L36,10.7
	L35.6,10.4z M36.1,10.7l0.8-0.3l1,0.5L36.1,10.7z M37.8,10.9L37.8,10.9l1.2-0.6l1.1,0.9L37.8,10.9z M41.3,11.4l-0.8-0.1l1.2-0.9
	L41.3,11.4z M40.3,11.3l-1.2-1l2.5-0.1L40.3,11.3z M44.2,21.2l-2.6-1.6l2-1.6L44.2,21.2z M43.6,17.6l-1.4-1.2l1.1-1.2L43.6,17.6z
	 M42.9,13.3l0.2,1.4L42.4,14L42.9,13.3z M42.8,13.1l-0.6,0.6l0.1-1.2L42.8,13.1z M42.4,12.3l0.1-0.6h0.2l0.2,1.2L42.4,12.3z
	 M42.1,10.8c0-0.2,0.2-0.4,0.4-0.4s0.4,0.2,0.4,0.4s-0.2,0.4-0.4,0.4C42.4,11.2,42.1,11.1,42.1,10.8z M42.1,14.2l1,0.9l-1.2,1.3
	L42.1,14.2z M41.9,16.3L41.9,16.3v0.2l1.5,1.3l-1.9,1.5L41.9,16.3z M41.5,19.8l2.3,1.4h-2.4L41.5,19.8z M7,18.9
	c-0.2,0.2-0.5,0.2-1,0c-0.3-0.2-0.4-0.5-0.3-0.9c0.2-0.2,0.5-0.2,1,0C7.1,18.4,7.2,18.7,7,18.9z"/>
<path class="st2" d="M20.1,18.3v-7.5h-9L6,15.9h12.3L20.1,18.3z M17.7,11.8c0-0.2,0.2-0.4,0.4-0.4h0.5c0.2,0,0.4,0.2,0.4,0.4v0.9
	c0,0.2-0.2,0.4-0.4,0.4h-0.5c-0.2,0-0.4-0.2-0.4-0.4V11.8z M10.5,14.8c0,0.2-0.2,0.4-0.4,0.4H9.5c-0.2,0-0.4-0.2-0.4-0.4V14
	c0-0.2,0.2-0.4,0.4-0.4H10c0.2,0,0.4,0.2,0.4,0.4v0.8H10.5z M12.2,14.8c0,0.2-0.2,0.4-0.4,0.4h-0.5c-0.2,0-0.4-0.2-0.4-0.4V14
	c0-0.2,0.2-0.4,0.4-0.4h0.5c0.2,0,0.4,0.2,0.4,0.4V14.8z M12.2,12.8c0,0.2-0.2,0.4-0.4,0.4h-0.5c-0.2,0-0.4-0.2-0.4-0.4v-1
	c0-0.2,0.2-0.4,0.4-0.4h0.5c0.2,0,0.4,0.2,0.4,0.4V12.8z M13.9,14.8c0,0.2-0.2,0.4-0.4,0.4H13c-0.2,0-0.4-0.2-0.4-0.4V14
	c0-0.2,0.2-0.4,0.4-0.4h0.5c0.2,0,0.4,0.2,0.4,0.4V14.8z M13.9,12.8c0,0.2-0.2,0.4-0.4,0.4H13c-0.2,0-0.4-0.2-0.4-0.4v-1
	c0-0.2,0.2-0.4,0.4-0.4h0.5c0.2,0,0.4,0.2,0.4,0.4V12.8z M15.7,14.8c0,0.2-0.2,0.4-0.4,0.4h-0.5c-0.2,0-0.4-0.2-0.4-0.4V14
	c0-0.2,0.2-0.4,0.4-0.4h0.5c0.2,0,0.4,0.2,0.4,0.4V14.8z M15.7,12.8c0,0.2-0.2,0.4-0.4,0.4h-0.5c-0.2,0-0.4-0.2-0.4-0.4v-1
	c0-0.2,0.2-0.4,0.4-0.4h0.5c0.2,0,0.4,0.2,0.4,0.4V12.8z M17.4,14.8c0,0.2-0.2,0.4-0.4,0.4h-0.5c-0.2,0-0.4-0.2-0.4-0.4V14
	c0-0.2,0.2-0.4,0.4-0.4H17c0.2,0,0.4,0.2,0.4,0.4V14.8z M17.4,12.8c0,0.2-0.2,0.4-0.4,0.4h-0.5c-0.2,0-0.4-0.2-0.4-0.4v-1
	c0-0.2,0.2-0.4,0.4-0.4H17c0.2,0,0.4,0.2,0.4,0.4V12.8z M17.7,14.8V14c0-0.2,0.2-0.4,0.4-0.4h0.5c0.2,0,0.4,0.2,0.4,0.4v0.9
	c0,0.2-0.2,0.4-0.4,0.4h-0.5C17.9,15.1,17.7,15,17.7,14.8z"/>
<polygon class="st2" points="19.7,10.7 19.5,9.8 10.7,9.8 11.8,10.7 "/>
<polygon class="st2" points="16.3,7.4 15.9,7.4 15.2,9.4 15.1,9.5 16.3,9.5 "/>
<rect x="23.3" y="18.4" class="st2" width="4.2" height="2.4"/>
<rect x="27.7" y="18.1" class="st2" width="3.9" height="2.2"/>
<rect x="32" y="18.1" class="st2" width="3.9" height="2.2"/>
<text transform="matrix(1 0 0 1 23.3091 14.4976)" class="st4 st5 st6">+</text>
<text transform="matrix(1 0 0 1 23.3091 14.4976)" class="st7 st5 st6">+</text>
</svg>
