<?xml version="1.0" encoding="utf-8"?>
<!-- Generator: Adobe Illustrator 21.0.0, SVG Export Plug-In . SVG Version: 6.00 Build 0)  -->
<svg version="1.1" id="Layer_1" xmlns="http://www.w3.org/2000/svg" xmlns:xlink="http://www.w3.org/1999/xlink" x="0px" y="0px"
	 viewBox="0 0 48.7 41.4" style="enable-background:new 0 0 48.7 41.4;" xml:space="preserve">
<style type="text/css">
	.st0{fill:#999999;}
	.st1{fill:#339900;}
	.st2{fill:#FFFFFF;}
</style>
<title>Asset 1</title>
<polygon class="st0" points="35.8,0.2 35.8,41.4 48.7,34.5 48.7,0.2 "/>
<path class="st1" d="M48.7-1.1H17.1C7.7-1.1,0,6.5,0,16s7.7,17.1,17.1,17.1h31.6V-1.1z"/>
<g>
	<path class="st2" d="M29.6,17.5h-0.1c-0.1,0-0.3,0-0.4,0.1L28,18.7c-0.1,0.1-0.2,0.3-0.1,0.4v4.1c0,0.7-0.3,1.4-0.8,1.9
		s-1.2,0.8-1.9,0.8H11.8c-0.7,0-1.4-0.3-1.9-0.8s-0.8-1.2-0.8-1.9V9.6c0-0.7,0.3-1.4,0.8-1.9C10.4,7.3,11.1,7,11.8,7h13.4
		c0.2,0,0.5,0,0.7,0.1H26c0.1,0,0.3,0,0.4-0.1l0.8-0.8c0.1-0.1,0.1-0.3,0.1-0.5S27.2,5.4,27,5.3c-0.6-0.3-1.2-0.4-1.9-0.4H11.8
		C9.3,4.8,7.2,6.8,7.1,9.3l0,0c0,0.1,0,0.1,0,0.2v13.4C7,25.4,9,27.5,11.5,27.6l0,0h13.6c2.5,0.1,4.6-1.9,4.7-4.4l0,0
		c0-0.1,0-0.1,0-0.2v-5C29.9,17.8,29.9,17.6,29.6,17.5z"/>
	<path class="st2" d="M33.7,8.2L32,6.4c-0.5-0.5-1.3-0.5-1.9,0L19.6,17l-4.3-4.3c-0.5-0.5-1.3-0.5-1.9,0l-1.7,1.7
		c-0.5,0.5-0.5,1.3,0,1.9l6.9,6.9c0.5,0.5,1.3,0.5,1.9,0L33.7,10c0.3-0.2,0.4-0.6,0.4-0.9C34.1,8.8,34,8.4,33.7,8.2z"/>
</g>
</svg>
