<?xml version="1.0" encoding="utf-8"?>
<!-- Generator: Adobe Illustrator 21.0.0, SVG Export Plug-In . SVG Version: 6.00 Build 0)  -->
<svg version="1.1" id="Layer_1" xmlns="http://www.w3.org/2000/svg" xmlns:xlink="http://www.w3.org/1999/xlink" x="0px" y="0px"
	 viewBox="0 0 48.7 41.4" style="enable-background:new 0 0 48.7 41.4;" xml:space="preserve">
<style type="text/css">
	.st0{fill:#999999;}
	.st1{fill:#0099FF;}
	.st2{clip-path:url(#SVGID_2_);}
	.st3{fill:#FFFFFF;}
</style>
<title>Asset 1</title>
<polygon class="st0" points="35.8,0.2 35.8,41.4 48.7,34.5 48.7,0.2 "/>
<path class="st1" d="M48.7,0H17.1C7.7,0,0,7.7,0,17.1s7.7,17.1,17.1,17.1h31.6V0z"/>
<g>
	<g>
		<defs>
			<rect id="SVGID_1_" x="6.5" y="3.9" width="28.3" height="27.1"/>
		</defs>
		<clipPath id="SVGID_2_">
			<use xlink:href="#SVGID_1_"  style="overflow:visible;"/>
		</clipPath>
		<g class="st2">
			<path class="st3" d="M26.8,14l4.2,1.5L27.5,25c-0.7,1.7-1.8,3.1-3.2,4.2L23.9,30c-0.1,0.3-0.3,0.3-0.5,0.3h-0.1
				c-0.3-0.1-0.4-0.4-0.3-0.6l0,0l0.3-0.8c-0.7-1.2-0.1-4.7,0.1-5.4L26.8,14z M32.7,4c-1.2-0.3-2.4,0.3-2.8,1.5l-2.6,6.9l4.2,1.5
				L34.1,7C34.4,5.8,33.8,4.5,32.7,4z M25.3,13.6h0.4c0.4,0,0.8-0.3,0.9-0.7l2.7-7.2c0.1-0.5-0.1-1-0.5-1.4c-0.5-0.1-1,0.1-1.4,0.5
				L24.7,12c-0.3,0.5-0.1,1.2,0.4,1.4C25.2,13.6,25.3,13.6,25.3,13.6z M21,27c-0.4-0.3-0.8-0.6-1.2-0.8c-0.4-0.1-0.8-0.2-1.2-0.3
				h-0.1c-0.2-0.6-0.7-1-1.2-1.1c-0.7-0.1-1.4,0.1-1.9,0.5c0-0.2,0.1-0.5,0.1-0.7c0.2-0.6,0.2-1.3,0.1-1.9c-0.1-0.5-0.5-0.8-0.9-0.8
				c-1.2,0-2.4,0.4-3.2,1.2c-0.9,0.7-1.6,1.1-2.2,0.8c-0.8-0.3-0.8-2.3-0.4-4.1c0.4-1.8,0.9-4.6,2.4-6c0.5-0.4,1.2-0.9,1.9-0.7
				c0.9,0.7,1.5,1.7,1.5,2.8c0,0.6,0.5,1.1,1.1,1.1s1.1-0.5,1.1-1.1c0-0.1,0-0.1,0-0.2c-0.1-2-1.1-3.8-2.8-4.7
				c-0.9-0.4-2.3-0.4-4.1,1.1c-2,1.9-2.7,4.8-3.3,7.3c-0.3,1.2-0.8,5.6,1.9,6.5c1.5,0.4,3,0,4.1-1.1c0.1-0.1,0.4-0.3,0.5-0.4
				C13,25.2,13,26,13.3,26.7c0.7,1.1,1.8,1.2,3,0.4l0.1-0.1c0.1,0.3,0.4,0.6,0.7,0.7c0.4,0.2,0.8,0.3,1.2,0.3h0.4
				c0.1,0.1,0.3,0.1,0.5,0.4l0.5,0.5c0.2,0.2,0.4,0.3,0.7,0.3c0.6,0,1-0.5,1-1c0-0.3-0.2-0.7-0.5-0.9C21.2,27.3,21.1,27.1,21,27z"/>
		</g>
	</g>
</g>
</svg>
