<?xml version="1.0" encoding="utf-8"?>
<!-- Generator: Adobe Illustrator 21.0.0, SVG Export Plug-In . SVG Version: 6.00 Build 0)  -->
<svg version="1.1" id="Layer_1" xmlns="http://www.w3.org/2000/svg" xmlns:xlink="http://www.w3.org/1999/xlink" x="0px" y="0px"
	 viewBox="0 0 48.7 41.4" style="enable-background:new 0 0 48.7 41.4;" xml:space="preserve">
<style type="text/css">
	.st0{fill:#999999;}
	.st1{fill:#5C81EA;}
	.st2{fill:none;}
	.st3{fill:#FFFFFF;stroke:#F9F7F7;stroke-miterlimit:10;}
</style>
<title>Asset 1</title>
<polygon class="st0" points="35.8,0.2 35.8,41.4 48.7,34.5 48.7,0.2 "/>
<path class="st1" d="M48.7,0H17.1C7.7,0,0,7.7,0,17.1s7.7,17.1,17.1,17.1h31.6V0z"/>
<rect x="12.8" y="3.8" class="st2" width="17.2" height="22.4"/>
<rect x="10.1" y="7.5" class="st2" width="22.6" height="19.4"/>
<g>
	<path class="st3" d="M10.4,15.8c-0.3,0.3-0.3,0.7,0,1l9.9,8.2c0.2,0.2,0.5,0.2,0.7,0.1s0.4-0.3,0.4-0.6v-4.3c4,0,6.8,0.3,10.2,6.2
		c0.1,0.2,0.3,0.3,0.5,0.3h0.2c0.3-0.1,0.5-0.3,0.5-0.6v-0.5c0-2.2,0-5.4-1.5-8.2c-1.7-3.2-5-4.9-9.9-5.1V8c0-0.4-0.3-0.7-0.7-0.7
		c-0.2,0-0.3,0.1-0.4,0.2L10.4,15.8z M11.8,16.3l8.3-6.9V13c0,0.3,0.3,0.6,0.6,0.6c4.7,0,7.8,1.5,9.4,4.4c0.9,1.8,1.3,3.9,1.3,5.9
		c-1.1-1.7-2.6-3.1-4.4-4C25.1,19,23.2,19,20.7,19c-0.2,0-0.3,0.1-0.4,0.2s-0.2,0.2-0.2,0.4v3.6L11.8,16.3z"/>
</g>
</svg>
