<?xml version="1.0" encoding="utf-8"?>
<!-- Generator: Adobe Illustrator 21.0.0, SVG Export Plug-In . SVG Version: 6.00 Build 0)  -->
<svg version="1.1" id="Layer_1" xmlns="http://www.w3.org/2000/svg" xmlns:xlink="http://www.w3.org/1999/xlink" x="0px" y="0px"
	 viewBox="0 0 48.7 41.4" style="enable-background:new 0 0 48.7 41.4;" xml:space="preserve">
<style type="text/css">
	.st0{fill:#999999;}
	.st1{fill:#FF3300;}
	.st2{fill:#FFFFFF;}
	.st3{fill:none;stroke:#FFFFFF;stroke-width:3;stroke-miterlimit:10;}
</style>
<title>Asset 1</title>
<polygon class="st0" points="37,0.3 37,41.5 49.8,34.6 49.8,0.3 "/>
<path class="st1" d="M50.1-0.9H18.5C9-0.9,1.4,6.7,1.4,16.2S9,33.3,18.5,33.3h31.6V-0.9z"/>
<path class="st2" d="M25.6,23L25.6,23c-0.8,0.5-1.7,0.4-2.4-0.2l-9.9-10.5c-0.5-0.5-0.5-1.3,0-1.8c0.1-0.1,0.1-0.1,0.2-0.2l0,0
	c0.8-0.5,1.7-0.4,2.4,0.2L26,21c0.5,0.5,0.5,1.3,0,1.8C25.9,22.9,25.8,23,25.6,23L25.6,23z"/>
<path class="st2" d="M13.8,23.1L13.8,23.1c-0.6-0.3-0.9-1.1-0.5-1.7c0-0.1,0.1-0.2,0.2-0.3l9.6-10.7c0.6-0.6,1.6-0.7,2.4-0.3l0,0
	c0.6,0.3,0.9,1.1,0.5,1.7c0,0.1-0.1,0.2-0.2,0.3l-9.6,10.7C15.5,23.5,14.6,23.6,13.8,23.1z"/>
<circle class="st3" cx="19.2" cy="16.2" r="11.6"/>
</svg>
