<?xml version="1.0" encoding="utf-8"?>
<!-- Generator: Adobe Illustrator 21.0.0, SVG Export Plug-In . SVG Version: 6.00 Build 0)  -->
<svg version="1.1" id="Layer_1" xmlns="http://www.w3.org/2000/svg" xmlns:xlink="http://www.w3.org/1999/xlink" x="0px" y="0px"
	 viewBox="0 0 48.7 41.4" style="enable-background:new 0 0 48.7 41.4;" xml:space="preserve">
<style type="text/css">
	.st0{fill:#999999;}
	.st1{fill:#EF0A0A;}
	.st2{fill:#FFFFFF;}
</style>
<title>Asset 1</title>
<polygon class="st0" points="35.8,0.2 35.8,41.4 48.7,34.5 48.7,0.2 "/>
<path class="st1" d="M48.7,0H17.1C7.7,0,0,7.7,0,17.1s7.7,17.1,17.1,17.1h31.6V0z"/>
<path class="st2" d="M31,10.7c-1.2-2-2.8-3.6-4.8-4.8c-2-1.2-4.3-1.8-6.6-1.8c-2.3,0-4.6,0.6-6.6,1.8c-2,1.2-3.6,2.8-4.8,4.8
	c-1.2,2-1.8,4.3-1.8,6.6c0,2.3,0.6,4.6,1.8,6.6c1.2,2,2.8,3.6,4.8,4.8c2,1.2,4.3,1.8,6.6,1.8c2.3,0,4.6-0.6,6.6-1.8
	c2-1.2,3.6-2.8,4.8-4.8c1.2-2,1.8-4.3,1.8-6.6C32.8,15,32.2,12.7,31,10.7z M25.8,20.5c0.4,0.5,0.4,1.1,0,1.6l-1.5,1.5
	c-0.5,0.4-1.1,0.4-1.6,0l-3.1-3.1l-3.1,3.1c-0.5,0.4-1.1,0.4-1.6,0l-1.5-1.5c-0.4-0.5-0.4-1.1,0-1.6l3.1-3.1l-3.1-3.1
	c-0.4-0.5-0.4-1.1,0-1.6l1.5-1.6c0.5-0.4,1.1-0.4,1.6,0l3.1,3.1l3.1-3.1c0.5-0.4,1.1-0.4,1.6,0l1.5,1.6c0.4,0.5,0.4,1.1,0,1.6
	l-3.1,3.1L25.8,20.5z"/>
</svg>
