<?xml version="1.0" encoding="utf-8"?>
<!-- Generator: Adobe Illustrator 21.0.0, SVG Export Plug-In . SVG Version: 6.00 Build 0)  -->
<svg version="1.1" id="Layer_1" xmlns="http://www.w3.org/2000/svg" xmlns:xlink="http://www.w3.org/1999/xlink" x="0px" y="0px"
	 viewBox="0 0 48.7 41.4" style="enable-background:new 0 0 48.7 41.4;" xml:space="preserve">
<style type="text/css">
	.st0{fill:#999999;}
	.st1{fill:#339900;}
	.st2{fill:#FFFFFF;stroke:#FFFFFF;stroke-miterlimit:10;}
</style>
<title>Asset 1</title>
<polygon class="st0" points="35.8,0.2 35.8,41.4 48.7,34.5 48.7,0.2 "/>
<path class="st1" d="M48.7,0H17.1C7.7,0,0,7.7,0,17.1s7.7,17.1,17.1,17.1h31.6V0z"/>
<g id="Layer_2-2">
	<g id="Layer_1-2-2">
		<polygon class="st2" points="16.9,23 11.4,17.4 14,14.8 16.9,17.7 23.6,11 26.2,13.7 		"/>
		<path class="st2" d="M18.7,3.4C11.2,3.4,5,9.6,5,17.1s6.1,13.7,13.7,13.7s13.7-6.1,13.7-13.7l0,0C32.4,9.6,26.2,3.4,18.7,3.4
			 M18.7,29.4c-6.8,0-12.3-5.5-12.3-12.3S11.9,4.8,18.7,4.8S31,10.3,31,17.1S25.5,29.4,18.7,29.4"/>
	</g>
</g>
</svg>
