<?xml version="1.0" encoding="utf-8"?>
<!-- Generator: Adobe Illustrator 21.0.0, SVG Export Plug-In . SVG Version: 6.00 Build 0)  -->
<svg version="1.1" id="Layer_1" xmlns="http://www.w3.org/2000/svg" xmlns:xlink="http://www.w3.org/1999/xlink" x="0px" y="0px"
	 viewBox="0 0 48.7 41.4" style="enable-background:new 0 0 48.7 41.4;" xml:space="preserve">
<style type="text/css">
	.st0{fill:#999999;}
	.st1{fill:#CC0000;}
	.st2{fill:#FFFFFF;}
</style>
<title>Asset 1</title>
<polygon class="st0" points="35.8,0.2 35.8,41.4 48.7,34.5 48.7,0.2 "/>
<path class="st1" d="M48.7,0H17.1C7.7,0,0,7.7,0,17.1s7.7,17.1,17.1,17.1h31.6V0z"/>
<path class="st2" d="M18.2,3.4C10.7,3.4,4.6,9.5,4.6,17s6.1,13.6,13.6,13.6S31.8,24.5,31.8,17l0,0C31.8,9.5,25.8,3.4,18.2,3.4
	L18.2,3.4z M25.5,21.5l-2.8,2.8c0,0-4.2-4.5-4.5-4.5s-4.5,4.5-4.5,4.5L11,21.6c1.6-1.5,3.1-3,4.6-4.6c0-0.5-4.5-4.5-4.5-4.5l2.7-2.7
	c0,0,4.2,4.5,4.5,4.5s4.5-4.5,4.5-4.5l2.7,2.7c-1.6,1.4-3.1,2.9-4.5,4.5C20.9,17.3,25.4,21.5,25.5,21.5L25.5,21.5z"/>
</svg>
