<?xml version="1.0" encoding="utf-8"?>
<!-- Generator: Adobe Illustrator 21.0.0, SVG Export Plug-In . SVG Version: 6.00 Build 0)  -->
<svg version="1.1" id="Layer_1" xmlns="http://www.w3.org/2000/svg" xmlns:xlink="http://www.w3.org/1999/xlink" x="0px" y="0px"
	 viewBox="0 0 48.7 41.4" style="enable-background:new 0 0 48.7 41.4;" xml:space="preserve">
<style type="text/css">
	.st0{fill:#999999;}
	.st1{fill:#3CA505;}
	.st2{fill:#FFFFFF;}
</style>
<title>Asset 1</title>
<polygon class="st0" points="35.8,0.2 35.8,41.4 48.7,34.5 48.7,0.2 "/>
<path class="st1" d="M48.7,0H17.1C7.7,0,0,7.7,0,17.1s7.7,17.1,17.1,17.1h31.6V0z"/>
<path class="st2" d="M36.1,7.5H27v3h3v2h-3v2h3v2h-3v2h3v2h-3v2h3v2h-3v3h9.1c0.5,0,0.9-0.4,0.9-0.9c0,0,0,0,0,0V8.3
	C37,7.8,36.6,7.5,36.1,7.5C36.1,7.5,36.1,7.5,36.1,7.5z M35,24.3h-4v-2h4V24.3z M35,20.4h-4v-2h4V20.4z M35,16.4h-4v-2h4V16.4z
	 M35,12.4h-4v-2h4V12.4z"/>
<path class="st2" d="M11.2,7.4v20.1l14.9,2.9V4.5L11.2,7.4z M20.6,22.5l-1.7-3.2c-0.1-0.1-0.1-0.4-0.2-0.6l0,0
	c0,0.2-0.1,0.5-0.2,0.7l-1.7,3.2h-2.7l3.2-5.1l-3-5.1H17l1.5,3c0.1,0.3,0.2,0.6,0.2,0.9l0,0c0-0.3,0.2-0.6,0.4-0.9l1.6-3h2.5l-3,5
	l3.1,5.1H20.6z"/>
</svg>
