<?xml version="1.0" encoding="utf-8"?>
<!-- Generator: Adobe Illustrator 21.0.0, SVG Export Plug-In . SVG Version: 6.00 Build 0)  -->
<svg version="1.1" id="Layer_1" xmlns="http://www.w3.org/2000/svg" xmlns:xlink="http://www.w3.org/1999/xlink" x="0px" y="0px"
	 viewBox="0 0 48.7 41.4" style="enable-background:new 0 0 48.7 41.4;" xml:space="preserve">
<style type="text/css">
	.st0{fill:#999999;}
	.st1{fill:#339900;}
	.st2{fill:#FCFCFC;}
</style>
<title>Asset 1</title>
<polygon class="st0" points="35.8,0.2 35.8,41.4 48.7,34.5 48.7,0.2 "/>
<path class="st1" d="M48.7,0H17.1C7.7,0,0,7.7,0,17.1s7.7,17.1,17.1,17.1h31.6V0z"/>
<path class="st2" d="M16.8,4.3C9.7,4.3,4,9.9,4,17s5.7,12.8,12.8,12.8S29.5,24.1,29.5,17S23.8,4.3,16.8,4.3z M24.9,18.1h-5.6V25
	c0,0.3-0.3,0.5-0.5,0.5h-3.9c-0.3,0-0.5-0.3-0.5-0.5v-6.8H8.6c-0.3,0-0.5-0.4-0.3-0.7l8.1-8.8c0.1-0.1,0.2-0.1,0.3-0.1
	s0.2,0.1,0.3,0.1l8.1,8.8C25.4,17.7,25.2,18.1,24.9,18.1z"/>
</svg>
