<?xml version="1.0" encoding="utf-8"?>
<!-- Generator: Adobe Illustrator 21.0.0, SVG Export Plug-In . SVG Version: 6.00 Build 0)  -->
<svg version="1.1" id="Layer_1" xmlns="http://www.w3.org/2000/svg" xmlns:xlink="http://www.w3.org/1999/xlink" x="0px" y="0px"
	 viewBox="0 0 48.7 41.4" style="enable-background:new 0 0 48.7 41.4;" xml:space="preserve">
<style type="text/css">
	.st0{fill:#999999;}
	.st1{fill:#5C81EA;}
	.st2{fill:none;}
	.st3{fill:#FFFFFF;}
</style>
<title>Asset 1</title>
<polygon class="st0" points="35.8,0.2 35.8,41.4 48.7,34.5 48.7,0.2 "/>
<path class="st1" d="M48.7,0H17.1C7.7,0,0,7.7,0,17.1s7.7,17.1,17.1,17.1h31.6V0z"/>
<rect x="12.8" y="3.8" class="st2" width="17.2" height="22.4"/>
<path class="st3" d="M30.4,8.5H26v2.7h4.4c1.3,0,2.4,0.7,2.4,1.2V24c0,0.5-1.1,1.2-2.4,1.2H13.6c-1.3,0-2.4-0.7-2.4-1.2V12.3
	c0-0.5,1.1-1.2,2.4-1.2H18V8.5h-4.4c-2.8,0-4.9,1.7-4.9,3.8V24c0,2.1,2.1,3.8,4.9,3.8h16.7c2.8,0,4.9-1.7,4.9-3.8V12.3
	C35.3,10.2,33.1,8.5,30.4,8.5z"/>
<path class="st3" d="M26,13.9c-0.4,0-0.7,0.1-0.9,0.4l-1.6,1.6V2.7c0-0.7-0.6-1.3-1.3-1.3c-0.7,0-1.3,0.6-1.3,1.3v13.4l-1.7-1.7
	c-0.5-0.5-1.3-0.5-1.9,0c-0.5,0.5-0.5,1.3,0,1.9l4,4c0.2,0.3,0.6,0.4,0.9,0.4l0,0c0.4,0,0.7-0.1,0.9-0.4l4-4c0.5-0.5,0.5-1.3,0-1.9
	C26.7,14.1,26.4,14,26,13.9z"/>
</svg>
