<?xml version="1.0" encoding="utf-8"?>
<!-- Generator: Adobe Illustrator 21.0.0, SVG Export Plug-In . SVG Version: 6.00 Build 0)  -->
<svg version="1.1" id="Layer_1" xmlns="http://www.w3.org/2000/svg" xmlns:xlink="http://www.w3.org/1999/xlink" x="0px" y="0px"
	 viewBox="0 0 48.7 41.4" style="enable-background:new 0 0 48.7 41.4;" xml:space="preserve">
<style type="text/css">
	.st0{fill:#999999;}
	.st1{fill:#5C81EA;}
	.st2{fill:none;}
	.st3{fill:#FFFFFF;stroke:#FCFAFA;stroke-width:0.9934;stroke-miterlimit:10;}
	.st4{fill:#FFFFFF;}
	.st5{font-family:'MyriadPro-Regular';}
	.st6{font-size:15.8845px;}
	.st7{fill:none;stroke:#FFFDFD;stroke-width:0.9934;stroke-miterlimit:10;}
</style>
<title>Asset 1</title>
<polygon class="st0" points="35.8,0.2 35.8,41.4 48.7,34.5 48.7,0.2 "/>
<path class="st1" d="M48.7,0H17.1C7.7,0,0,7.7,0,17.1s7.7,17.1,17.1,17.1h31.6V0z"/>
<rect x="12.8" y="3.8" class="st2" width="17.2" height="22.4"/>
<path class="st3" d="M31.7,9.3c-0.3,0-0.5,0.2-0.5,0.4c0,0,0,0,0,0.1v16.4h-16V6.7h9.4c0.3,0,0.5-0.2,0.5-0.5s-0.2-0.5-0.5-0.5h-9.9
	c-0.3,0-0.5,0.2-0.5,0.4c0,0,0,0,0,0.1v20.6c0,0.3,0.2,0.5,0.4,0.5c0,0,0,0,0.1,0h17c0.3,0,0.5-0.2,0.5-0.4c0,0,0,0,0-0.1V9.9
	C32.2,9.6,32,9.3,31.7,9.3z"/>
<polyline class="st4" points="24.8,4.9 25.1,9.6 32.8,9.2 24.8,4.9 "/>
<text transform="matrix(1 0 0 1 17.6558 22.5527)" class="st4 st5 st6">+</text>
<text transform="matrix(1 0 0 1 17.6558 22.5527)" class="st7 st5 st6">+</text>
</svg>
