<?xml version="1.0" encoding="utf-8"?>
<!-- Generator: Adobe Illustrator 21.0.0, SVG Export Plug-In . SVG Version: 6.00 Build 0)  -->
<svg version="1.1" id="Layer_1" xmlns="http://www.w3.org/2000/svg" xmlns:xlink="http://www.w3.org/1999/xlink" x="0px" y="0px"
	 viewBox="0 0 48.7 41.4" style="enable-background:new 0 0 48.7 41.4;" xml:space="preserve">
<style type="text/css">
	.st0{fill:#999999;}
	.st1{fill:#0066FF;}
	.st2{fill:none;stroke:#FFFFFF;stroke-width:2;stroke-miterlimit:10;}
	.st3{fill:#FFFFFF;}
</style>
<title>Asset 1</title>
<polygon class="st0" points="35.8,0.2 35.8,41.4 48.7,34.5 48.7,0.2 "/>
<path class="st1" d="M48.7,0H17.1C7.7,0,0,7.7,0,17.1s7.7,17.1,17.1,17.1h31.6V0z"/>
<circle class="st2" cx="18.4" cy="17.3" r="11.3"/>
<path class="st3" d="M29.4,17c0-6.2-5-11.2-11.2-11.2c-6.2,0-11.2,5-11.2,11.2c0,3.1,1.3,6.2,3.6,8.2l0,0l0.4,0.3
	c0.1,0,0.1,0,0.1,0.1l0,0c0.2,0.2,0.4,0.3,0.6,0.5c0.1,0,0.1,0.1,0.2,0.1c0.2,0.2,0.4,0.3,0.7,0.4c0.1,0,0.1,0.1,0.2,0.1
	c0.3,0.1,0.5,0.3,0.8,0.4h0.1c0.9,0.4,1.8,0.7,2.6,0.9h0.1c0.3,0.1,0.6,0.1,0.9,0.1h2c0.3,0,0.6-0.1,0.9-0.1h0.1
	c0.9-0.2,1.8-0.5,2.6-0.8H23c0.2-0.1,0.5-0.2,0.7-0.4c0.1,0,0.1-0.1,0.2-0.1c0.2-0.2,0.5-0.3,0.7-0.4c0.1-0.1,0.2-0.1,0.2-0.2
	c0.2-0.1,0.4-0.2,0.5-0.4l0.1-0.1l0.4-0.3l0,0C28,23.1,29.3,20.1,29.4,17z M8.2,17c0-5.5,4.5-10,10-10s10,4.5,10,10l0,0
	c0,2.8-1.3,5.6-3.4,7.5c-0.1-0.1-0.2-0.2-0.4-0.2l-3.3-1.6c-0.3-0.2-0.5-0.5-0.5-0.8v-1.2l0.3-0.3c0.4-0.6,0.8-1.3,1.1-2
	c0.5-0.2,0.9-0.8,0.9-1.4v-1.5c0-0.4-0.1-0.7-0.4-1V13c0-0.2,0.1-0.4-0.8-1.3c-0.9-0.9-2.3-1.4-3.5-1.3c-1.3-0.1-2.5,0.3-3.5,1.3
	c-0.9,1-0.8,1.1-0.8,1.3v1.8c-0.2,0.3-0.4,0.6-0.4,1v1.5c0,0.5,0.2,0.9,0.6,1.2c0.2,0.9,0.7,1.8,1.3,2.5v1.1c0,0.3-0.2,0.6-0.5,0.8
	l-3.1,1.8c-0.1,0.1-0.2,0.1-0.3,0.2C9.4,22.6,8.3,19.8,8.2,17z"/>
</svg>
