<?xml version="1.0" encoding="utf-8"?>
<!-- Generator: Adobe Illustrator 21.0.0, SVG Export Plug-In . SVG Version: 6.00 Build 0)  -->
<svg version="1.1" id="Layer_1" xmlns="http://www.w3.org/2000/svg" xmlns:xlink="http://www.w3.org/1999/xlink" x="0px" y="0px"
	 viewBox="0 0 48.7 41.4" style="enable-background:new 0 0 48.7 41.4;" xml:space="preserve">
<style type="text/css">
	.st0{fill:#999999;}
	.st1{fill:#5C81EA;}
	.st2{fill:none;}
	.st3{fill:#FFFFFF;stroke:#F9F7F7;stroke-miterlimit:10;}
</style>
<title>Asset 1</title>
<polygon class="st0" points="35.8,0.2 35.8,41.4 48.7,34.5 48.7,0.2 "/>
<path class="st1" d="M48.7,0H17.1C7.7,0,0,7.7,0,17.1s7.7,17.1,17.1,17.1h31.6V0z"/>
<rect x="12.8" y="3.8" class="st2" width="17.2" height="22.4"/>
<g>
	<path class="st3" d="M23.7,5.5c-0.1-0.1-0.3-0.2-0.4-0.2c-0.4,0-0.7,0.3-0.7,0.7v4.3c-4.9,0.2-8.2,1.9-9.9,5.1
		c-1.5,2.8-1.5,6-1.5,8.2v0.5c0,0.3,0.2,0.5,0.5,0.6h0.2c0.2,0,0.4-0.1,0.5-0.3c3.4-5.9,6.2-6.2,10.2-6.2v4.3c0,0.3,0.2,0.5,0.4,0.6
		c0.2,0.1,0.5,0.1,0.7-0.1l9.9-8.2c0.3-0.3,0.3-0.7,0-1L23.7,5.5z M23.9,21.2v-3.6c0-0.2-0.1-0.3-0.2-0.4S23.5,17,23.3,17
		c-2.5,0-4.4,0-6.3,0.9c-1.8,0.9-3.3,2.3-4.4,4c0-2,0.4-4.1,1.3-5.9c1.6-2.9,4.7-4.4,9.4-4.4c0.3,0,0.6-0.3,0.6-0.6V7.4l8.3,6.9
		L23.9,21.2z"/>
</g>
</svg>
