<?xml version="1.0" encoding="utf-8"?>
<!-- Generator: Adobe Illustrator 21.0.0, SVG Export Plug-In . SVG Version: 6.00 Build 0)  -->
<svg version="1.1" id="Layer_1" xmlns="http://www.w3.org/2000/svg" xmlns:xlink="http://www.w3.org/1999/xlink" x="0px" y="0px"
	 viewBox="0 0 48.7 41.4" style="enable-background:new 0 0 48.7 41.4;" xml:space="preserve">
<style type="text/css">
	.st0{fill:#999999;}
	.st1{fill:#FF0000;}
	.st2{fill:#FFFFFF;stroke:#FFFFFF;stroke-width:1.7309;stroke-miterlimit:10;}
</style>
<title>Asset 1</title>
<polygon class="st0" points="35.8,0.2 35.8,41.4 48.7,34.5 48.7,0.2 "/>
<path class="st1" d="M48.7,0H17.1C7.7,0,0,7.7,0,17.1s7.7,17.1,17.1,17.1h31.6V0z"/>
<path class="st2" d="M28.9,17c0,6.6-5.4,12-12,11.9S5,23.5,5,16.9S10.4,5,17,5S29,10.4,28.9,17z M23.2,24.9L9.1,10.7
	c-1.4,1.8-2.2,4-2.1,6.3c0,5.5,4.5,10,10,10.1C19.2,27.1,21.4,26.3,23.2,24.9L23.2,24.9z M27,17c0-5.6-4.5-10.1-10-10.1
	c-2.4,0-4.7,0.9-6.5,2.4l14.2,14.1C26.2,21.7,27,19.4,27,17L27,17z"/>
</svg>
