<?xml version="1.0" encoding="utf-8"?>
<!-- Generator: Adobe Illustrator 21.0.0, SVG Export Plug-In . SVG Version: 6.00 Build 0)  -->
<svg version="1.1" id="Layer_1" xmlns="http://www.w3.org/2000/svg" xmlns:xlink="http://www.w3.org/1999/xlink" x="0px" y="0px"
	 viewBox="0 0 48.7 41.5" style="enable-background:new 0 0 48.7 41.5;" xml:space="preserve">
<style type="text/css">
	.st0{fill:#999999;}
	.st1{fill:#0066FF;}
	.st2{fill:#FFFFFF;stroke:#FFFFFF;stroke-width:2;stroke-miterlimit:10;}
</style>
<title>Asset 1</title>
<polygon class="st0" points="35.8,0.3 35.8,41.5 48.7,34.6 48.7,0.3 "/>
<path class="st1" d="M48.7,0H17.1C7.7,0,0,7.7,0,17.1s7.7,17.1,17.1,17.1h31.6V0z"/>
<g id="Check">
	<path class="st2" d="M27.9,8.9l-6.5,7.6l-3.3,3.8L16.7,22l-0.8,1l-0.3,0.4c-1-0.6-1.9-1.5-2.8-2.2l-3.6-2.8c-1.1-0.8-2.1,1-1.1,1.8
		l6.3,4.8c0.8,0.6,1.5,1.1,2.3,0.3c0.9-0.9,1.7-1.9,2.5-2.9l10.3-12C30.3,9.4,28.8,7.9,27.9,8.9z"/>
</g>
</svg>
