<?xml version="1.0" encoding="utf-8"?>
<!-- Generator: Adobe Illustrator 21.0.0, SVG Export Plug-In . SVG Version: 6.00 Build 0)  -->
<svg version="1.1" id="Layer_1" xmlns="http://www.w3.org/2000/svg" xmlns:xlink="http://www.w3.org/1999/xlink" x="0px" y="0px"
	 viewBox="0 0 48.7 41.4" style="enable-background:new 0 0 48.7 41.4;" xml:space="preserve">
<style type="text/css">
	.st0{fill:#999999;}
	.st1{fill:#5C81EA;}
	.st2{fill:none;}
	.st3{fill:#FFFFFF;}
</style>
<title>Asset 1</title>
<polygon class="st0" points="35.8,0.2 35.8,41.4 48.7,34.5 48.7,0.2 "/>
<path class="st1" d="M48.7,0H17.1C7.7,0,0,7.7,0,17.1s7.7,17.1,17.1,17.1h31.6V0z"/>
<rect x="12.8" y="3.8" class="st2" width="17.2" height="22.4"/>
<path class="st3" d="M35.3,7.1h-9.1v3h3v2h-3v2h3v2h-3v2h3v2h-3v2h3v2h-3v3h9.1c0.5,0,0.9-0.4,0.9-0.9c0,0,0,0,0,0V7.8
	C36.2,7.3,35.9,7,35.3,7.1z M34.3,23.8h-4v-2h4V23.8z M34.3,19.9h-4v-2h4V19.9z M34.3,15.9h-4v-2h4V15.9z M34.3,11.9h-4v-2h4V11.9z"
	/>
<path class="st3" d="M10.5,6.9V27l14.9,2.9V4.1L10.5,6.9z M19.8,22.1l-1.7-3.2c-0.1-0.1-0.1-0.4-0.2-0.6l0,0c0,0.2-0.1,0.5-0.2,0.7
	L16,22.2h-2.7l3.2-5.1l-3-5.1h2.7l1.5,3c0.1,0.3,0.2,0.6,0.2,0.9l0,0c0-0.3,0.2-0.6,0.4-0.9l1.6-3h2.5l-3,5l3.1,5.1H19.8z"/>
</svg>
