<?xml version="1.0" encoding="utf-8"?>
<!-- Generator: Adobe Illustrator 21.0.0, SVG Export Plug-In . SVG Version: 6.00 Build 0)  -->
<svg version="1.1" id="Layer_1" xmlns="http://www.w3.org/2000/svg" xmlns:xlink="http://www.w3.org/1999/xlink" x="0px" y="0px"
	 viewBox="0 0 48.7 41.4" style="enable-background:new 0 0 48.7 41.4;" xml:space="preserve">
<style type="text/css">
	.st0{fill:#999999;}
	.st1{fill:#CC0606;}
	.st2{fill:#FFFFFF;stroke:#FCFCFC;stroke-width:0.6319;stroke-miterlimit:10;}
</style>
<title>Asset 1</title>
<polygon class="st0" points="35.8,0.2 35.8,41.4 48.7,34.5 48.7,0.2 "/>
<path class="st1" d="M48.7,0H17.1C7.7,0,0,7.7,0,17.1s7.7,17.1,17.1,17.1h31.6V0z"/>
<path class="st2" d="M28.7,18.9c-0.4-0.4-1.1-0.5-2.4-0.5c-1,0-2,0.1-2.9,0.3c-0.5-0.3-1-0.6-1.4-1c-1.1-1-1.9-2.3-2.4-3.8
	c0-0.2,0-0.3,0.1-0.4c0.3-1.5,0.4-3,0.4-4.5c0-0.1,0-0.1-0.1-0.3V8.6c-0.1-0.5-0.5-0.8-1-0.8h-0.3c-0.5,0-0.9,0.3-1.1,0.8
	c-0.4,1.3,0,3.2,0.8,5.8l-0.1,0.4c-0.4,1.1-1.1,2.3-1.5,3.3v0.1c-0.5,1.1-1,1.9-1.5,2.8L15,21.5c-0.3,0.2-0.7,0.3-1,0.5
	c-1.5,1-2.7,1.9-2.8,2.9c0,0.3,0.1,0.6,0.3,0.9l0.4,0.3c0.1,0.1,0.4,0.1,0.5,0.1c1.1,0,2.4-1.4,4.2-4.6c2.1-0.7,4.3-1.2,6.5-1.5
	c1.4,0.8,3.1,1.4,4.7,1.5h0.5c0.3,0,0.4-0.1,0.5-0.4c0.3-0.4,0.4-1,0.3-1.5C29,19.1,28.9,19,28.7,18.9L28.7,18.9z M11.8,24.8
	c0.5-1.1,1.3-2,2.3-2.6c0.1,0,0.3-0.3,0.4-0.4C13.9,23,13,24,11.8,24.8L11.8,24.8z M19,8.6c0.4,0,0.5,1,0.5,1.8
	c0,0.7-0.1,1.3-0.4,1.9c-0.2-0.8-0.3-1.5-0.3-2.3C18.7,9.9,18.7,8.6,19,8.6L19,8.6z M16.8,20.1c0.3-0.4,0.5-1,0.8-1.4
	c0.6-1,1-2,1.4-3c0.5,1.1,1.3,2,2.2,2.7c0.1,0.1,0.3,0.1,0.4,0.3C20,19.1,18.4,19.5,16.8,20.1L16.8,20.1z M28.4,19.9
	c-0.2,0-0.5,0.1-0.7,0.1c-0.9-0.1-1.8-0.4-2.6-0.8h1.3c0.5,0,1,0,1.5,0.1C28.4,19.5,28.4,19.9,28.4,19.9L28.4,19.9z M30.3,8.6
	l-3.7-3.7c-1-0.9-2.3-1.4-3.6-1.5H10.3c-1.1,0-2.1,0.9-2.1,2.1v22.8c0,1.1,1,2.1,2.1,2.1h19.4c1.1,0,2.1-1,2.1-2.1V12.1
	C31.7,10.8,31.2,9.6,30.3,8.6z M29,9.7l0.3,0.3H25V5.7c0.1,0.1,0.3,0.1,0.3,0.3L29,9.7z M30,28.3c0,0.3-0.1,0.4-0.4,0.4H10.1
	c-0.3,0-0.4-0.1-0.4-0.4V5.4C9.6,5.1,9.8,5,10.1,5h13.1v6.8H30V28.3L30,28.3z"/>
</svg>
