<?xml version="1.0" encoding="utf-8"?>
<!-- Generator: Adobe Illustrator 21.0.0, SVG Export Plug-In . SVG Version: 6.00 Build 0)  -->
<svg version="1.1" id="Layer_1" xmlns="http://www.w3.org/2000/svg" xmlns:xlink="http://www.w3.org/1999/xlink" x="0px" y="0px"
	 viewBox="0 0 48.7 41.4" style="enable-background:new 0 0 48.7 41.4;" xml:space="preserve">
<style type="text/css">
	.st0{fill:#999999;}
	.st1{fill:#2972C1;}
	.st2{fill:#FFFFFF;stroke:#FFFFFF;stroke-miterlimit:10;}
	.st3{fill:#FFFFFF;stroke:#FFFFFF;stroke-width:0.5;stroke-miterlimit:10;}
</style>
<title>Asset 1</title>
<polygon class="st0" points="35.8,0.2 35.8,41.4 48.7,34.5 48.7,0.2 "/>
<path class="st1" d="M48.7,0H17.1C7.7,0,0,7.7,0,17.1s7.7,17.1,17.1,17.1h31.6V0z"/>
<path class="st2" d="M32.2,18.2c1.3,0,2.3-1,2.3-2.3c0-1.2-1-2.3-2.2-2.3h-0.1c-1.3,0-2.3,1-2.3,2.3C29.9,17.1,30.9,18.2,32.2,18.2
	C32.1,18.2,32.2,18.2,32.2,18.2z M32.2,14.6c0.8,0,1.4,0.6,1.4,1.4s-0.6,1.4-1.4,1.4c-0.8,0-1.4-0.6-1.4-1.4
	C30.8,15.2,31.4,14.6,32.2,14.6L32.2,14.6z"/>
<path class="st2" d="M28.6,23.2H17.7c-0.3,0-0.5,0.2-0.5,0.5s0.2,0.5,0.4,0.5c0,0,0,0,0.1,0h10.9c0.3,0,0.5-0.2,0.5-0.5
	S28.9,23.2,28.6,23.2z"/>
<path class="st2" d="M28.6,25.5H17.7c-0.3,0-0.5,0.2-0.5,0.5s0.2,0.5,0.4,0.5c0,0,0,0,0.1,0h10.9c0.3,0,0.5-0.2,0.5-0.5
	S28.9,25.5,28.6,25.5z"/>
<path class="st3" d="M32.6,11.4V3.7h-19v7.7H9.5v15.4h2.7v1.4h1.4v2.7h19v-2.7H34v-1.4h2.7V11.4H32.6z M14.5,4.7h17.2v6.8H14.5V4.7z
	 M13.6,12.4h22.2v7.2H10.4v-7.2C10.4,12.4,13.6,12.4,13.6,12.4z M13.2,27.3v-3.2c0-0.3-0.2-0.5-0.5-0.5s-0.5,0.2-0.5,0.5v1.8h-1.8
	v-5.4h3.2v6.8H13.2z M31.7,30H14.5v-9.5h17.2V30z M34,25.9v-1.8c0-0.3-0.2-0.5-0.5-0.5S33,23.8,33,24.1v3.2h-0.5v-6.8h3.2v5.4H34z"
	/>
</svg>
