<?xml version="1.0" encoding="utf-8"?>
<!-- Generator: Adobe Illustrator 21.0.0, SVG Export Plug-In . SVG Version: 6.00 Build 0)  -->
<svg version="1.1" id="Layer_1" xmlns="http://www.w3.org/2000/svg" xmlns:xlink="http://www.w3.org/1999/xlink" x="0px" y="0px"
	 viewBox="0 0 50.3 42.6" style="enable-background:new 0 0 50.3 42.6;" xml:space="preserve">
<style type="text/css">
	.st0{fill:#999999;}
	.st1{fill:#339900;}
	.st2{fill:#FFFFFF;}
</style>
<title>Asset 1</title>
<g id="Layer_2">
	<g id="Layer_1-2">
		<polygon class="st0" points="37,0.2 37,42.6 50.3,35.5 50.3,0.2 		"/>
		<path class="st1" d="M50.3,0H17.7C7.9,0,0,7.9,0,17.7c0,9.8,7.9,17.7,17.7,17.7h32.6V0z"/>
		<path class="st2" d="M26.7,3.9c3.6,0.1,5.7,2.2,5.8,5.5c0,0.3,0,0.6,0.2,0.8c0.8,0.9,0.8,2.3-0.1,3.1c-0.1,0.1-0.1,0.1-0.2,0.2
			c-0.3,0.2-0.5,0.5-0.7,0.8c0,0.1,0,0.1-0.1,0.2c-0.7,2-2.7,3.7-4.4,3.7s-3.7-1.7-4.5-3.6c-0.2-0.5-0.6-0.9-1-1.2
			c-0.9-0.8-1-2.2-0.2-3.2c0.2-0.2,0.2-0.5,0.2-0.8c0.1-0.7,0.1-1.5,0.2-2.2c0.1-0.5,0.3-0.9,0.6-1.3C24.1,5.1,25.5,4.5,26.7,3.9z"
			/>
		<path class="st2" d="M30.1,22.6c0.8,0.6,1.5,1.1,2,1.5c-0.2,1.2-0.4,2.3-0.7,3.7c-0.9,0.2-1.7,0.3-2.6,0.3
			c-3.7,0.3-7.4-0.3-10.8-1.7c-0.8-0.4-1.7-0.7-1.7-1.9c0-1.4,0.2-2.8,1.7-3.3s3.2-1.1,4.9-1.7c0.8,1.8,1.5,3.7,2.4,5.8
			c0.4-1.1,0.8-1.9,1-2.7c0.1-0.2-0.2-0.6-0.4-0.8c-0.4-0.7-1-1.4-0.2-2.1c0.5-0.5,2.6-0.5,2.8,0.1c0.2,0.5,0.2,1.1-0.1,1.6
			c-0.7,0.6-0.7,1.7-0.2,2.4c0.2,0.4,0.3,0.8,0.6,1.5C29.4,24.2,29.7,23.4,30.1,22.6z"/>
		<path class="st2" d="M30.6,20.5c1.6-1.2,2.9-2.2,4.4-3.3c0.1,0.8,0.2,1.3,0.3,2c0.7,0.1,1.5,0.1,2.2,0c1-0.1,1.3,0.3,1.3,1.3
			s-0.2,1.4-1.2,1.3c-0.8-0.1-1.5-0.1-2.3,0c-0.1,0.6-0.2,1.2-0.3,2C33.5,22.7,32.2,21.7,30.6,20.5z"/>
		<path class="st2" d="M37.3,30.2c-0.1-0.8-0.2-1.3-0.3-2h-2.6c-1,0-0.9-0.7-0.9-1.3s-0.1-1.3,0.9-1.3H37c0.1-0.7,0.2-1.2,0.3-2
			c1.6,1.2,2.9,2.2,4.4,3.3C40.2,28,38.9,29,37.3,30.2z"/>
	</g>
</g>
</svg>
