<?xml version="1.0" encoding="utf-8"?>
<!-- Generator: Adobe Illustrator 21.0.0, SVG Export Plug-In . SVG Version: 6.00 Build 0)  -->
<svg version="1.1" id="Layer_1" xmlns="http://www.w3.org/2000/svg" xmlns:xlink="http://www.w3.org/1999/xlink" x="0px" y="0px"
	 viewBox="0 0 26.8 22.7" style="enable-background:new 0 0 26.8 22.7;" xml:space="preserve">
<style type="text/css">
	.st0{fill:#999999;}
	.st1{fill:#FF3300;}
	.st2{fill:#FFFFFF;stroke:#FFFFFF;stroke-width:0.5204;stroke-miterlimit:10;}
</style>
<title>Asset 1</title>
<polygon class="st0" points="19.7,0.1 19.7,22.7 26.8,18.9 26.8,0.1 "/>
<path class="st1" d="M26.8,0H9.4C4.2,0,0,4.2,0,9.4s4.2,9.4,9.4,9.4l0,0h17.4V0z"/>
<path class="st2" d="M6.3,2.8C5.7,2.8,5.1,3.3,5.1,4v9.6c0,0.7,0.5,1.2,1.2,1.2l0,0h7.4c0.7,0,1.2-0.6,1.2-1.2l0,0V5.4
	c0-0.1,0-0.1-0.1-0.2l-2.6-2.3c-0.1-0.1-0.1-0.1-0.2-0.1C12,2.8,6.3,2.8,6.3,2.8z M6.3,3.3h5.5v1.8c0,0.1,0.1,0.3,0.1,0.4
	c0.1,0.1,0.2,0.2,0.4,0.2h2v7.9c0,0.4-0.3,0.7-0.7,0.7l0,0H6.3c-0.4,0-0.7-0.3-0.7-0.7l0,0V4C5.7,3.6,6,3.3,6.3,3.3z M12.3,3.7
	l1.6,1.4h-1.6V3.7z M8.4,7.5c-0.3,0-0.5,0.1-0.7,0.3S7.4,8.3,7.4,8.6v3.1c0,0.2,0.1,0.3,0.3,0.3S8,12,8,11.8l0,0V8.6
	c0-0.2,0-0.3,0.1-0.4c0.1-0.1,0.2-0.1,0.3-0.1h2.3c0.1,0,0.2,0,0.3,0.1s0.1,0.3,0.1,0.4v2.8l-0.3-0.9c-0.1-0.1-0.3,0.4-0.4,0.4
	c-0.1,0-0.1,0.3-0.1,0.4l0.8,1.1c0.1,0.1,0.3,0.1,0.4,0.1l0,0l0.1-0.1l0.8-1.1c0.1-0.1,0.1-0.3,0-0.4s-0.3-0.1-0.4,0l0,0l-0.3,0.4
	V8.6c0-0.3-0.1-0.6-0.3-0.8c-0.2-0.2-0.4-0.3-0.7-0.3L8.4,7.5z"/>
</svg>
