<?xml version="1.0" encoding="utf-8"?>
<!-- Generator: Adobe Illustrator 21.0.0, SVG Export Plug-In . SVG Version: 6.00 Build 0)  -->
<svg version="1.1" id="Layer_1" xmlns="http://www.w3.org/2000/svg" xmlns:xlink="http://www.w3.org/1999/xlink" x="0px" y="0px"
	 viewBox="0 0 48.7 41.4" style="enable-background:new 0 0 48.7 41.4;" xml:space="preserve">
<style type="text/css">
	.st0{fill:#999999;}
	.st1{fill:#0066FF;}
	.st2{fill:none;stroke:#FFFFFF;stroke-miterlimit:10;}
	.st3{fill:#FFFFFF;}
	.st4{fill:#FFFFFF;stroke:#FFFFFF;stroke-width:0.2347;stroke-miterlimit:10;}
</style>
<title>Asset 1</title>
<polygon class="st0" points="35.8,0.2 35.8,41.4 48.7,34.5 48.7,0.2 "/>
<path class="st1" d="M48.7,0H17.1C7.7,0,0,7.7,0,17.1s7.7,17.1,17.1,17.1h31.6V0z"/>
<path class="st2" d="M5.5,29.2"/>
<path class="st3" d="M30.8,17.4c-0.2-0.1-0.3,0-0.5,0.1l-1.2,1.2L28,17.4c-0.1-0.1-0.3-0.2-0.5-0.1c-0.2,0.1-0.3,0.2-0.3,0.4
	c0,2.5-1,4.9-2.8,6.7c-1.8,1.8-4.2,2.8-6.7,2.8s-4.9-1-6.7-2.8c-1.8-1.8-2.8-4.2-2.8-6.7s1-4.9,2.8-6.7c1.7-1.7,3.9-2.7,6.3-2.8v1.3
	c0,0,0,0,0,0.1c0,0,0,0,0,0v0c0,0,0,0.1,0.1,0.1c0.1,0.1,0.2,0.2,0.4,0.2c0.1,0,0.2,0,0.2-0.1l5-3.2c0.1-0.1,0.2-0.2,0.2-0.4
	S23.2,6.1,23.1,6l-5-3.2c-0.1-0.1-0.3-0.1-0.4,0c-0.1,0.1-0.2,0.2-0.2,0.4v1.3c-3.4,0.1-6.6,1.5-9,3.9c-2.5,2.5-3.9,5.9-3.9,9.4
	s1.4,6.9,3.9,9.4s5.9,3.9,9.4,3.9s6.9-1.4,9.4-3.9s3.9-5.9,3.9-9.4C31.1,17.6,31,17.4,30.8,17.4z"/>
<path class="st4" d="M33.1,6.1c-0.3-0.5-0.7-1-1.2-1.5c-0.5-0.5-1-0.9-1.5-1.2c-0.6-0.4-1.1-0.4-1.4-0.1l0,0l-2.2,2.2l0,0l0,0l-1,1
	l0,0l0,0L15.4,16.8c0,0,0,0,0,0.1c0,0-0.1,0.1-0.1,0.1c0,0,0,0,0,0c-0.1,0.1-0.1,0.1-0.1,0.2l-1.9,5.5c-0.1,0.1,0,0.3,0.1,0.4
	c0.1,0.1,0.2,0.1,0.3,0.1c0.1,0,0.1,0,0.1,0l5.4-1.8c0.1,0,0.2-0.1,0.2-0.2c0,0,0.1,0,0.1-0.1c0,0,0-0.1,0.1-0.1c0,0,0.1,0,0.1,0
	L30,10.7l0,0l0,0l1-1l0,0l0,0l2.2-2.2l0,0l0,0C33.5,7.2,33.4,6.7,33.1,6.1z M19,20.5C19,20.5,19,20.5,19,20.5
	c-0.2,0-0.8-0.3-1.5-0.9l9.9-9.9c0.3,0.3,0.9,0.8,1.4,1.1L19,20.5z M16,17.4l9.8-9.8c0.2,0.5,0.7,1,0.9,1.3l-9.9,9.9
	C16.2,18.2,15.9,17.6,16,17.4C15.9,17.5,16,17.4,16,17.4z M29.4,10c-0.2-0.1-0.9-0.4-1.8-1.3c-0.8-0.8-1.2-1.5-1.3-1.8l0.3-0.3
	c0,0.1,0.1,0.1,0.1,0.2c0.3,0.5,0.7,1,1.2,1.5c0.5,0.5,1,0.9,1.5,1.2c0.1,0,0.1,0.1,0.2,0.1L29.4,10z M31.2,5.2
	c0.7,0.7,1,1.2,1.2,1.6c-0.3-0.1-0.9-0.5-1.6-1.2s-1-1.2-1.2-1.6C30,4.1,30.6,4.5,31.2,5.2z"/>
</svg>
