<?xml version="1.0" encoding="utf-8"?>
<!-- Generator: Adobe Illustrator 21.0.0, SVG Export Plug-In . SVG Version: 6.00 Build 0)  -->
<svg version="1.1" id="Layer_1" xmlns="http://www.w3.org/2000/svg" xmlns:xlink="http://www.w3.org/1999/xlink" x="0px" y="0px"
	 viewBox="0 0 48.7 41.4" style="enable-background:new 0 0 48.7 41.4;" xml:space="preserve">
<style type="text/css">
	.st0{fill:#999999;}
	.st1{fill:#0066FF;}
	.st2{fill:#FFFFFF;}
	.st3{fill:none;}
</style>
<title>Asset 1</title>
<polygon class="st0" points="35.8,0.2 35.8,41.4 48.7,34.5 48.7,0.2 "/>
<path class="st1" d="M48.7,0H17.1C7.7,0,0,7.7,0,17.1s7.7,17.1,17.1,17.1h31.6V0z"/>
<path class="st2" d="M26.7,23l-2-4.4c-0.1-0.3-0.1-0.7,0.2-0.9c0.2-0.2,0.4-0.2,0.6-0.2h0.1l3.6,1.6l0.1,0.2l0.5,0.2v-9.2
	c0-0.4-0.2-0.8-0.4-1.1l-1.5-2.5c-0.1-0.1-0.3-0.2-0.5-0.2H9.7C9.3,6.5,9,6.8,9,7.2l0,0v19.4c0,0.4,0.3,0.7,0.7,0.7l0,0h19.5
	c0.4,0,0.7-0.3,0.7-0.7l0,0v-0.9l-3-3L26.7,23z M10.6,7.9h17.3v8.7H10.6V7.9z M20,25.3c-2.3,0-4.1-1.8-4.1-4.1s1.8-4.1,4.1-4.1
	s4.1,1.8,4.1,4.1C24.1,23.4,22.3,25.3,20,25.3C20.1,25.3,20,25.3,20,25.3z M13.7,8.9v6.8h10.9V8.9H13.7z M17.8,15.2h-3.4V9.5h3.4
	V15.2z M20,18.9c-1.3,0-2.3,1-2.4,2.3c0,1.3,1.1,2.3,2.4,2.3l0,0c1.2,0,2.3-1,2.3-2.2v-0.1C22.3,19.9,21.3,18.9,20,18.9z M20,22.3
	c-0.6,0-1.1-0.5-1.1-1.1s0.5-1.1,1.1-1.1s1.1,0.5,1.1,1.1S20.6,22.3,20,22.3z M27.3,21.7l3.9,3.9l-0.3,0.3L27,22L27.3,21.7z
	 M31.6,25.3l-3.9-3.9l0.7-0.7l3.9,3.9L31.6,25.3z M32.6,24.2l-3.9-3.9l0.4-0.4l3.9,3.9L32.6,24.2z M26.7,21.7l-0.9-2l0.9-0.9l2,0.9
	L26.7,21.7z M26.5,18.7L26.5,18.7l-0.6,0.7c0,0-0.1,0.1-0.1,0c-0.1,0-0.1,0-0.1-0.1l0,0l-0.5-1.1V18c0.1-0.1,0.1-0.1,0.2,0l0,0
	l1.1,0.5V18.7z M34,25.1l-1.8,1.8C32.1,27,32,27,32,26.9l-0.7-0.7c-0.1-0.1-0.1-0.2,0-0.2l1.8-1.8c0.1-0.1,0.2-0.1,0.2,0l0.7,0.7
	C34.1,25,34.1,25.1,34,25.1z"/>
<rect x="11.1" y="11.8" class="st3" width="16.8" height="14"/>
</svg>
