<?xml version="1.0" encoding="utf-8"?>
<!-- Generator: Adobe Illustrator 21.0.0, SVG Export Plug-In . SVG Version: 6.00 Build 0)  -->
<svg version="1.1" id="Layer_1" xmlns="http://www.w3.org/2000/svg" xmlns:xlink="http://www.w3.org/1999/xlink" x="0px" y="0px"
	 viewBox="0 0 48.7 41.4" style="enable-background:new 0 0 48.7 41.4;" xml:space="preserve">
<style type="text/css">
	.st0{fill:#999999;}
	.st1{fill:#206EAF;}
	.st2{fill:#FFFFFF;}
</style>
<title>Asset 1</title>
<g id="Layer_2">
	<g id="Layer_1-2">
		<polygon class="st0" points="35.8,0.2 35.8,41.4 48.7,34.5 48.7,0.2 		"/>
		<path class="st1" d="M48.7,0H17.1C7.7,0,0,7.7,0,17.1s7.7,17.1,17.1,17.1h31.6V0z"/>
		<rect x="25" y="7.4" class="st2" width="2.3" height="4.8"/>
		<path class="st2" d="M31.4,5H13.1c-0.7,0-1.3,0.5-1.3,1.2c0,0,0,0.1,0,0.1v20c0,0.7,0.5,1.3,1.2,1.3c0,0,0.1,0,0.1,0h20.6
			c0.7,0,1.3-0.5,1.3-1.2c0,0,0-0.1,0-0.1V8.6L31.4,5z M16.4,7.5c0-0.7,0.5-1.1,1.3-1.1h11.5c0.7,0,1.2,0.4,1.3,1.1v4.6
			c0,0.7-0.5,1.1-1.3,1.1H17.6c-0.7,0-1.2-0.4-1.3-1.1L16.4,7.5L16.4,7.5z M31.7,25.1H15.1v-9.7h16.7L31.7,25.1L31.7,25.1z"/>
	</g>
</g>
</svg>
