<?xml version="1.0" encoding="utf-8"?>
<!-- Generator: Adobe Illustrator 21.0.0, SVG Export Plug-In . SVG Version: 6.00 Build 0)  -->
<svg version="1.1" id="Layer_1" xmlns="http://www.w3.org/2000/svg" xmlns:xlink="http://www.w3.org/1999/xlink" x="0px" y="0px"
	 viewBox="0 0 48.7 41.5" style="enable-background:new 0 0 48.7 41.5;" xml:space="preserve">
<style type="text/css">
	.st0{fill:#999999;}
	.st1{fill:#0066FF;}
	.st2{fill:#FFFFFF;}
</style>
<title>Asset 1</title>
<polygon class="st0" points="35.8,0.3 35.8,41.5 48.7,34.6 48.7,0.3 "/>
<path class="st1" d="M48.7,0H17.1C7.7,0,0,7.7,0,17.1s7.7,17.1,17.1,17.1h31.6V0z"/>
<path class="st2" d="M23.7,26.3l-0.3-0.4l2.5-2.5l0.4,0.5L23.7,26.3z"/>
<g>
	<path class="st2" d="M8.2,25.9V7.7c0.4-1.1,1.1-1.8,2.2-2.2h15.7c1.8,1.2,3.3,2.8,4.6,4.6v13.2l-0.4,0.6c-2.4-1.2-2.4-3.5-2.3-5.7
		v-0.1c0-1-0.2-1.2-1.2-1.2H12.1c-1.1,0-1.3,0.2-1.3,1.3V26c0,1.1,0.2,1.3,1.3,1.3h9.7c0.6-0.1,1.2,0.2,1.5,0.8H10.4
		C9.3,27.7,8.6,27,8.2,25.9z M19,14.1h5.2c1.1,0,1.3-0.2,1.3-1.2V7.7c0-1-0.2-1.2-1.3-1.2H13.9c-1.1,0-1.3,0.2-1.3,1.2v5.2
		c0,1.1,0.2,1.2,1.3,1.2H19z"/>
	<path class="st2" d="M30.6,10.1c-1.2-1.8-2.8-3.3-4.5-4.6h4.6L30.6,10.1z"/>
	<path class="st2" d="M23.6,25.5c-1.3-1.1-2.5-2.3-3.6-3.6c-0.6-1.1-1-2.4-1.2-3.6c0,0,0.5-0.4,0.6-0.4c1.7,0.5,3.4,0.6,4.6,2.2
		c0.8,1,1.7,1.8,2.5,2.5L23.6,25.5z M22.4,19.6c-0.8-0.2-1.3-0.4-1.8-0.5s-0.7,0.1-0.6,0.6s0.4,1,0.5,1.8L22.4,19.6z"/>
	<path class="st2" d="M25.4,27.2l2.8-2.8c0.8,0.6,0.8,1.2,0.1,1.9c-0.4,0.4-0.6,0.6-1,1C26.5,28,26.2,28,25.4,27.2z"/>
	<path class="st2" d="M23.7,13.3h-2.4V7.5h2.4V13.3z"/>
</g>
<path class="st2" d="M21.9,20.3l-1.6,1.6c-0.2-0.6-0.3-1-0.4-1.5s0.1-0.6,0.5-0.5S21.2,20.1,21.9,20.3z"/>
</svg>
