<?xml version="1.0" encoding="utf-8"?>
<!-- Generator: Adobe Illustrator 21.0.0, SVG Export Plug-In . SVG Version: 6.00 Build 0)  -->
<svg version="1.1" id="Layer_1" xmlns="http://www.w3.org/2000/svg" xmlns:xlink="http://www.w3.org/1999/xlink" x="0px" y="0px"
	 viewBox="0 0 48.7 41.4" style="enable-background:new 0 0 48.7 41.4;" xml:space="preserve">
<style type="text/css">
	.st0{fill:#999999;}
	.st1{fill:#339900;}
	.st2{fill:#FFFFFF;}
</style>
<title>Asset 1</title>
<g id="Layer_2">
	<g id="Layer_1-2">
		<polygon class="st0" points="35.8,0.2 35.8,41.4 48.7,34.5 48.7,0.2 		"/>
		<path class="st1" d="M48.7,0H17.1C7.7,0,0,7.7,0,17.1s7.7,17.1,17.1,17.1h31.6V0z"/>
		<path class="st2" d="M22.3,25.8h9.6c1.6,0,2.8-1.5,2.8-3.5v-12c0-1.8-1.3-3.4-2.8-3.4H10.8C9.2,6.9,8,8.4,8,10.3v12
			c0,1.9,1.3,3.5,2.8,3.5h9.8 M33,22.3c0.1,0.7-0.4,1.3-1.1,1.4H10.8c-0.7-0.1-1.2-0.7-1.2-1.4v-12C9.5,9.6,10,9,10.8,8.9h21.1
			c0.7,0.1,1.2,0.7,1.2,1.4l0,0L33,22.3z"/>
		<path class="st2" d="M19.3,11.2h-7.1c-0.5,0-0.8,0.4-0.8,1v7.9c0,0.6,0.3,1,0.8,1h7.1c0.5,0,0.8-0.4,0.8-1v-7.9
			C20.2,11.7,19.8,11.3,19.3,11.2z M18.5,19.2H13v-5.9h5.4L18.5,19.2z"/>
		<path class="st2" d="M30.4,11.2h-7.1c-0.5,0-0.8,0.4-0.8,1v7.9c0,0.6,0.3,1,0.8,1h7.1c0.5,0,0.8-0.4,0.8-1v-7.9
			C31.2,11.6,30.9,11.2,30.4,11.2z M29.5,19.2h-5.4v-5.9h5.4V19.2z"/>
	</g>
</g>
</svg>
