<?xml version="1.0" encoding="utf-8"?>
<!-- Generator: Adobe Illustrator 21.0.0, SVG Export Plug-In . SVG Version: 6.00 Build 0)  -->
<svg version="1.1" id="Layer_1" xmlns="http://www.w3.org/2000/svg" xmlns:xlink="http://www.w3.org/1999/xlink" x="0px" y="0px"
	 viewBox="0 0 48.7 41.4" style="enable-background:new 0 0 48.7 41.4;" xml:space="preserve">
<style type="text/css">
	.st0{fill:#999999;}
	.st1{fill:#FF9900;}
	.st2{clip-path:url(#SVGID_2_);}
	.st3{fill:#F5F8FC;}
	.st4{fill:#F7F8F9;}
	.st5{fill:#FCFCFC;}
</style>
<title>Asset 2</title>
<polygon class="st0" points="35.8,0.2 35.8,41.4 48.7,34.5 48.7,0.2 "/>
<path class="st1" d="M48.7,0H17.1C7.7,0,0,7.7,0,17.1s7.7,17.1,17.1,17.1h31.6V0z"/>
<g>
	<g>
		<defs>
			<rect id="SVGID_1_" x="6.1" y="5.9" width="35.3" height="20"/>
		</defs>
		<clipPath id="SVGID_2_">
			<use xlink:href="#SVGID_1_"  style="overflow:visible;"/>
		</clipPath>
		<g class="st2">
			<path class="st3" d="M30.6,13.2v2.7c0,0.5,0.3,1,0.5,1.4v0.9c0,0.4,0.4,0.8,0.8,0.8c0.4,0,0.8-0.4,0.8-0.8v-1.3
				c0-0.3-0.1-0.5-0.4-0.6C32.2,16.2,32,16,32,15.9v-2.7c0-1,0.8-1.8,1.6-1.8c0,0,0,0,0.1,0h0.6c1,0,1.8,0.8,1.8,1.6c0,0,0,0,0,0.1
				v2.7c0,0.1-0.1,0.4-0.3,0.4c-0.3,0.1-0.4,0.4-0.4,0.6v2.7c0,0.4,0.1,0.6,0.5,0.8c1.4,0.6,2.5,1.4,3.7,2.4
				c0.1,0.1,0.3,0.3,0.3,0.5v1.1h-5.1c-0.4,0-0.8,0.4-0.8,0.8c0,0.4,0.4,0.8,0.8,0.8h5.7c0.4,0,0.8-0.4,0.8-0.8v-1.9
				c0-0.6-0.3-1.1-0.8-1.5c-1.1-0.9-2.4-1.8-3.7-2.4v-1.9c0.4-0.4,0.5-0.9,0.5-1.4v-2.7c0-1.8-1.4-3.2-3.2-3.2l0,0h-0.6
				C32,10.2,30.6,11.5,30.6,13.2L30.6,13.2z"/>
		</g>
	</g>
	<path class="st4" d="M6.9,25.8h5.8c0.4,0,0.8-0.4,0.8-0.8c0-0.4-0.4-0.8-0.8-0.8H7.6v-1.1c0-0.3,0.1-0.4,0.3-0.5
		c1.1-0.9,2.4-1.8,3.7-2.4c0.3-0.1,0.5-0.4,0.5-0.8v-2.7c0-0.3-0.1-0.5-0.4-0.6c-0.1-0.1-0.3-0.3-0.3-0.4v-2.7c0-1,0.8-1.8,1.6-1.8
		c0,0,0,0,0.1,0h0.6c1,0,1.8,0.8,1.8,1.6c0,0,0,0,0,0.1v2.7c0,0.1-0.1,0.4-0.3,0.4c-0.3,0.1-0.4,0.4-0.4,0.6v1.3
		c0,0.4,0.4,0.8,0.8,0.8s0.8-0.4,0.8-0.8v-1c0.4-0.4,0.5-0.9,0.5-1.4V13c0-1.8-1.4-3.2-3.2-3.2l0,0h-0.6c-1.8,0-3.2,1.4-3.2,3.2l0,0
		v2.7c0,0.5,0.3,1,0.5,1.4v1.9c-1.3,0.6-2.5,1.5-3.7,2.4c-0.5,0.4-0.8,0.9-0.8,1.5V25C6.1,25.4,6.4,25.8,6.9,25.8L6.9,25.8z"/>
	<path class="st5" d="M28,13.4V9.8c0-2.2-1.8-3.9-3.9-3.9h-0.8c-2.2,0-3.9,1.8-3.9,3.9v3.5c0,0.6,0.3,1.3,0.8,1.6v2.7
		c-1.8,0.9-3.4,1.9-4.8,3.2c-0.5,0.5-0.9,1.1-0.9,1.9V25c0,0.4,0.4,0.8,0.8,0.8h17.1c0.4,0,0.8-0.4,0.8-0.8v-2.4
		c0-0.8-0.4-1.4-0.9-1.9c-1.5-1.1-3.2-2.3-4.8-3.2v-2.7C27.7,14.5,28,14,28,13.4z M31.3,21.8c0.3,0.1,0.4,0.5,0.4,0.8v1.6H16v-1.6
		c0-0.3,0.1-0.6,0.4-0.8c1.5-1.1,3.2-2.3,4.8-3.2c0.3-0.1,0.5-0.4,0.5-0.8v-3.4c0-0.3-0.1-0.5-0.4-0.6c-0.3-0.1-0.4-0.5-0.4-0.8V9.8
		c0-1.3,1.1-2.4,2.4-2.4l0,0h0.8c1.3,0,2.4,1.1,2.4,2.4v3.5c0,0.3-0.1,0.5-0.4,0.8c-0.3,0.1-0.4,0.4-0.4,0.6v3.4
		c0,0.4,0.3,0.6,0.5,0.8C28,19.7,29.8,20.6,31.3,21.8z"/>
</g>
</svg>
