<?xml version="1.0" encoding="utf-8"?>
<!-- Generator: Adobe Illustrator 21.0.0, SVG Export Plug-In . SVG Version: 6.00 Build 0)  -->
<svg version="1.1" id="Layer_1" xmlns="http://www.w3.org/2000/svg" xmlns:xlink="http://www.w3.org/1999/xlink" x="0px" y="0px"
	 viewBox="0 0 48.7 41.4" style="enable-background:new 0 0 48.7 41.4;" xml:space="preserve">
<style type="text/css">
	.st0{fill:#999999;}
	.st1{fill:#339933;}
	.st2{clip-path:url(#SVGID_2_);}
	.st3{fill:#FFFFFF;}
</style>
<title>Asset 2</title>
<g id="Layer_2">
	<g id="Layer_1-2">
		<polygon class="st0" points="35.8,0.2 35.8,41.4 48.7,34.5 48.7,0.2 		"/>
		<path class="st1" d="M48.7,0H17.1C7.7,0,0,7.7,0,17.1s7.7,17.1,17.1,17.1h31.6V0z"/>
		<g>
			<g>
				<defs>
					<rect id="SVGID_1_" x="8.9" y="7.8" width="21.8" height="20.2"/>
				</defs>
				<clipPath id="SVGID_2_">
					<use xlink:href="#SVGID_1_"  style="overflow:visible;"/>
				</clipPath>
				<g class="st2">
					<path class="st3" d="M30.6,7.9c-0.1-0.1-0.2-0.1-0.4-0.1L9,17.6c-0.1,0.1-0.2,0.2-0.2,0.3s0.1,0.2,0.2,0.3l6,2.9
						c0.1,0.1,0.2,0,0.3,0L26.9,12l-10.4,9.5c-0.1,0.1-0.1,0.2-0.1,0.3l0.5,5.9c0,0.1,0.1,0.2,0.2,0.3h0.1c0.1,0,0.2,0,0.2-0.1
						l3.2-3.7l3.9,1.9h0.3c0.1,0,0.2-0.1,0.2-0.2l5.5-17.7C30.7,8.1,30.7,8,30.6,7.9z"/>
				</g>
			</g>
		</g>
	</g>
</g>
</svg>
