<?xml version="1.0" encoding="utf-8"?>
<!-- Generator: Adobe Illustrator 21.0.0, SVG Export Plug-In . SVG Version: 6.00 Build 0)  -->
<svg version="1.1" id="Layer_1" xmlns="http://www.w3.org/2000/svg" xmlns:xlink="http://www.w3.org/1999/xlink" x="0px" y="0px"
	 viewBox="0 0 48.7 41.4" style="enable-background:new 0 0 48.7 41.4;" xml:space="preserve">
<style type="text/css">
	.st0{fill:#999999;}
	.st1{fill:#0066FF;}
	.st2{fill:none;}
	.st3{fill:#FFFFFF;stroke:#FFFFFF;stroke-miterlimit:10;}
	.st4{fill:#FFFFFF;}
</style>
<title>Asset 1</title>
<polygon class="st0" points="35.8,0.2 35.8,41.4 48.7,34.5 48.7,0.2 "/>
<path class="st1" d="M48.7,0H17.1C7.7,0,0,7.7,0,17.1s7.7,17.1,17.1,17.1h31.6V0z"/>
<rect x="12.8" y="3.8" class="st2" width="17.2" height="22.4"/>
<path class="st3" d="M38.7,16.6c-4.6-5.5-9.5-8.2-14.6-8.1c-8.2,0.2-13.9,7.8-14.2,8.1l0,0v0.1l0,0v0.6l0,0v0.1l0,0
	c0.2,0.3,5.9,7.9,14.2,8.1h0.4c5,0,9.7-2.7,14.2-8.1c0.1-0.1,0.2-0.3,0.2-0.5S38.8,16.8,38.7,16.6z M24.2,24.2
	c-6.4-0.2-11.3-5.5-12.6-7.1c1.3-1.6,6.2-6.9,12.6-7.1c4.5-0.1,8.8,2.3,12.9,7.1C33,21.9,28.7,24.3,24.2,24.2z"/>
<path class="st4" d="M24.7,12.1c-2.8,0-5,2.2-5,5s2.2,5,5,5s5-2.2,5-5S27.5,12.1,24.7,12.1z M24.7,20.6c-1.9,0-3.5-1.6-3.5-3.5
	s1.6-3.5,3.5-3.5s3.5,1.6,3.5,3.5S26.6,20.6,24.7,20.6z"/>
</svg>
