<?xml version="1.0" encoding="utf-8"?>
<!-- Generator: Adobe Illustrator 21.0.0, SVG Export Plug-In . SVG Version: 6.00 Build 0)  -->
<svg version="1.1" id="Layer_1" xmlns="http://www.w3.org/2000/svg" xmlns:xlink="http://www.w3.org/1999/xlink" x="0px" y="0px"
	 viewBox="0 0 48.7 41.4" style="enable-background:new 0 0 48.7 41.4;" xml:space="preserve">
<style type="text/css">
	.st0{fill:#999999;}
	.st1{fill:#0066FF;}
	.st2{fill:#FFFFFF;}
</style>
<title>Asset 1</title>
<polygon class="st0" points="35.8,0.2 35.8,41.4 48.7,34.5 48.7,0.2 "/>
<path class="st1" d="M48.7,0H17.1C7.7,0,0,7.7,0,17.1s7.7,17.1,17.1,17.1h31.6V0z"/>
<rect x="20.5" y="16.5" class="st2" width="10.1" height="1.8"/>
<path class="st2" d="M11.3,28.2h11c1.9,0,3.4-1.4,3.6-3.3v-4.4h-2.5v3.4c0,1.2,0.2,1-1.1,1h-10c-1.3,0-1.1-1-1.1-2.2v-11
	c0-1.2-0.2-2.2,1.1-2.2h10c1.3,0,1.1,1,1.1,2.2v3l2.4-1V9.3c0-1.9-1.6-3.3-3.5-3.3H11.4C9.6,6,8,7.4,7.9,9.3v15.5
	C7.9,26.8,9.4,28.2,11.3,28.2L11.3,28.2z"/>
<polygon class="st2" points="28,21.4 26.7,20.2 29.9,17 26.7,13.9 28,12.7 32.2,17 "/>
</svg>
