<?xml version="1.0" encoding="utf-8"?>
<!-- Generator: Adobe Illustrator 21.0.0, SVG Export Plug-In . SVG Version: 6.00 Build 0)  -->
<svg version="1.1" id="Layer_1" xmlns="http://www.w3.org/2000/svg" xmlns:xlink="http://www.w3.org/1999/xlink" x="0px" y="0px"
	 viewBox="0 0 48.7 41.4" style="enable-background:new 0 0 48.7 41.4;" xml:space="preserve">
<style type="text/css">
	.st0{fill:#999999;}
	.st1{fill:#339900;}
	.st2{fill:#FFFFFF;stroke:#FFFFFF;stroke-miterlimit:10;}
	.st3{fill:#FBFBFB;stroke:#FFFFFF;stroke-miterlimit:10;}
</style>
<title>Asset 1</title>
<polygon class="st0" points="35.8,0.2 35.8,41.4 48.7,34.5 48.7,0.2 "/>
<path class="st1" d="M48.7,0H17.1C7.7,0,0,7.7,0,17.1s7.7,17.1,17.1,17.1h31.6V0z"/>
<path class="st2" d="M29.4,16.9c0,6.2-5,11.2-11.2,11.2S7,23.1,7,16.9S12,5.7,18.2,5.7C24.3,5.8,29.3,10.8,29.4,16.9 M31.3,16.9
	c0-7.2-5.9-13.1-13.1-13.1S5.1,9.7,5.1,16.9S11,30,18.2,30S31.3,24.2,31.3,16.9L31.3,16.9z"/>
<path class="st3" d="M24.3,13.8V17H13.7l2.9-2.9L15.5,13l-4.8,4.8l4.8,4.8l1.1-1.1l-2.9-2.9h12.2v-4.8
	C25.9,13.8,24.3,13.8,24.3,13.8z"/>
</svg>
