<?xml version="1.0" encoding="utf-8"?>
<!-- Generator: Adobe Illustrator 21.0.0, SVG Export Plug-In . SVG Version: 6.00 Build 0)  -->
<svg version="1.1" id="Layer_1" xmlns="http://www.w3.org/2000/svg" xmlns:xlink="http://www.w3.org/1999/xlink" x="0px" y="0px"
	 viewBox="0 0 48.7 41.4" style="enable-background:new 0 0 48.7 41.4;" xml:space="preserve">
<style type="text/css">
	.st0{fill:#999999;}
	.st1{fill:#3366FF;}
	.st2{clip-path:url(#SVGID_2_);}
	.st3{fill:#FFFFFF;}
</style>
<title>Asset 1</title>
<polygon class="st0" points="35.8,0.2 35.8,41.4 48.7,34.5 48.7,0.2 "/>
<path class="st1" d="M48.7,0H17.1C7.7,0,0,7.7,0,17.1s7.7,17.1,17.1,17.1h31.6V0z"/>
<g>
	<g>
		<defs>
			<rect id="SVGID_1_" x="7.5" y="7.1" width="23.2" height="23.2"/>
		</defs>
		<clipPath id="SVGID_2_">
			<use xlink:href="#SVGID_1_"  style="overflow:visible;"/>
		</clipPath>
		<g class="st2">
			<path class="st3" d="M26.2,9.7c-1.2-1.2-2.6-2.1-4.2-2.6v3.3c3.9,1.9,5.5,6.6,3.6,10.5c-1.9,4-6.6,5.5-10.5,3.6S9.6,18,11.5,14
				c0.4-0.8,0.9-1.5,1.5-2.1l0,0l1.9,1.9V8H9.2L11,9.9l0,0C6.8,14.3,6.8,21,11,25.4c4.2,4.2,11,4.3,15.3,0.1l0.1-0.1
				C30.5,20.9,30.5,14,26.2,9.7z"/>
		</g>
	</g>
</g>
</svg>
