<?xml version="1.0" encoding="utf-8"?>
<!-- Generator: Adobe Illustrator 21.0.0, SVG Export Plug-In . SVG Version: 6.00 Build 0)  -->
<svg version="1.1" id="Layer_1" xmlns="http://www.w3.org/2000/svg" xmlns:xlink="http://www.w3.org/1999/xlink" x="0px" y="0px"
	 viewBox="0 0 48.7 41.4" style="enable-background:new 0 0 48.7 41.4;" xml:space="preserve">
<style type="text/css">
	.st0{fill:#999999;}
	.st1{fill:#3366FF;}
	.st2{fill:#FFFFFF;}
</style>
<title>Asset 1</title>
<g id="Layer_2">
	<g id="Layer_1-2">
		<polygon class="st0" points="35.8,0.2 35.8,41.4 48.7,34.5 48.7,0.2 		"/>
		<path class="st1" d="M48.7,0H17.1C7.7,0,0,7.7,0,17.1s7.7,17.1,17.1,17.1h31.6V0z"/>
		<path class="st2" d="M19.2,18.1c-0.2-0.1-0.3-0.3-0.3-0.5v-7.5h-2.5c-0.4,0-0.5-0.2-0.2-0.5C17.6,7.8,19,6,20.5,4.2
			c0.5-0.6,0.7-0.6,1.2,0l4.5,5.2c0.1,0.1,0.1,0.3,0.2,0.4c-0.1,0.1-0.3,0.1-0.4,0.1h-2.5v7.7c0,0.2-0.1,0.4-0.3,0.5L19.2,18.1
			L19.2,18.1z"/>
		<path class="st2" d="M9.7,18.5h3.2v5.2h16.6v-5.2h3.2v6.6c0.1,0.9-0.6,1.6-1.5,1.7H11.4c-0.8,0.1-1.5-0.4-1.7-1.1
			c0-0.2-0.1-0.3-0.1-0.5v-6.5C9.7,18.6,9.7,18.5,9.7,18.5z"/>
	</g>
</g>
</svg>
