<?xml version="1.0" encoding="utf-8"?>
<!-- Generator: Adobe Illustrator 21.0.0, SVG Export Plug-In . SVG Version: 6.00 Build 0)  -->
<svg version="1.1" id="Layer_1" xmlns="http://www.w3.org/2000/svg" xmlns:xlink="http://www.w3.org/1999/xlink" x="0px" y="0px"
	 viewBox="0 0 48.7 41.4" style="enable-background:new 0 0 48.7 41.4;" xml:space="preserve">
<style type="text/css">
	.st0{fill:#999999;}
	.st1{fill:#339900;}
	.st2{fill:#FFFFFF;}
</style>
<title>Asset 1</title>
<g id="Layer_2">
	<g id="Layer_1-2">
		<polygon class="st0" points="35.8,0.2 35.8,41.4 48.7,34.5 48.7,0.2 		"/>
		<path class="st1" d="M48.7,0H17.1C7.7,0,0,7.7,0,17.1s7.7,17.1,17.1,17.1h31.6V0z"/>
		<path class="st2" d="M27.4,7.7c-0.9-0.8-2.3-0.6-3.1,0.3l0,0l-8.6,12.9L12,17.2c-0.7-0.8-1.8-0.8-2.6-0.2
			c-0.8,0.7-0.8,1.8-0.2,2.6l0.2,0.2l5.6,5.6c0.6,0.6,1.6,0.8,2.3,0.3c0.3-0.1,0.6-0.4,0.8-0.6l9.5-14.4C28.5,9.8,28.3,8.5,27.4,7.7
			C27.4,7.7,27.4,7.7,27.4,7.7L27.4,7.7L27.4,7.7z"/>
	</g>
</g>
</svg>
