<svg xmlns="http://www.w3.org/2000/svg" viewBox="0 0 52.33 45.52"><defs><style>.cls-1{fill:#fff;}</style></defs><title>Asset 9</title><g id="Layer_2" data-name="Layer 2"><g id="Layer_1-2" data-name="Layer 1"><path class="cls-1" d="M51.94,44.64c-2.61-3.15-2-7.44-1.36-9.75a12.18,12.18,0,0,0,.91-4.59,12.67,12.67,0,0,0-2.74-7.77C47.08,33,36.73,41,24.15,41.25a18.5,18.5,0,0,0,10.64,3.26,18.91,18.91,0,0,0,8.13-1.8,19.38,19.38,0,0,0,8.29,2.82c2,0,.73-.88.73-.88"/><path class="cls-1" d="M46.87,19.56C46.87,8.77,36.47,0,23.68,0S.49,8.77.49,19.56a16.72,16.72,0,0,0,1.24,6.26c1,3.52,1.9,9.85-1.74,14.75a27.13,27.13,0,0,0,11.27-3.89l.51-.34.55.26a26.56,26.56,0,0,0,11.34,2.52c12.78,0,23.19-8.78,23.19-19.56"/></g></g></svg>