<svg xmlns="http://www.w3.org/2000/svg" viewBox="0 0 43.64 49.49"><defs><style>.cls-1{fill:#fff;}</style></defs><title>Asset 3</title><g id="Layer_2" data-name="Layer 2"><g id="Layer_1-2" data-name="Layer 1"><path class="cls-1" d="M24.65,26c1.1-.23,2.11-1.14,2.27-3.15.14-1.64-.29-2.49-.91-2.92,1.73-7-3-8.43-3-8.43s-3.56-6-10.51-1.8a12.42,12.42,0,0,0-3.08,2.64C8.06,13.69,7.17,16,7,19.65c-.85.32-1.52,1.14-1.35,3.15S6.95,25.8,8.1,26c1.56,3.79,4.63,6.91,8.27,6.91s6.72-3.14,8.28-6.94m-8.28,5.17c-4.21,0-7.59-5.71-7.59-10.44,0-.65,0-1.25.06-1.81,6.15.27,9.79-2.2,11.77-4.34a13.81,13.81,0,0,1,3.35,6v.15c0,4.73-3.38,10.44-7.59,10.44"/><path class="cls-1" d="M14,38.28l.49-2a1.18,1.18,0,0,1,.34-.58l-.15-.11L10.29,32l-2.65.62A9.61,9.61,0,0,0,0,41.77v5.7a2.12,2.12,0,0,0,2.19,2H13.4l1.71-9.74A1.19,1.19,0,0,1,14,38.28"/><path class="cls-1" d="M24.93,32.59,22.32,32,18,35.57l-.15.11a1.18,1.18,0,0,1,.34.59l.49,2a1.19,1.19,0,0,1-1.15,1.47l1.71,9.74h11.2a2,2,0,0,0,2.1-2v-5.7a9.57,9.57,0,0,0-7.59-9.18"/><path class="cls-1" d="M32.17,13s.49,1.32.36,1.32a7,7,0,0,0-.9,1.15l1,1.61,1.71-.68.81.68.13,1.49,2,.3.6-1.32.9-.21,1.37.77,1.49-1-.43-1.4.43-.85,1.62-.34.34-2-1.49-.68-.13-1,.81-1.19L41.63,7.91l-1.49.57-.85-.57-.21-1.34-2-.25-.68,1.32-.94.27-1.2-.83-1.58.83.46,1.42-.58,1-1.46.24-.21,2Zm5.1-3.16a2.82,2.82,0,0,1,2.88,2.75,2.89,2.89,0,0,1-5.76,0,2.81,2.81,0,0,1,2.88-2.75m-8,8.88,1.15-1.33-.71-1.18.53-.76,1.23-.73-.36-1.57-1.28-.34L29.49,12,30,10.77l-1.34-1.2-1.06.64L26.7,10,26.22,8.6l-1.9.19L24,10.05l-.76.49-1.36-.63-1.22,1.44.72,1.32-.34.79L19.8,14,20,15.63l1.34.49.38.74L21.13,18l1.39,1.2,1.11-.79,1,.16.54,1.58,1.73-.25.27-1.3,1-.47Zm-2.06-2.39A2.58,2.58,0,0,1,23.62,16a2.54,2.54,0,0,1,.21-3.6,2.58,2.58,0,0,1,3.62.36,2.54,2.54,0,0,1-.21,3.6M34.18,3.56l-.58-1.38-1.17.09L32,1.58,32,.38,30.61.05l-.74.84-.76,0L28.35,0,26.93.56l.09,1-.53.59L25.26,2l-.57,1.51.83.74L25.6,5l-1,.79.64,1.46,1.28,0L27,7.8,27,8.93l1.31.48.88-.83h.71l.7.88L32,8.86l-.18-1.14.48-.66,1.41.19.46-1.4a5.58,5.58,0,0,0-.89-.69c-.1,0,0-.92,0-.92Zm-2.61.65a2.23,2.23,0,0,1-4.32,1.07,2.23,2.23,0,0,1,4.32-1.07"/></g></g></svg>