<svg xmlns="http://www.w3.org/2000/svg" viewBox="0 0 52.8 30"><defs><style>.cls-1{fill:#fff;}</style></defs><title>Asset 1</title><g id="Layer_2" data-name="Layer 2"><g id="Layer_1-2" data-name="Layer 1"><path class="cls-1" d="M25.2,0a25.63,25.63,0,0,0-15,5L13,8.89a1.2,1.2,0,1,1-1.94,1.39L8.39,6.52A25.15,25.15,0,0,0,.84,19.79H5.46a1.2,1.2,0,1,1,0,2.4H.39A37.53,37.53,0,0,0,.07,30l20.34-.08a6,6,0,0,1,8.38-5.46L41.64,14.7,31.9,27.6a6.18,6.18,0,0,1,.49,2.33L52.73,30a37.4,37.4,0,0,0-.32-7.81H47.34a1.2,1.2,0,0,1-.11-2.4H52A25,25,0,0,0,44.39,6.54l-2.66,3.73a1.2,1.2,0,1,1-1.94-1.39L42.54,5A27,27,0,0,0,27.6,0V4.81a1.2,1.2,0,1,1-2.39,0c0-1.57,0-3.61,0-4.81m1.14,26.38a3.62,3.62,0,0,0-3.53,3.55c2.39,0,4.79,0,7.18,0a3.35,3.35,0,0,0-3.65-3.55"/></g></g></svg>