<svg xmlns="http://www.w3.org/2000/svg" viewBox="0 0 40 40"><defs><style>.cls-1{fill:#fff;}</style></defs><title>Asset 5</title><g id="Layer_2" data-name="Layer 2"><g id="Layer_1-2" data-name="Layer 1"><path class="cls-1" d="M39.93,19.4l-4-11.85a1.3,1.3,0,0,0-1.23-.88h-4v-4A2.67,2.67,0,0,0,28,0H12A2.67,2.67,0,0,0,9.33,2.67v4h-4a1.3,1.3,0,0,0-1.23.88l-4,11.84a1.32,1.32,0,0,0-.07.42v17.5A2.67,2.67,0,0,0,2.67,40H37.33A2.67,2.67,0,0,0,40,37.33V19.83a1.33,1.33,0,0,0-.07-.43M9.33,20H2.68L6.21,9.33H9.33Zm20,0a2.67,2.67,0,0,0-2.67,2.67V24H13.33V22.67A2.67,2.67,0,0,0,10.67,20V2.67A1.34,1.34,0,0,1,12,1.33H28a1.34,1.34,0,0,1,1.33,1.33Zm1.33,0V9.3h3L37.31,20Z"/><path class="cls-1" d="M24.67,13.33H15.33a.67.67,0,1,0,0,1.33h9.33a.67.67,0,1,0,0-1.33"/></g></g></svg>