<svg xmlns="http://www.w3.org/2000/svg" viewBox="0 0 47.12 36.89"><defs><style>.cls-1{fill:#fff;}</style></defs><title>Asset 7</title><g id="Layer_2" data-name="Layer 2"><g id="Layer_1-2" data-name="Layer 1"><path class="cls-1" d="M32.57,22.59a11.76,11.76,0,0,0,0-10.6,11.34,11.34,0,0,0-6.29-5.65V0H0V36.89H26.31V28.33a7,7,0,0,0,1.3-.6,11.24,11.24,0,0,0,3-2.28l14.59,9.92,1.93-2.91ZM24.11,34.67H2.19V2.21H24.11V5.81c-.33-.06-.71-.12-1.1-.17V4.05H3.29V5.71h16.9a8.17,8.17,0,0,0-2,.55c-.22.12-.82.38-1.22.59s-.65.32-1,.52H3.29V9H14.15l-.54.55c-.29.37-.55.74-.8,1.11H3.29v1.66h8.59c-.09.18-.18.37-.25.55-.22.55-.4.55-.55,1.11H3.29v1.66h7.48a13.41,13.41,0,0,0-.1,1.66H3.29V19h7.49a13.11,13.11,0,0,0,.33,1.66H3.29v1.66h8.47a10.25,10.25,0,0,0,1,1.66H3.29v1.66h11a22.61,22.61,0,0,0,2.2,1.66H3.29V29H20.55a15,15,0,0,0,1.67.08l.25,0a12.67,12.67,0,0,0,1.64-.15v5.8Zm0-9.37v-.22H20.18a3.92,3.92,0,0,1-3.07-1.66h7V20.66H14.78A9.67,9.67,0,0,1,14.3,19c0-.18-.06-.37-.08-.55h9.9V15.12h-9.7a3.89,3.89,0,0,1,.11-.47c.06-.2.12-.42.22-.64s.16-.38.25-.55h9.12V10.14H18.55a6.83,6.83,0,0,1,3.68-1,7.62,7.62,0,0,1,1.88.2,10.27,10.27,0,0,1,2.19.8V24.49a9.37,9.37,0,0,1-2.19.81m5.48-4.24V13.61a8.24,8.24,0,0,1,0,7.45"/><rect class="cls-1" x="3.29" y="30.62" width="19.73" height="1.66"/></g></g></svg>