<svg xmlns="http://www.w3.org/2000/svg" viewBox="0 0 35.91 44.89"><defs><style>.cls-1{fill:#fff;}</style></defs><title>Asset 8</title><g id="Layer_2" data-name="Layer 2"><g id="Layer_1-2" data-name="Layer 1"><path class="cls-1" d="M0,44.89H35.91V0H0ZM34.56,42.2H1.35V1.35H34.56Z"/><rect class="cls-1" x="4.42" y="29.49" width="13.02" height="0.97"/><rect class="cls-1" x="4.42" y="25.95" width="13.02" height="0.97"/><rect class="cls-1" x="4.42" y="33.03" width="13.02" height="0.97"/><rect class="cls-1" x="4.42" y="36.57" width="13.02" height="0.97"/><rect class="cls-1" x="4.42" y="3.27" width="21.19" height="1.58"/><polygon class="cls-1" points="30.52 37.26 30.52 22.45 28.28 22.45 28.28 37.26 26.93 37.26 26.93 10.32 23.79 10.32 23.79 37.26 21.1 37.26 21.1 37.71 33.22 37.71 33.22 37.26 30.52 37.26"/><path class="cls-1" d="M11,17l1.58-6a6.2,6.2,0,1,0,3.94,3.19Z"/><path class="cls-1" d="M18.14,12.17A6.2,6.2,0,0,0,14.2,9l-1.58,6Z"/></g></g></svg>