<svg xmlns="http://www.w3.org/2000/svg" viewBox="0 0 45.05 49.09"><defs><style>.cls-1{fill:#f5fafc;stroke:#fcfcfc;stroke-miterlimit:10;}</style></defs><title>Asset 2</title><g id="Layer_2" data-name="Layer 2"><g id="Layer_1-2" data-name="Layer 1"><g id="Layer_2-2" data-name="Layer 2"><g id="Layer_1-2-2" data-name="Layer 1-2"><g id="Layer_2-2-2" data-name="Layer 2-2"><g id="Layer_1-2-2-2" data-name="Layer 1-2-2"><path class="cls-1" d="M44.21,9.18a1.33,1.33,0,0,0-1.07-.31H42.7c-1.11.18-2.49.85-3,3.25L37.18,25.64a5.42,5.42,0,0,1-1.33,1.87l-2.49,2.76-2.62-2.36a5,5,0,0,0-5.93-.48,1.73,1.73,0,0,0-.22,2.76l1.85,2.07L27,33.55a11,11,0,0,0,3.11,4L34,40.75l1.75,7.68,1.73-.4L35.7,40a.85.85,0,0,0-.31-.49l-4.14-3.42a8.92,8.92,0,0,1-2.62-3.38L28,31.32c0-.09-.09-.13-.13-.22l-2-2.22h0a3.08,3.08,0,0,1,3.69.36l3.25,3a.83.83,0,0,0,.62.19.93.93,0,0,0,.62-.31l2.88-3.2.13-.18A5.72,5.72,0,0,0,38.86,26l2.49-13.43c.31-1.42.93-1.73,1.47-1.82V24.61a12.17,12.17,0,0,1-.18,2.22L40.78,37.65a.77.77,0,0,0,0,.44l1.78,5.16,1.69-.58-1.69-4.94,1.78-10.59a16,16,0,0,0,.18-2.49V10.24A1.13,1.13,0,0,0,44.21,9.18Z"/><path class="cls-1" d="M20.23,27.43h0a5,5,0,0,0-5.92.49l-2.62,2.36-2.31-2.6-.13-.13a5,5,0,0,1-1.31-1.87L5.44,12.16a3.8,3.8,0,0,0-3-3.25H2a1.33,1.33,0,0,0-1.06.31,1.29,1.29,0,0,0-.44,1V24.61a16.2,16.2,0,0,0,.18,2.54L2.44,37.74.71,42.67l1.73.58,1.78-5.16a1.51,1.51,0,0,0,0-.44L2.44,26.88a19.48,19.48,0,0,1-.18-2.27V10.73c.53.09,1.16.44,1.47,1.82L6.18,26A5.83,5.83,0,0,0,7.94,28.8l3,3.38a1.19,1.19,0,0,0,.62.31,1,1,0,0,0,.62-.22l3.25-3a3.22,3.22,0,0,1,3.74-.36h0l-2,2.22a1,1,0,0,0-.13.22l-.62,1.49a8.94,8.94,0,0,1-2.67,3.38L9.65,39.6a1.15,1.15,0,0,0-.31.49l-1.78,8,1.73.4L11,40.8l3.92-3.2a10.88,10.88,0,0,0,3.16-4l.58-1.29,1.87-2.09a1.73,1.73,0,0,0,.58-1.42A1.87,1.87,0,0,0,20.23,27.43Z"/><circle class="cls-1" cx="22.54" cy="3.84" r="0.8"/><circle class="cls-1" cx="30.73" cy="12.03" r="0.8"/><circle class="cls-1" cx="22.54" cy="20.17" r="0.8"/><circle class="cls-1" cx="14.36" cy="12.03" r="0.8"/><path class="cls-1" d="M33.44,15.85h0A11.55,11.55,0,1,0,22.59,23.6h.22A11.65,11.65,0,0,0,33.44,15.85Zm-10.76,6A9.8,9.8,0,0,1,16.1,4.6a9.68,9.68,0,0,1,6.45-2.4,9.8,9.8,0,0,1,4.8,1.23A10,10,0,0,1,31.8,15.26a9.85,9.85,0,0,1-9.08,6.55Z"/><path class="cls-1" d="M24.94,12a2.37,2.37,0,0,0-2.39-2.35h0a2.23,2.23,0,0,0-.53.09L20,7,18.63,8.07l2,2.71a2,2,0,0,0-.4,1.2,2.37,2.37,0,0,0,2.36,2.36,2.49,2.49,0,0,0,1.56-.58L28.6,16l.8-1.6-4.46-2.22A.43.43,0,0,1,24.94,12Zm-1.78,0a.58.58,0,1,1-.61-.55h0a.62.62,0,0,1,.57.55Z"/></g></g></g></g></g></g></svg>