<svg xmlns="http://www.w3.org/2000/svg" viewBox="0 0 33.09 38.89"><defs><style>.cls-1{fill:#fff;}</style></defs><title>Asset 10</title><g id="Layer_2" data-name="Layer 2"><g id="Layer_1-2" data-name="Layer 1"><path class="cls-1" d="M5.66,5V1.59a1.59,1.59,0,0,0-3.18,0V5Z"/><path class="cls-1" d="M2.47,17.68V37.3a1.59,1.59,0,0,0,3.18,0V17.68Z"/><rect class="cls-1" y="7.07" width="8.13" height="8.84" rx="1.42" ry="1.42"/><path class="cls-1" d="M18.5,20.91V1.59a1.71,1.71,0,0,0-3.42,0V20.91Z"/><path class="cls-1" d="M14.77,33v4.3a1.67,1.67,0,0,0,3.33,0V33Z"/><rect class="cls-1" x="12.23" y="22.42" width="8.13" height="8.84" rx="1.42" ry="1.42"/><path class="cls-1" d="M31.18,12.13V1.59a1.71,1.71,0,0,0-3.42,0V12.13Z"/><path class="cls-1" d="M27.77,24.81V37.3a1.71,1.71,0,0,0,3.42,0V24.81Z"/><rect class="cls-1" x="24.96" y="13.67" width="8.13" height="8.84" rx="1.42" ry="1.42"/></g></g></svg>