<svg xmlns="http://www.w3.org/2000/svg" viewBox="0 0 44.8 44.8"><defs><style>.cls-1{fill:#fff;}</style></defs><title>Asset 2</title><g id="Layer_2" data-name="Layer 2"><g id="Layer_1-2" data-name="Layer 1"><rect class="cls-1" x="33.6" y="5.6" width="5.6" height="2.8"/><rect class="cls-1" x="19.6" y="5.6" width="5.6" height="2.8"/><rect class="cls-1" x="5.6" y="5.6" width="5.6" height="2.8"/><rect class="cls-1" x="5.6" width="5.6" height="5.6"/><rect class="cls-1" x="19.6" width="5.6" height="5.6"/><rect class="cls-1" x="33.6" width="5.6" height="5.6"/><path class="cls-1" d="M39.2,5.6V8.4H33.6V5.6H25.2V8.4H19.6V5.6H11.2V8.4H5.6V5.6H0V44.8H44.8V5.6ZM14,36.4H8.4V30.8H14ZM14,28H8.4V22.4H14Zm0-8.4H8.4V14H14ZM36.4,36.4H16.8V30.8H36.4Zm0-8.4H16.8V22.4H36.4Zm0-8.4H16.8V14H36.4Z"/></g></g></svg>