<svg xmlns="http://www.w3.org/2000/svg" viewBox="0 0 46.72 49.7"><defs><style>.cls-1{fill:#fff;}</style></defs><title>Asset 4</title><g id="Layer_2" data-name="Layer 2"><g id="Layer_1-2" data-name="Layer 1"><path class="cls-1" d="M37.56,25.22a14.13,14.13,0,0,0-3.39,0L25,26.85V40.41l.14.14c3,4.2,8.75,8,10.44,9l.34.14.27-.2a43.71,43.71,0,0,0,10.44-9.22l.14-.14V26.85ZM35.33,48.07c-2.17-1.42-6.71-4.61-9.22-8.07V35.66h9.22ZM45.63,34.51H36.41V26.24a4.21,4.21,0,0,1,.95.07l8.2,1.42v6.78Z"/><path class="cls-1" d="M42.31,22.17h1.76A22,22,0,1,0,0,22c0,12.14,10.51,22,22.65,22V22.17H42.31Zm-21-19.66v7.66H16.88A30.88,30.88,0,0,1,21,2.51ZM13.56,21H8.14a22.48,22.48,0,0,1,2.44-9.63h4.61A37.64,37.64,0,0,0,13.56,21m2.92-9.56h4.88V21H14.78a34.08,34.08,0,0,1,1.7-9.63M13.56,22.17h0a34.48,34.48,0,0,0,1.42,10H10.92a22.29,22.29,0,0,1-2.85-10Zm1.22.07h0l6.65-.07v10.1H16.27a33,33,0,0,1-1.49-10m4.68-19.6a31.22,31.22,0,0,0-3.86,7.46H11.25a23.41,23.41,0,0,1,7.05-7.32,6.64,6.64,0,0,0,1.15-.14M15.05,3.73A24.77,24.77,0,0,0,9.83,10.1H6.51a20.6,20.6,0,0,1,8.54-6.37M5.63,11.39H9.22A23.38,23.38,0,0,0,6.92,21H2.51a18.67,18.67,0,0,1,3.12-9.63M6.92,22.17a23,23,0,0,0,2.64,10H5.49a18.41,18.41,0,0,1-3.05-10ZM6.37,33.49h3.86a24.72,24.72,0,0,0,6.92,7.39A21.24,21.24,0,0,1,6.37,33.49m5.29,0h3.66a33.32,33.32,0,0,0,3.05,6.71,22.62,22.62,0,0,1-6.71-6.71m9.09,8a31.26,31.26,0,0,1-4.14-8.07h4.81v8.07a1.15,1.15,0,0,1-.68,0M37.5,10.17H34.38a24.48,24.48,0,0,0-5-6.24,19.78,19.78,0,0,1,8.14,6.24M26,2.92a22.3,22.3,0,0,1,7,7.26h-4.2a31.45,31.45,0,0,0-3.93-7.46,3.78,3.78,0,0,1,1.15.2m-3.39-.41h.47a30.19,30.19,0,0,1,4.27,7.59H22.51V2.51Zm0,18.44V11.39h5.29A29.85,29.85,0,0,1,29.43,21H22.58Zm8.07,0a34.43,34.43,0,0,0-1.49-9.63h4.47A22,22,0,0,1,36.07,21Zm6.65,0A23.38,23.38,0,0,0,35,11.32h3.32A19.6,19.6,0,0,1,41.5,21Z"/></g></g></svg>