<svg xmlns="http://www.w3.org/2000/svg" viewBox="0 0 1013.22 231.45"><defs><style>.cls-1,.cls-10,.cls-13{fill:none;}.cls-1,.cls-11{stroke:#999;}.cls-1,.cls-10,.cls-11{stroke-miterlimit:10;}.cls-1{stroke-width:4px;}.cls-2,.cls-4,.cls-7{fill:#ccc;}.cls-11,.cls-3{fill:#999;}.cls-4,.cls-6{stroke:#ccc;}.cls-12,.cls-13,.cls-4,.cls-6,.cls-7,.cls-9{stroke-linejoin:round;}.cls-4,.cls-6,.cls-7{stroke-width:5px;}.cls-5,.cls-6{fill:#c4c4c4;}.cls-12,.cls-13,.cls-7{stroke:#666;}.cls-8{fill:#7e7e7e;}.cls-12,.cls-9{fill:#d4d4d6;stroke-linecap:round;}.cls-10,.cls-9{stroke:#7e7e7e;}.cls-9{stroke-width:0.25px;}.cls-10{stroke-width:3px;}.cls-11,.cls-12,.cls-13{stroke-width:2px;}.cls-14{fill:#009ace;}.cls-15{fill:#666;}</style></defs><title>Asset 4</title><g id="Layer_2" data-name="Layer 2"><g id="Layer_1-2" data-name="Layer 1"><path class="cls-1" d="M92.48,24.11s51.89,1,55.5,75.13a49.12,49.12,0,0,0,4.54,18.62,41.82,41.82,0,0,0,3.25,5.7c1.81,2.65,4.14,4.47,4.37,7.85.21,3.11-1.7,5.17-4.66,5.87-10,2.33-4.09,8.9-4.09,8.9a3.83,3.83,0,0,1-.72,5.53,9.07,9.07,0,0,0-2.52,2.58c-1.1,2.36,1.57,3.23,2.72,4.52,1.5,1.69-1.67,3.29-2.85,4,0,0-3.28,1.7-.24,12.51,3.11,11.06-15.88,10.35-15.88,10.35H117s-17.87,1.66-21.18,13.71c-3.49,12.71-4.11,30.35-4.06,30.08H88.81"/><path class="cls-2" d="M135.37,74.78s23.33-2.33,31.67,0c6.76,1.89,3.64,7.12.73,10.7-4.67,5.73-11,10.31-17.07,14.43-5.87,4-12.32,6.92-18.61,10.16-18.49,9.55-29.25,15.07-36.69,18.93q-7.7,4-15.37,8L43.19,156.35l-4.32,2.27c6-2.12,13.5-4,19.5-6.17,13.26-4.69,28.41-9.81,41.67-14.5,13.45-4.75,24.17-8.67,36.93-14,12-5.06,24.48-9.16,36.37-14.6,10.15-4.65,19.71-9.2,28.53-16.21,5.22-4.15,17.3-13.71,10.88-20.92a15.36,15.36,0,0,0-4.55-3.25C201,65.28,180.53,63.78,135.37,74.78Z"/><path class="cls-3" d="M162.31,69.19s25.6-2.55,11.33,13.33C156,102.19,38.48,157.86,38.48,157.86l11.83-4.39,27.81-10.33c19.24-7.15,39-13.08,57.73-21.44,18.3-8.17,36.29-14.79,52.41-25.66l1-.66a117.48,117.48,0,0,0,11-8.5c2.95-2.58,6-5.54,6.2-9.74a7.51,7.51,0,0,0-1.83-5.22c-3.47-4.08-9.1-5.73-14.29-5.82a123.72,123.72,0,0,0-20,1.76C167.63,68.26,165,68.92,162.31,69.19Z"/><path class="cls-4" d="M78.27,24.44,77,23.07l-8.6,6A33.94,33.94,0,0,0,62,25.42l2-10.3-1.9-1-5.53,9.45a34.22,34.22,0,0,0-8.82-1L45.1,12l-2.19.15L42,23.23a34.11,34.11,0,0,0-7.41,2.3l-6.44-9.32-2,1,3.31,11.14a34.13,34.13,0,0,0-6.23,5.31l-9.12-5-1.64,2,7.2,7.59a33.9,33.9,0,0,0-4.34,9.83L2.6,49.34,2.5,52l11.9,1.92a34.34,34.34,0,0,0,.3,8.44l-10.76,6,1,2.55,11.21-3a33.93,33.93,0,0,0,4,8l-7.86,9.86,1.41,1.46,10-6.86c.63.66,1.26,1.31,2,1.92a34.24,34.24,0,0,0,6,4.24l-3.2,11.79,2.06.78,6.36-10.19a34.06,34.06,0,0,0,8.35,1.84l2.23,11,2.56-.17,1-10.71a34.27,34.27,0,0,0,7.94-1.57l5.86,8.19,2-1L64.29,87a34,34,0,0,0,8.43-6.26l9.52,4.92L83.6,84l-7.14-7.7a33.93,33.93,0,0,0,4.44-8.89l8.53,1.89.77-2.13L82,62.74a34.29,34.29,0,0,0,.51-7.58L92,54.08l.1-2.49L81.75,49.37a34.08,34.08,0,0,0-2.27-6.82l9.21-5.23-1-2.56-11.1,2.77a34.06,34.06,0,0,0-3.9-4.73Zm-4.5,41a26.94,26.94,0,1,1-17.59-33.8A26.94,26.94,0,0,1,73.77,65.4Z"/><path class="cls-5" d="M24.88,71a26.94,26.94,0,1,0,9.53-36.88A26.94,26.94,0,0,0,24.88,71ZM57.72,51.66a11.18,11.18,0,1,1-15.3-4A11.18,11.18,0,0,1,57.72,51.66Z"/><path class="cls-6" d="M40.27,61.94"/><circle class="cls-7" cx="47.2" cy="56.22" r="29.87"/><circle cx="46.2" cy="55.84" r="10.81"/><path class="cls-8" d="M64.46,101.72a.5.5,0,0,1-.5-.48l-.25-5.53a19.9,19.9,0,0,1-5.1-1.09l-1.94,4.58a.5.5,0,0,1-.46.31.49.49,0,0,1-.19,0l-3.07-1.25a.49.49,0,0,1-.27-.27.5.5,0,0,1,0-.39l2-4.83a20.1,20.1,0,0,1-3-2.32l-4,3.87a.5.5,0,0,1-.7,0L44.64,92a.5.5,0,0,1,0-.71l4.23-4.09a20,20,0,0,1-2-3.58L41,85.7l-.17,0a.5.5,0,0,1-.47-.33l-1.14-3.06a.5.5,0,0,1,.3-.65l6.12-2.19a19.93,19.93,0,0,1-.35-3.83c0-.37,0-.73.05-1.1l-6.32-.5a.5.5,0,0,1-.46-.54l.27-3.24a.5.5,0,0,1,.5-.46l6.74.53a19.88,19.88,0,0,1,1.59-4l-5.4-2.74a.5.5,0,0,1-.22-.68l1.53-2.89a.5.5,0,0,1,.44-.27.51.51,0,0,1,.23.05l5.85,3A20,20,0,0,1,53,60.08L49,55.27a.5.5,0,0,1,.07-.71l2.56-2.08a.5.5,0,0,1,.7.07l4.43,5.24a19.74,19.74,0,0,1,5.19-1.64l-.25-5.46a.5.5,0,0,1,.13-.36.5.5,0,0,1,.35-.16L65.47,50a.5.5,0,0,1,.5.48l.25,5.37a20.06,20.06,0,0,1,3.85.56l2.37-5.61a.5.5,0,0,1,.46-.31.49.49,0,0,1,.19,0l3.07,1.25a.49.49,0,0,1,.27.27.5.5,0,0,1,0,.39l-2.3,5.45a20,20,0,0,1,3.09,1.89l4.21-4.07a.5.5,0,0,1,.7,0L84.46,58a.5.5,0,0,1,0,.71l-4.09,4a20.05,20.05,0,0,1,2.46,3.5l5.25-1.88.17,0a.5.5,0,0,1,.47.33l1.14,3.06a.5.5,0,0,1-.3.65l-5.09,1.82a19.87,19.87,0,0,1,.69,3.33l5.75.46a.5.5,0,0,1,.46.54l-.27,3.24a.5.5,0,0,1-.5.46l-5.42-.43a20,20,0,0,1-.43,2.64l5.42,2.75a.5.5,0,0,1,.22.68l-1.53,2.89a.5.5,0,0,1-.44.27.51.51,0,0,1-.23-.05l-4.86-2.47a20,20,0,0,1-1.67,2.83l3.59,4.25a.5.5,0,0,1-.07.71l-2.56,2.08a.49.49,0,0,1-.31.11.5.5,0,0,1-.38-.18l-3.13-3.7A20.22,20.22,0,0,1,76,92.66l1.82,4.45a.5.5,0,0,1-.28.66l-2.52,1a.5.5,0,0,1-.65-.28l-1.68-4.11A19.91,19.91,0,0,1,68,95.6l.25,5.45a.5.5,0,0,1-.13.36.5.5,0,0,1-.35.16ZM65,61a14.86,14.86,0,0,0-.1,29.72H65A14.86,14.86,0,0,0,65.07,61Z"/><path class="cls-8" d="M65.47,50.52l.27,5.83a19.46,19.46,0,0,1,4.62.67l2.54-6L76,52.26l-2.49,5.89a19.44,19.44,0,0,1,3.78,2.31l4.52-4.37,2.33,2.32-4.44,4.29a19.51,19.51,0,0,1,2.91,4.14l5.66-2,1.14,3.06-5.54,2a19.34,19.34,0,0,1,.86,4.1l6.16.49-.27,3.24-5.88-.47a19.42,19.42,0,0,1-.56,3.45l5.77,2.93-1.53,2.89-5.32-2.7A19.43,19.43,0,0,1,81,87.31l3.84,4.55L82.3,93.93l-3.47-4.1a19.55,19.55,0,0,1-3.44,2.63l2,4.84-2.52,1L73,93.72a19.34,19.34,0,0,1-5.48,1.44l.27,5.92-3.32.14-.27-6A19.37,19.37,0,0,1,58.33,94l-2.12,5-3.07-1.25,2.21-5.22a19.54,19.54,0,0,1-3.66-2.81l-4.35,4.21L45,91.62l4.54-4.39A19.42,19.42,0,0,1,47.19,83l-6.33,2.26-1.14-3.06,6.53-2.34a19.53,19.53,0,0,1-.42-4.15c0-.53,0-1,.09-1.56l-6.82-.54.27-3.24,7.11.57a19.35,19.35,0,0,1,1.91-4.72l-5.86-3L44,60.32l6.2,3.15a19.58,19.58,0,0,1,3.5-3.31l-4.41-5.21,2.56-2.08,4.68,5.54a19.33,19.33,0,0,1,5.84-1.84l-.27-5.91,3.32-.14M65,91.23a15.36,15.36,0,0,0,.1-30.72H65a15.36,15.36,0,0,0-.1,30.72H65m.51-41.71h0l-3.32.14a1,1,0,0,0-1,1l.23,5a20.3,20.3,0,0,0-4.54,1.44l-4.18-4.95a1,1,0,0,0-1.39-.13l-2.56,2.08a1,1,0,0,0-.13,1.42L52.31,60A20.55,20.55,0,0,0,50,62.22l-5.5-2.79a1,1,0,0,0-1.34.42l-1.53,2.89a1,1,0,0,0,.43,1.36l5,2.51a20.43,20.43,0,0,0-1.29,3.23l-6.29-.5h-.08a1,1,0,0,0-1,.92L38.1,73.5A1,1,0,0,0,39,74.58l5.83.46c0,.21,0,.42,0,.63a20.42,20.42,0,0,0,.28,3.5l-5.72,2a1,1,0,0,0-.6,1.29l1.14,3.06a1,1,0,0,0,1.27.59l5.44-1.95a20.49,20.49,0,0,0,1.6,2.88L44.3,90.9a1,1,0,0,0,0,1.43l2.33,2.32a1,1,0,0,0,1.4,0l3.67-3.55a20.6,20.6,0,0,0,2.39,1.83l-1.88,4.44a1,1,0,0,0,.55,1.32l3.07,1.25a1,1,0,0,0,1.3-.54l1.76-4.15a20.37,20.37,0,0,0,4.34.92l.23,5.1a1,1,0,0,0,1,1h0l3.32-.14a1,1,0,0,0,1-1l-.23-5a20.35,20.35,0,0,0,3.89-1l1.5,3.65a1,1,0,0,0,1.29.55l2.52-1a1,1,0,0,0,.56-1.31l-1.66-4.06a20.71,20.71,0,0,0,2.1-1.59l2.8,3.31a1,1,0,0,0,1.39.13l2.56-2.08a1,1,0,0,0,.13-1.42l-3.34-4a20.59,20.59,0,0,0,1.26-2.13L88,87.37a1,1,0,0,0,1.34-.42l1.53-2.89a1,1,0,0,0-.43-1.36l-5.07-2.57c.13-.6.23-1.22.31-1.84l4.9.39h.08a1,1,0,0,0,1-.92l.27-3.24a1,1,0,0,0-.92-1.08L85.6,73a20.42,20.42,0,0,0-.53-2.55l4.65-1.67a1,1,0,0,0,.6-1.29l-1.14-3.06a1,1,0,0,0-1.27-.59L83.05,65.6a20.53,20.53,0,0,0-2-2.85l3.75-3.62a1,1,0,0,0,0-1.43l-2.33-2.32a1,1,0,0,0-1.4,0l-3.91,3.78a20.51,20.51,0,0,0-2.4-1.48l2.12-5a1,1,0,0,0-.55-1.32l-3.07-1.25a1,1,0,0,0-1.3.54l-2.21,5.22a20.56,20.56,0,0,0-3.07-.45l-.22-4.92a1,1,0,0,0-1-1ZM65,90.23h-.1A14.36,14.36,0,0,1,65,61.51h.1A14.36,14.36,0,0,1,65,90.23Z"/><path class="cls-9" d="M65.07,60.51A15.36,15.36,0,1,0,80.32,76,15.36,15.36,0,0,0,65.07,60.51Zm-.15,21.73a6.37,6.37,0,1,1,6.42-6.33A6.37,6.37,0,0,1,64.92,82.24Z"/><circle class="cls-10" cx="64.96" cy="76.58" r="5.88" transform="translate(-12.06 141.01) rotate(-89.61)"/><path class="cls-11" d="M86.42,8.32l-.72-.79-4.93,3.36A19.35,19.35,0,0,0,77.14,8.8l1.19-5.86-1.08-.57-3.2,5.36a19.51,19.51,0,0,0-5-.59L67.57,1l-1.25.07-.57,6.33a19.45,19.45,0,0,0-4.24,1.28L57.89,3.38l-1.13.55,1.83,6.37a19.46,19.46,0,0,0-3.58,3l-5.17-2.9-.94,1.15L53,15.92a13.18,13.18,0,0,0-2.09,4.6l-7.29.64-.07,1.49,6.77,1.15a28.52,28.52,0,0,0-.3,5.8L43.83,33l.54,1.46,6.4-1.64A19.35,19.35,0,0,0,53,37.37L48.49,43l.8.84L55,39.93c.35.38.71.75,1.1,1.11a19.52,19.52,0,0,0,3.38,2.45l-1.89,6.7,1.17.46,3.67-5.78A19.42,19.42,0,0,0,67.24,46l1.21,6.26,1-.06L70.53,46a19.54,19.54,0,0,0,4.54-.85l3.3,4.7,1.17-.57-1.4-5.39A19.37,19.37,0,0,0,83,40.39l5.4,2.85.78-1-4-4.42a19.34,19.34,0,0,0,2.57-5l4.85,1.12L93,32.72l-4.63-2.55a19.55,19.55,0,0,0,.33-4.32l5.41-.57.07-1.42-5.9-1.32A19.43,19.43,0,0,0,87,18.65l5.28-2.94-.54-1.47-6.34,1.52a19.42,19.42,0,0,0-2.2-2.71ZM83.65,31.65a15.36,15.36,0,1,1-9.86-19.35A15.36,15.36,0,0,1,83.65,31.65Z"/><path class="cls-12" d="M55.81,35.14a16.44,16.44,0,1,0,6-22.46A16.44,16.44,0,0,0,55.81,35.14ZM75.16,24a5.9,5.9,0,1,1-8.06-2.16A5.9,5.9,0,0,1,75.16,24Z"/><path class="cls-13" d="M64.57,29.51"/><path class="cls-14" d="M269.09,143a45.1,45.1,0,0,0,19.6,4.87c8.12,0,12.41-3.36,12.41-8.47,0-4.87-3.71-7.66-13.11-11-13-4.52-21.46-11.72-21.46-23.08,0-13.34,11.14-23.55,29.58-23.55a47.9,47.9,0,0,1,20,3.94l-3.94,14.27a37.15,37.15,0,0,0-16.36-3.71c-7.66,0-11.37,3.48-11.37,7.54,0,5,4.41,7.19,14.5,11,13.8,5.1,20.3,12.29,20.3,23.32,0,13.11-10.09,24.24-31.55,24.24-8.93,0-17.75-2.32-22.16-4.76Z"/><path class="cls-14" d="M402.72,121.29c0,25.64-15.54,41.18-38.4,41.18-23.2,0-36.77-17.52-36.77-39.79,0-23.43,15-40.95,38-40.95C389.61,81.73,402.72,99.71,402.72,121.29Zm-56.49,1c0,15.31,7.19,26.1,19,26.1S384,137.06,384,121.87c0-14-6.73-26.1-18.91-26.1C353.19,95.77,346.23,107.13,346.23,122.33Z"/><path class="cls-14" d="M414.32,83h17.75v63.33h31.09v14.85H414.32Z"/><path class="cls-14" d="M484.5,161.19,459.45,83h19.37l9.51,33.06c2.67,9.28,5.1,18.21,7,28h.35c2-9.4,4.41-18.67,7.08-27.61l10-33.41h18.79l-26.33,78.18Z"/><path class="cls-14" d="M586.35,128.13H557.58v18.56h32.13v14.5H539.83V83h48.25v14.5H557.58v16.24h28.77Z"/><path class="cls-14" d="M601.78,84.05a155.37,155.37,0,0,1,23.55-1.62c11.6,0,19.72,1.74,25.29,6.15,4.64,3.71,7.19,9.16,7.19,16.36,0,10-7.08,16.82-13.8,19.26v.35c5.45,2.2,8.47,7.42,10.44,14.62,2.44,8.82,4.87,19,6.38,22h-18.1c-1.28-2.2-3.13-8.58-5.45-18.21-2.09-9.74-5.45-12.41-12.64-12.53h-5.33v30.74H601.78Zm17.52,33.64h7c8.82,0,14-4.41,14-11.25,0-7.19-4.87-10.79-13-10.9a44.08,44.08,0,0,0-8,.58Z"/><path class="cls-14" d="M736.68,131.26c-.35-9.4-.7-20.76-.7-32.13h-.35c-2.44,10-5.68,21.11-8.7,30.28l-9.51,30.51h-13.8l-8.35-30.27c-2.55-9.16-5.22-20.3-7.08-30.51H688c-.46,10.56-.81,22.62-1.39,32.36l-1.39,29.7H668.82l5-78.18h23.55l7.66,26.1c2.44,9,4.87,18.79,6.61,28H712c2.2-9,4.87-19.37,7.42-28.07l8.35-26h23.08l4.29,78.18H737.84Z"/><path class="cls-14" d="M786.45,83v78.18H768.7V83Z"/><path class="cls-14" d="M801.76,161.19V83H822.4l16.24,28.65a226.87,226.87,0,0,1,12.76,26.8h.35a290.11,290.11,0,0,1-1.51-32.6V83h16.24v78.18H847.92L831.22,131a290.22,290.22,0,0,1-13.57-27.61l-.35.12c.46,10.32.7,21.34.7,34.1v23.55Z"/><path class="cls-14" d="M881.79,84.05a157.8,157.8,0,0,1,23.9-1.62c14.85,0,24.47,2.67,32,8.35,8.12,6,13.22,15.66,13.22,29.46,0,15-5.45,25.29-13,31.67C929.7,158.75,917.17,162,901.86,162a153.1,153.1,0,0,1-20.07-1.16Zm17.75,63.8a32.57,32.57,0,0,0,6.15.35c16,.12,26.45-8.7,26.45-27.37.12-16.24-9.4-24.82-24.59-24.82a36.71,36.71,0,0,0-8,.7Z"/><path class="cls-14" d="M963.11,143a45.1,45.1,0,0,0,19.6,4.87c8.12,0,12.41-3.36,12.41-8.47,0-4.87-3.71-7.66-13.11-11-13-4.52-21.46-11.72-21.46-23.08,0-13.34,11.14-23.55,29.58-23.55a47.9,47.9,0,0,1,20,3.94l-3.94,14.27a37.15,37.15,0,0,0-16.36-3.71c-7.66,0-11.37,3.48-11.37,7.54,0,5,4.41,7.19,14.5,11,13.8,5.1,20.3,12.29,20.3,23.32,0,13.11-10.09,24.24-31.55,24.24-8.93,0-17.75-2.32-22.16-4.76Z"/><path class="cls-15" d="M266.48,201a14.39,14.39,0,0,0,6.25,1.55c2.59,0,4-1.07,4-2.7s-1.18-2.44-4.18-3.52c-4.14-1.44-6.84-3.74-6.84-7.36,0-4.26,3.55-7.51,9.44-7.51a15.28,15.28,0,0,1,6.36,1.26l-1.26,4.55a11.85,11.85,0,0,0-5.22-1.18c-2.44,0-3.63,1.11-3.63,2.41,0,1.59,1.41,2.29,4.63,3.52,4.4,1.63,6.48,3.92,6.48,7.44,0,4.18-3.22,7.73-10.06,7.73a16.31,16.31,0,0,1-7.07-1.52Z"/><path class="cls-15" d="M317.21,194c0,8.18-5,13.14-12.25,13.14s-11.73-5.59-11.73-12.69c0-7.47,4.77-13.06,12.14-13.06C313,181.43,317.21,187.16,317.21,194Zm-18,.33c0,4.88,2.29,8.33,6.07,8.33s6-3.63,6-8.47c0-4.48-2.15-8.33-6-8.33S299.19,189.53,299.19,194.38Z"/><path class="cls-15" d="M329,181.84h5.66V202h9.92v4.74H329Z"/><path class="cls-15" d="M360.5,181.84v14.36c0,4.29,1.63,6.48,4.51,6.48s4.59-2.07,4.59-6.48V181.84h5.63v14c0,7.7-3.89,11.36-10.4,11.36-6.29,0-10-3.48-10-11.43V181.84Z"/><path class="cls-15" d="M393,186.57h-6.7v-4.74h19.17v4.74h-6.81v20.2H393Z"/><path class="cls-15" d="M422.25,181.84v24.94h-5.66V181.84Z"/><path class="cls-15" d="M458.07,194c0,8.18-5,13.14-12.25,13.14s-11.73-5.59-11.73-12.69c0-7.47,4.77-13.06,12.14-13.06C453.89,181.43,458.07,187.16,458.07,194Zm-18,.33c0,4.88,2.29,8.33,6.07,8.33s6-3.63,6-8.47c0-4.48-2.15-8.33-6-8.33S440,189.53,440,194.38Z"/><path class="cls-15" d="M469.87,206.78V181.84h6.59l5.18,9.14a72.32,72.32,0,0,1,4.07,8.55h.11a92.52,92.52,0,0,1-.48-10.4v-7.29h5.18v24.94H484.6l-5.33-9.62a92.37,92.37,0,0,1-4.33-8.81l-.11,0c.15,3.29.22,6.81.22,10.88v7.51Z"/><path class="cls-15" d="M503.69,201a14.39,14.39,0,0,0,6.25,1.55c2.59,0,4-1.07,4-2.7s-1.18-2.44-4.18-3.52c-4.14-1.44-6.84-3.74-6.84-7.36,0-4.26,3.55-7.51,9.44-7.51a15.28,15.28,0,0,1,6.36,1.26l-1.26,4.55a11.85,11.85,0,0,0-5.22-1.18c-2.44,0-3.63,1.11-3.63,2.41,0,1.59,1.41,2.29,4.62,3.52,4.4,1.63,6.48,3.92,6.48,7.44,0,4.18-3.22,7.73-10.06,7.73a16.31,16.31,0,0,1-7.07-1.52Z"/><path class="cls-15" d="M553,200.37l-1.78,6.4h-5.85L553,181.84h7.4l7.73,24.94H562l-1.92-6.4Zm6.33-4.22-1.55-5.29c-.44-1.48-.89-3.33-1.26-4.81h-.07c-.37,1.48-.74,3.37-1.15,4.81l-1.48,5.29Z"/><path class="cls-15" d="M579.54,206.78V181.84h6.59L591.3,191a72.32,72.32,0,0,1,4.07,8.55h.11a92.52,92.52,0,0,1-.48-10.4v-7.29h5.18v24.94h-5.92l-5.33-9.62a92.37,92.37,0,0,1-4.33-8.81l-.11,0c.15,3.29.22,6.81.22,10.88v7.51Z"/><path class="cls-15" d="M613.17,182.17a50.34,50.34,0,0,1,7.62-.52c4.74,0,7.81.85,10.21,2.66,2.59,1.92,4.22,5,4.22,9.4,0,4.77-1.74,8.07-4.14,10.1-2.63,2.18-6.62,3.22-11.51,3.22a48.73,48.73,0,0,1-6.4-.37Zm5.66,20.35a10.44,10.44,0,0,0,2,.11c5.11,0,8.44-2.78,8.44-8.73,0-5.18-3-7.92-7.84-7.92a11.69,11.69,0,0,0-2.55.22Z"/><path class="cls-15" d="M666,186.57h-6.7v-4.74h19.17v4.74h-6.81v20.2H666Z"/><path class="cls-15" d="M704.37,196.23H695.2v5.92h10.25v4.63H689.54V181.84h15.39v4.63H695.2v5.18h9.18Z"/><path class="cls-15" d="M735.71,206.07a16.06,16.06,0,0,1-6.4,1.07c-8.62,0-13.06-5.37-13.06-12.47,0-8.51,6.07-13.25,13.62-13.25a14.7,14.7,0,0,1,6.14,1.11L734.86,187a12.19,12.19,0,0,0-4.74-.92c-4.48,0-8,2.7-8,8.25,0,5,3,8.14,8,8.14a14.08,14.08,0,0,0,4.7-.81Z"/><path class="cls-15" d="M753.18,181.84v9.58h9.29v-9.58h5.62v24.94h-5.62V196.34h-9.29v10.43h-5.66V181.84Z"/><path class="cls-15" d="M781.11,206.78V181.84h6.59l5.18,9.14a72.32,72.32,0,0,1,4.07,8.55h.11a92.52,92.52,0,0,1-.48-10.4v-7.29h5.18v24.94h-5.92l-5.33-9.62a92.37,92.37,0,0,1-4.33-8.81l-.11,0c.15,3.29.22,6.81.22,10.88v7.51Z"/><path class="cls-15" d="M837.57,194c0,8.18-5,13.14-12.25,13.14s-11.73-5.59-11.73-12.69c0-7.47,4.77-13.06,12.14-13.06C833.39,181.43,837.57,187.16,837.57,194Zm-18,.33c0,4.88,2.29,8.33,6.07,8.33s6-3.63,6-8.47c0-4.48-2.15-8.33-6-8.33S819.55,189.53,819.55,194.38Z"/><path class="cls-15" d="M849.38,181.84H855V202H865v4.74H849.38Z"/><path class="cls-15" d="M897.81,194c0,8.18-5,13.14-12.25,13.14s-11.73-5.59-11.73-12.69c0-7.47,4.77-13.06,12.14-13.06C893.63,181.43,897.81,187.16,897.81,194Zm-18,.33c0,4.88,2.29,8.33,6.07,8.33s6-3.63,6-8.47c0-4.48-2.15-8.33-6-8.33S879.79,189.53,879.79,194.38Z"/><path class="cls-15" d="M930.44,205.63a27.89,27.89,0,0,1-8.33,1.41c-4.55,0-7.84-1.15-10.14-3.37a12.07,12.07,0,0,1-3.52-9.07c0-8.29,6.07-13,14.25-13a17.18,17.18,0,0,1,6.92,1.22l-1.18,4.51a13.81,13.81,0,0,0-5.81-1.07c-4.7,0-8.25,2.66-8.25,8.07,0,5.14,3.22,8.18,7.84,8.18a7.55,7.55,0,0,0,2.78-.37V196.9h-3.85v-4.4h9.29Z"/><path class="cls-15" d="M948.61,181.84v24.94h-5.66V181.84Z"/><path class="cls-15" d="M976.43,196.23h-9.18v5.92h10.25v4.63H961.6V181.84H977v4.63h-9.73v5.18h9.18Z"/><path class="cls-15" d="M989.64,201a14.39,14.39,0,0,0,6.25,1.55c2.59,0,4-1.07,4-2.7s-1.18-2.44-4.18-3.52c-4.14-1.44-6.84-3.74-6.84-7.36,0-4.26,3.55-7.51,9.44-7.51a15.28,15.28,0,0,1,6.36,1.26l-1.26,4.55a11.85,11.85,0,0,0-5.22-1.18c-2.44,0-3.63,1.11-3.63,2.41,0,1.59,1.41,2.29,4.63,3.52,4.4,1.63,6.48,3.92,6.48,7.44,0,4.18-3.22,7.73-10.06,7.73a16.31,16.31,0,0,1-7.07-1.52Z"/></g></g></svg>