<svg xmlns="http://www.w3.org/2000/svg" viewBox="0 0 46 46"><defs><style>.cls-1{fill:#2c3e50;}</style></defs><title>Asset 3</title><g id="Layer_2" data-name="Layer 2"><g id="Layer_1-2" data-name="Layer 1"><polygon class="cls-1" points="32.97 11.71 31.32 13.03 34.62 13.03 32.97 11.71"/><path class="cls-1" d="M35.27,3.83A2.3,2.3,0,1,0,33,6.13,2.3,2.3,0,0,0,35.27,3.83Zm-3.07,0A.77.77,0,1,1,33,4.6.77.77,0,0,1,32.2,3.83Z"/><path class="cls-1" d="M45.89,34.86A3.57,3.57,0,0,0,44,32.55l-1.2-.63.78-6.62h.09a.77.77,0,0,0,.77-.77v-4.6a.77.77,0,0,0-.77-.77H38.33V13.8a.77.77,0,0,0-.77-.77h-.5l-3.34-2.67V7.59a3.83,3.83,0,1,0-4.55-4.21l-19.43,12h-9A.77.77,0,0,0,0,16.1v4.6a.77.77,0,0,0,.13.43l1.53,2.3a.77.77,0,0,0,.64.34H6.13v2.93l-2.25,6a.76.76,0,0,0,0,.24v5.39H7.67a.77.77,0,1,1,0,1.53H3.83V41.4H9.2a.77.77,0,0,1,0,1.53H3.83v2.3A.77.77,0,0,0,4.6,46H16.87a.77.77,0,0,0,.77-.77V32.94a.75.75,0,0,0,0-.24l-2.25-6V21.08L32.2,8.43v1.93L28.86,13h-.5a.77.77,0,0,0-.77.77v5.37H22.23a.77.77,0,0,0-.77.77v4.6a.77.77,0,0,0,.77.77h.84L23.8,32l-1.06.58a3.58,3.58,0,0,0-1.45,5.25L23,40.59l8.2-4.06a5.09,5.09,0,0,1,4.38,0l8.13,3.91,1.63-2.65A3.58,3.58,0,0,0,45.89,34.86ZM35.27,15.33a.77.77,0,0,1,.77.77v1.53a.77.77,0,0,1-1.53,0V16.1A.77.77,0,0,1,35.27,15.33ZM2.71,22.23,1.53,20.47v-3.6H9.2v5.37H2.71Zm13.05,10H5.71l1.73-4.6H14ZM14.31,19.93H10.73v-3.4L29.34,5.08s0,.08.06.12.1.23.15.34.11.22.18.32.14.2.21.3.15.19.23.29l.26.25.29.24.31.19.2.13ZM30.67,3.83A2.3,2.3,0,1,1,33,6.13,2.3,2.3,0,0,1,30.67,3.83ZM33,11.71,34.61,13h-3.3Zm.77,4.39v1.53a.77.77,0,0,1-1.53,0V16.1a.77.77,0,1,1,1.53,0Zm-3.83,0a.77.77,0,1,1,1.53,0v1.53a.77.77,0,0,1-1.53,0ZM41.38,31.16,35.47,28a5.62,5.62,0,0,0-4.4,0l-5.81,3.15-.64-5.91H42.07Z"/><path class="cls-1" d="M31.88,37.92l-8,4,2.34,3.74a.77.77,0,0,0,.65.36h13a.77.77,0,0,0,.65-.36l2.4-3.89-8-3.84A3.57,3.57,0,0,0,31.88,37.92Z"/></g></g></svg>