<?xml version="1.0" encoding="utf-8"?>
<!-- Generator: Adobe Illustrator 21.0.0, SVG Export Plug-In . SVG Version: 6.00 Build 0)  -->
<svg version="1.1" id="Layer_1" xmlns="http://www.w3.org/2000/svg" xmlns:xlink="http://www.w3.org/1999/xlink" x="0px" y="0px"
	 viewBox="0 0 143.8 151.5" style="enable-background:new 0 0 143.8 151.5;" xml:space="preserve">
<style type="text/css">
	.st0{fill:#FFFFFF;}
	.st1{fill:#ED1C24;}
	.st2{fill:#868785;}
</style>
<g>
	<circle class="st0" cx="74" cy="75.4" r="50.5"/>
</g>
<g>
	<path class="st1" d="M99.6,41.5l4.8,54.7H43.5c0,0,0-52.7,0-52.7c0-0.3,0-0.7,0.1-1c0.5-2.2,2.3-3.7,4.3-4.4
		c2.1-0.8,4.3-0.9,6.5-0.8c3.1,0.1,6.3,0.6,9.3,0.9c7.3,0.7,14.7,1.4,22,2.1C90.4,40.7,95,41.1,99.6,41.5z"/>
	<rect x="47.9" y="47.4" class="st0" width="12.2" height="44.1"/>
	<polygon class="st0" points="78.9,48 60.1,61.8 60.1,75.3 65.9,70.9 83.3,91.6 96.7,91.6 74.9,65.1 94.6,48.1 	"/>
	<rect x="43.5" y="99.9" class="st2" width="60.9" height="10.8"/>
	<g>
		<g>
			<path class="st0" d="M53.9,106.3l-0.8,0.9v2.2h-1.6v-7.6h1.6v3.5l0.7-0.9l1.9-2.5h1.9l-2.7,3.4l2.8,4.2h-1.9L53.9,106.3z"/>
			<path class="st0" d="M65.9,108.1h3.3v1.3h-4.9v-7.6h1.6V108.1z"/>
			<path class="st0" d="M80.1,107.3c0-0.1,0-0.3-0.1-0.4c0-0.1-0.1-0.2-0.2-0.3c-0.1-0.1-0.3-0.2-0.5-0.3c-0.2-0.1-0.4-0.2-0.8-0.3
				c-0.3-0.1-0.7-0.2-1-0.4s-0.6-0.3-0.8-0.5c-0.2-0.2-0.4-0.4-0.5-0.7c-0.1-0.2-0.2-0.5-0.2-0.9c0-0.3,0.1-0.6,0.2-0.9
				c0.1-0.3,0.3-0.5,0.6-0.7s0.5-0.3,0.9-0.4c0.3-0.1,0.7-0.2,1.1-0.2c0.4,0,0.8,0.1,1.2,0.2s0.6,0.3,0.9,0.5
				c0.2,0.2,0.4,0.5,0.6,0.7s0.2,0.6,0.2,0.9h-1.6c0-0.2,0-0.3-0.1-0.4c-0.1-0.1-0.1-0.3-0.2-0.4c-0.1-0.1-0.2-0.2-0.4-0.2
				c-0.2-0.1-0.3-0.1-0.6-0.1c-0.2,0-0.4,0-0.5,0.1c-0.2,0-0.3,0.1-0.4,0.2c-0.1,0.1-0.2,0.2-0.2,0.3s-0.1,0.2-0.1,0.3
				c0,0.3,0.1,0.5,0.4,0.6c0.3,0.2,0.6,0.3,1.1,0.5c0.4,0.1,0.8,0.3,1.1,0.4c0.3,0.2,0.6,0.3,0.8,0.5c0.2,0.2,0.4,0.4,0.5,0.7
				c0.1,0.2,0.2,0.5,0.2,0.8c0,0.3-0.1,0.6-0.2,0.9s-0.3,0.5-0.6,0.7c-0.2,0.2-0.5,0.3-0.9,0.4s-0.7,0.1-1.1,0.1
				c-0.3,0-0.5,0-0.8-0.1c-0.3,0-0.5-0.1-0.7-0.2s-0.4-0.2-0.6-0.3c-0.2-0.1-0.4-0.3-0.5-0.5c-0.1-0.2-0.3-0.4-0.3-0.6
				s-0.1-0.5-0.1-0.8h1.6c0,0.2,0,0.4,0.1,0.6c0.1,0.2,0.2,0.3,0.3,0.4s0.3,0.2,0.5,0.2c0.2,0,0.4,0.1,0.6,0.1c0.2,0,0.4,0,0.5-0.1
				c0.2,0,0.3-0.1,0.4-0.2c0.1-0.1,0.2-0.2,0.2-0.3C80,107.6,80.1,107.4,80.1,107.3z"/>
			<path class="st0" d="M90.8,101.7l2,5.5l1.9-5.5h2.1v7.6h-1.6v-2.1l0.2-3.6l-2.1,5.7h-1.1l-2.1-5.7l0.2,3.6v2.1h-1.6v-7.6H90.8z"
				/>
		</g>
	</g>
</g>
</svg>
