<?xml version="1.0" encoding="utf-8"?>
<!-- Generator: Adobe Illustrator 21.0.0, SVG Export Plug-In . SVG Version: 6.00 Build 0)  -->
<svg version="1.1" id="Layer_1" xmlns="http://www.w3.org/2000/svg" xmlns:xlink="http://www.w3.org/1999/xlink" x="0px" y="0px"
	 viewBox="0 0 81 98" style="enable-background:new 0 0 81 98;" xml:space="preserve">
<style type="text/css">
	.st0{fill:#ED1C24;}
	.st1{fill:#FFFFFF;}
	.st2{fill:#868785;}
</style>
<path class="st0" d="M67.1,17.3L72,72H11c0,0,0-52.7,0-52.7c0-0.3,0-0.7,0.1-1c0.5-2.2,2.3-3.7,4.3-4.4c2.1-0.8,4.3-0.9,6.5-0.8
	c3.1,0.1,6.3,0.6,9.3,0.9c7.3,0.7,14.7,1.4,22,2.1C58,16.4,62.6,16.8,67.1,17.3z"/>
<rect x="15.4" y="23.2" class="st1" width="12.2" height="44.1"/>
<polygon class="st1" points="46.5,23.7 27.6,37.5 27.6,51 33.4,46.6 50.9,67.3 64.2,67.3 42.5,40.8 62.1,23.8 "/>
<rect x="11" y="75.6" class="st2" width="60.9" height="10.8"/>
<g>
	<g>
		<path class="st1" d="M21.4,82l-0.8,0.9v2.2H19v-7.6h1.6v3.5l0.7-0.9l1.9-2.5h1.9l-2.7,3.4l2.8,4.2h-1.9L21.4,82z"/>
		<path class="st1" d="M33.4,83.8h3.3v1.3h-4.9v-7.6h1.6V83.8z"/>
		<path class="st1" d="M47.6,83.1c0-0.1,0-0.3-0.1-0.4c0-0.1-0.1-0.2-0.2-0.3c-0.1-0.1-0.3-0.2-0.5-0.3c-0.2-0.1-0.4-0.2-0.8-0.3
			c-0.3-0.1-0.7-0.2-1-0.4s-0.6-0.3-0.8-0.5c-0.2-0.2-0.4-0.4-0.5-0.7c-0.1-0.2-0.2-0.5-0.2-0.9c0-0.3,0.1-0.6,0.2-0.9
			c0.1-0.3,0.3-0.5,0.6-0.7s0.5-0.3,0.9-0.4c0.3-0.1,0.7-0.2,1.1-0.2c0.4,0,0.8,0.1,1.2,0.2s0.6,0.3,0.9,0.5
			c0.2,0.2,0.4,0.5,0.6,0.7s0.2,0.6,0.2,0.9h-1.6c0-0.2,0-0.3-0.1-0.4c-0.1-0.1-0.1-0.3-0.2-0.4c-0.1-0.1-0.2-0.2-0.4-0.2
			c-0.2-0.1-0.3-0.1-0.6-0.1c-0.2,0-0.4,0-0.5,0.1c-0.2,0-0.3,0.1-0.4,0.2c-0.1,0.1-0.2,0.2-0.2,0.3s-0.1,0.2-0.1,0.3
			c0,0.3,0.1,0.5,0.4,0.6c0.3,0.2,0.6,0.3,1.1,0.5c0.4,0.1,0.8,0.3,1.1,0.4c0.3,0.2,0.6,0.3,0.8,0.5c0.2,0.2,0.4,0.4,0.5,0.7
			c0.1,0.2,0.2,0.5,0.2,0.8c0,0.3-0.1,0.6-0.2,0.9s-0.3,0.5-0.6,0.7c-0.2,0.2-0.5,0.3-0.9,0.4s-0.7,0.1-1.1,0.1
			c-0.3,0-0.5,0-0.8-0.1c-0.3,0-0.5-0.1-0.7-0.2s-0.4-0.2-0.6-0.3c-0.2-0.1-0.4-0.3-0.5-0.5c-0.1-0.2-0.3-0.4-0.3-0.6
			s-0.1-0.5-0.1-0.8h1.6c0,0.2,0,0.4,0.1,0.6s0.2,0.3,0.3,0.4s0.3,0.2,0.5,0.2c0.2,0,0.4,0.1,0.6,0.1c0.2,0,0.4,0,0.5-0.1
			c0.2,0,0.3-0.1,0.4-0.2c0.1-0.1,0.2-0.2,0.2-0.3C47.6,83.3,47.6,83.2,47.6,83.1z"/>
		<path class="st1" d="M58.3,77.4l2,5.5l1.9-5.5h2.1v7.6h-1.6V83l0.2-3.6l-2.1,5.7h-1.1l-2.1-5.7l0.2,3.6v2.1h-1.6v-7.6H58.3z"/>
	</g>
</g>
</svg>
