<?xml version="1.0" encoding="utf-8"?>
<!-- Generator: Adobe Illustrator 21.0.0, SVG Export Plug-In . SVG Version: 6.00 Build 0)  -->
<svg version="1.1" id="Layer_1" xmlns="http://www.w3.org/2000/svg" xmlns:xlink="http://www.w3.org/1999/xlink" x="0px" y="0px"
	 viewBox="0 0 45 43.7" style="enable-background:new 0 0 45 43.7;" xml:space="preserve">
<style type="text/css">
	.st0{clip-path:url(#SVGID_3_);}
	.st1{clip-path:url(#SVGID_4_);}
	.st2{fill:#7F8C8D;}
	.st3{fill:#95A5A6;}
	.st4{fill:#E94B35;}
	.st5{fill:#ECF0F1;}
	.st6{fill:#33495F;}
	.st7{fill:#BDC3C7;}
	.st8{fill:#1ECA6B;}
	.st9{fill:#E5BF88;}
	.st10{fill:#2B3E51;}
	.st11{fill:#BFA072;}
</style>
<g>
	<g>
		<defs>
			<path id="SVGID_1_" d="M43.6,21.8c0,12-9.8,21.8-21.8,21.8c-1.4,0-2.8-0.1-4.1-0.4c-1.8-0.3-3.4-2.2-4.9-2.9
				c-1.6-0.7-3.2-0.3-4.6-1.4c-5-4-8.2-10.1-8.2-17C0,9.8,9.8,0,21.8,0C33.9,0,43.6,9.8,43.6,21.8L43.6,21.8z M43.6,21.8"/>
		</defs>
		<defs>
			<rect id="SVGID_2_" y="0" width="43.7" height="43.8"/>
		</defs>
		<clipPath id="SVGID_3_">
			<use xlink:href="#SVGID_1_"  style="overflow:visible;"/>
		</clipPath>
		<clipPath id="SVGID_4_" class="st0">
			<use xlink:href="#SVGID_2_"  style="overflow:visible;"/>
		</clipPath>
		<g class="st1">
			<defs>
				<rect id="SVGID_5_" y="0" width="43.6" height="43.7"/>
			</defs>
			<clipPath id="SVGID_6_">
				<use xlink:href="#SVGID_5_"  style="overflow:visible;"/>
			</clipPath>
			<g transform="matrix(1 0 0 1 -3.725290e-09 0)" style="clip-path:url(#SVGID_6_);">
				
					<image style="overflow:visible;" width="860" height="857" xlink:href="119AD07D.jpg"  transform="matrix(5.113193e-02 0 0 -5.113193e-02 -5.573472e-02 43.7461)">
				</image>
			</g>
		</g>
	</g>
	<path class="st2" d="M21.8,2v0.5c0.4,0,0.8,0.4,0.8,0.8c0,0.4-0.4,0.8-0.8,0.8v3.2c0.7,0,1.2-0.5,1.2-1.2v-3C23,2.6,22.5,2,21.8,2
		L21.8,2z M21.8,2"/>
	<path class="st3" d="M21,3.4c0-0.4,0.4-0.8,0.8-0.8V2c-0.7,0-1.2,0.5-1.2,1.2v3c0,0.7,0.5,1.2,1.2,1.2V4.2C21.4,4.2,21,3.8,21,3.4
		L21,3.4z M21,3.4"/>
	<path class="st4" d="M33.3,34.2c0,0.5-0.4,0.9-0.9,0.9H11.2c-0.5,0-0.9-0.4-0.9-0.9V7.1c0-0.5,0.4-0.9,0.9-0.9h21.3
		c0.5,0,0.9,0.4,0.9,0.9V34.2z M33.3,34.2"/>
	<path class="st3" d="M25.9,6.7c0,0.6-0.5,1-1,1h-6.1c-0.6,0-1-0.5-1-1V6.4c0-0.6,0.5-1,1-1h6.1c0.6,0,1,0.5,1,1V6.7z M25.9,6.7"/>
	<path class="st5" d="M12.4,33.7c-0.2,0-0.4-0.2-0.4-0.4V7.9c0-0.2,0.2-0.4,0.4-0.4h18.7c0.2,0,0.4,0.2,0.4,0.4v25.3
		c0,0.2-0.2,0.4-0.4,0.4H12.4z M12.4,33.7"/>
	<rect x="17.7" y="6.6" class="st2" width="8.2" height="1.2"/>
	<path class="st6" d="M18.5,14.7c0,0.1-0.1,0.3-0.3,0.3h-3.3c-0.1,0-0.3-0.1-0.3-0.3v-3.3c0-0.1,0.1-0.3,0.3-0.3h3.3
		c0.1,0,0.3,0.1,0.3,0.3V14.7z M15.2,14.4H18v-2.8h-2.8V14.4z M15.2,14.4"/>
	<path class="st6" d="M18.5,19.8c0,0.1-0.1,0.3-0.3,0.3h-3.3c-0.1,0-0.3-0.1-0.3-0.3v-3.3c0-0.1,0.1-0.3,0.3-0.3h3.3
		c0.1,0,0.3,0.1,0.3,0.3V19.8z M15.2,19.5H18v-2.8h-2.8V19.5z M15.2,19.5"/>
	<path class="st6" d="M18.5,24.9c0,0.1-0.1,0.3-0.3,0.3h-3.3c-0.1,0-0.3-0.1-0.3-0.3v-3.3c0-0.1,0.1-0.3,0.3-0.3h3.3
		c0.1,0,0.3,0.1,0.3,0.3V24.9z M15.2,24.6H18v-2.8h-2.8V24.6z M15.2,24.6"/>
	<path class="st6" d="M18.5,30c0,0.1-0.1,0.3-0.3,0.3h-3.3c-0.1,0-0.3-0.1-0.3-0.3v-3.3c0-0.1,0.1-0.3,0.3-0.3h3.3
		c0.1,0,0.3,0.1,0.3,0.3V30z M15.2,29.7H18v-2.8h-2.8V29.7z M15.2,29.7"/>
	<path class="st7" d="M29,11.8h-8.4c-0.2,0-0.3-0.2-0.3-0.3c0-0.2,0.2-0.3,0.3-0.3H29c0.2,0,0.3,0.2,0.3,0.3
		C29.3,11.6,29.2,11.8,29,11.8L29,11.8z M29,11.8"/>
	<path class="st7" d="M29.4,13.5h-8.9c-0.2,0-0.3-0.2-0.3-0.3c0-0.2,0.2-0.3,0.3-0.3h8.9c0.2,0,0.3,0.2,0.3,0.3
		C29.7,13.3,29.6,13.5,29.4,13.5L29.4,13.5z M29.4,13.5"/>
	<path class="st7" d="M29.4,16.9h-8.9c-0.2,0-0.3-0.2-0.3-0.3c0-0.2,0.2-0.3,0.3-0.3h8.9c0.2,0,0.3,0.2,0.3,0.3
		C29.7,16.7,29.6,16.9,29.4,16.9L29.4,16.9z M29.4,16.9"/>
	<path class="st7" d="M25,18.6h-4.4c-0.2,0-0.3-0.2-0.3-0.3c0-0.2,0.2-0.3,0.3-0.3H25c0.2,0,0.3,0.2,0.3,0.3
		C25.3,18.4,25.2,18.6,25,18.6L25,18.6z M25,18.6"/>
	<path class="st7" d="M29,20.2h-8.4c-0.2,0-0.3-0.2-0.3-0.3c0-0.2,0.2-0.3,0.3-0.3H29c0.2,0,0.3,0.2,0.3,0.3
		C29.3,20,29.2,20.2,29,20.2L29,20.2z M29,20.2"/>
	<path class="st7" d="M27.9,22.1h-7.3c-0.2,0-0.3-0.2-0.3-0.3c0-0.2,0.2-0.3,0.3-0.3h7.3c0.2,0,0.3,0.2,0.3,0.3
		C28.2,21.9,28.1,22.1,27.9,22.1L27.9,22.1z M27.9,22.1"/>
	<path class="st7" d="M25.4,23.7h-4.9c-0.2,0-0.3-0.2-0.3-0.3c0-0.2,0.2-0.3,0.3-0.3h4.9c0.2,0,0.3,0.2,0.3,0.3
		C25.7,23.5,25.6,23.7,25.4,23.7L25.4,23.7z M25.4,23.7"/>
	<path class="st7" d="M29.4,25.3h-8.9c-0.2,0-0.3-0.2-0.3-0.3c0-0.2,0.2-0.3,0.3-0.3h8.9c0.2,0,0.3,0.2,0.3,0.3
		C29.7,25.2,29.6,25.3,29.4,25.3L29.4,25.3z M29.4,25.3"/>
	<path class="st7" d="M23.6,27h-3.1c-0.2,0-0.3-0.2-0.3-0.3c0-0.2,0.2-0.3,0.3-0.3h3.1c0.2,0,0.3,0.2,0.3,0.3
		C23.9,26.9,23.8,27,23.6,27L23.6,27z M23.6,27"/>
	<path class="st7" d="M24.7,28.7h-4.2c-0.2,0-0.3-0.2-0.3-0.3c0-0.2,0.2-0.3,0.3-0.3h4.2c0.2,0,0.3,0.2,0.3,0.3
		C25.1,28.6,24.9,28.7,24.7,28.7L24.7,28.7z M24.7,28.7"/>
	<path class="st7" d="M29,30.4h-8.4c-0.2,0-0.3-0.2-0.3-0.3c0-0.2,0.2-0.3,0.3-0.3H29c0.2,0,0.3,0.2,0.3,0.3
		C29.3,30.3,29.2,30.4,29,30.4L29,30.4z M29,30.4"/>
	<path class="st8" d="M16.2,18.9c-0.1,0-0.2,0-0.2-0.1l-2-1.9c-0.1-0.1-0.1-0.3,0-0.5c0.1-0.1,0.3-0.1,0.5,0l1.7,1.7l3.3-3
		c0.1-0.1,0.4-0.1,0.5,0c0.1,0.1,0.1,0.4,0,0.5l-3.5,3.2C16.4,18.8,16.3,18.9,16.2,18.9L16.2,18.9z M16.2,18.9"/>
	<path class="st9" d="M8.5,29.9l1.8-3.7v-3.7c0,0-0.2-1.4,1.1-1.4c1.3,0,1,1.3,1,1.3l0,4.8c0,0,3.5,2.4,1.3,7.8h5.2L16,38H9.1
		L8.5,29.9z M8.5,29.9"/>
	<rect x="8.5" y="37.4" class="st5" width="8.4" height="1.4"/>
	<rect x="12.7" y="37.4" class="st7" width="4.3" height="1.4"/>
	<path class="st6" d="M17.7,43.2v-4.4H8.2C10.9,41,14.2,42.6,17.7,43.2L17.7,43.2z M17.7,43.2"/>
	<path class="st10" d="M12.7,41.6c1.6,0.7,3.3,1.3,5,1.6v-4.4h-5V41.6z M12.7,41.6"/>
	<path class="st11" d="M13.7,35l3.2,2l2-2H13.7z M13.7,35"/>
	<path class="st5" d="M12.1,22.3c0,0.4-0.3,0.8-0.8,0.8c-0.4,0-0.8-0.3-0.8-0.8c0-0.4,0.3-0.8,0.8-0.8
		C11.8,21.6,12.1,21.9,12.1,22.3L12.1,22.3z M12.1,22.3"/>
</g>
</svg>
