<?xml version="1.0" encoding="utf-8"?>
<!-- Generator: Adobe Illustrator 21.0.0, SVG Export Plug-In . SVG Version: 6.00 Build 0)  -->
<svg version="1.1" id="Layer_1" xmlns="http://www.w3.org/2000/svg" xmlns:xlink="http://www.w3.org/1999/xlink" x="0px" y="0px"
	 viewBox="0 0 35 33.3" style="enable-background:new 0 0 35 33.3;" xml:space="preserve">
<style type="text/css">
	.st0{fill:#00ACED;}
	.st1{fill:#E1C3A0;}
	.st2{fill:#EFF2FA;}
	.st3{fill:#C7CFE2;}
	.st4{fill:#AFB9D2;}
	.st5{fill:#D7DEED;}
	.st6{fill:#B4E1FA;}
</style>
<circle class="st0" cx="17.2" cy="17" r="15.2"/>
<g>
	<path class="st1" d="M23.7,27.6H10.6c-0.9,0-1.5-0.7-1.5-1.5V8.3c0-0.9,0.7-1.5,1.5-1.5h13.1c0.9,0,1.5,0.7,1.5,1.5v17.8
		C25.3,26.9,24.6,27.6,23.7,27.6z"/>
	<path class="st2" d="M23.7,7.9H10.6c-0.2,0-0.4,0.2-0.4,0.4v17.8c0,0.2,0.2,0.4,0.4,0.4H21l3.1-3.1V8.3C24.1,8.1,24,7.9,23.7,7.9z"
		/>
	<path class="st3" d="M19.5,6.8h-1.2V6.4c0-0.6-0.5-1.2-1.2-1.2S16,5.7,16,6.4v0.4h-1.2c-0.4,0-0.8,0.3-0.8,0.8v0.8h6.2V7.5
		C20.3,7.1,19.9,6.8,19.5,6.8z M17.2,6.8c-0.2,0-0.4-0.2-0.4-0.4S17,6,17.2,6s0.4,0.2,0.4,0.4S17.4,6.8,17.2,6.8z"/>
	<path class="st4" d="M20.3,8.7h-6.2c-0.2,0-0.4-0.2-0.4-0.4l0,0c0-0.2,0.2-0.4,0.4-0.4h6.2c0.2,0,0.4,0.2,0.4,0.4l0,0
		C20.7,8.5,20.5,8.7,20.3,8.7z"/>
	<path class="st3" d="M14.5,20.7h-2.3c-0.2,0-0.4-0.2-0.4-0.4l0,0c0-0.2,0.2-0.4,0.4-0.4h2.3c0.2,0,0.4,0.2,0.4,0.4l0,0
		C14.9,20.5,14.7,20.7,14.5,20.7z"/>
	<g>
		<path class="st5" d="M22.2,20.7H16c-0.2,0-0.4-0.2-0.4-0.4l0,0c0-0.2,0.2-0.4,0.4-0.4h6.2c0.2,0,0.4,0.2,0.4,0.4l0,0
			C22.6,20.5,22.4,20.7,22.2,20.7z"/>
		<path class="st5" d="M18.3,23H16c-0.2,0-0.4-0.2-0.4-0.4l0,0c0-0.2,0.2-0.4,0.4-0.4h2.3c0.2,0,0.4,0.2,0.4,0.4l0,0
			C18.7,22.8,18.6,23,18.3,23z"/>
		<path class="st5" d="M19.1,24.5H16c-0.2,0-0.4-0.2-0.4-0.4l0,0c0-0.2,0.2-0.4,0.4-0.4h3.1c0.2,0,0.4,0.2,0.4,0.4l0,0
			C19.5,24.4,19.3,24.5,19.1,24.5z"/>
	</g>
	<g>
		<path class="st3" d="M14.5,14.5h-2.3c-0.2,0-0.4-0.2-0.4-0.4l0,0c0-0.2,0.2-0.4,0.4-0.4h2.3c0.2,0,0.4,0.2,0.4,0.4l0,0
			C14.9,14.3,14.7,14.5,14.5,14.5z"/>
		<path class="st3" d="M19.1,16H18c-0.2,0-0.4-0.2-0.4-0.4l0,0c0-0.2,0.2-0.4,0.4-0.4h1.2c0.2,0,0.4,0.2,0.4,0.4l0,0
			C19.5,15.9,19.3,16,19.1,16z"/>
	</g>
	<g>
		<path class="st5" d="M22.2,16h-1.5c-0.2,0-0.4-0.2-0.4-0.4l0,0c0-0.2,0.2-0.4,0.4-0.4h1.5c0.2,0,0.4,0.2,0.4,0.4l0,0
			C22.6,15.9,22.4,16,22.2,16z"/>
		<path class="st5" d="M22.2,14.5H16c-0.2,0-0.4-0.2-0.4-0.4l0,0c0-0.2,0.2-0.4,0.4-0.4h6.2c0.2,0,0.4,0.2,0.4,0.4l0,0
			C22.6,14.3,22.4,14.5,22.2,14.5z"/>
	</g>
	<path class="st3" d="M22.2,12.2h-3.1c-0.2,0-0.4-0.2-0.4-0.4l0,0c0-0.2,0.2-0.4,0.4-0.4h3.1c0.2,0,0.4,0.2,0.4,0.4l0,0
		C22.6,12,22.4,12.2,22.2,12.2z"/>
	<path class="st5" d="M17.6,12.2h-0.8c-0.2,0-0.4-0.2-0.4-0.4l0,0c0-0.2,0.2-0.4,0.4-0.4h0.8c0.2,0,0.4,0.2,0.4,0.4l0,0
		C18,12,17.8,12.2,17.6,12.2z"/>
	<g>
		<path class="st3" d="M22.2,10.6h-2.3c-0.2,0-0.4-0.2-0.4-0.4l0,0c0-0.2,0.2-0.4,0.4-0.4h2.3c0.2,0,0.4,0.2,0.4,0.4l0,0
			C22.6,10.5,22.4,10.6,22.2,10.6z"/>
		<path class="st3" d="M16,17.6h-3.9c-0.2,0-0.4-0.2-0.4-0.4l0,0c0-0.2,0.2-0.4,0.4-0.4H16c0.2,0,0.4,0.2,0.4,0.4l0,0
			C16.4,17.4,16.2,17.6,16,17.6z"/>
	</g>
	<g>
		<path class="st5" d="M22.2,17.6h-4.6c-0.2,0-0.4-0.2-0.4-0.4l0,0c0-0.2,0.2-0.4,0.4-0.4h4.6c0.2,0,0.4,0.2,0.4,0.4l0,0
			C22.6,17.4,22.4,17.6,22.2,17.6z"/>
		<path class="st5" d="M16.4,16h-4.2c-0.2,0-0.4-0.2-0.4-0.4l0,0c0-0.2,0.2-0.4,0.4-0.4h4.2c0.2,0,0.4,0.2,0.4,0.4l0,0
			C16.8,15.9,16.6,16,16.4,16z"/>
	</g>
	<path class="st3" d="M18.3,19.1h-3.1c-0.2,0-0.4-0.2-0.4-0.4l0,0c0-0.2,0.2-0.4,0.4-0.4h3.1c0.2,0,0.4,0.2,0.4,0.4l0,0
		C18.7,19,18.6,19.1,18.3,19.1z"/>
	<g>
		<path class="st5" d="M22.2,19.1h-2.3c-0.2,0-0.4-0.2-0.4-0.4l0,0c0-0.2,0.2-0.4,0.4-0.4h2.3c0.2,0,0.4,0.2,0.4,0.4l0,0
			C22.6,19,22.4,19.1,22.2,19.1z"/>
		<path class="st5" d="M13.7,19.1h-1.5c-0.2,0-0.4-0.2-0.4-0.4l0,0c0-0.2,0.2-0.4,0.4-0.4h1.5c0.2,0,0.4,0.2,0.4,0.4l0,0
			C14.1,19,13.9,19.1,13.7,19.1z"/>
	</g>
	<path class="st6" d="M13.3,24.9c-0.9,0-1.5-0.7-1.5-1.5s0.7-1.5,1.5-1.5s1.5,0.7,1.5,1.5S14.2,24.9,13.3,24.9z M13.3,22.6
		c-0.4,0-0.8,0.3-0.8,0.8s0.3,0.8,0.8,0.8s0.8-0.3,0.8-0.8C14.1,22.9,13.7,22.6,13.3,22.6z"/>
	<path class="st5" d="M21,26.5v-2.7c0-0.2,0.2-0.4,0.4-0.4h2.7L21,26.5z"/>
</g>
</svg>
