<?xml version="1.0" encoding="utf-8"?>
<!-- Generator: Adobe Illustrator 21.0.0, SVG Export Plug-In . SVG Version: 6.00 Build 0)  -->
<svg version="1.1" id="Layer_1" xmlns="http://www.w3.org/2000/svg" xmlns:xlink="http://www.w3.org/1999/xlink" x="0px" y="0px"
	 viewBox="0 0 35 33.3" style="enable-background:new 0 0 35 33.3;" xml:space="preserve">
<style type="text/css">
	.st0{fill:#00ACED;}
	.st1{fill:#637888;}
	.st2{fill:#E0E0DF;}
	.st3{fill:#3A5569;}
	.st4{fill:#60C3AB;}
	.st5{fill:#E14A4A;}
	.st6{fill:#F16D6E;}
</style>
<circle class="st0" cx="17.2" cy="17" r="15.2"/>
<path class="st1" d="M24.9,9.2H9.4c-0.3,0-0.5,0.2-0.5,0.5v9.9c0,0.3,0.2,0.5,0.5,0.5H25c0.3,0,0.5-0.2,0.5-0.5V9.7
	C25.4,9.4,25.2,9.2,24.9,9.2z"/>
<rect x="9.7" y="10" class="st2" width="15" height="9.3"/>
<path class="st3" d="M27,25.7H7.4c-0.2,0-0.3-0.1-0.2-0.3l1.7-5.2C8.9,20.1,9,20,9.2,20h16c0.1,0,0.3,0.1,0.3,0.2l1.7,5.2
	C27.2,25.6,27.2,25.7,27,25.7z"/>
<g>
	<path class="st4" d="M25.5,23.4H8.9c-0.2,0-0.3-0.1-0.2-0.3l0.7-2.3c0-0.1,0.2-0.2,0.3-0.2h14.9c0.1,0,0.3,0.1,0.3,0.2l0.7,2.3
		C25.7,23.3,25.6,23.4,25.5,23.4z"/>
	<path class="st4" d="M18.9,25.3h-3.5c-0.2,0-0.3-0.1-0.3-0.3l0-0.9c0-0.2,0.2-0.3,0.3-0.3h3.3c0.2,0,0.3,0.1,0.3,0.3l0,0.9
		C19.2,25.1,19.1,25.3,18.9,25.3z"/>
</g>
<path class="st2" d="M13.5,6.6L13.5,6.6c0-0.4,0.3-0.7,0.7-0.7c2.2,0,4.4,0,6.5,0c-0.3,0.4-0.3,1,0,1.4c-2.2,0-4.4,0-6.5,0
	C13.9,7.3,13.5,7,13.5,6.6z"/>
<path class="st5" d="M13.3,15.4V6.6l0.9,0.7h6.8v9h-7C13.6,16.2,13.3,15.9,13.3,15.4z"/>
<path class="st6" d="M13.3,6.6c0-0.5,0.4-0.9,0.9-0.9h6.8v0.4h-6.8c-0.3,0-0.5,0.2-0.5,0.5C13.8,6.8,14,7,14.2,7h6.8v0.4h-6.8
	C13.7,7.5,13.3,7.1,13.3,6.6z"/>
</svg>
