<svg xmlns="http://www.w3.org/2000/svg" viewBox="0 0 98.31 98.32"><defs><style>.cls-1{fill:#f79137;}</style></defs><title>Asset 2</title><g id="Layer_2" data-name="Layer 2"><g id="Layer_1-2" data-name="Layer 1"><path class="cls-1" d="M61.1,10.48a35.79,35.79,0,1,0,0,50.62,35.78,35.78,0,0,0,0-50.62m-6.66,44a26.36,26.36,0,1,1,0-37.29,26.36,26.36,0,0,1,0,37.29"/><rect class="cls-1" x="73.32" y="61.3" width="13.66" height="37.71" transform="translate(-33.2 80.15) rotate(-45)"/><path class="cls-1" d="M49.14,21.8V42.75a3.64,3.64,0,0,1-1.65,2.84l-10,5.72a3.81,3.81,0,0,1-3.31,0l-10-5.72a3.64,3.64,0,0,1-1.66-2.84V21.8a1.92,1.92,0,0,1,1.91-1.91H47.2a2,2,0,0,1,1.94,1.91M44.79,28l-2.23-2.23-9.82,9.86L29,31.92,26.8,34.15l5.94,5.94Z"/></g></g></svg>