<?xml version="1.0" encoding="utf-8"?>
<!-- Generator: Adobe Illustrator 21.0.0, SVG Export Plug-In . SVG Version: 6.00 Build 0)  -->
<svg version="1.1" id="Layer_1" xmlns="http://www.w3.org/2000/svg" xmlns:xlink="http://www.w3.org/1999/xlink" x="0px" y="0px"
	 viewBox="0 0 58.8 59" style="enable-background:new 0 0 58.8 59;" xml:space="preserve">
<style type="text/css">
	.st0{fill:#F1F774;}
	.st1{fill:#CCCCCC;}
	.st2{fill:#666666;}
	.st3{fill:#B3B3B3;}
	.st4{fill:#5E86B7;}
	.st5{fill:#E0B394;}
	.st6{fill:#C0E7F9;}
	.st7{fill:#F76B4F;}
	.st8{fill:#A3CDD6;}
	.st9{fill:#F7CBA4;}
	.st10{fill:#E8BA97;}
	.st11{fill:#87AA3C;}
	.st12{fill:#90BC42;}
	.st13{fill:#AF7C38;}
	.st14{fill:#9B6A31;}
	.st15{fill:#F2F2F2;}
	.st16{fill:#4D4D4D;}
</style>
<circle class="st0" cx="29.1" cy="29.4" r="27.9"/>
<g>
	<polygon class="st1" points="29.1,22.2 9.2,22.2 9.2,38.1 22.1,38.1 	"/>
	<g>
		<rect x="11.5" y="24.5" class="st2" width="8.2" height="1"/>
		<rect x="11.5" y="29.6" class="st2" width="8.2" height="1"/>
		<rect x="11.5" y="34.6" class="st2" width="8.2" height="1"/>
		<rect x="11.5" y="27" class="st2" width="8.2" height="1"/>
		<rect x="11.5" y="32.1" class="st2" width="8.2" height="1"/>
	</g>
	<polygon class="st3" points="44.8,36.2 43.8,36.2 43.8,34.1 39.5,34.1 39.5,36.2 38.4,36.2 38.4,33.1 44.8,33.1 	"/>
	<polygon class="st4" points="35.3,35.7 48,35.7 48,45 35.8,45 	"/>
	<g>
		<path class="st5" d="M18.7,27.2c-1.1,0-2-1-2-2.1c0-1.1,0.9-2.1,2.1-2.1c0.1,0,0.2,0,0.3,0L18.7,27.2z"/>
		<path class="st5" d="M37.3,27.2c1.1,0,2-1,2-2.1c0-1.1-0.9-2.1-2.1-2.1c-0.1,0-0.2,0-0.3,0L37.3,27.2z"/>
	</g>
	<path class="st6" d="M37.7,40.2v8.1H18.3v-8.1c0-2.7,2-5,4.5-5.4c0.3-0.1,0.6-0.1,1-0.1h8.4c0.4,0,0.7,0,1,0.1
		C35.8,35.3,37.7,37.6,37.7,40.2z"/>
	<polygon class="st7" points="29.8,39.9 29.7,40 28,42.3 26.3,40 26.3,39.9 28,38.7 	"/>
	<path class="st8" d="M33.3,34.8L32,41.9l-2.2-1.6L28,39.1l-1.7,1.2l-2.2,1.6l-1.2-7.1c0.3-0.1,0.6-0.1,1-0.1h8.4
		C32.6,34.7,32.9,34.8,33.3,34.8z"/>
	<path class="st5" d="M31.9,26.8V35c0,2.2-1.8,3.9-3.9,3.9c-2.2,0-3.9-1.8-3.9-3.9v-9.2"/>
	<path class="st8" d="M27.2,34.7h-3.4c-3,0-5.5,2.5-5.5,5.5v8.1h3.4v-8.1C21.7,37.2,24.2,34.7,27.2,34.7z"/>
	<path class="st9" d="M25,36.2l-3.7-2.7c-1.9-1.4-3-3.7-2.7-6.1l0.6-6.6c0.4-4.5,4.2-8,8.8-8l0,0c4.5,0,8.3,3.4,8.8,8l0.6,6.6
		c0.2,2.4-0.8,4.7-2.7,6.1L31,36.2C29.2,37.5,26.8,37.5,25,36.2z"/>
	<path class="st10" d="M20.9,28.7c-0.1,1,0.3,2.1,0.9,2.9l3.8,4.7c0.2,0.2,0.4,0.4,0.7,0.6c-0.5-0.2-0.9-0.4-1.3-0.7l-3.7-2.7
		c-1.9-1.4-3-3.7-2.7-6.1l0.6-6.6c0.4-4.5,4.2-7.9,8.6-8c-2.8,0.1-5.9,2.7-6,5.4L20.9,28.7z"/>
	<polygon class="st7" points="29.6,48.3 26.4,48.3 28,40.2 	"/>
	<rect x="32.1" y="43.3" class="st8" width="4.4" height="1.3"/>
	<polygon class="st11" points="33.5,18.1 46.4,18.1 46.4,12.1 33.5,12.1 33.5,13.4 	"/>
	<rect x="31.2" y="9.8" class="st12" width="12.9" height="6"/>
	<ellipse class="st11" cx="37.7" cy="12.8" rx="1.3" ry="1.7"/>
	<path class="st13" d="M36.9,22c-1.7-2.6-3.4-1.1-7-1.1c-2.4,0-4.6-1.2-5.7-2c-0.9,0.9-1.8,1.5-2.6,1.9c-1.4,0.7-2.4,0.9-2.4,0.9
		l0.1-0.8c0.4-4.4,4.1-7.8,8.5-8c0,0,0.1,0,0.1,0c0,0,0.1,0,0.1,0c2.3,0,4.3,0.9,5.9,2.3c1.6,1.4,2.6,3.4,2.8,5.7L36.9,22z"/>
	<path class="st14" d="M27.9,12.9c-2.8,0.1-5.9,2.7-6,5.4l-0.2,2.5c-1.4,0.7-2.4,0.9-2.4,0.9l0.1-0.8c0.4-4.4,4.1-7.8,8.5-8
		C27.8,12.9,27.9,12.9,27.9,12.9z"/>
	<g>
		<path class="st11" d="M44.1,14.2v1.7h-1.7C42.5,14.9,43.2,14.2,44.1,14.2z"/>
		<path class="st11" d="M32.9,9.8c0,0.9-0.7,1.7-1.7,1.7V9.8H32.9z"/>
		<path class="st11" d="M44.1,9.8v1.7c-0.9,0-1.7-0.7-1.7-1.7C42.5,9.8,44.1,9.8,44.1,9.8z"/>
	</g>
	<path class="st15" d="M31.5,30.9c0,0-0.1,0.1-0.2,0.3c0,0.1-0.1,0.1-0.1,0.2c0,0.1-0.1,0.1-0.1,0.2c0,0.1-0.1,0.1-0.2,0.2
		c0,0,0,0.1-0.1,0.1c0,0,0,0,0,0c0,0-0.1,0.1-0.1,0.1c-0.1,0.1-0.2,0.1-0.2,0.2c-0.1,0.1-0.2,0.1-0.3,0.2c0,0-0.1,0.1-0.1,0.1
		c-0.1,0-0.1,0.1-0.2,0.1c-0.1,0.1-0.2,0.1-0.3,0.2c-0.2,0.1-0.5,0.2-0.8,0.2C28.6,33,28.3,33,28,33.1c-0.3,0-0.5,0-0.8-0.1
		c-0.3,0-0.5-0.1-0.8-0.2c-0.1-0.1-0.2-0.1-0.3-0.2c-0.1,0-0.1-0.1-0.2-0.1c0,0-0.1-0.1-0.1-0.1c-0.1-0.1-0.2-0.1-0.3-0.2
		c-0.1-0.1-0.2-0.1-0.2-0.2c0,0-0.1-0.1-0.1-0.1c0,0,0,0,0,0c0,0,0,0-0.1-0.1c-0.1-0.1-0.1-0.1-0.2-0.2c0-0.1-0.1-0.1-0.1-0.2
		c0-0.1-0.1-0.1-0.1-0.2c-0.1-0.2-0.2-0.3-0.2-0.3s0.1,0,0.3,0.1c0.1,0,0.1,0,0.2,0.1c0.1,0,0.1,0,0.2,0.1c0.1,0,0.1,0.1,0.2,0.1
		c0.1,0,0.2,0,0.2,0.1c0.1,0,0.2,0.1,0.3,0.1c0.1,0,0.2,0,0.3,0.1c0,0,0.1,0,0.1,0c0,0,0.1,0,0.1,0c0.1,0,0.2,0,0.3,0.1
		c0.2,0,0.4,0.1,0.6,0.1c0.2,0,0.4,0,0.6,0c0.2,0,0.4,0,0.6,0c0.2,0,0.4-0.1,0.6-0.1c0.1,0,0.2,0,0.3-0.1c0,0,0.1,0,0.1,0
		c0,0,0.1,0,0.1,0c0.1,0,0.2,0,0.3-0.1c0.1,0,0.2-0.1,0.3-0.1c0.1,0,0.2,0,0.2-0.1c0.1,0,0.1-0.1,0.2-0.1c0.1,0,0.1,0,0.2-0.1
		c0.1,0,0.1-0.1,0.2-0.1C31.4,31,31.5,30.9,31.5,30.9z"/>
	<g>
		<path class="st16" d="M30.9,31.9C30.9,31.9,30.9,31.9,30.9,31.9c-0.1,0.1-0.1,0.1-0.1,0.1c-0.1,0.1-0.2,0.1-0.2,0.2
			c-0.1,0.1-0.2,0.1-0.3,0.2c0,0-0.1,0.1-0.1,0.1c-0.1,0-0.1,0.1-0.2,0.1c-0.1,0.1-0.2,0.1-0.3,0.2c-0.2,0.1-0.5,0.2-0.8,0.2
			C28.6,33,28.3,33,28,33.1c-0.3,0-0.5,0-0.8-0.1c-0.3,0-0.5-0.1-0.8-0.2c-0.1-0.1-0.2-0.1-0.3-0.2c-0.1,0-0.1-0.1-0.2-0.1
			c0,0-0.1-0.1-0.1-0.1c-0.1-0.1-0.2-0.1-0.3-0.2c-0.1-0.1-0.2-0.1-0.2-0.2c0,0-0.1-0.1-0.1-0.1c0,0,0,0,0,0c0,0,0.1,0,0.1,0
			c0.1,0,0.1,0.1,0.2,0.1c0.1,0,0.2,0,0.2,0.1c0.1,0,0.2,0.1,0.3,0.1c0.1,0,0.2,0,0.3,0.1c0,0,0.1,0,0.1,0c0,0,0.1,0,0.1,0
			c0.1,0,0.2,0,0.3,0.1c0.2,0,0.4,0.1,0.6,0.1c0.2,0,0.4,0,0.6,0c0.2,0,0.4,0,0.6,0c0.2,0,0.4-0.1,0.6-0.1c0.1,0,0.2,0,0.3-0.1
			c0,0,0.1,0,0.1,0c0,0,0.1,0,0.1,0c0.1,0,0.2,0,0.3-0.1c0.1,0,0.2-0.1,0.3-0.1c0.1,0,0.2,0,0.2-0.1C30.7,32,30.7,31.9,30.9,31.9
			C30.8,31.9,30.9,31.9,30.9,31.9z"/>
		<path class="st16" d="M24.1,28c-0.4,0-0.7-0.3-0.7-0.7v-1.1c0-0.4,0.3-0.7,0.7-0.7s0.7,0.3,0.7,0.7v1.1C24.7,27.7,24.4,28,24.1,28
			z"/>
	</g>
	<g>
		<path class="st2" d="M30.5,23.6C30.5,23.6,30.5,23.6,30.5,23.6c0-0.1,0-0.1,0-0.2c0,0,0-0.1,0-0.1c0,0,0-0.1,0-0.1
			c0,0,0-0.1,0.1-0.1c0,0,0.1-0.1,0.1-0.1c0,0,0.1-0.1,0.1-0.1c0,0,0.1-0.1,0.1-0.1c0.1-0.1,0.2-0.1,0.3-0.2c0.1,0,0.2-0.1,0.4-0.1
			c0.1,0,0.3,0,0.4,0c0.1,0,0.3,0,0.4,0c0.1,0,0.2,0.1,0.4,0.1c0.1,0.1,0.2,0.1,0.3,0.2c0,0,0.1,0.1,0.1,0.1c0,0,0.1,0.1,0.1,0.1
			c0,0,0.1,0.1,0.1,0.1c0,0,0,0.1,0.1,0.1c0,0,0,0.1,0,0.1c0,0,0,0.1,0,0.1c0,0.1,0,0.1,0,0.1c0,0,0,0,0,0s0,0,0,0c0,0-0.1,0-0.1,0
			c0,0-0.1,0-0.1,0c0,0-0.1,0-0.1,0c-0.1,0-0.1,0-0.2,0c0,0-0.1,0-0.1,0c0,0-0.1,0-0.1,0c-0.1,0-0.2,0-0.2,0c-0.1,0-0.2,0-0.2,0
			c-0.1,0-0.2,0-0.2,0c-0.1,0-0.2,0-0.2,0c-0.1,0-0.2,0-0.2,0c-0.1,0-0.2,0-0.2,0c0,0-0.1,0-0.1,0c0,0-0.1,0-0.1,0
			c-0.1,0-0.1,0-0.2,0c0,0-0.1,0-0.1,0c0,0-0.1,0-0.1,0C30.6,23.6,30.5,23.6,30.5,23.6C30.5,23.6,30.5,23.6,30.5,23.6z"/>
		<path class="st2" d="M22.5,23.6C22.5,23.6,22.5,23.6,22.5,23.6c0-0.1,0-0.1,0-0.2c0,0,0-0.1,0-0.1c0,0,0-0.1,0-0.1
			c0,0,0-0.1,0.1-0.1c0,0,0.1-0.1,0.1-0.1c0,0,0.1-0.1,0.1-0.1c0,0,0.1-0.1,0.1-0.1c0.1-0.1,0.2-0.1,0.3-0.2c0.1,0,0.2-0.1,0.4-0.1
			c0.1,0,0.3,0,0.4,0c0.1,0,0.3,0,0.4,0c0.1,0,0.2,0.1,0.4,0.1c0.1,0.1,0.2,0.1,0.3,0.2c0,0,0.1,0.1,0.1,0.1c0,0,0.1,0.1,0.1,0.1
			c0,0,0.1,0.1,0.1,0.1c0,0,0,0.1,0.1,0.1c0,0,0,0.1,0,0.1c0,0,0,0.1,0,0.1c0,0.1,0,0.1,0,0.1c0,0,0,0,0,0s0,0,0,0c0,0-0.1,0-0.1,0
			c0,0-0.1,0-0.1,0c0,0-0.1,0-0.1,0c-0.1,0-0.1,0-0.2,0c0,0-0.1,0-0.1,0c0,0-0.1,0-0.1,0c-0.1,0-0.2,0-0.2,0c-0.1,0-0.2,0-0.2,0
			c-0.1,0-0.2,0-0.2,0c-0.1,0-0.2,0-0.2,0c-0.1,0-0.2,0-0.2,0c-0.1,0-0.2,0-0.2,0c0,0-0.1,0-0.1,0c0,0-0.1,0-0.1,0
			c-0.1,0-0.1,0-0.2,0c0,0-0.1,0-0.1,0c0,0-0.1,0-0.1,0C22.7,23.6,22.6,23.6,22.5,23.6C22.6,23.6,22.5,23.6,22.5,23.6z"/>
	</g>
	<path class="st16" d="M32,28c-0.4,0-0.7-0.3-0.7-0.7v-1.1c0-0.4,0.3-0.7,0.7-0.7c0.4,0,0.7,0.3,0.7,0.7v1.1
		C32.6,27.7,32.3,28,32,28z"/>
	<path class="st5" d="M29,25.3v3.2c0,0.6-0.5,1-1,1l0,0c-0.6,0-1-0.5-1-1v-3.2L29,25.3L29,25.3z"/>
</g>
</svg>
