<?xml version="1.0" encoding="utf-8"?>
<!-- Generator: Adobe Illustrator 21.0.0, SVG Export Plug-In . SVG Version: 6.00 Build 0)  -->
<svg version="1.1" id="Layer_1" xmlns="http://www.w3.org/2000/svg" xmlns:xlink="http://www.w3.org/1999/xlink" x="0px" y="0px"
	 viewBox="0 0 35 33.3" style="enable-background:new 0 0 35 33.3;" xml:space="preserve">
<style type="text/css">
	.st0{fill:#FCAC70;}
	.st1{fill:#0E7886;}
	.st2{fill:#FBB429;}
	.st3{fill:#20D0C2;}
	.st4{fill:#377BB9;}
	.st5{fill:#F5A209;}
	.st6{fill:#FFFFFF;}
</style>
<circle class="st0" cx="17.2" cy="17" r="15.2"/>
<path class="st1" d="M17.2,27c5.7,0,10.4-4.7,10.4-10.4S22.9,6.3,17.2,6.3c-5.7,0-10.4,4.7-10.4,10.4S11.5,27,17.2,27z"/>
<path class="st2" d="M11.4,11.7l15,0.3c0.7,1.4,1.1,3,1.1,4.7c0,5.7-4.6,10.4-10.4,10.4c-2.2,0-4.3-0.7-6-1.9L11.4,11.7z"/>
<path class="st3" d="M9.7,14.1l15.9-3.5c1.2,1.7,1.9,3.8,1.9,6c0,5.7-4.6,10.4-10.4,10.4c-1.8,0-3.5-0.4-4.9-1.2L9.7,14.1
	C9.7,14.1,9.7,14.1,9.7,14.1z"/>
<path class="st4" d="M19.5,14.2c0.2,0.1,0.3,0.3,0.3,0.4c-0.1,0.1-0.3,0.1-0.5,0c-0.2-0.1-0.3-0.3-0.3-0.4
	C19.1,14.1,19.3,14.1,19.5,14.2z"/>
<path class="st2" d="M25,8.4l-2.1,4l-2.7-2l3.2-3.1L23,7c-0.2-0.1-0.2-0.4-0.1-0.6c0.1-0.2,0.4-0.2,0.6-0.1l2.4,1.8
	c0.2,0.1,0.2,0.4,0.1,0.6c-0.1,0.2-0.4,0.2-0.6,0.1L25,8.4L25,8.4z"/>
<path class="st5" d="M23.4,7.3L23,7c-0.2-0.1-0.2-0.4-0.1-0.5l3.1,2.3c-0.1,0.2-0.4,0.2-0.5,0.1L25,8.4L23.4,7.3z"/>
<path class="st6" d="M21,11.6l0.5,0.4l-1.9,2.6c-0.2,0.2-0.6-0.1-0.5-0.4L21,11.6L21,11.6z"/>
<path class="st2" d="M20.3,9.9l3.1,2.3c0.2,0.2,0.3,0.5,0.1,0.8c-0.2,0.2-0.5,0.3-0.8,0.1l-3.1-2.3c-0.2-0.2-0.3-0.5-0.1-0.8
	C19.7,9.8,20,9.7,20.3,9.9L20.3,9.9z"/>
<path class="st5" d="M23.5,13c-0.2,0.2-0.5,0.3-0.8,0.1l-3.1-2.3c-0.2-0.2-0.3-0.5-0.1-0.8L23.5,13L23.5,13L23.5,13z"/>
<path class="st6" d="M12.4,17l12.5-2.4L25,15l-12.5,2.5L12.4,17z M13.5,21.5L13.5,21.5l8-1.6l0.1,0.5L13.6,22L13.5,21.5L13.5,21.5
	L13.5,21.5z M13.2,20.4L13.2,20.4l0.1,0.5l12.5-2.5l-0.1-0.5L13.2,20.4z M12.9,19.3L12.9,19.3l0.1,0.5l12.5-2.5l-0.1-0.5L12.9,19.3z
	 M12.6,18.1L12.6,18.1l0.1,0.5l12.5-2.5l-0.1-0.5L12.6,18.1z"/>
</svg>
