<?xml version="1.0" encoding="utf-8"?>
<!-- Generator: Adobe Illustrator 21.0.0, SVG Export Plug-In . SVG Version: 6.00 Build 0)  -->
<svg version="1.1" id="Capa_1" xmlns="http://www.w3.org/2000/svg" xmlns:xlink="http://www.w3.org/1999/xlink" x="0px" y="0px"
	 viewBox="0 0 512 519" style="enable-background:new 0 0 512 519;" xml:space="preserve">
<style type="text/css">
	.st0{fill:#FFFFFF;}
</style>
<g>
	<path class="st0" d="M419.9,361.1l-43.8,60.6l-33.7-19.7c-3.6-3-17.5-10.6-23-1.9c-4.5,7.9-0.5,12.1,3.2,15.1l49.8,33.5
		c1.5,1.3,3.4,1.9,5.4,1.9c0.4,0,0.8,0,1.2-0.1c2.4-0.3,4.5-1.6,5.8-3.6l53-76.2c2.7-3.9,0.9-11.3-2.9-14
		C426.7,353.7,422.6,357.3,419.9,361.1z"/>
	<path class="st0" d="M388.3,297.6V66.7c0-4.7-3.8-8.5-8.5-8.5h-68.3V41.1c0-4.7-3.8-8.5-8.5-8.5h-51.2V15.5c0-4.7-3.8-8.5-8.5-8.5
		h-76.8c-4.7,0-8.5,3.8-8.5,8.5v17.1h-51.2c-4.7,0-8.5,3.8-8.5,8.5v17.1H29.9c-4.7,0-8.5,3.8-8.5,8.5v426.7c0,4.7,3.8,8.5,8.5,8.5
		h291c17.1,10.8,37.2,17.1,58.8,17.1c61.2,0,110.9-49.8,110.9-110.9C490.7,349.8,445.4,301.9,388.3,297.6z M174.9,24.1h59.7v17.1
		v17.1h-59.7V41.1V24.1z M115.2,49.7h42.7v17.1c0,4.7,3.8,8.5,8.5,8.5h76.8c4.7,0,8.5-3.8,8.5-8.5V49.7h42.7v17.1v17.1H115.2V66.7
		V49.7z M44.4,475.9l3-393.6h50.7v10.1c0,4.7,3.8,8.5,8.5,8.5h196.3c4.7,0,8.5-3.8,8.5-8.5V75.3h48.7v222.2c-0.5,0-1,0.1-1.4,0.2
		c-1.7,0.2,7.7,0.4,6.1,0.6c-2,0.3-3.9,0.5-5.8,0.9c-1.6,0.3-3.3,0.7-4.9,1.1c-1.9,0.4-3.7,0.9-5.6,1.4c-1.6,0.5-3.2,1-4.7,1.5
		c-1.8,0.6-3.6,1.2-5.3,2c-1.5,0.6-3,1.3-4.5,2c-1.7,0.8-3.4,1.6-5,2.4c-1.5,0.8-2.9,1.5-4.3,2.4c-1.6,0.9-3.2,1.9-4.7,2.9
		c-1.4,0.9-2.7,1.8-4.1,2.7c-1.5,1.1-3,2.2-4.4,3.3c-1.3,1-2.5,2-3.8,3.1c-1.4,1.2-2.8,2.5-4.1,3.7c-1.2,1.1-2.3,2.2-3.5,3.4
		c-1.3,1.3-2.5,2.7-3.8,4.1c-1.1,1.2-2.1,2.4-3.1,3.7c-1.2,1.5-2.3,3-3.4,4.5c-0.9,1.3-1.9,2.6-2.8,3.9c-1,1.6-2,3.2-3,4.9
		c-0.8,1.4-1.6,2.7-2.4,4.1c-0.9,1.7-1.7,3.5-2.6,5.3c-0.6,1.4-1.3,2.8-1.9,4.2c-0.8,1.9-1.4,3.8-2.1,5.7c-0.5,1.4-1,2.8-1.5,4.3
		c-0.6,2-1.1,4.1-1.6,6.2c-0.3,1.4-0.7,2.7-1,4.2c-0.5,2.3-0.8,4.8-1.1,7.2c-0.2,1.2-0.4,2.4-0.5,3.6c-0.4,3.7-0.6,7.3-0.6,11.1
		c0,3.7,0.2,7.4,0.6,11c0.1,1.4,0.4,2.7,0.6,4.1c0.3,2.2,0.6,4.5,1,6.7c0.3,1.5,0.7,2.9,1.1,4.4c0.5,2,1,4.1,1.6,6.1
		c0.4,1.4,0.9,2.7,1.4,4c0.7,2.1,1.4,4.2,2.3,6.2c0.5,1.1,1,2.2,1.5,3.3c1,2.2,2,4.3,3.1,6.4c0.5,0.9,1,1.8,1.6,2.7
		c1.3,2.2,2.5,4.4,4,6.5c0.5,0.8,1.1,1.5,1.6,2.3c1.5,2.1,3,4.2,4.7,6.3c0.6,0.8,1.3,1.5,1.9,2.2c1.3,1.5,2.6-5.9,4-4.4l-255.3,1
		V475.9z M379.7,493.3c-17.5,0-33.8-5.3-47.3-14.4c-2.6-1.8-5.1-3.7-7.5-5.7c-0.8-0.7-1.6-1.5-2.4-2.2c-1.5-1.4-3-2.8-4.4-4.3
		c-0.9-1-1.8-1.9-2.6-2.9c-1.3-1.5-2.5-3-3.6-4.5c-0.7-1-1.5-1.9-2.2-3c-1.7-2.5-3.3-5-4.8-7.7c-0.3-0.6-0.6-1.3-0.9-1.9
		c-1.1-2.2-2.2-4.5-3.1-6.8c-0.4-1-0.8-2-1.1-3.1c-0.7-2-1.4-4.1-2-6.2c-0.3-1.1-0.6-2.1-0.8-3.2c-0.5-2.2-0.9-4.4-1.3-6.7
		c-0.1-1-0.3-1.9-0.4-2.9c-0.4-3.2-0.6-6.5-0.6-9.8c0-47,38.3-85.3,85.3-85.3s85.3,38.3,85.3,85.3S426.7,493.3,379.7,493.3z"/>
	<path class="st0" d="M81.1,160.6H192c4.7,0,8.5-3.8,8.5-8.5c0-4.7-3.8-8.5-8.5-8.5H81.1c-4.7,0-8.5,3.8-8.5,8.5
		C72.5,156.8,76.4,160.6,81.1,160.6z"/>
	<path class="st0" d="M192,399.5H81.1c-4.7,0-8.5,3.8-8.5,8.5c0,4.7,3.8,8.5,8.5,8.5H192c4.7,0,8.5-3.8,8.5-8.5
		C200.5,403.3,196.7,399.5,192,399.5z"/>
	<path class="st0" d="M81.1,211.8h247.5c4.7,0,8.5-3.8,8.5-8.5s-3.8-8.5-8.5-8.5H81.1c-4.7,0-8.5,3.8-8.5,8.5S76.4,211.8,81.1,211.8
		z"/>
	<path class="st0" d="M81.1,314.2h204.8c4.7,0,8.5-3.8,8.5-8.5c0-4.7-3.8-8.5-8.5-8.5H81.1c-4.7,0-8.5,3.8-8.5,8.5
		C72.5,310.4,76.4,314.2,81.1,314.2z"/>
	<path class="st0" d="M243.2,348.3H81.1c-4.7,0-8.5,3.8-8.5,8.5c0,4.7,3.8,8.5,8.5,8.5h162.1c4.7,0,8.5-3.8,8.5-8.5
		C251.7,352.1,247.9,348.3,243.2,348.3z"/>
	<path class="st0" d="M81.1,263h119.5c4.7,0,8.5-3.8,8.5-8.5c0-4.7-3.8-8.5-8.5-8.5H81.1c-4.7,0-8.5,3.8-8.5,8.5
		C72.5,259.2,76.4,263,81.1,263z"/>
	<path class="st0" d="M328.5,245.9h-59.7c-4.7,0-8.5,3.8-8.5,8.5c0,4.7,3.8,8.5,8.5,8.5h59.7c4.7,0,8.5-3.8,8.5-8.5
		C337.1,249.7,333.2,245.9,328.5,245.9z"/>
	<path class="st0" d="M228.6,248.4c-1.6,1.6-2.5,3.8-2.5,6.1c0,2.2,0.9,4.4,2.5,6.1c1.6,1.6,3.8,2.5,6.1,2.5c2.2,0,4.4-0.9,6.1-2.5
		c1.5-1.6,2.5-3.8,2.5-6.1c0-2.2-0.9-4.4-2.5-6.1C237.6,245.3,231.9,245.3,228.6,248.4z"/>
</g>
</svg>
