<?xml version="1.0" encoding="utf-8"?>
<!-- Generator: Adobe Illustrator 21.0.0, SVG Export Plug-In . SVG Version: 6.00 Build 0)  -->
<svg version="1.1" id="Layer_1" xmlns="http://www.w3.org/2000/svg" xmlns:xlink="http://www.w3.org/1999/xlink" x="0px" y="0px"
	 viewBox="0 0 35 33.3" style="enable-background:new 0 0 35 33.3;" xml:space="preserve">
<style type="text/css">
	.st0{fill:#ACB3BA;}
	.st1{fill:#CDD6E0;}
	.st2{fill:#F2F2F2;}
	.st3{fill:#FF7058;}
	.st4{fill:#84DBFF;}
	.st5{fill:#B8CAD8;}
	.st6{fill:#F8B64C;}
	.st7{fill:#F7AF48;}
	.st8{fill:#FFD15C;}
	.st9{fill:#40596B;}
	.st10{fill:#FFFFFF;}
	.st11{fill:#334A5E;}
</style>
<circle class="st0" cx="17.2" cy="17" r="15.2"/>
<g>
	<polygon class="st1" points="25.2,17.9 25.2,20.2 24.3,20.2 24.3,18.8 17.9,18.8 17.9,20.1 17,20.1 17,18.8 10.6,18.8 10.6,20.2 
		9.8,20.2 9.8,17.9 17,17.9 17,16.6 17.9,16.6 17.9,17.9 	"/>
	<g>
		<path class="st2" d="M13.3,23c0,0.7-0.2,1.3-0.5,1.7c-0.3,0.3-0.6,0.7-0.9,0.9c0,0-0.1,0.1-0.2,0.1c-0.4,0.3-1,0.4-1.5,0.4
			c-0.5,0-1-0.1-1.5-0.4c0,0-0.1-0.1-0.2-0.1c-0.3-0.2-0.7-0.5-0.9-0.9c-0.3-0.5-0.5-1.1-0.5-1.7c0-1.7,1.4-3.1,3.1-3.1
			C11.9,19.8,13.3,21.2,13.3,23z"/>
		<circle class="st2" cx="24.8" cy="23" r="3.1"/>
		<path class="st2" d="M20.6,23c0,0.7-0.2,1.3-0.6,1.9c-0.6,0.8-1.5,1.3-2.5,1.3s-2-0.5-2.5-1.3c-0.4-0.5-0.6-1.2-0.6-1.9
			c0-1.7,1.4-3.1,3.1-3.1S20.6,21.2,20.6,23z"/>
	</g>
	<path class="st3" d="M20,24.8c-0.6,0.8-1.5,1.3-2.5,1.3s-2-0.5-2.5-1.3c0.1-0.1,0.3-0.2,0.4-0.3c0.4-0.2,1-0.4,1.3-0.6
		c0,0,0,0,0.1,0c0,0,0-0.5,0-0.5c0,0-0.3-0.4-0.4-0.7l0,0c-0.1,0-0.2-0.1-0.2-0.3c0-0.2,0-0.4,0.1-0.4l0,0c0-0.4-0.1-1.6,1.3-1.6
		c1.3,0,1.3,1.2,1.3,1.6l0,0c0.1,0,0.1,0.2,0.1,0.4c0,0.2-0.1,0.3-0.2,0.3l0,0c-0.1,0.3-0.4,0.7-0.4,0.7c0,0,0,0.5,0,0.5
		c0,0,0,0,0.1,0c0.2,0.2,0.8,0.4,1.3,0.6C19.7,24.6,19.9,24.7,20,24.8z"/>
	<path class="st1" d="M12.7,24.8c-0.6,0.8-1.5,1.3-2.5,1.3s-2-0.5-2.5-1.3c0.1-0.1,0.3-0.2,0.4-0.3c0.4-0.2,1-0.4,1.3-0.6
		c0,0,0,0,0.1,0c0,0,0-0.5,0-0.5c0,0-0.3-0.4-0.4-0.7l0,0c-0.1,0-0.2-0.1-0.2-0.3c0-0.2,0-0.4,0.1-0.4l0,0c0-0.4-0.1-1.6,1.3-1.6
		c1.3,0,1.3,1.2,1.3,1.6l0,0c0.1,0,0.1,0.2,0.1,0.4c0,0.2-0.1,0.3-0.2,0.3l0,0C11.3,23,11,23.4,11,23.4c0,0,0,0.5,0,0.5
		c0,0,0,0,0.1,0c0.3,0.2,0.8,0.4,1.3,0.6C12.5,24.6,12.6,24.7,12.7,24.8z"/>
	<path class="st4" d="M27.3,24.8c-0.6,0.8-1.5,1.3-2.5,1.3c-1,0-2-0.5-2.5-1.3c0.1-0.1,0.3-0.2,0.4-0.3c0.4-0.2,1-0.4,1.3-0.6
		c0,0,0,0,0.1,0c0,0,0-0.5,0-0.5c0,0-0.3-0.4-0.4-0.7l0,0c-0.1,0-0.2-0.1-0.2-0.3c0-0.2,0-0.4,0.1-0.4l0,0c0-0.4-0.1-1.6,1.3-1.6
		c1.3,0,1.3,1.2,1.3,1.6l0,0c0.1,0,0.1,0.2,0.1,0.4c0,0.2-0.1,0.3-0.2,0.3l0,0c-0.1,0.3-0.4,0.7-0.4,0.7c0,0,0,0.5,0,0.5s0,0,0.1,0
		c0.2,0.2,0.8,0.4,1.3,0.6C27,24.6,27.2,24.7,27.3,24.8z"/>
	<path class="st5" d="M17.9,16.6v0.9c0,0,0,0-0.1,0h0c-0.1,0-0.2,0-0.3,0c-0.1,0-0.2,0-0.3,0c0,0-0.1,0-0.1,0v-0.9H17.9z"/>
	<path class="st0" d="M23.2,11c0,1.2-0.4,2.3-1,3.3c-0.2,0.3-0.5,0.6-0.8,0.9c-1,0.9-2.3,1.5-3.7,1.6l0,0c-0.1,0-0.2,0-0.3,0
		s-0.2,0-0.3,0c-1.4-0.1-2.7-0.7-3.7-1.6c-0.3-0.3-0.5-0.6-0.8-0.9c-0.7-1-1-2.1-1-3.3c0-3.2,2.6-5.8,5.8-5.8
		C20.7,5.3,23.2,7.9,23.2,11z"/>
	<g>
		<ellipse transform="matrix(0.9806 -0.1961 0.1961 0.9806 -1.5587 3.2026)" class="st6" cx="15.4" cy="9.5" rx="0.3" ry="0.7"/>
		<ellipse transform="matrix(0.1961 -0.9806 0.9806 0.1961 6.4191 26.8057)" class="st6" cx="19.6" cy="9.5" rx="0.7" ry="0.3"/>
	</g>
	<path class="st1" d="M22.3,14.3c-0.2,0.3-0.5,0.6-0.8,0.9c-1,0.9-2.3,1.5-3.7,1.6h-0.6c-1.4-0.1-2.7-0.7-3.7-1.6
		c-0.3-0.3-0.5-0.6-0.8-0.9c0.1-0.3,0.2-0.5,0.3-0.7c0,0,0,0,0.1,0l0,0l0,0c0.1,0,0.3-0.1,0.5-0.2c0.5-0.2,1.3-0.5,1.9-0.9
		c0.1,0,0.2-0.1,0.3-0.2s0.2-0.1,0.3-0.2l0,0l0.1-0.4c0,0,0.3,0.7,1.1,0.8c0,0,0.1,0,0.2,0h0.1c0.1,0,0.2,0,0.3,0l0,0
		c0,0,0.1,0,0.1,0c0,0,0.1,0,0.1,0c0.1,0,0.1,0,0.2-0.1c0,0,0.1,0,0.1-0.1c0.1,0,0.1-0.1,0.2-0.1c0.1-0.1,0.1-0.1,0.2-0.2
		c0.1-0.1,0.1-0.2,0.1-0.2l0.1,0.4c0.8,0.6,2.5,1.3,3,1.4c0,0,0.1,0,0.1,0C22,13.9,22.1,14.1,22.3,14.3z"/>
	<path class="st0" d="M16.2,13.4l0.3,0.6l0.5-0.7l-0.1-0.1l-0.4,0.6l-0.4-0.8C16.1,13,16.1,13.2,16.2,13.4z"/>
	<path class="st6" d="M18.8,11.9c0,0-0.3,0.7-1.1,0.8c-0.1,0-0.2,0-0.3,0c-0.1,0-0.2,0-0.3,0c-0.7-0.1-1.1-0.8-1.1-0.8s0-0.1,0-0.3
		c0-0.1,0-0.1,0-0.2c0.6,0.8,1.3,0.9,1.3,0.9s0.7-0.1,1.3-0.9c0,0,0,0.1,0,0.2C18.8,11.7,18.8,11.9,18.8,11.9z"/>
	<path class="st7" d="M18.8,11.6c-0.6,0.7-1.2,0.8-1.3,0.8l0,0l0,0c0,0-0.7-0.1-1.3-0.8c0-0.1,0-0.1,0-0.2c0.6,0.8,1.3,0.9,1.3,0.9
		s0.7-0.1,1.3-0.9C18.8,11.4,18.8,11.5,18.8,11.6z"/>
	<path class="st8" d="M19.6,8.9c0,0.1,0,0.2,0,0.2c-0.4,2.8-2.2,3.1-2.2,3.1s-1.8-0.3-2.2-3.1c0,0,0-0.1,0-0.2l0,0
		C15.1,8.2,15,6,17.4,6.1C19.8,6,19.8,8.2,19.6,8.9z"/>
	<path class="st9" d="M21.9,13.7l-0.4,1.5c-1,0.9-2.3,1.5-3.7,1.6h-0.3v-0.7c0-0.1,0.1-0.2,0.1-0.3c0.1-0.2,0.2-0.4,0.3-0.6
		c0,0,0,0,0-0.1c0.3-0.5,0.4-0.9,0.4-0.9c0.1-0.3,0.3-0.6,0.3-0.8c0-0.1,0-0.2,0.1-0.3c0.1-0.6,0-0.9,0-0.9l0,0
		C19.7,12.8,21.4,13.5,21.9,13.7L21.9,13.7z"/>
	<path class="st0" d="M18.7,13.4L18.4,14l-0.5-0.7l0.1-0.1l0.4,0.6l0.4-0.8C18.9,13,18.8,13.2,18.7,13.4z"/>
	<path class="st10" d="M17.7,13.5l0.3,1.6c-0.2,0.3-0.3,0.7-0.5,1c-0.1-0.3-0.3-0.7-0.5-1l0.3-1.6l-0.3-0.4l0.3-0.5l0,0
		c0.1,0,0.2,0,0.3,0c0.1,0,0.2,0,0.3,0l0,0l0.3,0.5L17.7,13.5z"/>
	<g>
		<path class="st11" d="M17.8,16.8L17.8,16.8h-0.3c-0.1,0-0.2,0-0.3,0c-1.4-0.1-2.7-0.7-3.7-1.6l-0.4-1.5l0.1,0l0,0l0,0
			c0.1,0,0.3-0.1,0.5-0.2c0.5-0.2,1.3-0.5,1.9-0.9c0.1,0,0.2-0.1,0.3-0.2s0.2-0.1,0.3-0.2l0,0c0,0-0.1,0.3,0,0.9
			c0,0.1,0,0.2,0.1,0.3c0.1,0.3,0.2,0.5,0.3,0.8c0,0,0.2,0.4,0.4,0.9c0,0,0,0,0,0.1c0.1,0.2,0.2,0.4,0.3,0.6c0,0.1,0.1,0.2,0.1,0.3
			C17.7,16.5,17.8,16.7,17.8,16.8z"/>
		<path class="st11" d="M19.6,8.9L19.6,8.9C19.6,9,19.5,7.9,19,7c0,0-0.3,0.5-1.5,0.5C16.3,7.5,16,7,16,7c-0.5,0.8-0.6,2-0.6,2
			l-0.1-0.1l0,0c-0.1-0.7-0.2-2.9,2.2-2.8C19.8,6,19.8,8.2,19.6,8.9z"/>
	</g>
</g>
</svg>
