<svg xmlns="http://www.w3.org/2000/svg" viewBox="0 0 65.99 70.27"><defs><style>.cls-1{fill:#0582c0;}</style></defs><title>Asset 3</title><g id="Layer_2" data-name="Layer 2"><g id="Layer_1-2" data-name="Layer 1"><path class="cls-1" d="M60.26,46.42V0H5.64L0,3.33V70.27H57.7v-6H66s-5.73-4.6-5.73-17.88m-3.79-10H46.59V25.83h9.88ZM32.29,24.2h-11V13.63h11Zm1.63-10.57H45V24.2h-11Zm-24.49,0H19.62V24.2H9.43Zm0,12.2H19.62V36.4H9.43ZM9.43,38H19.62v8.4c0,.76,0,1.48,0,2.17H9.43Zm11.82,8.4V38h11v8.4c0,.76,0,1.48,0,2.17h-11c0-.69,0-1.41,0-2.17m0-20.6h11V36.4h-11Zm12.67,0H45V36.4h-11ZM56.47,24.2H46.59V13.63h9.88Zm-36.7,26c.43,5.37,1.76,8.49,3.08,10.29H12.24a5.17,5.17,0,0,1-1.14-1.65c-.68-1.42-1.48-4-1.64-8.64ZM25,60.51c-1.27-1.17-3.09-3.93-3.61-10.29h11c.43,5.37,1.76,8.49,3.08,10.29Zm12.67,0c-1.28-1.17-3.09-3.93-3.61-10.29h11c.43,5.37,1.76,8.49,3.08,10.29ZM34,48.59c0-.69,0-1.41,0-2.17V38H45v8.4c0,.76,0,1.48,0,2.17Zm12.62-2.17V38h9.88v10c0,.18,0,.36,0,.54H46.64c0-.69,0-1.41,0-2.17M53.9,66.48H3.79V5.5L5.64,4.41V48.59c0,14.64,5.73,15.71,5.73,15.71H53.9Zm3.79-6H50.35c-1.27-1.17-3.09-3.93-3.61-10.29h9.77a31.49,31.49,0,0,0,2,10.29Z"/></g></g></svg>