<svg xmlns="http://www.w3.org/2000/svg" viewBox="0 0 59.26 74.07"><defs><style>.cls-1{fill:#ffc534;}</style></defs><title>Asset 1</title><g id="Layer_2" data-name="Layer 2"><g id="Layer_1-2" data-name="Layer 1"><path class="cls-1" d="M0,74.07H59.26V0H0Zm57-4.44H2.22V2.22H57Z"/><rect class="cls-1" x="7.29" y="48.67" width="21.49" height="1.61"/><rect class="cls-1" x="7.29" y="42.82" width="21.49" height="1.61"/><rect class="cls-1" x="7.29" y="54.51" width="21.49" height="1.61"/><rect class="cls-1" x="7.29" y="60.34" width="21.49" height="1.61"/><rect class="cls-1" x="7.29" y="5.39" width="34.96" height="2.61"/><polygon class="cls-1" points="50.37 61.48 50.37 37.04 46.67 37.04 46.67 61.48 44.44 61.48 44.44 17.04 39.26 17.04 39.26 61.48 34.81 61.48 34.81 62.22 54.81 62.22 54.81 61.48 50.37 61.48"/><path class="cls-1" d="M18.09,28.08l2.61-9.87a10.24,10.24,0,1,0,6.5,5.26Z"/><path class="cls-1" d="M29.92,20.09a10.23,10.23,0,0,0-6.5-5.26L20.81,24.7Z"/></g></g></svg>