<?xml version="1.0" encoding="utf-8"?>
<!-- Generator: Adobe Illustrator 21.0.0, SVG Export Plug-In . SVG Version: 6.00 Build 0)  -->
<svg version="1.1" id="Layer_1" xmlns="http://www.w3.org/2000/svg" xmlns:xlink="http://www.w3.org/1999/xlink" x="0px" y="0px"
	 viewBox="0 0 48.3 48.3" style="enable-background:new 0 0 48.3 48.3;" xml:space="preserve">
<style type="text/css">
	.st0{fill:#556080;}
	.st1{fill:#26B99A;}
	.st2{fill:#424A60;}
	.st3{fill:#E7ECED;}
	.st4{fill:#EBBA16;}
</style>
<g>
	<path class="st0" d="M46.4,24.1C46.4,37,36,47.3,23.2,47.3C10.4,47.3,0,37,0,24.1C0,11.3,10.4,0.9,23.2,0.9
		C36,0.9,46.4,11.3,46.4,24.1L46.4,24.1z M46.4,24.1"/>
	<path class="st1" d="M20.4,5.4c-1.7-0.3-2.5-2.3-1.5-3.7l0.3-0.4c-2.3,0.4-4.5,1.1-6.5,2.2c1.4,0.3,2.5,1.6,2.5,3.1
		c0,1.8-1.4,3.2-3.2,3.2c-1.8,0-3.2-1.4-3.2-3.2c0-0.2,0-0.4,0.1-0.6c0.9-0.7-1.7,1.3-3.5,3.4c0.4,0.7,0.4,1.6-0.1,2.4l-0.7,1
		l1.6,1.6l1-0.7c1.4-1,3.4-0.2,3.7,1.5l0.2,1.2h2.2l0.1-0.9c0.3-1.8,2.3-2.6,3.8-1.6l0.7,0.5l1.6-1.6l-0.7-1c-1-1.4-0.1-3.4,1.6-3.7
		l1.2-0.2V5.6L20.4,5.4z M20.4,5.4"/>
	<path class="st2" d="M39.2,36.5c0-2.4,2-4.4,4.4-4.4c0.4,0,0.9,0.1,1.3,0.2c0.5-1.3,0.9-2.7,1.1-4.1c-0.5-0.4-0.9-1-1-1.8l-0.2-1.5
		H42l-0.4,1.9c-0.4,2.1-2.8,3.1-4.6,1.9l-1.6-1.1l-2,2l0.9,1.2c1.3,1.8,0.3,4.3-1.8,4.7l-1.4,0.3v2.8l1.5,0.2c2.2,0.3,3.2,2.8,2,4.6
		l-0.8,1.2l0.1,0.1c2.5-1.3,4.7-3,6.5-5.1C39.7,38.8,39.2,37.7,39.2,36.5L39.2,36.5z M39.2,36.5"/>
	<path class="st3" d="M42.3,19.7C42.3,19.7,42.3,19.7,42.3,19.7c1.1-1.3,1.9-2.9,2.3-4.6c-2.3-5.5-6.8-10-12.3-12.3
		c-1.7,0.4-3.3,1.2-4.6,2.3c0,0,0,0,0,0l-1.1-1.1c-0.3-0.3-0.8-0.3-1.1,0C25,4.2,25,4.7,25.3,5l1.1,1.1c0,0,0,0,0,0
		c-1.4,1.6-2.3,3.7-2.5,6c0,0,0,0,0,0h-1.6c-0.4,0-0.8,0.4-0.8,0.8c0,0.4,0.4,0.8,0.8,0.8H24c0,0,0,0,0,0c0.2,2.3,1.1,4.3,2.5,6
		c0,0,0,0,0,0l-1.1,1.1c-0.3,0.3-0.3,0.8,0,1.1c0.2,0.2,0.4,0.2,0.6,0.2c0.2,0,0.4-0.1,0.6-0.2l1.1-1.1c0,0,0,0,0,0
		c1.6,1.4,3.7,2.3,6,2.5c0,0,0,0,0,0v1.6c0,0.4,0.4,0.8,0.8,0.8c0.4,0,0.8-0.4,0.8-0.8v-1.6c0,0,0,0,0,0c2.3-0.2,4.3-1.1,6-2.5
		c0,0,0,0,0,0l1.1,1.1c0.2,0.2,0.4,0.2,0.6,0.2c0.2,0,0.4-0.1,0.6-0.2c0.3-0.3,0.3-0.8,0-1.1L42.3,19.7z M34.4,15.3
		c-1.3,0-2.4-1.1-2.4-2.4c0-1.3,1.1-2.4,2.4-2.4c1.3,0,2.4,1.1,2.4,2.4C36.8,14.3,35.7,15.3,34.4,15.3L34.4,15.3z M34.4,15.3"/>
	<path class="st3" d="M16.8,32.9c0,1.3-1.1,2.4-2.4,2.4c-1.3,0-2.4-1.1-2.4-2.4c0-1.3,1.1-2.4,2.4-2.4
		C15.7,30.5,16.8,31.6,16.8,32.9L16.8,32.9z M16.8,32.9"/>
	<path class="st4" d="M29.1,38.6l-2-0.9c0,0,0,0,0,0c0.6-1.5,0.9-3.1,0.9-4.8c0-1.5-0.2-2.9-0.7-4.2c0,0,0,0,0,0l1.7-0.7
		c0.4-0.2,0.6-0.6,0.5-1c-0.2-0.4-0.6-0.6-1-0.5l-1.7,0.7c0,0,0,0,0,0c-1.3-2.8-3.4-5-6.1-6.4c0,0,0,0,0,0l0.9-2
		c0.2-0.4,0-0.9-0.4-1.1c-0.4-0.2-0.9,0-1.1,0.4l-0.9,2c0,0,0,0,0,0c-1.5-0.6-3.1-0.9-4.8-0.9c-1.5,0-2.9,0.2-4.2,0.7c0,0,0,0,0,0
		l-0.7-1.7c-0.2-0.4-0.6-0.6-1-0.5c-0.4,0.2-0.6,0.6-0.5,1l0.7,1.7c0,0,0,0,0,0c-2.8,1.3-5,3.5-6.4,6.2c0,0,0,0,0,0L0.6,26
		c-0.2-0.1-0.3-0.1-0.5,0c0,0.6,0.1,1.1,0.2,1.6l1.4,0.6c0,0,0,0,0,0C1.4,29,1.1,29.9,1,30.8c0.3,0.9,0.6,1.8,1,2.7
		c0,0,0,0.1,0.1,0.1c0.2,0.4,0.4,0.8,0.6,1.1c0,0,0,0.1,0.1,0.1c0.6,1.2,1.4,2.4,2.2,3.5c0,0,0.1,0.1,0.1,0.1c0.3,0.3,0.5,0.7,0.8,1
		c0,0,0,0,0.1,0.1c0.6,0.7,1.3,1.3,2,2c0,0,0,0,0.1,0.1c0.3,0.3,0.6,0.6,1,0.8c0,0,0.1,0.1,0.1,0.1c1.1,0.8,2.3,1.6,3.5,2.2
		c0,0,0.1,0,0.1,0.1c0.4,0.2,0.8,0.4,1.1,0.6c0,0,0.1,0,0.1,0.1c0.9,0.4,1.8,0.7,2.7,1c0.7-0.1,1.4-0.3,2-0.5c0,0,0,0,0,0l0.4,1
		c0.6,0.1,1.2,0.2,1.8,0.3L20,45.3c0,0,0,0,0,0c2.8-1.3,5.1-3.4,6.5-6.1c0,0,0,0,0,0l2,0.9c0.1,0,0.2,0.1,0.3,0.1
		c0.3,0,0.6-0.2,0.7-0.5C29.7,39.3,29.5,38.8,29.1,38.6L29.1,38.6z M14.4,38.5c-3.1,0-5.6-2.5-5.6-5.6c0-3.1,2.5-5.6,5.6-5.6
		c3.1,0,5.6,2.5,5.6,5.6C20,36,17.5,38.5,14.4,38.5L14.4,38.5z M14.4,38.5"/>
</g>
</svg>
