<?xml version="1.0" encoding="utf-8"?>
<!-- Generator: Adobe Illustrator 21.0.0, SVG Export Plug-In . SVG Version: 6.00 Build 0)  -->
<svg version="1.1" id="Layer_1" xmlns="http://www.w3.org/2000/svg" xmlns:xlink="http://www.w3.org/1999/xlink" x="0px" y="0px"
	 viewBox="0 0 198.3 67" style="enable-background:new 0 0 198.3 67;" xml:space="preserve">
<style type="text/css">
	.st0{fill:#CCCCCC;}
	.st1{fill:#606060;}
	.st2{fill:#EF0A0A;}
	.st3{font-family:'MyriadPro-Regular';}
	.st4{font-size:29.6059px;}
	.st5{fill:#FFFFFF;}
	.st6{clip-path:url(#SVGID_2_);fill:#FFFFFF;}
</style>
<path class="st0" d="M183.9,48.7c0,7.3-6.1,13.2-13.6,13.2H17.8c-7.5,0-13.6-5.9-13.6-13.2v-32c0-7.3,6.1-13.2,13.6-13.2h152.4
	c7.5,0,13.6,5.9,13.6,13.2L183.9,48.7L183.9,48.7z"/>
<polygon class="st1" points="181.6,14.9 181.6,56.1 194.5,49.2 194.5,14.9 "/>
<path class="st2" d="M194.5,14.7h-31.6c-9.5,0-17.1,7.7-17.1,17.1c0,9.5,7.7,17.1,17.1,17.1h31.6V14.7z"/>
<text transform="matrix(1 0 0 1 35 42.4795)" class="st3 st4">Review</text>
<path class="st5" d="M165.1,32c1.8,0,3.3-1.5,3.3-3.3c0-1.8-1.5-3.3-3.3-3.3s-3.3,1.5-3.3,3.3C161.8,30.5,163.3,32,165.1,32
	L165.1,32z M165.1,32"/>
<path class="st5" d="M160.5,37h9.3c0.1,0,0.2-0.1,0.2-0.2c0-2.2-1.1-4.2-2.7-5.1c-0.1,0-0.2,0-0.2,0l-1.9,2l-1.9-2
	c-0.1-0.1-0.1-0.1-0.2,0c-1.7,0.9-2.7,2.9-2.7,5.1C160.3,36.9,160.4,37,160.5,37L160.5,37z M160.5,37"/>
<g>
	<defs>
		<rect id="SVGID_1_" x="151.3" y="19.6" width="27.7" height="24.3"/>
	</defs>
	<clipPath id="SVGID_2_">
		<use xlink:href="#SVGID_1_"  style="overflow:visible;"/>
	</clipPath>
	<path class="st6" d="M178.9,27c0-0.1-0.1-0.2-0.2-0.2l-0.6-0.3c-0.1,0-0.2-0.1-0.3,0s-0.2,0.1-0.2,0.2l-1.2,2.4
		c-0.9-4.1-3.9-7.5-8-8.8c-1.2-0.4-2.4-0.6-3.7-0.6c-1.9,0-3.8,0.5-5.4,1.3c-2.8,1.5-5,3.9-5.9,7c0,0.1,0,0.2,0,0.3
		c0,0.1,0.1,0.1,0.2,0.2l0.7,0.2c0.2,0.1,0.4,0,0.4-0.2c0.9-2.7,2.7-4.9,5.2-6.2c1.5-0.8,3.1-1.2,4.8-1.2c1.1,0,2.2,0.2,3.2,0.5
		c3.7,1.2,6.5,4.4,7.2,8.2l-2.7-1.4c-0.2-0.1-0.4,0-0.5,0.2l-0.3,0.6c0,0.1,0,0.2,0,0.3c0,0.1,0.1,0.2,0.2,0.2l4.4,2.2
		c0.1,0,0.1,0,0.2,0c0.1,0,0.3-0.1,0.3-0.2l2.2-4.4C178.9,27.2,178.9,27.1,178.9,27L178.9,27z M178.9,27"/>
	<path class="st6" d="M176.7,35.1l-0.7-0.2c-0.2-0.1-0.4,0-0.4,0.2c-0.9,2.7-2.7,4.9-5.2,6.2c-1.5,0.8-3.1,1.2-4.8,1.2
		c-1.1,0-2.2-0.2-3.2-0.5c-3.7-1.2-6.5-4.4-7.2-8.2l2.7,1.4c0.2,0.1,0.4,0,0.5-0.2l0.3-0.6c0-0.1,0-0.2,0-0.3c0-0.1-0.1-0.2-0.2-0.2
		l-4.4-2.2c-0.2-0.1-0.4,0-0.5,0.2l-2.2,4.4c0,0.1,0,0.2,0,0.3s0.1,0.2,0.2,0.2l0.6,0.3c0.1,0,0.1,0,0.2,0c0,0,0.1,0,0.1,0
		c0.1,0,0.2-0.1,0.2-0.2l1.2-2.4c0.9,4.1,3.9,7.5,8,8.8c1.2,0.4,2.4,0.6,3.7,0.6c1.9,0,3.8-0.5,5.4-1.3c2.8-1.5,5-3.9,5.9-7
		c0-0.1,0-0.2,0-0.3C176.9,35.2,176.8,35.2,176.7,35.1L176.7,35.1z M176.7,35.1"/>
</g>
</svg>
