<svg xmlns="http://www.w3.org/2000/svg" viewBox="0 0 33.7 34.44"><defs><style>.cls-1{fill:#fff;}</style></defs><title>Asset 2</title><g id="Layer_2" data-name="Layer 2"><g id="Layer_5" data-name="Layer 5"><rect class="cls-1" x="8.61" y="10.11" width="16.47" height="1.5"/><rect class="cls-1" x="23.59" y="12.35" width="1.5" height="1.5"/><rect class="cls-1" x="8.61" y="12.35" width="1.5" height="1.5"/><rect class="cls-1" x="16.1" y="5.24" width="1.5" height="1.5"/><rect class="cls-1" x="18.35" y="5.24" width="1.5" height="1.5"/><rect class="cls-1" x="13.85" y="5.24" width="1.5" height="1.5"/><rect class="cls-1" x="11.61" y="5.24" width="1.5" height="1.5"/><rect class="cls-1" x="20.59" y="5.24" width="1.5" height="1.5"/><path class="cls-1" d="M30.53,32.29a4.45,4.45,0,0,1-2.41.66l4.41-13.24a.75.75,0,0,0-.4-.92L28.08,17V9.73a2.25,2.25,0,0,0-2.25-2.25H24.71V3.74A.75.75,0,0,0,24,3H17.6V0H16.1V3H9.73A.75.75,0,0,0,9,3.74V7.49H7.86A2.25,2.25,0,0,0,5.62,9.73V17L1.56,18.79a.75.75,0,0,0-.4.92L5.57,32.95a4.45,4.45,0,0,1-2.41-.66A5.91,5.91,0,0,0,0,31.45v1.5a4.46,4.46,0,0,1,2.46.66,5.91,5.91,0,0,0,3.16.84,6.21,6.21,0,0,0,1.1-.08,6.07,6.07,0,0,0,2.06-.75,4.45,4.45,0,0,1,2.45-.66,4.46,4.46,0,0,1,2.46.66,5.91,5.91,0,0,0,3.16.84A5.91,5.91,0,0,0,20,33.61a4.46,4.46,0,0,1,2.46-.66,4.47,4.47,0,0,1,2.46.66,6.1,6.1,0,0,0,2.07.75,6.2,6.2,0,0,0,1.1.08,5.91,5.91,0,0,0,3.16-.84,4.46,4.46,0,0,1,2.46-.66v-1.5A5.91,5.91,0,0,0,30.53,32.29Zm-.17-10.8L17.6,15.62V13.89l13.3,6Zm-19.88-17H23.21v3H10.48ZM7.86,9h18a.75.75,0,0,1,.75.75v6.55L17.15,12a.75.75,0,0,0-.61,0L7.11,16.29V9.73A.75.75,0,0,1,7.86,9Zm8.24,4.9v1.73L3.33,21.48,2.8,19.87Zm6.36,17.56a5.91,5.91,0,0,0-3.16.84,4.46,4.46,0,0,1-2.46.66,4.46,4.46,0,0,1-2.46-.66,5.91,5.91,0,0,0-3.16-.84,5.9,5.9,0,0,0-3.15.83,6.06,6.06,0,0,1-1,.45L3.81,22.91,16.1,17.27v8.94h1.5V17.27l12.29,5.65-3.27,9.82a6.07,6.07,0,0,1-1-.45A5.93,5.93,0,0,0,22.46,31.45Z"/></g></g></svg>