<?xml version="1.0" encoding="iso-8859-1"?>
<!-- Generator: Adobe Illustrator 19.0.0, SVG Export Plug-In . SVG Version: 6.00 Build 0)  -->
<svg version="1.1" id="Layer_1" xmlns="http://www.w3.org/2000/svg" xmlns:xlink="http://www.w3.org/1999/xlink" x="0px" y="0px"
	 viewBox="0 0 512 512" style="enable-background:new 0 0 512 512;" xml:space="preserve">
<circle style="fill:#E84F4F;" cx="256" cy="256" r="256"/>
<path style="fill:#D14747;" d="M510.351,286.496C495.186,413.59,387.215,512,256.165,512c-2.803,0-5.604,0-8.407-0.165
	L100.884,364.961l82.586-60.167c-60.991-127.258,56.87-245.779,199.624-145.555L510.351,286.496z"/>
<path style="fill:#EDEDED;" d="M149.018,347.323l19.782,30.001l-6.099,3.957l-4.78-7.253l-4.946,3.297l-4.286-6.594l-4.121,2.637
	l9.066,13.847l-4.615,2.967l-3.957-5.935l-1.318,0.824l-1.978-2.967l-4.615,2.967l1.978,2.967l-1.319,0.824l3.957,5.935
	l-6.264,4.121l-19.782-30.166c-5.604,2.472-12.033,0.989-15.165-3.792l0,0c-4.451-4.451-1.649-12.858,4.286-16.649l134.676-88.85
	c-1.814-5.11-2.803-10.55-2.803-16.154c0-26.21,21.265-47.309,47.309-47.309c26.21,0,47.309,21.265,47.309,47.309
	c0,26.21-21.265,47.309-47.309,47.309c-12.033,0-23.078-4.451-31.485-11.869l-103.85,68.574h0.328V347.323z M284.188,221.713
	c12.033,0,21.759,9.726,21.759,21.759c0,12.033-9.726,21.759-21.759,21.759c-12.033,0-21.759-9.726-21.759-21.759
	C262.429,231.439,272.155,221.713,284.188,221.713z"/>
<path style="fill:#E3E3E3;" d="M149.018,347.323l19.782,30.001l-6.099,3.957l-4.78-7.253l-4.946,3.297l-4.286-6.594l-4.121,2.637
	l9.066,13.847l-4.615,2.967l-3.957-5.935l-1.318,0.824l-1.978-2.967l-4.615,2.967l1.978,2.967l-1.319,0.824l3.957,5.935
	l-6.264,4.121l-19.782-30.166c-5.604,2.472-12.033,0.989-15.165-3.792l0,0l0,0L266.55,256.165
	c3.957,5.275,10.385,8.901,17.473,8.901c12.033,0,21.759-9.726,21.759-21.759c0-3.956-0.989-7.747-2.967-10.879l21.429-14.011
	c4.451,7.253,7.089,15.825,7.089,24.891c0,26.21-21.265,47.309-47.309,47.309c-12.033,0-23.078-4.451-31.485-11.869l-103.85,68.574
	L149.018,347.323L149.018,347.323z"/>
<path style="fill:#FFD630;" d="M283.529,113.082c71.706,0,130.061,58.19,130.061,130.061c0,71.706-58.19,130.061-130.061,130.061
	s-130.061-58.19-130.061-130.061C153.468,171.436,211.657,113.082,283.529,113.082z M295.397,134.182v49.783H271.66v-49.783
	c-50.937,5.44-91.488,45.991-96.927,96.927h49.783v23.737h-49.783c5.44,50.937,45.991,91.488,96.927,96.927V301.99h23.737v49.783
	c50.937-5.44,91.488-45.991,96.927-96.927h-49.783v-23.737h49.783C386.885,180.173,346.334,139.622,295.397,134.182z"/>
<g>
</g>
<g>
</g>
<g>
</g>
<g>
</g>
<g>
</g>
<g>
</g>
<g>
</g>
<g>
</g>
<g>
</g>
<g>
</g>
<g>
</g>
<g>
</g>
<g>
</g>
<g>
</g>
<g>
</g>
</svg>
