<?xml version="1.0" encoding="utf-8"?>
<!-- Generator: Adobe Illustrator 21.0.0, SVG Export Plug-In . SVG Version: 6.00 Build 0)  -->
<svg version="1.1" id="Layer_1" xmlns="http://www.w3.org/2000/svg" xmlns:xlink="http://www.w3.org/1999/xlink" x="0px" y="0px"
	 viewBox="0 0 40.3 41.4" style="enable-background:new 0 0 40.3 41.4;" xml:space="preserve">
<style type="text/css">
	.st0{fill:#00ACED;}
	.st1{opacity:0.31;}
	.st2{fill:#ECF0F1;}
	.st3{fill:#D1D4D1;}
	.st4{fill:#98614A;}
	.st5{fill:#38454F;}
	.st6{fill:#BDC3C7;}
	.st7{fill:#95A5A5;}
	.st8{fill:#736F7B;}
	.st9{fill:#8D8A94;}
	.st10{fill:#B9B7BD;}
	.st11{fill:#DCDBDE;}
	.st12{fill:#D2555A;}
	.st13{fill:#FF6464;}
	.st14{fill:#625D6B;}
	.st15{fill:#CAC9CD;}
	.st16{fill:#EDEDEE;}
</style>
<circle class="st0" cx="20.1" cy="20.4" r="19.4"/>
<g class="st1">
	<path class="st2" d="M29.3,13.8l-7.8,5.4c-0.5,0.4-1.3,0.1-1.7-0.4l0,0c-0.4-0.5-0.3-1.3,0.3-1.7l7.8-5.4L29.3,13.8z"/>
	<g>
		<path class="st3" d="M27.9,13.8C28,14,28.1,14,28.2,14l0.8-0.5l-0.3-0.4L28,13.6C27.9,13.6,27.9,13.7,27.9,13.8z"/>
		<path class="st3" d="M27.4,12.7c-0.1,0.1-0.1,0.3,0,0.4c0.1,0.1,0.3,0.1,0.4,0.1l0.8-0.5l-0.4-0.5L27.4,12.7z"/>
	</g>
	<path class="st4" d="M20.8,2.8l-7.7,5.4c-0.3,0.1-0.4,0.6-0.1,0.9l1.4,2l3.6,5.2l1.3,1.8l0.4,0.6c-0.4-0.5-0.3-1.3,0.3-1.7l7.8-5.4
		l-6-8.7C21.6,2.7,21.2,2.6,20.8,2.8z"/>
	<ellipse transform="matrix(0.823 -0.568 0.568 0.823 -5.2305 12.9218)" class="st5" cx="18.1" cy="14.9" rx="0.4" ry="0.5"/>
	<ellipse transform="matrix(0.823 -0.568 0.568 0.823 -4.7398 12.2394)" class="st5" cx="17.3" cy="13.7" rx="0.4" ry="0.5"/>
	<ellipse transform="matrix(0.823 -0.568 0.568 0.823 -4.1423 11.544)" class="st5" cx="16.5" cy="12.4" rx="0.4" ry="0.5"/>
	<ellipse transform="matrix(0.823 -0.568 0.568 0.823 -3.6515 10.8616)" class="st5" cx="15.6" cy="11.3" rx="0.4" ry="0.5"/>
	<path class="st6" d="M13.9,12.4c0.1,0.3,0.4,0.4,0.6,0.5c0-0.1,0-0.3,0.1-0.5c-0.1,0-0.3-0.1-0.4-0.3c-0.3-0.4-0.1-0.8,0.1-1
		c0.3-0.3,0.8-0.1,1,0.3c0.1,0.1,0.3,0.1,0.4,0.1c0.1-0.1,0.1-0.3,0-0.4c-0.4-0.5-1.2-0.8-1.7-0.4C13.7,11.2,13.5,11.8,13.9,12.4z"
		/>
	<path class="st7" d="M15.1,12.9c0.3,0,0.4,0,0.5-0.1l-0.3-0.5C15.1,12.4,15.1,12.7,15.1,12.9z"/>
	<path class="st7" d="M15.8,14.1c0.3,0,0.4,0,0.5-0.1l-0.3-0.4C16,13.7,15.8,14,15.8,14.1z"/>
	<path class="st6" d="M14.7,12.4c0,0.1-0.1,0.3-0.1,0.5s0.1,0.5,0.3,0.8c0.1,0.3,0.4,0.4,0.6,0.5c0-0.1,0-0.3,0.1-0.5
		c-0.1,0-0.3-0.1-0.4-0.3c-0.1-0.1-0.1-0.3-0.1-0.4c0-0.3,0.1-0.5,0.3-0.6c0.3-0.3,0.8-0.1,1,0.3c0,0,0.1,0,0.3,0
		c0.1-0.1,0.1-0.3,0-0.4c-0.4-0.5-1.2-0.8-1.7-0.4C14.8,12.1,14.7,12.2,14.7,12.4z"/>
	<path class="st7" d="M16.7,15.4c0.3,0,0.4,0,0.5-0.1L17,14.9C16.7,14.9,16.7,15.1,16.7,15.4z"/>
	<path class="st6" d="M15.5,13.6c0,0.1-0.1,0.3-0.1,0.5s0.1,0.5,0.3,0.8c0.1,0.3,0.4,0.4,0.6,0.5c0-0.1,0-0.3,0.1-0.5
		c-0.1,0-0.3-0.1-0.4-0.3c-0.1-0.1-0.1-0.3-0.1-0.4c0-0.3,0.1-0.5,0.3-0.6c0.3-0.3,0.8-0.1,1,0.3c0.1,0.1,0.3,0.1,0.4,0.1
		c0.1,0,0.1-0.3,0-0.4c-0.4-0.5-1.2-0.8-1.7-0.4C15.7,13.3,15.6,13.5,15.5,13.6z"/>
	<path class="st6" d="M16.4,14.9c0,0.1-0.1,0.3-0.1,0.5s0.1,0.5,0.3,0.8c0.4,0.5,1.2,0.8,1.7,0.4l-0.3-0.4c-0.3,0.3-0.8,0.1-1-0.3
		c-0.1-0.1-0.1-0.3-0.1-0.4c0-0.3,0.1-0.5,0.3-0.6c0.3-0.3,0.8-0.1,1,0.3c0.1,0.1,0.3,0.1,0.4,0.1c0.1-0.1,0.1-0.3,0-0.4
		c-0.4-0.5-1.2-0.8-1.7-0.4C16.5,14.5,16.4,14.6,16.4,14.9z"/>
</g>
<g>
	<rect x="23.4" y="20.7" class="st8" width="0.5" height="2.6"/>
	<g>
		<path class="st9" d="M29.8,19.7L29.8,19.7c-0.1,0-0.3,0.1-0.3,0.3v4.1c0,0.1,0.1,0.3,0.3,0.3l0,0c0.1,0,0.3-0.1,0.3-0.3V20
			C30,19.9,29.9,19.7,29.8,19.7z"/>
		<path class="st9" d="M13,22.8h14.7c0.1,0,0.3,0.1,0.3,0.3v1.3H13V22.8z"/>
	</g>
	<path class="st10" d="M8.6,18.7h0.5c0.1,0,0.3,0.1,0.3,0.3v1.8H7.8l0.5-1.9C8.3,18.7,8.4,18.7,8.6,18.7z"/>
	<g>
		<path class="st11" d="M10.5,19.7v2.6h-1v-1.8c0-0.1-0.1-0.3-0.3-0.3H7.3H7c-0.1,0-0.3,0.1-0.3,0.3c0,0.1,0.1,0.3,0.3,0.3h0.3v1.5
			H6c-0.1,0-0.3,0.1-0.3,0.3v1.8h7.8v-4.6L10.5,19.7L10.5,19.7z"/>
		<path class="st11" d="M32.5,22.3H35c0.1,0,0.3,0.1,0.3,0.3v1.3h-3.1v-1.3C32.2,22.4,32.2,22.3,32.5,22.3z"/>
	</g>
	<path class="st12" d="M13,28.4H8.2c-0.3,0-0.4-0.1-0.5-0.4l-0.9-3.2H13V28.4L13,28.4z"/>
	<path class="st13" d="M4.7,24.1v0.8l5.8,2.8c1,0.5,2.2,0.8,3.2,0.8h16.2c0.4,0,0.9-0.3,1-0.6l0,0c0.1-0.3,0.4-0.4,0.6-0.5l2.8-1.2
		c0.3-0.1,0.5-0.4,0.6-0.6l0.8-1.8c0.1-0.1,0-0.4-0.3-0.4h-5.9l-1,0.5H5C4.8,23.8,4.7,23.9,4.7,24.1z"/>
	<path class="st14" d="M35.4,23.3h-5.9l-1,0.5H5c-0.1,0-0.3,0.1-0.3,0.3v0.8h30.4l0.5-1.2C35.7,23.4,35.5,23.3,35.4,23.3z"/>
	<g>
		<rect x="10.5" y="21.3" class="st15" width="3.1" height="1"/>
		<path class="st15" d="M8.3,23.8H5.7v-1.3c0-0.1,0.1-0.3,0.3-0.3h2c0.1,0,0.3,0.1,0.3,0.3V23.8L8.3,23.8z"/>
	</g>
	<path class="st16" d="M13.8,19.7h-3.6c-0.1,0-0.3-0.1-0.3-0.3V19c0-0.1,0.1-0.3,0.3-0.3h3.6c0.1,0,0.3,0.1,0.3,0.3v0.5
		C14.1,19.6,13.9,19.7,13.8,19.7z"/>
</g>
</svg>
