<svg xmlns="http://www.w3.org/2000/svg" viewBox="0 0 40 40"><defs><style>.cls-1{fill:#fff;}</style></defs><title>Asset 3</title><g id="Layer_2" data-name="Layer 2"><g id="Layer_5" data-name="Layer 5"><path class="cls-1" d="M39.9,30.31a3.1,3.1,0,0,0-1.61-2l-1-.55L37.93,22H38a.67.67,0,0,0,.67-.67v-4a.67.67,0,0,0-.67-.67H33.33V12a.67.67,0,0,0-.67-.67h-.43L29.33,9V6.6a3.33,3.33,0,1,0-4-3.66L8.48,13.33H.67A.67.67,0,0,0,0,14v4a.67.67,0,0,0,.11.37l1.33,2a.67.67,0,0,0,.55.3H5.33v2.55l-2,5.22a.66.66,0,0,0,0,.21v4.69H6.67a.67.67,0,0,1,0,1.33H3.33V36H8a.67.67,0,0,1,0,1.33H3.33v2A.67.67,0,0,0,4,40H14.67a.67.67,0,0,0,.67-.67V28.64a.66.66,0,0,0,0-.21l-2-5.22V18.33L28,7.33V9l-2.9,2.32h-.43A.67.67,0,0,0,24,12v4.67H19.33a.67.67,0,0,0-.67.67v4a.67.67,0,0,0,.67.67h.73l.63,5.83-.92.5a3.11,3.11,0,0,0-1.26,4.57L20,34.3l7.13-3.53a4.43,4.43,0,0,1,3.81,0L38,34.16l1.42-1.3A3.11,3.11,0,0,0,39.9,30.31Zm-9.24-17a.67.67,0,0,1,.67.67v1.33a.67.67,0,0,1-1.33,0V14A.67.67,0,0,1,30.67,13.33Zm-28.31,6-1-1.54V14.67H8v4.67H2.36ZM13.71,28H5l1.5-4h5.74ZM12.44,17.33H9.33v-3l16.18-10,0,.11c0,.1.09.2.13.29s.1.19.15.28.12.17.18.26.13.17.2.25l.23.22.25.21.27.17.17.11Zm14.22-14a2,2,0,1,1,2,2A2,2,0,0,1,26.67,3.33Zm2,6.85,1.43,1.15H27.23ZM29.33,14v1.33a.67.67,0,1,1-1.33,0V14a.67.67,0,1,1,1.33,0ZM26,14a.67.67,0,1,1,1.33,0v1.33a.67.67,0,1,1-1.33,0ZM36,27.09l-5.14-2.71a4.89,4.89,0,0,0-3.83,0L22,27.14,21.41,22H36.58Z"/><path class="cls-1" d="M27.72,33l-7,3.46,2,3.25a.67.67,0,0,0,.56.31H34.67a.67.67,0,0,0,.57-.32l2.09-3.38L30.38,33A3.1,3.1,0,0,0,27.72,33Z"/><circle class="cls-1" cx="28.67" cy="3.33" r="0.67"/></g></g></svg>