<?xml version="1.0" encoding="utf-8"?>
<!-- Generator: Adobe Illustrator 21.0.0, SVG Export Plug-In . SVG Version: 6.00 Build 0)  -->
<svg version="1.1" id="Layer_1" xmlns="http://www.w3.org/2000/svg" xmlns:xlink="http://www.w3.org/1999/xlink" x="0px" y="0px"
	 viewBox="0 0 58.8 59" style="enable-background:new 0 0 58.8 59;" xml:space="preserve">
<style type="text/css">
	.st0{fill:#F1F774;}
	.st1{fill:#63D6D6;stroke:#084F5B;stroke-miterlimit:10;}
	.st2{fill:#E0B394;}
	.st3{fill:#C0E7F9;}
	.st4{fill:#F76B4F;}
	.st5{fill:#A3CDD6;}
	.st6{fill:#F7CBA4;}
	.st7{fill:#E8BA97;}
	.st8{fill:#122630;}
	.st9{fill:#262320;}
	.st10{fill:#F2F2F2;}
	.st11{fill:#4D4D4D;}
	.st12{fill:#666666;}
	.st13{fill:#9B6A31;}
	.st14{fill:#084F5B;}
</style>
<circle class="st0" cx="29.1" cy="29.4" r="27.9"/>
<rect x="10.3" y="14.3" class="st1" width="39.2" height="22.6"/>
<g>
	<g>
		<path class="st2" d="M14.1,36.1c-0.4,0-0.7-0.4-0.7-0.8c0-0.4,0.3-0.8,0.8-0.8h0.1L14.1,36.1z"/>
		<path class="st2" d="M21.4,36.1c0.4,0,0.7-0.4,0.7-0.8c0-0.4-0.3-0.8-0.8-0.8h-0.1L21.4,36.1z"/>
	</g>
	<path class="st3" d="M21.6,41.2v3.2H14v-3.2c0-1.1,0.7-2,1.8-2.2c0.1,0,0.2,0,0.4,0h3.3c0.2,0,0.2,0,0.4,0
		C20.8,39.2,21.6,40.2,21.6,41.2z"/>
	<polygon class="st4" points="18.4,41.1 18.4,41.1 17.8,42 17.1,41.1 17.1,41.1 17.8,40.6 	"/>
	<path class="st5" d="M19.8,39.1l-0.5,2.8l-0.9-0.7l-0.7-0.5l-0.7,0.5l-0.9,0.7l-0.5-2.8c0.1,0,0.2,0,0.4,0h3.3
		C19.6,39,19.7,39,19.8,39.1z"/>
	<path class="st2" d="M19.3,35.9v3.2c0,0.8-0.7,1.6-1.6,1.6c-0.8,0-1.6-0.7-1.6-1.6v-3.7"/>
	<path class="st5" d="M17.4,39h-1.3c-1.2,0-2.2,1-2.2,2.2v3.2h1.3v-3.2C15.3,40,16.3,39,17.4,39z"/>
	<path class="st6" d="M16.6,39.6l-1.4-1.1c-0.7-0.6-1.2-1.5-1.1-2.4l0.2-2.6c0.2-1.7,1.7-3.2,3.5-3.2l0,0c1.7,0,3.2,1.3,3.5,3.2
		l0.2,2.6c0.1,0.9-0.3,1.8-1.1,2.4l-1.6,1.1C18.3,40.1,17.4,40.1,16.6,39.6z"/>
	<path class="st7" d="M14.9,36.7c0,0.4,0.1,0.8,0.3,1.2l1.5,1.8c0.1,0.1,0.2,0.2,0.2,0.2c-0.2-0.1-0.3-0.2-0.5-0.2l-1.4-1.1
		C14.4,38,14,37.1,14,36.2l0.2-2.6c0.2-1.7,1.7-3.1,3.4-3.2c-1.1,0-2.3,1.1-2.4,2.2L14.9,36.7z"/>
	<polygon class="st4" points="18.4,44.3 17.2,44.3 17.8,41.2 	"/>
	<rect x="19.3" y="42.4" class="st5" width="1.7" height="0.5"/>
	<path class="st8" d="M21.3,34c-0.7-1.1-1.3-0.4-2.7-0.4c-1,0-1.8-0.5-2.2-0.7c-0.3,0.3-0.7,0.6-1,0.7c-0.5,0.2-1,0.2-1,0.2v-0.3
		c0.2-1.7,1.6-3.1,3.3-3.2c0,0,0,0,0.1,0c0,0,0,0,0.1,0c0.9,0,1.7,0.3,2.3,0.9c0.6,0.6,1,1.3,1.1,2.2L21.3,34z"/>
	<path class="st9" d="M17.8,30.4c-1.1,0-2.3,1.1-2.4,2.2l-0.1,1c-0.5,0.2-1,0.2-1,0.2v-0.3C14.5,31.8,15.9,30.4,17.8,30.4
		C17.7,30.4,17.7,30.4,17.8,30.4z"/>
	<path class="st10" d="M19.2,37.5c0,0,0,0.1-0.1,0.2c0,0,0,0,0,0.1c0,0,0,0.1-0.1,0.1s-0.1,0.1-0.1,0.1l0,0l0,0c0,0,0,0-0.1,0
		L18.8,38l-0.1,0.1c0,0,0,0-0.1,0c0,0,0,0-0.1,0s-0.1,0.1-0.2,0.1c-0.1,0-0.2,0.1-0.3,0.1c-0.1,0-0.2,0-0.3,0s-0.2,0-0.3,0
		c-0.1,0-0.2-0.1-0.3-0.1c-0.1,0-0.1-0.1-0.2-0.1h-0.1c0,0,0,0-0.1,0L16.6,38l-0.1-0.1c0,0,0,0-0.1,0l0,0l0,0l-0.1-0.1
		c0,0,0-0.1-0.1-0.1v-0.1c-0.1-0.1-0.1-0.2-0.1-0.2s0.1,0,0.2,0.1c0,0,0,0,0.1,0h0.1h0.1h0.1h0.1h0.1c0,0,0,0,0.1,0c0,0,0,0,0.1,0
		h0.1c0.1,0,0.2,0,0.2,0s0.2,0,0.2,0c0.1,0,0.2,0,0.2,0c0.1,0,0.2,0,0.2,0h0.1c0,0,0,0,0.1,0c0,0,0,0,0.1,0h0.1h0.1h0.1h0.1h0.1h0.1
		C19.1,37.5,19.2,37.5,19.2,37.5z"/>
	<g>
		<path class="st11" d="M18.9,37.9L18.9,37.9C18.9,37.9,18.9,37.9,18.9,37.9c-0.1,0.1-0.1,0.1-0.2,0.2l-0.1,0.1c0,0,0,0-0.1,0
			c0,0,0,0-0.1,0s-0.1,0.1-0.2,0.1c-0.1,0-0.2,0.1-0.3,0.1c-0.1,0-0.2,0-0.3,0s-0.2,0-0.3,0c-0.1,0-0.2-0.1-0.3-0.1
			c-0.1,0-0.1-0.1-0.2-0.1h-0.1c0,0,0,0-0.1,0l-0.1-0.1L16.5,38c0,0,0,0-0.1,0l0,0l0,0h0.1h0.1h0.1h0.1c0,0,0,0,0.1,0c0,0,0,0,0.1,0
			H17c0.1,0,0.2,0,0.2,0s0.2,0,0.2,0c0.1,0,0.2,0,0.2,0s0.2,0,0.2,0h0.1c0,0,0,0,0.1,0c0,0,0,0,0.1,0h0.1h0.1h0.1
			C18.9,37.9,18.9,37.9,18.9,37.9L18.9,37.9z"/>
		<path class="st11" d="M16.2,36.3c-0.2,0-0.2-0.1-0.2-0.2v-0.4c0-0.2,0.1-0.2,0.2-0.2s0.2,0.1,0.2,0.2v0.4
			C16.5,36.3,16.4,36.3,16.2,36.3z"/>
	</g>
	<g>
		<path class="st12" d="M18.8,34.7L18.8,34.7C18.8,34.6,18.8,34.6,18.8,34.7C18.8,34.6,18.8,34.6,18.8,34.7L18.8,34.7
			c0-0.1,0-0.1,0-0.2c0,0,0,0,0-0.1c0,0,0,0,0-0.1c0,0,0,0,0.1-0.1l0.1-0.1c0.1,0,0.1,0,0.2-0.1c0.1,0,0.1,0,0.2,0s0.1,0,0.2,0
			s0.1,0,0.2,0.1c0.1,0,0.1,0.1,0.1,0.1s0,0,0.1,0.1c0,0,0,0,0,0.1c0,0,0,0,0,0.1c0,0,0,0,0,0.1l0,0l0,0c0,0,0,0,0,0.1l0,0l0,0
			c0,0,0,0-0.1,0l0,0l0,0h-0.1c0,0,0,0-0.1,0c0,0,0,0-0.1,0h-0.1h-0.1h-0.1h-0.1H19h-0.1C18.9,34.7,18.9,34.7,18.8,34.7
			C18.9,34.7,18.9,34.7,18.8,34.7L18.8,34.7L18.8,34.7C18.9,34.6,18.9,34.6,18.8,34.7L18.8,34.7L18.8,34.7z"/>
		<path class="st12" d="M15.6,34.7L15.6,34.7C15.6,34.6,15.6,34.6,15.6,34.7C15.6,34.6,15.6,34.6,15.6,34.7L15.6,34.7
			c0-0.1,0-0.1,0-0.2c0,0,0,0,0-0.1c0,0,0,0,0-0.1c0,0,0,0,0.1-0.1l0.1-0.1c0.1,0,0.1,0,0.2-0.1c0.1,0,0.1,0,0.2,0s0.1,0,0.2,0
			c0.1,0,0.1,0,0.2,0.1c0.1,0,0.1,0.1,0.1,0.1s0,0,0.1,0.1c0,0,0,0,0,0.1c0,0,0,0,0,0.1c0,0,0,0,0,0.1l0,0l0,0c0,0,0,0,0,0.1l0,0
			l0,0c0,0,0,0-0.1,0l0,0l0,0h-0.1c0,0,0,0-0.1,0c0,0,0,0-0.1,0h-0.1h-0.1H16h-0.1h-0.1h-0.1C15.8,34.7,15.8,34.7,15.6,34.7
			C15.7,34.7,15.7,34.7,15.6,34.7L15.6,34.7L15.6,34.7C15.7,34.6,15.7,34.6,15.6,34.7C15.7,34.7,15.7,34.7,15.6,34.7L15.6,34.7z"/>
	</g>
	<path class="st11" d="M19.3,36.3c-0.2,0-0.2-0.1-0.2-0.2v-0.4c0-0.2,0.1-0.2,0.2-0.2c0.2,0,0.2,0.1,0.2,0.2v0.4
		C19.6,36.3,19.5,36.3,19.3,36.3z"/>
	<path class="st2" d="M18.2,35.3v1.2c0,0.2-0.2,0.4-0.4,0.4l0,0c-0.2,0-0.4-0.2-0.4-0.4v-1.2L18.2,35.3L18.2,35.3z"/>
</g>
<g>
	<g>
		<path class="st2" d="M26.3,36.1c-0.4,0-0.7-0.4-0.7-0.8c0-0.4,0.3-0.8,0.8-0.8h0.1L26.3,36.1z"/>
		<path class="st2" d="M33.6,36.1c0.4,0,0.7-0.4,0.7-0.8c0-0.4-0.3-0.8-0.8-0.8h-0.1L33.6,36.1z"/>
	</g>
	<path class="st3" d="M33.8,41.2v3.2h-7.6v-3.2c0-1.1,0.7-2,1.8-2.2c0.1,0,0.2,0,0.4,0h3.3c0.2,0,0.2,0,0.4,0
		C33.1,39.2,33.8,40.2,33.8,41.2z"/>
	<polygon class="st4" points="30.7,41.1 30.7,41.1 30,42 29.3,41.1 29.3,41.1 30,40.6 	"/>
	<path class="st5" d="M32.1,39.1l-0.5,2.8l-0.9-0.7L30,40.7l-0.7,0.5l-0.9,0.7l-0.5-2.8c0.1,0,0.2,0,0.4,0h3.3
		C31.8,39,31.9,39,32.1,39.1z"/>
	<path class="st2" d="M31.6,35.9v3.2c0,0.8-0.7,1.6-1.6,1.6c-0.8,0-1.6-0.7-1.6-1.6v-3.7"/>
	<path class="st5" d="M29.7,39h-1.3c-1.2,0-2.2,1-2.2,2.2v3.2h1.3v-3.2C27.5,40,28.5,39,29.7,39z"/>
	<path class="st6" d="M28.8,39.6l-1.4-1.1c-0.7-0.6-1.2-1.5-1.1-2.4l0.2-2.6c0.2-1.7,1.7-3.2,3.5-3.2l0,0c1.7,0,3.2,1.3,3.5,3.2
		l0.2,2.6c0.1,0.9-0.3,1.8-1.1,2.4l-1.6,1.1C30.5,40.1,29.6,40.1,28.8,39.6z"/>
	<path class="st7" d="M27.2,36.7c0,0.4,0.1,0.8,0.3,1.2l1.5,1.8c0.1,0.1,0.2,0.2,0.2,0.2c-0.2-0.1-0.3-0.2-0.5-0.2l-1.4-1.1
		c-0.7-0.6-1.2-1.5-1.1-2.4l0.2-2.6c0.2-1.7,1.7-3.1,3.4-3.2c-1.1,0-2.3,1.1-2.4,2.2L27.2,36.7z"/>
	<polygon class="st4" points="30.7,44.3 29.4,44.3 30,41.2 	"/>
	<rect x="31.6" y="42.4" class="st5" width="1.7" height="0.5"/>
	<path class="st8" d="M33.5,34c-0.7-1.1-1.3-0.4-2.7-0.4c-1,0-1.8-0.5-2.2-0.7c-0.3,0.3-0.7,0.6-1,0.7c-0.5,0.2-1,0.2-1,0.2v-0.3
		c0.2-1.7,1.6-3.1,3.3-3.2c0,0,0,0,0.1,0c0,0,0,0,0.1,0c0.9,0,1.7,0.3,2.3,0.9c0.6,0.6,1,1.3,1.1,2.2L33.5,34z"/>
	<path class="st13" d="M30,30.4c-1.1,0-2.3,1.1-2.4,2.2l-0.1,1c-0.5,0.2-1,0.2-1,0.2v-0.3C26.7,31.8,28.2,30.4,30,30.4
		C29.9,30.4,29.9,30.4,30,30.4z"/>
	<path class="st10" d="M31.4,37.5c0,0,0,0.1-0.1,0.2c0,0,0,0,0,0.1c0,0,0,0.1-0.1,0.1s-0.1,0.1-0.1,0.1l0,0l0,0c0,0,0,0-0.1,0L31,38
		l-0.1,0.1c0,0,0,0-0.1,0c0,0,0,0-0.1,0s-0.1,0.1-0.2,0.1c-0.1,0-0.2,0.1-0.3,0.1c-0.1,0-0.2,0-0.3,0c-0.1,0-0.2,0-0.3,0
		c-0.1,0-0.2-0.1-0.3-0.1c-0.1,0-0.1-0.1-0.2-0.1H29c0,0,0,0-0.1,0L28.8,38l-0.1-0.1c0,0,0,0-0.1,0l0,0l0,0l-0.1-0.1
		c0,0,0-0.1-0.1-0.1v-0.1c-0.1-0.1-0.1-0.2-0.1-0.2s0.1,0,0.2,0.1c0,0,0,0,0.1,0h0.1h0.1h0.1H29h0.1c0,0,0,0,0.1,0c0,0,0,0,0.1,0
		h0.1c0.1,0,0.2,0,0.2,0s0.2,0,0.2,0c0.1,0,0.2,0,0.2,0s0.2,0,0.2,0h0.1c0,0,0,0,0.1,0c0,0,0,0,0.1,0h0.1h0.1h0.1h0.1H31h0.1
		C31.3,37.5,31.4,37.5,31.4,37.5z"/>
	<g>
		<path class="st11" d="M31.1,37.9L31.1,37.9C31.1,37.9,31.1,37.9,31.1,37.9C31.1,38,31.1,38,31,38.1l-0.1,0.1c0,0,0,0-0.1,0
			c0,0,0,0-0.1,0s-0.1,0.1-0.2,0.1s-0.2,0.1-0.3,0.1c-0.1,0-0.2,0-0.3,0c-0.1,0-0.2,0-0.3,0s-0.2-0.1-0.3-0.1
			c-0.1,0-0.1-0.1-0.2-0.1H29c0,0,0,0-0.1,0l-0.1-0.1L28.7,38c0,0,0,0-0.1,0l0,0l0,0h0.1h0.1h0.1H29c0,0,0,0,0.1,0c0,0,0,0,0.1,0
			h0.1c0.1,0,0.2,0,0.2,0c0.1,0,0.2,0,0.2,0c0.1,0,0.2,0,0.2,0c0.1,0,0.2,0,0.2,0h0.1c0,0,0,0,0.1,0c0,0,0,0,0.1,0h0.1h0.1h0.1
			C31.1,37.9,31.1,37.9,31.1,37.9L31.1,37.9z"/>
		<path class="st11" d="M28.4,36.3c-0.2,0-0.2-0.1-0.2-0.2v-0.4c0-0.2,0.1-0.2,0.2-0.2s0.2,0.1,0.2,0.2v0.4
			C28.7,36.3,28.6,36.3,28.4,36.3z"/>
	</g>
	<g>
		<path class="st12" d="M31,34.7L31,34.7C31,34.6,31,34.6,31,34.7C31,34.6,31,34.6,31,34.7L31,34.7c0-0.1,0-0.1,0-0.2c0,0,0,0,0-0.1
			c0,0,0,0,0-0.1c0,0,0,0,0.1-0.1l0.1-0.1c0.1,0,0.1,0,0.2-0.1c0.1,0,0.1,0,0.2,0s0.1,0,0.2,0c0.1,0,0.1,0,0.2,0.1
			c0.1,0,0.1,0.1,0.1,0.1s0,0,0.1,0.1c0,0,0,0,0,0.1c0,0,0,0,0,0.1c0,0,0,0,0,0.1l0,0l0,0c0,0,0,0,0,0.1l0,0l0,0c0,0,0,0-0.1,0l0,0
			l0,0h-0.1c0,0,0,0-0.1,0c0,0,0,0-0.1,0h-0.1h-0.1h-0.1h-0.1h-0.1h-0.1C31.1,34.7,31.1,34.7,31,34.7C31.1,34.7,31.1,34.7,31,34.7
			L31,34.7L31,34.7C31.1,34.6,31.1,34.6,31,34.7L31,34.7L31,34.7z"/>
		<path class="st12" d="M27.8,34.7L27.8,34.7C27.8,34.6,27.8,34.6,27.8,34.7C27.8,34.6,27.8,34.6,27.8,34.7L27.8,34.7
			c0-0.1,0-0.1,0-0.2c0,0,0,0,0-0.1c0,0,0,0,0-0.1c0,0,0,0,0.1-0.1l0.1-0.1c0.1,0,0.1,0,0.2-0.1c0.1,0,0.1,0,0.2,0
			c0.1,0,0.1,0,0.2,0s0.1,0,0.2,0.1c0.1,0,0.1,0.1,0.1,0.1s0,0,0.1,0.1c0,0,0,0,0,0.1c0,0,0,0,0,0.1c0,0,0,0,0,0.1l0,0l0,0
			c0,0,0,0,0,0.1l0,0l0,0c0,0,0,0-0.1,0l0,0l0,0h-0.1c0,0,0,0-0.1,0c0,0,0,0-0.1,0h-0.1h-0.1h-0.1h-0.1h-0.1H28
			C28,34.7,28,34.7,27.8,34.7C27.9,34.7,27.9,34.7,27.8,34.7L27.8,34.7L27.8,34.7C27.9,34.6,27.9,34.6,27.8,34.7
			C27.9,34.7,27.9,34.7,27.8,34.7L27.8,34.7z"/>
	</g>
	<path class="st11" d="M31.6,36.3c-0.2,0-0.2-0.1-0.2-0.2v-0.4c0-0.2,0.1-0.2,0.2-0.2c0.2,0,0.2,0.1,0.2,0.2v0.4
		C31.8,36.3,31.7,36.3,31.6,36.3z"/>
	<path class="st2" d="M30.4,35.3v1.2c0,0.2-0.2,0.4-0.4,0.4l0,0c-0.2,0-0.4-0.2-0.4-0.4v-1.2L30.4,35.3L30.4,35.3z"/>
</g>
<g>
	<g>
		<path class="st2" d="M37.9,36.1c-0.4,0-0.7-0.4-0.7-0.8c0-0.4,0.3-0.8,0.8-0.8H38L37.9,36.1z"/>
		<path class="st2" d="M45.2,36.1c0.4,0,0.7-0.4,0.7-0.8c0-0.4-0.3-0.8-0.8-0.8H45L45.2,36.1z"/>
	</g>
	<path class="st3" d="M45.4,41.2v3.2h-7.6v-3.2c0-1.1,0.7-2,1.8-2.2c0.1,0,0.2,0,0.4,0h3.3c0.2,0,0.2,0,0.4,0
		C44.6,39.2,45.4,40.2,45.4,41.2z"/>
	<polygon class="st4" points="42.2,41.1 42.2,41.1 41.5,42 40.9,41.1 40.9,41.1 41.5,40.6 	"/>
	<path class="st5" d="M43.6,39.1l-0.5,2.8l-0.9-0.7l-0.7-0.5l-0.7,0.5L40,41.9l-0.5-2.8c0.1,0,0.2,0,0.4,0h3.3
		C43.4,39,43.4,39,43.6,39.1z"/>
	<path class="st2" d="M43.1,35.9v3.2c0,0.8-0.7,1.6-1.6,1.6c-0.8,0-1.6-0.7-1.6-1.6v-3.7"/>
	<path class="st5" d="M41.2,39h-1.3c-1.2,0-2.2,1-2.2,2.2v3.2H39v-3.2C39,40,40,39,41.2,39z"/>
	<path class="st6" d="M40.4,39.6L39,38.5c-0.7-0.6-1.2-1.5-1.1-2.4l0.2-2.6c0.2-1.7,1.7-3.2,3.5-3.2l0,0c1.7,0,3.2,1.3,3.5,3.2
		l0.2,2.6c0.1,0.9-0.3,1.8-1.1,2.4l-1.6,1.1C42,40.1,41.1,40.1,40.4,39.6z"/>
	<path class="st7" d="M38.7,36.7c0,0.4,0.1,0.8,0.3,1.2l1.5,1.8c0.1,0.1,0.2,0.2,0.2,0.2c-0.2-0.1-0.3-0.2-0.5-0.2l-1.4-1.1
		c-0.7-0.6-1.2-1.5-1.1-2.4l0.2-2.6c0.2-1.7,1.7-3.1,3.4-3.2c-1.1,0-2.3,1.1-2.4,2.2L38.7,36.7z"/>
	<polygon class="st4" points="42.2,44.3 41,44.3 41.5,41.2 	"/>
	<rect x="43.1" y="42.4" class="st5" width="1.7" height="0.5"/>
	<path class="st8" d="M45,34c-0.7-1.1-1.3-0.4-2.7-0.4c-1,0-1.8-0.5-2.2-0.7c-0.3,0.3-0.7,0.6-1,0.7c-0.5,0.2-1,0.2-1,0.2v-0.3
		c0.2-1.7,1.6-3.1,3.3-3.2c0,0,0,0,0.1,0c0,0,0,0,0.1,0c0.9,0,1.7,0.3,2.3,0.9c0.6,0.6,1,1.3,1.1,2.2L45,34z"/>
	<path class="st8" d="M41.5,30.4c-1.1,0-2.3,1.1-2.4,2.2l-0.1,1c-0.5,0.2-1,0.2-1,0.2v-0.3C38.3,31.8,39.7,30.4,41.5,30.4
		C41.5,30.4,41.5,30.4,41.5,30.4z"/>
	<path class="st10" d="M42.9,37.5c0,0,0,0.1-0.1,0.2c0,0,0,0,0,0.1c0,0,0,0.1-0.1,0.1s-0.1,0.1-0.1,0.1l0,0l0,0c0,0,0,0-0.1,0
		L42.5,38l-0.1,0.1c0,0,0,0-0.1,0c0,0,0,0-0.1,0c-0.1,0-0.1,0.1-0.2,0.1c-0.1,0-0.2,0.1-0.3,0.1c-0.1,0-0.2,0-0.3,0
		c-0.1,0-0.2,0-0.3,0c-0.1,0-0.2-0.1-0.3-0.1c-0.1,0-0.1-0.1-0.2-0.1h-0.1c0,0,0,0-0.1,0L40.4,38l-0.1-0.1c0,0,0,0-0.1,0l0,0l0,0
		l-0.1-0.1c0,0,0-0.1-0.1-0.1v-0.1C40,37.6,40,37.5,40,37.5s0.1,0,0.2,0.1c0,0,0,0,0.1,0h0.1h0.1h0.1h0.1h0.1c0,0,0,0,0.1,0
		c0,0,0,0,0.1,0h0.1c0.1,0,0.2,0,0.2,0s0.2,0,0.2,0s0.2,0,0.2,0c0.1,0,0.2,0,0.2,0H42c0,0,0,0,0.1,0c0,0,0,0,0.1,0h0.1h0.1h0.1h0.1
		h0.1h0.1C42.9,37.5,42.9,37.5,42.9,37.5z"/>
	<g>
		<path class="st11" d="M42.7,37.9L42.7,37.9C42.7,37.9,42.6,37.9,42.7,37.9c-0.1,0.1-0.1,0.1-0.2,0.2l-0.1,0.1c0,0,0,0-0.1,0
			c0,0,0,0-0.1,0s-0.1,0.1-0.2,0.1c-0.1,0-0.2,0.1-0.3,0.1c-0.1,0-0.2,0-0.3,0s-0.2,0-0.3,0c-0.1,0-0.2-0.1-0.3-0.1
			c-0.1,0-0.1-0.1-0.2-0.1h-0.1c0,0,0,0-0.1,0l-0.1-0.1L40.3,38c0,0,0,0-0.1,0l0,0l0,0h0.1h0.1h0.1h0.1c0,0,0,0,0.1,0c0,0,0,0,0.1,0
			h0.1c0.1,0,0.2,0,0.2,0c0.1,0,0.2,0,0.2,0c0.1,0,0.2,0,0.2,0s0.2,0,0.2,0h0.1c0,0,0,0,0.1,0c0,0,0,0,0.1,0h0.1h0.1h0.1
			C42.6,37.9,42.6,37.9,42.7,37.9L42.7,37.9z"/>
		<path class="st11" d="M40,36.3c-0.2,0-0.2-0.1-0.2-0.2v-0.4c0-0.2,0.1-0.2,0.2-0.2c0.2,0,0.2,0.1,0.2,0.2v0.4
			C40.3,36.3,40.1,36.3,40,36.3z"/>
	</g>
	<g>
		<path class="st12" d="M42.5,34.7L42.5,34.7C42.5,34.6,42.5,34.6,42.5,34.7C42.5,34.6,42.5,34.6,42.5,34.7L42.5,34.7
			c0-0.1,0-0.1,0-0.2c0,0,0,0,0-0.1c0,0,0,0,0-0.1c0,0,0,0,0.1-0.1l0.1-0.1c0.1,0,0.1,0,0.2-0.1c0.1,0,0.1,0,0.2,0
			c0.1,0,0.1,0,0.2,0c0.1,0,0.1,0,0.2,0.1c0.1,0,0.1,0.1,0.1,0.1s0,0,0.1,0.1c0,0,0,0,0,0.1c0,0,0,0,0,0.1c0,0,0,0,0,0.1l0,0l0,0
			c0,0,0,0,0,0.1l0,0l0,0c0,0,0,0-0.1,0l0,0l0,0h-0.1c0,0,0,0-0.1,0c0,0,0,0-0.1,0h-0.1H43h-0.1h-0.1h-0.1h-0.1
			C42.7,34.7,42.7,34.7,42.5,34.7C42.6,34.7,42.6,34.7,42.5,34.7L42.5,34.7L42.5,34.7C42.6,34.6,42.6,34.6,42.5,34.7L42.5,34.7
			L42.5,34.7z"/>
		<path class="st12" d="M39.4,34.7L39.4,34.7C39.4,34.6,39.4,34.6,39.4,34.7C39.4,34.6,39.4,34.6,39.4,34.7L39.4,34.7
			c0-0.1,0-0.1,0-0.2c0,0,0,0,0-0.1c0,0,0,0,0-0.1c0,0,0,0,0.1-0.1l0.1-0.1c0.1,0,0.1,0,0.2-0.1c0.1,0,0.1,0,0.2,0
			c0.1,0,0.1,0,0.2,0s0.1,0,0.2,0.1c0.1,0,0.1,0.1,0.1,0.1s0,0,0.1,0.1c0,0,0,0,0,0.1c0,0,0,0,0,0.1c0,0,0,0,0,0.1l0,0l0,0
			c0,0,0,0,0,0.1l0,0l0,0c0,0,0,0-0.1,0l0,0l0,0h-0.1c0,0,0,0-0.1,0c0,0,0,0-0.1,0H40h-0.1h-0.1h-0.1h-0.1h-0.1
			C39.5,34.7,39.5,34.7,39.4,34.7C39.5,34.7,39.5,34.7,39.4,34.7L39.4,34.7L39.4,34.7C39.5,34.6,39.5,34.6,39.4,34.7
			C39.5,34.7,39.5,34.7,39.4,34.7L39.4,34.7z"/>
	</g>
	<path class="st11" d="M43.1,36.3c-0.2,0-0.2-0.1-0.2-0.2v-0.4c0-0.2,0.1-0.2,0.2-0.2c0.2,0,0.2,0.1,0.2,0.2v0.4
		C43.4,36.3,43.3,36.3,43.1,36.3z"/>
	<path class="st2" d="M42,35.3v1.2c0,0.2-0.2,0.4-0.4,0.4l0,0c-0.2,0-0.4-0.2-0.4-0.4v-1.2L42,35.3L42,35.3z"/>
</g>
<rect x="34" y="19.5" class="st14" width="12.4" height="1"/>
<rect x="34" y="22.3" class="st14" width="12.4" height="1"/>
<rect x="34" y="25.2" class="st14" width="12.4" height="1"/>
<circle class="st14" cx="21.7" cy="22.6" r="4.3"/>
</svg>
