<svg xmlns="http://www.w3.org/2000/svg" viewBox="0 0 44.1 45.24"><defs><style>.cls-1{fill:#2c3e50;}</style></defs><title>Asset 1</title><g id="Layer_2" data-name="Layer 2"><g id="Layer_1-2" data-name="Layer 1"><path class="cls-1" d="M24.46,10.82a.68.68,0,0,0-.35-.23,3.12,3.12,0,0,0,.11-1.2,2.43,2.43,0,0,1,.2-.69,1.65,1.65,0,0,0,.21-.88,1.89,1.89,0,0,0,0-.38c-.1-4.12-4-7.43-8.8-7.43S7,3.39,7,7.58c0,.14,0,.26,0,.37V8c0,.34.08.52.17.58.16.54.13,1.34.24,2h0a.64.64,0,0,0-.24.19C6.93,11.18,7,12,7,12.53a1.84,1.84,0,0,0,1.5,2c1,4,3.91,6.91,7.28,6.91s6.23-2.89,7.28-6.91a1.84,1.84,0,0,0,1.5-2C24.62,12,24.73,11.18,24.46,10.82Z"/><path class="cls-1" d="M44.1,31.34V18.63H26.94v12H19.3V43.36h5.92v1.2H23.33v.68h9.11v-.68H30.64v-1.2h5.82V33.22h3.61v-.68H38.28v-1.2ZM35.63,42.53H20.13V31.36H32.86v1.19H31v.68h4.67v9.31Zm-7.87-12V19.34h15.5V30.51Z"/><rect class="cls-1" x="29.15" y="20.45" width="12.74" height="8.96"/><path class="cls-1" d="M26.07,22.54a21.69,21.69,0,0,0-5-1.45,54.24,54.24,0,0,0-5.31,6.5v0l0,0,0,0v0a35.75,35.75,0,0,0-5.25-6.46A19,19,0,0,0,0,26.36C-.1,29.21.17,33,1.39,34.62c1.1,1.46,3,4.25,11.46,4.78a34.85,34.85,0,0,0,5,.09v-10h8.26v-7Z"/></g></g></svg>