<svg xmlns="http://www.w3.org/2000/svg" viewBox="0 0 76.95 68"><defs><style>.cls-1{fill:#fff;}</style></defs><title>Asset 15</title><g id="Layer_2" data-name="Layer 2"><g id="Ass_Task" data-name="Ass Task"><polygon class="cls-1" points="28.84 36.22 20.89 28.93 15.94 33.98 28.97 45.92 47.46 28.07 42.39 23.14 28.84 36.22"/><path class="cls-1" d="M63.34,34.12V4.34H51.75V0h-6V4.34H17.56V0h-6V4.34H0V58H43.08A17.79,17.79,0,0,0,59.2,68C69,68,76.95,60.29,76.95,50.81A17.33,17.33,0,0,0,63.34,34.12ZM6,10.12h5.63v2.19h6V10.12H45.79v2.19h6V10.12h5.63v7.06H6ZM41.46,50.81c0,.46,0,.91.07,1.36H6V21.4H57.38V33.72A17.43,17.43,0,0,0,41.46,50.81ZM59.2,62.22A11.42,11.42,0,1,1,71,50.81,11.61,11.61,0,0,1,59.2,62.22Z"/><polygon class="cls-1" points="61.4 43.4 56.32 43.4 56.32 53.63 66.43 53.63 66.43 48.71 61.4 48.71 61.4 43.4"/></g></g></svg>