<svg xmlns="http://www.w3.org/2000/svg" viewBox="0 0 64.89 70"><defs><style>.cls-1{fill:#fff;}</style></defs><title>Asset 13</title><g id="Layer_2" data-name="Layer 2"><g id="Layer_1-2" data-name="Layer 1"><path class="cls-1" d="M55,70c-3.21,0-9.9,0-9.9-5V50.45c0-3.17,2.89-5.94,6.79-6.93a6.52,6.52,0,1,1,6.54.08c3.74,1.05,6.49,3.77,6.49,6.85V65C64.89,70,58.2,70,55,70Zm-4.44-2.23A28.74,28.74,0,0,0,55,68a27,27,0,0,0,4.73-.32V54.05a1,1,0,0,1,2,0v13A2.21,2.21,0,0,0,62.94,65V50.45c0-2-1.78-3.79-4.28-4.72a36.33,36.33,0,0,1-2.78,4.67,1,1,0,0,1-1.63,0,35.73,35.73,0,0,1-2.8-4.72c-2.57.91-4.41,2.75-4.41,4.77V65a2.29,2.29,0,0,0,1.56,2.22V54.05a1,1,0,0,1,2,0V67.77ZM53.37,45.2c.36.7,1,1.78,1.69,2.86.68-1.07,1.31-2.14,1.68-2.84A11,11,0,0,0,53.37,45.2ZM55.2,33.35a4.57,4.57,0,1,0,4.57,4.57A4.57,4.57,0,0,0,55.2,33.35ZM9.9,70C6.69,70,0,70,0,65V50.45c0-3.17,2.89-5.94,6.79-6.93a6.52,6.52,0,1,1,6.54.08c3.74,1.05,6.49,3.77,6.49,6.85V65C19.81,70,13.12,70,9.9,70ZM5.46,67.77A28.72,28.72,0,0,0,9.9,68a26.91,26.91,0,0,0,4.73-.32V54.05a1,1,0,0,1,2,0v13A2.21,2.21,0,0,0,17.86,65V50.45c0-2-1.78-3.79-4.28-4.72a36.27,36.27,0,0,1-2.78,4.67,1,1,0,0,1-1.63,0,35.64,35.64,0,0,1-2.8-4.72C3.79,46.59,2,48.43,2,50.45V65a2.29,2.29,0,0,0,1.56,2.22V54.05a1,1,0,0,1,2,0V67.77ZM8.29,45.2c.36.7,1,1.78,1.69,2.86.68-1.07,1.31-2.14,1.68-2.84A11,11,0,0,0,8.29,45.2Zm1.83-11.85a4.57,4.57,0,1,0,4.57,4.57A4.57,4.57,0,0,0,10.12,33.35ZM24.8,57.05a1,1,0,0,1-.49-1.82L31.61,51V42.64a1,1,0,0,1,2,0v8.52l7,4a1,1,0,0,1-1,1.69l-7.18-4.11-7.16,4.15A1,1,0,0,1,24.8,57.05ZM31.86,38.6c-3.21,0-9.9,0-9.9-5V19.05c0-3.15,2.86-5.91,6.72-6.92a6.52,6.52,0,1,1,6.54,0c3.78,1,6.55,3.77,6.55,6.87V33.62C41.76,38.6,35.07,38.6,31.86,38.6Zm-4.44-2.23a28.72,28.72,0,0,0,4.44.27,27,27,0,0,0,4.73-.32V22.44a1,1,0,1,1,2,0V35.7a2.21,2.21,0,0,0,1.27-2.08V19.05c0-2-1.82-3.83-4.37-4.75A35.88,35.88,0,0,1,32.65,19,1,1,0,0,1,31,19a36.07,36.07,0,0,1-2.79-4.69c-2.53.92-4.33,2.74-4.33,4.74V33.62a2.29,2.29,0,0,0,1.56,2.22V22.44a1,1,0,0,1,2,0V36.38Zm2.74-22.56c.36.7,1,1.78,1.68,2.85.68-1.08,1.32-2.15,1.68-2.86A11,11,0,0,0,30.15,13.82ZM32,2a4.57,4.57,0,1,0,4.57,4.57A4.57,4.57,0,0,0,32,2Z"/></g></g></svg>