<svg xmlns="http://www.w3.org/2000/svg" viewBox="0 0 77.2 64.4"><defs><style>.cls-1{fill:#fff;}</style></defs><title>Asset 3</title><g id="Layer_2" data-name="Layer 2"><g id="Layer_24" data-name="Layer 24"><path class="cls-1" d="M49.5,53.2a18.7,18.7,0,0,1,3.4-2.7l.8-.3c.1-.2.3-1.2-.1-1.6s-1.3-3.1-1.8-4.7c-1.2,0-3-3.1-1.2-3.9,0-.4-.3-1.3-.3-1.7a12.6,12.6,0,0,1,.4-4.4c.3-.9.6-1.3,1.4-1.3,0-1.7,3.3-2.8,5.3-2.8,3.6.2,4.1,1.2,5.7,3.5s.5,3.2.6,4.9-.2,1.1-.2,1.5c1.7.4.6,3.9-.7,4s-.6,4.1-1.5,4.9a3.6,3.6,0,0,0-.2,1.7h.5l-.7.4h0l-3.3,1.7,2.7,4-1.9-2.1c-.2-.1-.2.4-.6.5a63.8,63.8,0,0,1,1.4,9.5l2.1-.3c1.4-3.5,2-7.7.9-11,0-.1.3-.6.2-.7a7.6,7.6,0,0,0-.9-1.8s3.3,1.8,4.2,3.1c2.6,2,6.1,1.2,7.8,2.2a20,20,0,0,0-7.1-29.2V1.2a1.1,1.1,0,0,0-.6-1A1.3,1.3,0,0,0,64.7.1L43.9,8.9,23.1.1h-1L.8,9.1A1.2,1.2,0,0,0,0,10.3V54.5a1.1,1.1,0,0,0,.6,1l.7.2h.5l20.8-8.8,16.9,7.1a20.3,20.3,0,0,0,1.6,2.4C42.5,54.6,46.2,55.1,49.5,53.2ZM45.1,11.1h.1L64,3.2V25.6a19.6,19.6,0,0,0-6.9-1.2,20.1,20.1,0,0,0-12,4ZM21.3,44.7,2.5,52.6V11.1L21.3,3.2Zm16.8,5.9-14.3-6V39.1l2.8-1.5a1.2,1.2,0,0,0-1.4-2l-1.3.8V3.1L42.7,11v8a9.6,9.6,0,0,0-2.8,1.5,1.2,1.2,0,0,0-.3,1.7,1,1,0,0,0,1,.5l.7-.2,1.4-.8v8.7a19.8,19.8,0,0,0-5.6,13.9A21.9,21.9,0,0,0,38.1,50.6Z"/><path class="cls-1" d="M56.5,54.4a13.8,13.8,0,0,0-1.8,2.2l2.4-4L54.3,51l-.4-.2-.7-.4-.9,1.9c.1.5.3.6.2.8a17.6,17.6,0,0,0,1.2,11.1l2.1.3A58.2,58.2,0,0,1,57,54.9C56.7,54.8,56.7,54.3,56.5,54.4Z"/><path class="cls-1" d="M10.9,24.1a2.2,2.2,0,0,0,.1.8A1.2,1.2,0,0,0,12.3,26a1.2,1.2,0,0,0,1.2-1.3V24a4.6,4.6,0,1,0-2.6.1Zm1.2-7a2.2,2.2,0,1,1-2.2,2.2A2.2,2.2,0,0,1,12.1,17.1Z"/><path class="cls-1" d="M14.6,32.3a11.5,11.5,0,0,1-.6-2.8,1.2,1.2,0,1,0-2.4.4,23.8,23.8,0,0,0,.7,3.1,1.4,1.4,0,0,0,1.2.9h.4A1.2,1.2,0,0,0,14.6,32.3Z"/><path class="cls-1" d="M14.9,36.1a1.3,1.3,0,0,0,0,1.8A7,7,0,0,0,18,39.7h.3a1.2,1.2,0,0,0,1.2-.9,1.2,1.2,0,0,0-.8-1.5,4.7,4.7,0,0,1-2-1.2A1.3,1.3,0,0,0,14.9,36.1Z"/><path class="cls-1" d="M35.9,24.1l-2,2.3a1.3,1.3,0,0,0,.2,1.8,1.1,1.1,0,0,0,.8.3,1.8,1.8,0,0,0,1-.4l1.9-2.2a1.5,1.5,0,0,0-.1-1.9A1.3,1.3,0,0,0,35.9,24.1Z"/><path class="cls-1" d="M30.7,30.2a22.9,22.9,0,0,1-2,2.2,1.3,1.3,0,0,0,0,1.8,1.4,1.4,0,0,0,.9.3,1.1,1.1,0,0,0,.9-.4l2.1-2.3a1.2,1.2,0,1,0-1.9-1.6Z"/><path class="cls-1" d="M48.7,19.2a1.3,1.3,0,0,0-1.1,2.3,5.1,5.1,0,0,1,1.7,1.6,1.1,1.1,0,0,0,1,.6l.7-.2a1.3,1.3,0,0,0,.4-1.7A6.6,6.6,0,0,0,48.7,19.2Z"/></g></g></svg>