<svg xmlns="http://www.w3.org/2000/svg" viewBox="0 0 66.67 73.04"><defs><style>.cls-1{fill:#fff;}</style></defs><title>Asset 5</title><g id="Layer_2" data-name="Layer 2"><g id="Layer_1-2" data-name="Layer 1"><rect class="cls-1" x="13.17" y="22.36" width="5.12" height="5.12" transform="translate(-9.32 40.47) rotate(-89.56)"/><rect class="cls-1" x="30.42" y="45.97" width="5.12" height="23.05" transform="translate(-24.76 90.04) rotate(-89.56)"/><rect class="cls-1" x="30.55" y="29.75" width="5.12" height="23.05" transform="translate(-8.42 74.07) rotate(-89.56)"/><rect class="cls-1" x="30.61" y="21.22" width="5.12" height="23.05" transform="translate(0.18 65.66) rotate(-89.56)"/><rect class="cls-1" x="32.36" y="15.24" width="1.71" height="23.05" transform="translate(6.2 59.78) rotate(-89.56)"/><rect class="cls-1" x="30.49" y="37.44" width="5.12" height="23.05" transform="translate(-16.16 81.64) rotate(-89.56)"/><rect class="cls-1" x="12.92" y="54.8" width="5.12" height="5.12" transform="translate(-42 72.41) rotate(-89.56)"/><rect class="cls-1" x="13.11" y="30.05" width="5.12" height="5.12" transform="translate(-17.06 48.03) rotate(-89.56)"/><path class="cls-1" d="M56.78,15.93l.07-9.48L35.51,6.29A6.25,6.25,0,0,0,23,6.2L.51,6,0,72.62,56.34,73l.28-37.13a9.71,9.71,0,0,0,10-9.92A9.71,9.71,0,0,0,56.78,15.93ZM29.28,4.52A1.56,1.56,0,1,1,27.7,6.07,1.56,1.56,0,0,1,29.28,4.52ZM50.78,18.07A9.23,9.23,0,0,0,47,25.85a9.23,9.23,0,0,0,3.71,7.84L50.41,67,6.87,66.69l.39-51.22,43.54.33Zm11,8.92-4.27,0,0,4.27H55.81l0-4.27-4.27,0V25.2l4.27,0,0-4.27h1.71l0,4.27,4.27,0Z"/><rect class="cls-1" x="12.99" y="46.27" width="5.12" height="5.12" transform="translate(-33.4 64.01) rotate(-89.56)"/><rect class="cls-1" x="13.05" y="38.58" width="5.12" height="5.12" transform="translate(-25.66 56.44) rotate(-89.56)"/></g></g></svg>