<svg xmlns="http://www.w3.org/2000/svg" viewBox="0 0 68 69.51"><defs><style>.cls-1{fill:#fff;}</style></defs><title>Asset 10</title><g id="Layer_2" data-name="Layer 2"><g id="Layer_1-2" data-name="Layer 1"><rect class="cls-1" x="17.38" y="20.4" width="33.24" height="3.02"/><rect class="cls-1" x="47.6" y="24.93" width="3.02" height="3.02"/><rect class="cls-1" x="17.38" y="24.93" width="3.02" height="3.02"/><rect class="cls-1" x="32.49" y="10.58" width="3.02" height="3.02"/><rect class="cls-1" x="37.02" y="10.58" width="3.02" height="3.02"/><rect class="cls-1" x="27.96" y="10.58" width="3.02" height="3.02"/><rect class="cls-1" x="23.42" y="10.58" width="3.02" height="3.02"/><rect class="cls-1" x="41.56" y="10.58" width="3.02" height="3.02"/><path class="cls-1" d="M61.62,65.16a9,9,0,0,1-4.87,1.33l8.91-26.72a1.51,1.51,0,0,0-.81-1.86l-8.18-3.68V19.64a4.54,4.54,0,0,0-4.53-4.53H49.87V7.56A1.51,1.51,0,0,0,48.36,6H35.51V0h-3V6H19.64a1.51,1.51,0,0,0-1.51,1.51v7.56H15.87a4.54,4.54,0,0,0-4.53,4.53V34.23L3.16,37.91a1.51,1.51,0,0,0-.81,1.86l8.91,26.72a9,9,0,0,1-4.87-1.33A11.92,11.92,0,0,0,0,63.47v3a9,9,0,0,1,5,1.33,11.92,11.92,0,0,0,6.38,1.69,12.53,12.53,0,0,0,2.22-.17,12.25,12.25,0,0,0,4.16-1.52,9,9,0,0,1,4.94-1.33,9,9,0,0,1,5,1.33A11.92,11.92,0,0,0,34,69.51a11.92,11.92,0,0,0,6.38-1.69,9,9,0,0,1,5-1.33,9,9,0,0,1,5,1.33,12.31,12.31,0,0,0,4.17,1.52,12.51,12.51,0,0,0,2.22.17A11.92,11.92,0,0,0,63,67.82a9,9,0,0,1,5-1.33v-3A11.92,11.92,0,0,0,61.62,65.16Zm-.35-21.8L35.51,31.52V28L62.36,40.11ZM21.16,9.07H46.84v6H21.16Zm-5.29,9.07H52.13a1.51,1.51,0,0,1,1.51,1.51V32.87l-19-8.56a1.51,1.51,0,0,0-1.24,0l-19,8.56V19.64A1.51,1.51,0,0,1,15.87,18.13ZM32.49,28v3.49L6.73,43.36,5.64,40.11ZM45.32,63.47a11.92,11.92,0,0,0-6.38,1.69,9,9,0,0,1-5,1.33,9,9,0,0,1-5-1.33,11.92,11.92,0,0,0-6.38-1.69,11.91,11.91,0,0,0-6.36,1.68,12.22,12.22,0,0,1-2,.91L7.69,46.24l24.8-11.39v18h3v-18l24.8,11.4L53.7,66.07a12.25,12.25,0,0,1-2-.92A12,12,0,0,0,45.32,63.47Z"/></g></g></svg>