<svg xmlns="http://www.w3.org/2000/svg" viewBox="0 0 57.56 74"><defs><style>.cls-1{fill:#fff;}</style></defs><title>Asset 19</title><g id="Layer_2" data-name="Layer 2"><g id="Crew_Health" data-name="Crew Health"><polygon class="cls-1" points="57.56 41.11 57.56 12.33 45.22 0 0 0 0 74 57.56 74 57.56 61.67 53.44 61.67 53.44 69.89 4.11 69.89 4.11 4.11 41.11 4.11 41.11 16.44 53.44 16.44 53.44 41.11 57.56 41.11"/><path class="cls-1" d="M29.74,55.39h5.15v2.28H26.78V45.39h3Z"/><path class="cls-1" d="M45.92,51.78A7.24,7.24,0,0,1,45.25,55a4.93,4.93,0,0,1-1.89,2.13,5.28,5.28,0,0,1-2.79.75,5.34,5.34,0,0,1-2.78-.72,4.91,4.91,0,0,1-1.89-2.06A7,7,0,0,1,35.18,52v-.69a7.27,7.27,0,0,1,.66-3.18A4.91,4.91,0,0,1,37.73,46a5.62,5.62,0,0,1,5.59,0,5,5,0,0,1,1.9,2.11,7.06,7.06,0,0,1,.69,3.14v.57Zm-3-.51a5.17,5.17,0,0,0-.61-2.78,2,2,0,0,0-1.75-.95q-2.23,0-2.35,3.34v.9a5.31,5.31,0,0,0,.6,2.77,2,2,0,0,0,1.78,1,1.93,1.93,0,0,0,1.73-1,5.17,5.17,0,0,0,.62-2.74v-.57Z"/><path class="cls-1" d="M57.08,56.15a4.76,4.76,0,0,1-2,1.22,8.62,8.62,0,0,1-2.88.46,5.14,5.14,0,0,1-3.85-1.48,6,6,0,0,1-1.54-4.11V51.19A7.34,7.34,0,0,1,47.44,48a4.76,4.76,0,0,1,1.83-2.08A5.19,5.19,0,0,1,52,45.21a5.44,5.44,0,0,1,3.56,1,4.45,4.45,0,0,1,1.48,3.13H54.23a2.33,2.33,0,0,0-.66-1.47,2.12,2.12,0,0,0-1.43-.44,1.93,1.93,0,0,0-1.72.94,5,5,0,0,0-.62,2.7v.74a4.93,4.93,0,0,0,.63,2.76,2.22,2.22,0,0,0,2,.92A2.49,2.49,0,0,0,54.12,55V53.14H52.07v-2h5Z"/><path class="cls-1" d="M34.49,16.11h-4.6v-4.6A2.51,2.51,0,0,0,27.38,9H18.62a2.51,2.51,0,0,0-2.51,2.51v4.6h-4.6A2.51,2.51,0,0,0,9,18.62v8.77a2.51,2.51,0,0,0,2.51,2.51h4.6v4.6A2.51,2.51,0,0,0,18.62,37h8.77a2.51,2.51,0,0,0,2.51-2.51v-4.6h4.6A2.51,2.51,0,0,0,37,27.38V18.62A2.51,2.51,0,0,0,34.49,16.11ZM29,23.9h0l0,0-.09.09L23,29.9l-6-6h0a3.58,3.58,0,1,1,6-3.56,3.58,3.58,0,1,1,6,3.56Z"/></g></g></svg>