<svg xmlns="http://www.w3.org/2000/svg" viewBox="0 0 60.29 55.62"><defs><style>.cls-1{fill:#fff;}</style></defs><title>Asset 2</title><g id="Layer_2" data-name="Layer 2"><g id="Layer_1-2" data-name="Layer 1"><path class="cls-1" d="M.06,18.54C-.32,12.83,2,8.22,6.18,4.58A18.13,18.13,0,0,1,20.66.2a17.57,17.57,0,0,1,8.85,3.55.84.84,0,0,0,1.22,0A18.54,18.54,0,0,1,55.94,6.46a16.43,16.43,0,0,1,4.17,8.94c.71,6.2-.54,11.87-5.18,16.47C47.27,39.46,39.67,47.1,32,54.72a2.55,2.55,0,0,1-3.9,0Q16.73,43.32,5.33,31.91a18.29,18.29,0,0,1-5.25-10A20.35,20.35,0,0,1,.06,18.54Zm55.65,2.11a33.62,33.62,0,0,0-.3-4.52A13.1,13.1,0,0,0,46,5.5,13.4,13.4,0,0,0,32,9c-1.31,1.25-2.56,1.27-3.84,0A13.23,13.23,0,0,0,15.94,5,13.77,13.77,0,0,0,5.46,23.34a1,1,0,0,0,1.18.83c2.35-.06,4.74-.25,6.91,1,0,0,.05,0,.16,0,.13-.22.28-.48.42-.74C16,20.81,18,17.24,19.87,13.66a2.3,2.3,0,0,1,1.82-1.4,2.28,2.28,0,0,1,2.59,1.37c1.39,2.53,2.75,5.08,4.13,7.62.45.83.72,2,1.42,2.39s1.88.15,2.84.18h.08a2.43,2.43,0,0,1,2.44,1.55c.48,1,.94,2.07,1.42,3.11a6.23,6.23,0,0,0,.36.59l.15-.44C38.58,24,40,19.47,41.46,14.89A2.37,2.37,0,0,1,43.54,13,2.71,2.71,0,0,1,46,14.19c1.57,2,3.13,4,4.71,6a1.18,1.18,0,0,0,.69.49C52.74,20.68,54.1,20.65,55.71,20.65ZM9.32,28.87,30.19,49.7a2.59,2.59,0,0,0,.24-.2Q41.09,38.89,51.74,28.27c.79-.79,1.44-1.73,2.31-2.79-1.35,0-2.43,0-3.5,0a3.05,3.05,0,0,1-2.72-1.32c-.91-1.21-1.89-2.38-2.91-3.67-.13.38-.22.63-.3.88C43.07,26.27,41.5,31.16,40,36.06a2.8,2.8,0,0,1-2.38,2.24c-1,.14-2-.58-2.58-1.87-1.13-2.41-2.27-4.82-3.38-7.25a.79.79,0,0,0-.86-.57c-.72,0-1.45,0-2.17,0a2.64,2.64,0,0,1-2.49-1.51c-.76-1.49-1.58-2.94-2.38-4.4l-1.64-3c-.22.39-.37.64-.51.91q-2.25,4.23-4.5,8.46a2.5,2.5,0,0,1-3.55,1.28c-1-.4-1.94-.83-2.92-1.22A10.39,10.39,0,0,0,9.32,28.87Z"/></g></g></svg>