<svg xmlns="http://www.w3.org/2000/svg" viewBox="0 0 67.32 85.55"><defs><style>.cls-1{fill:#fff;}</style></defs><title>Asset 6</title><g id="Layer_2" data-name="Layer 2"><g id="dept_master" data-name="dept master"><path class="cls-1" d="M51,36.86c2.27-.49,4.36-2.36,4.7-6.52.28-3.4-.59-5.16-1.88-6C57.4,9.71,47.53,6.85,47.53,6.85S40.16-5.65,25.78,3.12a25.71,25.71,0,0,0-6.37,5.46c-2.72,2.9-4.57,7.6-4.86,15.22-1.76.67-3.14,2.37-2.79,6.52.36,4.35,2.63,6.2,5,6.58C20,44.76,26.34,51.22,33.87,51.22S47.79,44.73,51,36.86ZM33.87,47.56c-8.7,0-15.71-11.82-15.71-21.6,0-1.34,0-2.58.13-3.74,12.73.56,20.26-4.55,24.36-9a28.6,28.6,0,0,1,6.94,12.4c0,.1,0,.21,0,.31C49.58,35.75,42.57,47.56,33.87,47.56Z"/><path class="cls-1" d="M28.88,62.36l1-4.17a2.43,2.43,0,0,1,.7-1.21l-.3-.23-9-7.45-5.48,1.28C6.54,52.76,0,60.59,0,69.58v11.8a4.38,4.38,0,0,0,4.54,4.17H27.73L31.26,65.4A2.46,2.46,0,0,1,28.88,62.36Z"/><path class="cls-1" d="M51.6,50.58,46.2,49.3l-9,7.45-.3.23a2.44,2.44,0,0,1,.71,1.21l1,4.17a2.46,2.46,0,0,1-2.38,3l3.54,20.16H63a4.21,4.21,0,0,0,4.35-4.17V69.58C67.32,60.59,60.87,52.76,51.6,50.58Z"/></g></g></svg>