<svg xmlns="http://www.w3.org/2000/svg" viewBox="0 0 74.2 80.5"><defs><style>.cls-1{fill:#fff;}</style></defs><title>Asset 20</title><g id="Layer_2" data-name="Layer 2"><g id="Drill_Report" data-name="Drill Report"><path class="cls-1" d="M73.53,44.51a.63.63,0,0,0,.67-.67V41.18a.63.63,0,0,0-.67-.67H58.87a.63.63,0,0,0-.67.67v2.67a.63.63,0,0,0,.67.67h.67v4h-.67a.82.82,0,0,0-.53.27.51.51,0,0,0-.07.6l1.33,4a.64.64,0,0,0,.6.47h2v3.33a.63.63,0,0,0,.67.67h.67v1.33h-.67a.67.67,0,1,0,0,1.33h.67v1.33h-.67a.67.67,0,0,0,0,1.33h.67v1.33h-.67a.67.67,0,0,0,0,1.33h.67v1.33h-.67a.67.67,0,0,0,0,1.33h.67v1.33h-.67a.67.67,0,0,0,0,1.33h.67V72.5h-.67a.67.67,0,0,0,0,1.33h.67v1.33h-.67a.67.67,0,0,0,0,1.33h.67v1.33h-.67a.67.67,0,1,0,0,1.33h1.07A2.66,2.66,0,0,0,66.2,80.5a2.58,2.58,0,0,0,2.27-1.33h1.07a.67.67,0,1,0,0-1.33h-.67V76.5h.67a.67.67,0,0,0,0-1.33h-.67V73.84h.67a.67.67,0,0,0,0-1.33h-.67V71.17h.67a.67.67,0,0,0,0-1.33h-.67V68.5h.67a.67.67,0,0,0,0-1.33h-.67V65.84h.67a.67.67,0,0,0,0-1.33h-.67V63.17h.67a.67.67,0,0,0,0-1.33h-.67V60.51h.67a.67.67,0,1,0,0-1.33h-.67V57.84h.67a.63.63,0,0,0,.67-.67V53.84h2a.64.64,0,0,0,.6-.47l1.33-4a.65.65,0,0,0-.07-.6.82.82,0,0,0-.53-.27h-.67v-4Zm-4.66,12H63.54V53.84h5.33Zm2.67-8H60.87v-4H71.53Z"/><path class="cls-1" d="M52,17.35a9.11,9.11,0,0,0-9.4-9.4H41.52v2.69h.9A8,8,0,0,1,45.1,11a6.23,6.23,0,0,1,4.25,6.27V61a6.68,6.68,0,0,1-1.79,4.7,6.58,6.58,0,0,1-4.92,2H9.4A6.4,6.4,0,0,1,2.69,61V18A9,9,0,0,1,3,15a6,6,0,0,1,5.26-4.36,11.55,11.55,0,0,1,2.13-.11h.11V7.95H9a9.86,9.86,0,0,0-1.9.22,9,9,0,0,0-7.05,9V61.44A10.85,10.85,0,0,0,.34,64,8.88,8.88,0,0,0,9.06,70.5H43.53a8.79,8.79,0,0,0,8.39-7.95c.11-2.13.11-8.84.11-11V46.66C52,33.91,52,26.86,52,17.35Z"/><path class="cls-1" d="M14.88,12.42H37.26c1,0,1.45-.45,1.45-1.45V8.28c0-2.13-.11-2.35-2.35-2.24A6.09,6.09,0,0,1,32,4.59,11.63,11.63,0,0,1,30.1,1.9,3.63,3.63,0,0,0,26.86,0H24.73a3,3,0,0,0-2.8,1.68c-.34.45-.56,1-.9,1.45a5.34,5.34,0,0,1-3.69,2.69,11.73,11.73,0,0,1-2.8.11A1.19,1.19,0,0,0,13.2,7.27v3.47C13.2,12.09,13.65,12.42,14.88,12.42ZM16,8.73a5.87,5.87,0,0,0,1.9-.22,8.24,8.24,0,0,0,5.6-4,2.45,2.45,0,0,0,.34-.56c.11-.22.34-.56.45-.78s.22-.34.56-.34h2.24c.22,0,.45,0,.78.56l.11.11A13.6,13.6,0,0,0,30.21,6.6,8,8,0,0,0,36,8.84v.78H16Z"/><path class="cls-1" d="M41.18,20.59a4.6,4.6,0,0,0-3-1.9c-.22,0-.56-.11-.78-.11a4.59,4.59,0,0,0-4.59,3.92,5.17,5.17,0,0,0,.45,2.91h0c-2.35,2.69-4.59,5.37-7,8.17v.11A2.26,2.26,0,0,0,25,33.35a5,5,0,0,0-2.57.34c-1.23-1.34-2.57-2.69-3.69-3.92a6.31,6.31,0,0,0,.45-1.34A4.74,4.74,0,0,0,18.35,25a4.88,4.88,0,0,0-3-1.9c-.22,0-.56-.11-.78-.11A4.59,4.59,0,0,0,10,26.86a4.11,4.11,0,0,0,.11,2,4.87,4.87,0,0,0,.9,1.68,4.55,4.55,0,0,0,2.8,1.68,6,6,0,0,0,2.8-.34c.56.67,1.23,1.23,1.79,1.9l.11.11c.56.56,1.12,1.23,1.68,1.79a6.47,6.47,0,0,0-.56,1.57,4.63,4.63,0,0,0,.78,3.58,4.88,4.88,0,0,0,3,1.9c.22,0,.56.11.78.11h0a4.59,4.59,0,0,0,4.59-3.92A5.17,5.17,0,0,0,28.31,36c2.24-2.69,4.7-5.48,7.16-8.28a4.26,4.26,0,0,0,1.12.34c.22,0,.56.11.78.11a4.72,4.72,0,0,0,3.8-1.9A4.06,4.06,0,0,0,42,24.4v-.11A4.7,4.7,0,0,0,41.18,20.59ZM22.38,39.28a2.27,2.27,0,0,1-.45-1.68,2.16,2.16,0,0,1,2.13-1.79h.34a2.08,2.08,0,0,1,1.79,2.46,2.24,2.24,0,0,1-2.46,1.9A1.73,1.73,0,0,1,22.38,39.28ZM39.61,23.72a2.24,2.24,0,0,1-2.46,1.9,2.49,2.49,0,0,1-1.45-.9,2.27,2.27,0,0,1-.45-1.68,2.16,2.16,0,0,1,2.13-1.79h.34A2.24,2.24,0,0,1,39.61,23.72ZM16.67,28a2.24,2.24,0,0,1-2.46,1.9,2.49,2.49,0,0,1-1.45-.9,2.27,2.27,0,0,1-.45-1.68,2.16,2.16,0,0,1,2.13-1.79h.34A2.16,2.16,0,0,1,16.67,28Zm7.5,14.55Z"/><rect class="cls-1" x="8.62" y="49.24" width="8.17" height="2.8"/><rect class="cls-1" x="19.02" y="49.24" width="23.72" height="2.8"/><rect class="cls-1" x="8.62" y="56.85" width="22.38" height="2.8"/><rect class="cls-1" x="33.24" y="56.85" width="9.4" height="2.8"/></g></g></svg>