<svg xmlns="http://www.w3.org/2000/svg" viewBox="0 0 62 62"><defs><style>.cls-1{fill:#fff;}</style></defs><title>Asset 12</title><g id="Layer_2" data-name="Layer 2"><g id="Layer_1-2" data-name="Layer 1"><path class="cls-1" d="M1.29,57.29A1.29,1.29,0,0,1,0,56V8.56a1.29,1.29,0,0,1,2.58,0V56A1.29,1.29,0,0,1,1.29,57.29Z"/><path class="cls-1" d="M49.19,62H8c-.48,0-4.52-.13-6.52-2.06A6.13,6.13,0,0,1,0,56.15a1.29,1.29,0,1,1,2.58,0,3.8,3.8,0,0,0,.73,1.93c1,.93,3.43,1.31,4.75,1.34H47.9v-2.7a1.29,1.29,0,1,1,2.58,0v4A1.29,1.29,0,0,1,49.19,62Z"/><path class="cls-1" d="M49.19,31.61a1.29,1.29,0,0,1-1.29-1.29V13.72H6.38A6.31,6.31,0,0,1,0,7.5V6.21A6.31,6.31,0,0,1,6.38,0H47a1.29,1.29,0,1,1,0,2.58H6.38a3.72,3.72,0,0,0-3.8,3.63V7.5a3.72,3.72,0,0,0,3.8,3.63H49.19a1.29,1.29,0,0,1,1.29,1.29v17.9A1.29,1.29,0,0,1,49.19,31.61Z"/><path class="cls-1" d="M47,13.72a1.29,1.29,0,0,1-.74-.23c-2.71-1.9-4.24-4.12-4.56-6.62A8.93,8.93,0,0,1,43.61.45a1.29,1.29,0,0,1,2,1.68,6.38,6.38,0,0,0-1.34,4.44c.23,1.73,1.4,3.35,3.47,4.8A1.29,1.29,0,0,1,47,13.72Z"/><path class="cls-1" d="M47.43,58A14.49,14.49,0,1,1,62,43.52,14.54,14.54,0,0,1,47.43,58Zm0-26.39a11.91,11.91,0,1,0,12,11.91A12,12,0,0,0,47.43,31.61Z"/><path class="cls-1" d="M46.27,48.68a3.54,3.54,0,0,1-.45,0,4.11,4.11,0,0,1-3.51-3.59,5.71,5.71,0,0,1,1.58-4.66,7.93,7.93,0,0,1,5.58-1.83,1.25,1.25,0,0,1,.88-.24,1.29,1.29,0,0,1,1.16,1.41,31.73,31.73,0,0,1-.71,4.61C49.57,48.1,47.46,48.68,46.27,48.68Zm2.49-7.53a4.93,4.93,0,0,0-3.07,1.1,3.22,3.22,0,0,0-.8,2.65,1.55,1.55,0,0,0,1.26,1.19c.83.1,1.64-.85,2.2-2.55A17.45,17.45,0,0,0,48.75,41.16Z"/><path class="cls-1" d="M46.94,52.57A8.62,8.62,0,0,1,43.73,52a7.89,7.89,0,0,1-4.38-4.31,9.87,9.87,0,0,1,5-12.4,8.87,8.87,0,0,1,8.82.88,7.74,7.74,0,0,1,2.94,7.57c-.59,4.15-2.82,5.39-4.73,5.17A3.65,3.65,0,0,1,48,45.27a1.29,1.29,0,0,1,2.57.23,1.32,1.32,0,0,0,1.14.8c.88,0,1.54-1.06,1.81-3a5.06,5.06,0,0,0-1.92-5.13,6.23,6.23,0,0,0-6.19-.61,7.32,7.32,0,0,0-3.68,9.07,5.32,5.32,0,0,0,3,2.91,7,7,0,0,0,5.39-.27,1.29,1.29,0,1,1,1,2.37A10.43,10.43,0,0,1,46.94,52.57Z"/></g></g></svg>