<svg xmlns="http://www.w3.org/2000/svg" viewBox="0 0 80 69.18"><defs><style>.cls-1{fill:#fff;}</style></defs><title>Asset 3</title><g id="Layer_2" data-name="Layer 2"><g id="Layer_1-2" data-name="Layer 1"><rect class="cls-1" x="4.39" y="23.86" width="3.31" height="7.68"/><rect class="cls-1" x="4.39" y="37.73" width="3.31" height="7.68"/><path class="cls-1" d="M62.52,20V6.08A6.09,6.09,0,0,0,56.44,0h-46A6.09,6.09,0,0,0,4.4,6.08V17.67H7.71V6.08a2.77,2.77,0,0,1,2.77-2.77h46a2.77,2.77,0,0,1,2.77,2.77V59.71h0v3.39a2.78,2.78,0,0,1-2.78,2.77h-46a2.77,2.77,0,0,1-2.77-2.77V51.54H4.4V63.09a6.09,6.09,0,0,0,6.08,6.08h46a6.1,6.1,0,0,0,6.09-6.08V20Z"/><path class="cls-1" d="M10.87,51.25A2.81,2.81,0,1,0,8.45,47h-7a1.43,1.43,0,1,0,0,2.86h7A2.8,2.8,0,0,0,10.87,51.25Z"/><path class="cls-1" d="M1.43,36h7a2.81,2.81,0,1,0,0-2.88h-7a1.44,1.44,0,0,0,0,2.88Z"/><path class="cls-1" d="M1.43,22.16h7a2.81,2.81,0,1,0,0-2.86h-7a1.43,1.43,0,1,0,0,2.86Z"/><path class="cls-1" d="M19.57,19.23c.09.15.16.29.23.43l.32.59.52,1c.09.15.16.28.25.45l.37.69a2.21,2.21,0,0,0,.7.73,1.47,1.47,0,0,0,.81.23,2,2,0,0,0,1.43-.65l.51-.6.35-.41,1.53-1.81,1.78-2.11c.45-.54.9-1.07,1.36-1.61l.54-.66A1.1,1.1,0,0,0,30.41,14a1.07,1.07,0,0,0-1.51-.28,11.5,11.5,0,0,0-1,.88c-.52.49-1.06,1-1.59,1.44l-.58.53-1.18,1.08-1.62,1.48-1.92-2a1.25,1.25,0,0,0-.88-.29,1.39,1.39,0,0,0-.66.29,1.14,1.14,0,0,0-.39.86,1.29,1.29,0,0,0,.09.46Z"/><path class="cls-1" d="M19.57,34.84c.09.15.16.29.23.43l.24.45.6,1.1c.09.15.16.28.25.44l.38.69a2.23,2.23,0,0,0,.7.74,1.48,1.48,0,0,0,.81.23,2,2,0,0,0,1.43-.65l.51-.6.35-.41,1.53-1.82,1.79-2.11c.45-.54.9-1.07,1.36-1.61l.54-.66a1.1,1.1,0,0,0,.11-1.44,1.07,1.07,0,0,0-1.51-.28,11.5,11.5,0,0,0-1,.88c-.52.49-1.06,1-1.59,1.44l-.6.55-1.16,1.06-1.62,1.48-1.92-2a1.21,1.21,0,0,0-.88-.29,1.4,1.4,0,0,0-.66.29,1.14,1.14,0,0,0-.39.86,1.29,1.29,0,0,0,.09.46Z"/><path class="cls-1" d="M35.17,20.64H52.5a1.76,1.76,0,0,0,0-3.53H35.17a1.76,1.76,0,0,0,0,3.53Z"/><path class="cls-1" d="M52.5,32.27H35.17a1.76,1.76,0,1,0,0,3.53H52.5a1.76,1.76,0,1,0,0-3.53Z"/><path class="cls-1" d="M52.5,47.42H35.17a1.76,1.76,0,0,0,0,3.53H52.5a1.76,1.76,0,0,0,0-3.53Z"/><path class="cls-1" d="M24.27,42.64a6.54,6.54,0,1,0,6.54,6.54A6.55,6.55,0,0,0,24.27,42.64Zm4.09,6.54a4.09,4.09,0,1,1-4.09-4.09A4.1,4.1,0,0,1,28.36,49.19Z"/><path class="cls-1" d="M75,52.12c0-6.46,0-2.52-.06-9.06-3,0-5.73-.19-8.61-.15a.34.34,0,0,0-.05.17c0,8,0,5.82.14,13.84a10.45,10.45,0,0,0,.71,3.45c.54,1.51,1.9,2.2,3.67,2.18s3.07-.64,3.54-2.35a28.73,28.73,0,0,0,.57-4,4.88,4.88,0,0,0,0-.53V55.1Z"/><path class="cls-1" d="M80,56.59c0-1.92,0-3.82,0-5.74,0-3.38,0-6.77,0-10.15a1.34,1.34,0,0,0-1-1.49,1.19,1.19,0,0,0-1.47.62,2.52,2.52,0,0,0-.16,1.1c0,3.65,0,15.3,0,15.72,0,1,.51,1.49,1.34,1.45S80,57.48,80,56.59Z"/><path class="cls-1" d="M74.92,40.69S75.05,20.75,74.5,18c0,0-1-6.31-2.92-8a.33.33,0,0,0-.11-.15l0-.93a.62.62,0,0,0-1.25,0l0,.85a1.58,1.58,0,0,0-.35.23c-2,1.67-3.14,7.94-3.14,7.94-.62,2.79-.83,22.72-.83,22.72l4.48.1S74.92,40.69,74.92,40.69Z"/></g></g></svg>