<svg xmlns="http://www.w3.org/2000/svg" viewBox="0 0 74 74.01"><defs><style>.cls-1{fill:#fff;}</style></defs><title>Asset 3</title><g id="Layer_2" data-name="Layer 2"><g id="Layer_1-2" data-name="Layer 1"><g id="Your_Icon" data-name="Your Icon"><path class="cls-1" d="M46,7.89A26.94,26.94,0,1,0,46,46,26.93,26.93,0,0,0,46,7.89ZM41,41a19.84,19.84,0,1,1,0-28.07A19.85,19.85,0,0,1,41,41Z"/><rect class="cls-1" x="55.19" y="46.15" width="10.28" height="28.38" transform="translate(-24.99 60.33) rotate(-45)"/></g><path class="cls-1" d="M37,16.41V32.18a2.74,2.74,0,0,1-1.25,2.14l-7.56,4.31a2.87,2.87,0,0,1-2.49,0l-7.56-4.31a2.74,2.74,0,0,1-1.25-2.14V16.41A1.45,1.45,0,0,1,18.33,15h17.2A1.47,1.47,0,0,1,37,16.41Zm-3.28,4.66L32,19.39l-7.39,7.42L21.85,24,20.17,25.7l4.47,4.47Z"/></g></g></svg>