<svg xmlns="http://www.w3.org/2000/svg" viewBox="0 0 47.59 61.75"><defs><style>.cls-1{fill:#fff;}</style></defs><title>Asset 11</title><g id="Layer_2" data-name="Layer 2"><g id="Layer_1-2" data-name="Layer 1"><path class="cls-1" d="M45.32,61.75H2.27A2.27,2.27,0,0,1,0,59.48V7.36A2.27,2.27,0,0,1,2.27,5.1H13.6V6.23H2.27A1.14,1.14,0,0,0,1.13,7.36V59.48a1.14,1.14,0,0,0,1.13,1.13H45.32a1.14,1.14,0,0,0,1.13-1.13V7.36a1.14,1.14,0,0,0-1.13-1.13H34V5.1H45.32a2.27,2.27,0,0,1,2.27,2.27V59.48A2.27,2.27,0,0,1,45.32,61.75Z"/><rect class="cls-1" x="18.13" y="7.36" width="11.33" height="1.13"/><rect class="cls-1" x="18.13" y="5.67" width="11.33" height="1.13"/><path class="cls-1" d="M23.79,1.13a2.32,2.32,0,0,1,2.15,1.53l.28.74h4.93a.54.54,0,0,1,.57.57V9.63a.54.54,0,0,1-.57.57H16.43a.54.54,0,0,1-.57-.57V4a.54.54,0,0,1,.57-.57h4.93l.28-.74a2.32,2.32,0,0,1,2.15-1.53m0-1.13a3.51,3.51,0,0,0-3.23,2.27H16.43A1.67,1.67,0,0,0,14.73,4V9.63a1.67,1.67,0,0,0,1.7,1.7H31.16a1.67,1.67,0,0,0,1.7-1.7V4a1.67,1.67,0,0,0-1.7-1.7H27A3.51,3.51,0,0,0,23.79,0Z"/><circle class="cls-1" cx="23.79" cy="3.4" r="1.13"/><rect class="cls-1" x="17" y="19.83" width="13.6" height="1.13"/><rect class="cls-1" x="17" y="22.66" width="11.33" height="1.13"/><rect class="cls-1" x="10.76" y="19.83" width="3.97" height="3.97"/><rect class="cls-1" x="17" y="28.33" width="13.6" height="1.13"/><rect class="cls-1" x="17" y="31.16" width="9.63" height="1.13"/><rect class="cls-1" x="32.86" y="28.33" width="3.97" height="3.97"/><rect class="cls-1" x="17" y="36.82" width="13.6" height="1.13"/><rect class="cls-1" x="17" y="39.66" width="13.03" height="1.13"/><rect class="cls-1" x="10.76" y="36.82" width="3.97" height="3.97"/><rect class="cls-1" x="32.86" y="19.83" width="3.97" height="3.97"/><rect class="cls-1" x="17" y="45.32" width="13.6" height="1.13"/><rect class="cls-1" x="17" y="48.15" width="3.97" height="1.13"/><rect class="cls-1" x="10.76" y="45.32" width="3.97" height="3.97"/><rect class="cls-1" x="32.86" y="45.32" width="3.97" height="3.97"/><polygon class="cls-1" points="11.9 32.52 9.8 30.42 10.59 29.63 11.9 30.93 14.9 27.93 15.69 28.72 11.9 32.52"/><rect class="cls-1" x="34.29" y="36.02" width="1.13" height="5.61" transform="translate(-17.24 36.02) rotate(-45)"/><rect class="cls-1" x="32.02" y="38.26" width="5.61" height="1.13" transform="translate(-17.26 35.99) rotate(-45)"/><polygon class="cls-1" points="44.76 58.92 2.83 58.92 2.83 7.93 15.86 7.93 15.86 9.06 3.97 9.06 3.97 57.78 43.62 57.78 43.62 13.26 39.43 9.06 31.73 9.06 31.73 7.93 39.88 7.93 44.76 12.8 44.76 58.92"/><polygon class="cls-1" points="44.76 14.16 38.52 14.16 38.52 7.93 39.66 7.93 39.66 13.03 44.76 13.03 44.76 14.16"/></g></g></svg>