<svg xmlns="http://www.w3.org/2000/svg" viewBox="0 0 72 88.8"><defs><style>.cls-1{fill:#fff;}</style></defs><title>Asset 1</title><g id="Layer_2" data-name="Layer 2"><g id="Layer_24" data-name="Layer 24"><path class="cls-1" d="M11.3,49.5a.5.5,0,0,0-.4-.1H9V46.6H7.4V45.1c.6.4,1.1.7,1.2.6s-.3-.8-1-1.4-1.4-1-1.5-.8.3.7.9,1.2H5.2v1.9H3.6v4.7H8.8a2.3,2.3,0,0,0,0,.6.5.5,0,0,0,.4.4h2.3V49.9A.4.4,0,0,0,11.3,49.5Zm-6.5.9a.5.5,0,1,1,.5-.5A.5.5,0,0,1,4.8,50.4Zm1.4,0a.5.5,0,1,1,.5-.5A.5.5,0,0,1,6.2,50.5Zm1.4,0a.5.5,0,1,1,.5-.5A.5.5,0,0,1,7.6,50.5Zm4.5,1.6H25.2V48.7H12.1Zm6.8-3.3h6.3V45.4H18.9Zm.9,7.7H30.6a1.7,1.7,0,0,1-1,.7H6.2l-.2-.7Zm11-.4H5.8l-.3-.8a8.5,8.5,0,0,1-1.4-1.2,3.8,3.8,0,0,1-1.2-2.4H8.4a1.1,1.1,0,0,0,.2.7.9.9,0,0,0,.6.3H25.8a.8.8,0,0,0,.6-.3,1.2,1.2,0,0,0,.3-.7H35s0,.5-.9,1.3Z"/><path class="cls-1" d="M41.8,14c.9-.2,1.7-.9,1.8-2.5s-.2-2-.7-2.3c1.4-5.5-2.4-6.6-2.4-6.6s-2.8-4.7-8.3-1.4a9.7,9.7,0,0,0-2.4,2.1C28.8,4.4,28.1,6.1,28,9c-.7.3-1.2.9-1.1,2.5s1,2.4,1.9,2.5c1.2,3,3.6,5.4,6.5,5.4S40.6,17,41.8,14ZM35.3,18c-3.3,0-6-4.5-6-8.2,0-.5,0-1,0-1.4,4.8.2,7.7-1.7,9.2-3.4a10.8,10.8,0,0,1,2.6,4.7h0C41.3,13.6,38.6,18,35.3,18Z"/><path class="cls-1" d="M33.4,23.6l.4-1.6a.9.9,0,0,1,.3-.5H34l-3.4-2.8-2.1.5a7.5,7.5,0,0,0-6,7.2v4.5a1.7,1.7,0,0,0,1.7,1.6H33l1.3-7.6A.9.9,0,0,1,33.4,23.6Z"/><path class="cls-1" d="M42,19.2l-2-.5-3.4,2.8h-.1a.9.9,0,0,1,.3.5l.4,1.6a.9.9,0,0,1-.9,1.2l1.3,7.6h8.8A1.6,1.6,0,0,0,48,30.9V26.4A7.5,7.5,0,0,0,42,19.2Z"/><path class="cls-1" d="M25.2,73H36.7v-5H25.2Zm9.4-3.6H36v2.2H34.6Zm-2.9,0h1.4v2.2H31.7Zm-2.9,0h1.4v2.2H28.8Zm-2.9,0h1.4v2.2H25.9Z"/><path class="cls-1" d="M41.8,66.5v-5H30.2v5H41.8Zm-2.2-3.6H41V65H39.6ZM32.4,65H31V62.9h1.4Zm2.9,0H33.8V62.9h1.4Zm1.4-2.2h1.4V65H36.7Z"/><path class="cls-1" d="M30.2,74.4v5H41.8v-5H30.2ZM32.4,78H31V75.8h1.4Zm2.9,0H33.8V75.8h1.4Zm4.3-2.2H41V78H39.6ZM38.2,78H36.7V75.8h1.4Z"/><path class="cls-1" d="M28.8,66.5v-5H17.3v5H28.8Zm-2.2-3.6h1.4V65H26.6ZM19.4,65H18V62.9h1.4Zm2.9,0H20.9V62.9h1.4Zm1.4-2.2h1.4V65H23.8Z"/><path class="cls-1" d="M23.8,73v-5H12.2v5H23.8Zm-2.2-3.6H23v2.2H21.6Zm-2.9,0h1.4v2.2H18.7Zm-4.3,2.2H13V69.4h1.4Zm1.4-2.2h1.4v2.2H15.8Z"/><path class="cls-1" d="M38.2,73H49.7v-5H38.2Zm9.4-3.6H49v2.2H47.5Zm-2.9,0h1.4v2.2H44.6Zm-2.9,0h1.4v2.2H41.8Zm-2.9,0h1.4v2.2H38.9Z"/><path class="cls-1" d="M43.2,79.4H54.7v-5H43.2Zm9.4-3.6H54V78H52.6Zm-2.9,0h1.4V78H49.7Zm-2.9,0h1.4V78H46.8Zm-2.9,0h1.4V78H43.9Z"/><path class="cls-1" d="M72,86.4a.7.7,0,0,0-.9-.5l-1.5.6a6.9,6.9,0,0,1-2.7.8,4.6,4.6,0,0,1-1.9-.6h-.2a5.8,5.8,0,0,0,2.9-5V78H59.3l-3.4,2.7-.4.2H20.5l-.5-.2-1.5-1.3-1.2-1-1.4-1.1H2.3l6.2,8.8L7,86.7a4.5,4.5,0,0,1-1.9.6,6.9,6.9,0,0,1-2.7-.8L.9,86a.7.7,0,0,0-.4,1.4l1.4.6a8.1,8.1,0,0,0,3.2.9A5.6,5.6,0,0,0,7.7,88a4.5,4.5,0,0,1,1.9-.6,4.5,4.5,0,0,1,1.9.6,5.7,5.7,0,0,0,2.5.8,5.7,5.7,0,0,0,2.5-.8,4.5,4.5,0,0,1,1.9-.6,4.5,4.5,0,0,1,1.9.6,5.6,5.6,0,0,0,2.5.8,5.7,5.7,0,0,0,2.5-.8,4.5,4.5,0,0,1,1.9-.6,4.5,4.5,0,0,1,1.9.6,5.7,5.7,0,0,0,2.5.8,5.7,5.7,0,0,0,2.5-.8,4.5,4.5,0,0,1,1.9-.6,4.5,4.5,0,0,1,1.9.6,5.7,5.7,0,0,0,2.5.8,5.6,5.6,0,0,0,2.5-.8,4.5,4.5,0,0,1,1.9-.6,4.5,4.5,0,0,1,1.9.6,5.7,5.7,0,0,0,2.5.8,5.6,5.6,0,0,0,2.5-.8,4.5,4.5,0,0,1,1.9-.6,4.5,4.5,0,0,1,1.9.6,5.7,5.7,0,0,0,2.5.8,5.6,5.6,0,0,0,2.5-.8l1.3-.6h.5a4.5,4.5,0,0,1,1.9.6,5.7,5.7,0,0,0,2.5.8,8.1,8.1,0,0,0,3.2-.9l1.4-.6A.7.7,0,0,0,72,86.4ZM9.7,82.3a1.8,1.8,0,1,1,1.8-1.8A1.8,1.8,0,0,1,9.7,82.3Zm4.2,5h0Zm8.8,0h0Zm38.1-5a1.1,1.1,0,1,1,1.1-1.1A1.1,1.1,0,0,1,60.8,82.3Zm2.5-1.1a1.1,1.1,0,1,1,1.1,1.1A1.1,1.1,0,0,1,63.4,81.2Z"/><path class="cls-1" d="M19,78l1.7,1.4h8v-5H17.3v2.1l.7.6V75.8h1.4V78Zm7.6-2.2h1.4V78H26.6Zm-2.9,0h1.4V78H23.8Zm-2.9,0h1.4V78H20.9Z"/><polygon class="cls-1" points="15.8 74.4 11.5 74.4 4.3 74.4 4.3 75.8 15.8 75.8 15.8 74.4"/><path class="cls-1" d="M56.9,69.4H59v7.2H67V75.1H63.4a.7.7,0,1,1,0-1.4H67V72.2H63.4a.7.7,0,0,1,0-1.4H67V69.4h2.2a.7.7,0,1,0,0-1.4H64.8l-3.6-5.8H59v5.8H56.9a.7.7,0,1,0,0,1.4Z"/><path class="cls-1" d="M67.5,53.8H62V51.8H60.2l.6-2.8H59.2l-.6,2.8H56.9l.6-2.8H55.9l-.6,2.8H53.6l.6-2.8H52.7L52,51.8H50.3l.6-2.8H49.4l-.6,2.8H46.9l-.6,1.9H39.7s1.5,3.4,2.9,3.4H67.2C70,57.1,67.5,53.8,67.5,53.8Z"/></g></g></svg>