<svg xmlns="http://www.w3.org/2000/svg" viewBox="0 0 62 75.78"><defs><style>.cls-1{fill:#fff;}</style></defs><title>Asset 10</title><g id="Layer_2" data-name="Layer 2"><g id="Layer_1-2" data-name="Layer 1"><path class="cls-1" d="M44.78,17.77a3.44,3.44,0,0,1,0,6.89H37.34a3.44,3.44,0,1,1,0-6.89Z"/><path class="cls-1" d="M44.78,34.44a3.44,3.44,0,0,1,0,6.89H37.34a3.44,3.44,0,0,1,0-6.89Z"/><path class="cls-1" d="M44.78,51.16a3.44,3.44,0,1,1,0,6.89H37.34a3.44,3.44,0,1,1,0-6.89Z"/><path class="cls-1" d="M28.52,48.86a3.43,3.43,0,0,1,.18,4.87l-6,6.38a3.31,3.31,0,0,1-2.53,1.1,3.38,3.38,0,0,1-2.53-1.1l-3-3.17a3.43,3.43,0,0,1,.18-4.87,3.47,3.47,0,0,1,4.87.14l.46.51L23.65,49A3.47,3.47,0,0,1,28.52,48.86Z"/><path class="cls-1" d="M28.52,32.19a3.43,3.43,0,0,1,.18,4.87l-6,6.38a3.47,3.47,0,0,1-2.53,1.1,3.55,3.55,0,0,1-2.53-1.1l-3-3.17a3.46,3.46,0,0,1,5.05-4.73l.46.51,3.44-3.67A3.43,3.43,0,0,1,28.52,32.19Z"/><path class="cls-1" d="M28.52,15.52a3.43,3.43,0,0,1,.18,4.87l-6,6.38a3.43,3.43,0,0,1-2.53,1.06,3.51,3.51,0,0,1-2.53-1.06l-3-3.21a3.44,3.44,0,0,1,5.05-4.68l.46.51,3.44-3.72A3.43,3.43,0,0,1,28.52,15.52Z"/><path class="cls-1" d="M0,13A13,13,0,0,1,13,0H49A13,13,0,0,1,62,13V62.73a13,13,0,0,1-13,13H13a13,13,0,0,1-13-13ZM13,68.89H49a6.15,6.15,0,0,0,6.15-6.15V13A6.15,6.15,0,0,0,49,6.89H13A6.15,6.15,0,0,0,6.89,13V62.73A6.15,6.15,0,0,0,13,68.89Z"/></g></g></svg>