<svg xmlns="http://www.w3.org/2000/svg" viewBox="0 0 66.75 71.97"><defs><style>.cls-1{fill:#fff;}</style></defs><title>Asset 3</title><g id="Layer_2" data-name="Layer 2"><g id="Layer_1-2" data-name="Layer 1"><path class="cls-1" d="M26.46,19.79c3.33-4.15,9-12.2,8.63-18.3a1.37,1.37,0,0,1,2-1.31C41.45,2.58,50.56,8.64,48.94,23.3a14.79,14.79,0,0,0,5.73-4.86,1.35,1.35,0,0,1,1.13-.6,1.37,1.37,0,0,1,1.29.9c2.2,5.87,5.35,19.09-10.28,21.53a.65.65,0,0,1-.64-.73,14,14,0,0,0-4.41-11.75,1,1,0,0,0-1.38,0A13.91,13.91,0,0,0,36,39.54a.65.65,0,0,1-.55.73h-.14c-2.76-.23-11.11-1.67-12-10.21A14.09,14.09,0,0,1,26.46,19.79ZM10.37,47.58,0,57.88,14.47,72l4.05-4.05H41.88a10.9,10.9,0,0,0,8.22-3.74l15.53-17.8a4.58,4.58,0,0,0-.44-6.46l-.09-.08a4.71,4.71,0,0,0-6.47.63l-7.78,8.74v.1a8,8,0,0,1-8,7.61H34.42a1.71,1.71,0,1,1,0-3.43h8.41a4.54,4.54,0,0,0,4.6-4.28,4.41,4.41,0,0,0-4.26-4.54H29l-2.28-.8A15.8,15.8,0,0,0,10.37,47.58Z"/></g></g></svg>