<svg xmlns="http://www.w3.org/2000/svg" viewBox="0 0 70 70"><defs><style>.cls-1{fill:#fff;}</style></defs><title>Asset 1</title><g id="Layer_2" data-name="Layer 2"><g id="Layer_1-2" data-name="Layer 1"><path class="cls-1" d="M4,66a13.71,13.71,0,0,0,19.29,0L35,54.21,46.74,66a13.36,13.36,0,0,0,9.64,4A13.57,13.57,0,0,0,66,46.82L54.21,35,66,23.26A13.58,13.58,0,0,0,46.74,4L35,15.79,23.26,4A13.58,13.58,0,1,0,4,23.18L15.79,35,4,46.74A13.71,13.71,0,0,0,4,66ZM49.54,6.77a9.73,9.73,0,0,1,6.84-2.88,9.41,9.41,0,0,1,6.84,2.88,9.72,9.72,0,0,1,0,13.77L51.49,32.28,37.72,18.51ZM6.77,20.46A9.76,9.76,0,0,1,13.61,3.81a9.41,9.41,0,0,1,6.84,2.88L63.23,49.47A9.73,9.73,0,0,1,49.47,63.23ZM18.51,37.72,32.28,51.49,20.46,63.23A9.73,9.73,0,0,1,6.69,49.47Z"/></g></g></svg>