<svg xmlns="http://www.w3.org/2000/svg" viewBox="0 0 60.13 60.35"><defs><style>.cls-1{fill:#fff;}</style></defs><title>Asset 11</title><g id="Layer_2" data-name="Layer 2"><g id="Layer_1-2" data-name="Layer 1"><path class="cls-1" d="M52,0H8.11A8.11,8.11,0,0,0,0,8.11v33.1a8.11,8.11,0,0,0,8.11,8.11h8.24v9.43a1.68,1.68,0,0,0,2.8,1.16L29.61,49.45H52a8.11,8.11,0,0,0,8.11-8.11V8.12A8.11,8.11,0,0,0,52,0ZM34.71,23.5l-2.6,9.64a1,1,0,0,0,1,1.24,1,1,0,0,1,1,1v2a1,1,0,0,1-1,1H27.68A2.65,2.65,0,0,1,25.11,35l2.52-9.72a1,1,0,0,0-1-1.24,1,1,0,0,1-1-1V21.1a1,1,0,0,1,1-1h5.44a2.65,2.65,0,0,1,2.6,3.39ZM34,17.34l0,.07a10.71,10.71,0,1,0,0-.07Z"/></g></g></svg>