<svg xmlns="http://www.w3.org/2000/svg" viewBox="0 0 68 84"><defs><style>.cls-1,.cls-2{fill:#fff;}.cls-2{opacity:0.32;}</style></defs><title>Asset 4</title><g id="Layer_2" data-name="Layer 2"><g id="Layer_1-2" data-name="Layer 1"><path class="cls-1" d="M17.3,58a1.5,1.5,0,0,1,3,0V60.3L49,41.54a10.42,10.42,0,0,1-4.43-8.87,21,21,0,0,1,1.22-6.39,1.5,1.5,0,0,1,1.7-.95c.33.07,1.22.25,2.45-2.86,1-2.62-.14-3.28-.16-3.29a1.5,1.5,0,0,1-.86-1.64c0-.19.05-.36.08-.54L24.7,14.2a29.8,29.8,0,0,0,.42,3.35,1.5,1.5,0,0,1-.86,1.64c-.08,0-1.16.73-.16,3.29,1.22,3.12,2.12,2.93,2.45,2.86a1.5,1.5,0,0,1,1.7.95,21,21,0,0,1,1.22,6.39c0,6-3.8,10-11.3,11.87C9.44,46.74,6.5,49.62,6.5,56V69.33l10.8-7.06Z"/><path class="cls-1" d="M42.56,1.1,37.85,4.22l9.76,1.06a9.83,9.83,0,0,0-.83-1.16A10.7,10.7,0,0,0,42.56,1.1Z"/><path class="cls-1" d="M67.5,56c0-5.76-2.44-8.66-9.4-10.79L40.81,71.53h4A7.73,7.73,0,0,1,50.88,84h5.29A11.37,11.37,0,0,0,67.5,72.6Z"/><path class="cls-1" d="M17.82,84H29l26-39.67a23.32,23.32,0,0,1-3.17-1.12l-.06,0L19.64,64.32h0L6.52,72.9A11.37,11.37,0,0,0,17.82,84Z"/><path class="cls-1" d="M44.81,84a4.74,4.74,0,0,0,0-9.47h-6L32.62,84H44.81Z"/><path class="cls-1" d="M49.32,14a18.11,18.11,0,0,0-.43-5.61h-.21L26,5.95a13.33,13.33,0,0,0-1.37,5.23Z"/><path class="cls-1" d="M28.15,3.16l5.05.55.13-.11L38.63.11A14.31,14.31,0,0,0,37,0C36,0,31.43.17,28.15,3.16Z"/><path class="cls-2" d="M62,6a6,6,0,0,0-6,6,5.91,5.91,0,0,0,1.22,3.59l-12,18.84a5.93,5.93,0,0,0-6.5,1.38l-9.94-6.41A5.75,5.75,0,0,0,29,28a6,6,0,0,0-12,0,5.9,5.9,0,0,0,1.25,3.63L6.84,50.06a6,6,0,1,0,3.53,1.84L21.59,33.81A5.83,5.83,0,0,0,23,34a6,6,0,0,0,3.63-1.25L37,39.44c0,.18,0,.38,0,.56a6,6,0,1,0,11.28-2.87L60.56,17.81A5.86,5.86,0,0,0,62,18,6,6,0,1,0,62,6Z"/></g></g></svg>