<svg xmlns="http://www.w3.org/2000/svg" viewBox="0 0 78.41 62.52"><defs><style>.cls-1{fill:#fff;}</style></defs><title>Asset 4</title><g id="Layer_2" data-name="Layer 2"><g id="Layer_1-2" data-name="Layer 1"><path class="cls-1" d="M8.86,36.81H17V9.18H8.86ZM11,11.31h3.84V34.57H11Z"/><path class="cls-1" d="M18.88,36.81H27V22H18.88ZM21,24.11h3.84V34.67H21Z"/><path class="cls-1" d="M28.81,36.81h8.11V16.32H28.81Zm2.13-18.35h3.84V34.57H30.94Z"/><path class="cls-1" d="M77.24,48.54,77,48.33h0l-4.59-4.48V3.95A3.94,3.94,0,0,0,68.49,0H3.95A3.94,3.94,0,0,0,0,3.95V46.09A3.94,3.94,0,0,0,3.95,50H28v2.13c-.32,3.52-2.24,4.16-6.29,5.33-.43.11-.85.21-1.17.32h-.21c-1,.32-2.67.75-2.88,2.24a2,2,0,0,0,.32,1.81,2.49,2.49,0,0,0,1.92.64H51.32a2.25,2.25,0,0,0,1.92-.64,1.91,1.91,0,0,0,.32-1.81c-.21-1.39-1.92-1.92-2.88-2.24h-.21c-.43-.11-.85-.21-1.17-.32-3.95-1.17-5.87-1.81-6.29-5V50H68.28l3,3.52.11.11a.37.37,0,0,1,.11.21,3.81,3.81,0,0,0,2.88,1.28,4.27,4.27,0,0,0,2.77-1.07,4,4,0,0,0,1.28-2.77A4.62,4.62,0,0,0,77.24,48.54ZM40.65,52.81c.53,4.8,4.05,5.87,7.79,6.93l1.17.32h.21a8.1,8.1,0,0,1,1.17.43H19.63a8.1,8.1,0,0,1,1.17-.43H21c.43-.11.85-.21,1.17-.32,3.84-1.07,7.36-2.13,7.89-7.36V50.25H40.65v2.56ZM42.78,48H3.95A1.8,1.8,0,0,1,2.13,46.2V3.95A1.8,1.8,0,0,1,3.95,2.13H68.39A1.8,1.8,0,0,1,70.2,3.95V41.82l-2.56-2.45V37a15.22,15.22,0,0,0,0-14.51v-16a2.75,2.75,0,0,0-2.77-2.77H6.93A2.75,2.75,0,0,0,4.16,6.51V40.33H43a15.24,15.24,0,0,0,11.2,4.8A15.94,15.94,0,0,0,62.09,43l4.27,5.12H42.78ZM40.86,22.19v-9H44.7v4.48c-.32.32-.64.53-1,.85A15.4,15.4,0,0,0,40.86,22.19ZM38.73,11.1V36.81h1.81a9.74,9.74,0,0,0,.85,1.39H6.4V6.51A.61.61,0,0,1,7,5.87h58a.61.61,0,0,1,.64.64v13c-.21-.11-.21-.21-.32-.21a15.24,15.24,0,0,0-11.2-4.8,14.87,14.87,0,0,0-7.36,1.92V11.2H38.73ZM75.53,52.6a2,2,0,0,1-2.67-.11v-.11l-.21-.21-9.5-11.31a1,1,0,0,0-1.39-.21A13.45,13.45,0,0,1,54.3,43a12.9,12.9,0,0,1-9.6-4.16,13.18,13.18,0,0,1,.64-18.67A13.29,13.29,0,0,1,64,20.8,13.14,13.14,0,0,1,64.76,38a1,1,0,0,0,.11,1.39L75.64,49.82l.11.11.11.11A2,2,0,0,1,75.53,52.6Z"/><path class="cls-1" d="M62.73,21.55a11.89,11.89,0,0,0-8.53-3.73,11.67,11.67,0,0,0-8,3.2,11.79,11.79,0,0,0,8,20.38,11.67,11.67,0,0,0,8-3.2A11.89,11.89,0,0,0,62.73,21.55Zm-2,15a9.54,9.54,0,0,1-6.61,2.56,9.55,9.55,0,0,1-6.61-16.54,9.54,9.54,0,0,1,6.61-2.56A9.48,9.48,0,0,1,63.69,30,8.92,8.92,0,0,1,60.7,36.59Z"/></g></g></svg>