<svg xmlns="http://www.w3.org/2000/svg" viewBox="0 0 81.61 56.82"><defs><style>.cls-1{fill:#fff;}</style></defs><title>Asset 9</title><g id="Layer_2" data-name="Layer 2"><g id="Layer_1-2" data-name="Layer 1"><path class="cls-1" d="M40,38.13l-3.44.17-3.48,0-3.46,0-3.45-.18c-1.14-.1-2.3-.16-3.44-.31s-2.29-.27-3.42-.46-2.26-.42-3.39-.63l-1.68-.4-1.66-.47c-.55-.16-1.1-.35-1.65-.52s-1.09-.39-1.62-.62a17.83,17.83,0,0,1-3.1-1.57h0a14.7,14.7,0,0,0,2.88,2c.51.3,1,.54,1.57.81s1.07.49,1.62.71l1.66.62,1.68.55c1.13.32,2.27.64,3.43.87.58.12,1.15.27,1.73.36l1.75.28c1.16.19,2.34.29,3.51.44s2.35.16,3.52.24l3.53.09,3.51-.09c1.18-.07,2.36-.14,3.54-.23s2.34-.25,3.51-.44l.63-.1v0c0-.46,0-.91.07-1.36,0-.06,0-.12,0-.18l-.92.11C42.33,38,41.17,38,40,38.13Z"/><path class="cls-1" d="M44.31,39.3l-.63.1c-1.16.19-2.34.29-3.51.44s-2.36.16-3.54.23l-3.51.09-3.53-.09c-1.17-.08-2.35-.14-3.52-.24s-2.34-.25-3.51-.44L20.8,39.1c-.58-.1-1.15-.24-1.73-.36-1.15-.23-2.3-.55-3.43-.87L14,37.31l-1.66-.62c-.55-.23-1.08-.48-1.62-.71s-1.06-.51-1.57-.81a14.7,14.7,0,0,1-2.88-2h0a17.83,17.83,0,0,0,3.1,1.57c.53.23,1.08.41,1.62.62s1.1.36,1.65.52l1.66.47,1.68.4c1.13.22,2.25.48,3.39.63s2.28.32,3.42.46,2.3.2,3.44.31l3.45.18,3.46,0,3.48,0L40,38.13c1.15-.1,2.3-.16,3.44-.3l.92-.11a19.77,19.77,0,0,1,3.39-9.64,20,20,0,0,1,8.28-6.86,19.3,19.3,0,0,1,2.46-.88A27.37,27.37,0,0,0,44,5.28V22.22a1.91,1.91,0,1,1-3.82,0V.93A27.32,27.32,0,0,0,26,.93V22.22a1.91,1.91,0,1,1-3.82,0V5.28a27.27,27.27,0,0,0-16.37,25H0v6.23H2.92s7.7,9.89,30.19,9.89A63.19,63.19,0,0,0,45.29,45.3a19.57,19.57,0,0,1-.64-2.49A19.82,19.82,0,0,1,44.31,39.3Z"/><path class="cls-1" d="M64,41.71a2.44,2.44,0,0,0,0-4.89,2.42,2.42,0,0,0-1.51.54,2.45,2.45,0,0,0-.32.3A2.43,2.43,0,0,0,64,41.71Z"/><path class="cls-1" d="M64,21.68c-.54,0-1.08,0-1.61.08a17.47,17.47,0,0,0-3,.56l-.29.09a17.2,17.2,0,0,0-2.19.78,17.53,17.53,0,0,0-10.39,14.7c0,.05,0,.11,0,.16,0,.4-.06.8-.06,1.21v0a17.66,17.66,0,0,0,.3,3.13A17.57,17.57,0,1,0,64,21.68ZM75.55,40.61a1.5,1.5,0,0,1-1,1.41l-1.46.52a.6.6,0,0,0-.35.33h0a.59.59,0,0,0,0,.48l.66,1.4a1.5,1.5,0,0,1-.29,1.7l-1.91,1.91a1.5,1.5,0,0,1-1.7.29L68.12,48a.58.58,0,0,0-.46,0h0a.61.61,0,0,0-.33.35l-.52,1.45a1.5,1.5,0,0,1-1.41,1h-2.7a1.5,1.5,0,0,1-1.41-1l-.52-1.46a.59.59,0,0,0-.33-.35h0a.6.6,0,0,0-.48,0l-1.4.66a1.5,1.5,0,0,1-1.7-.29l-1.91-1.91a1.5,1.5,0,0,1-.29-1.7l.66-1.4a.59.59,0,0,0,0-.46v0a.59.59,0,0,0-.34-.31l-.21-.07L53.51,42a1.5,1.5,0,0,1-1-1.41V37.89a1.53,1.53,0,0,1,1-1.39L55,36a.59.59,0,0,0,.35-.33h0a.59.59,0,0,0,0-.48l-.66-1.4a1.5,1.5,0,0,1,.29-1.7l1.91-1.91a1.5,1.5,0,0,1,1.7-.29l1.4.66a.6.6,0,0,0,.48,0,.59.59,0,0,0,.32-.34h0l.52-1.46a1.5,1.5,0,0,1,1.41-1h2.7a1.5,1.5,0,0,1,1.41,1l.52,1.46a.59.59,0,0,0,.32.35h0a.6.6,0,0,0,.48,0l1.4-.66a1.5,1.5,0,0,1,1.7.29l1.91,1.91a1.5,1.5,0,0,1,.29,1.7l-.66,1.4a.59.59,0,0,0,0,.48h0a.59.59,0,0,0,.35.33l1.46.52a1.5,1.5,0,0,1,1,1.41Z"/><path class="cls-1" d="M61.27,32.59A4.07,4.07,0,0,1,58,32.5l-.5-.24-.46.46.24.5a4,4,0,0,1,.34,1.22,3.51,3.51,0,0,1-.25,2h0A4,4,0,0,1,55,38.75l-.52.18v.66l.52.18A4.06,4.06,0,0,1,57.35,42h0a4,4,0,0,1-.08,3.27l-.24.5.46.46L58,46a4.07,4.07,0,0,1,3.27-.08h0a4,4,0,0,1,2.24,2.37l.18.52h.66l.18-.51a4.05,4.05,0,0,1,2.26-2.38l0,0a4,4,0,0,1,3.21.1l.51.24L71,45.8l-.24-.5A4,4,0,0,1,70.7,42v0a4,4,0,0,1,2.37-2.25l.52-.18v-.66l-.52-.18a4,4,0,0,1-2.37-2.24h0a4,4,0,0,1,.08-3.27l.24-.5-.46-.46-.5.24a4.07,4.07,0,0,1-3.26.09h0a4,4,0,0,1-.57-.31,4,4,0,0,1-1.65-2l0-.07-.18-.52H63.7l-.18.52,0,.07A4,4,0,0,1,61.27,32.59Zm5,1.31A5.8,5.8,0,1,1,64,33.46,5.81,5.81,0,0,1,66.23,33.89Z"/></g></g></svg>