<svg xmlns="http://www.w3.org/2000/svg" viewBox="0 0 73.55 68.61"><defs><style>.cls-1{fill:#fff;}</style></defs><title>Asset 8</title><g id="Layer_2" data-name="Layer 2"><g id="Layer_1-2" data-name="Layer 1"><rect class="cls-1" x="2.63" y="16.3" width="2.64" height="2.63"/><rect class="cls-1" x="10.55" y="16.3" width="2.64" height="2.63"/><polygon class="cls-1" points="26.18 17.39 40.48 3.08 25.07 10.34 26.18 17.29 26.18 17.39"/><rect class="cls-1" x="42.29" y="24.99" width="4.84" height="1.45"/><rect class="cls-1" x="6.59" y="16.3" width="2.64" height="2.63"/><path class="cls-1" d="M64.14,43.64a4.78,4.78,0,0,0-1.09-.08v9.49h10.5V45.27Z"/><path class="cls-1" d="M51.23,59.35c2.88,4,8.09,7.62,10.58,9.26V54.37H51.23Z"/><rect class="cls-1" x="19.69" y="25.68" width="7" height="10.68"/><path class="cls-1" d="M31.16,33.21l2.42,1.94H52.94c4.79-.94,8.13-3.1,9.68-6.77h-29Z"/><path class="cls-1" d="M4,36.36H17.14V18.93H14.5V16.3h2.64V7.06L7.91,9.71v2.64H0V22.89H4Zm6.6-20.06h2.64v2.63H10.55Zm-4,0H9.23v2.63H6.59Zm-4,2.63V16.3H5.27v2.63Z"/><path class="cls-1" d="M60.49,42.4l.63-.06,2.52-3.65H3.43L7.16,50.57,5.84,53.21H49.91V44.26Z"/><path class="cls-1" d="M26.18,20.61a1.19,1.19,0,0,0,.29-.21l17-17V21.6H33.58l1,1.45h1.94V25h3.39v1.45H36.49v1H56.33l-1.11-1h-4.7V25h3l-1.11-1h-2.9l-2.9-2.42h-2V2.23L44.87,2A1.17,1.17,0,1,0,43.22.34l-.3.3L23.2,9.93h-3V23.17h6Zm21,4.37v1.45H42.29V25ZM40.48,3.08,26.18,17.39v-.1l-1.1-7Z"/><path class="cls-1" d="M64.1,44.36a13.81,13.81,0,0,0-2.8,0l-.54,0L51.66,46V59.34l.13.13c2.94,4.15,8.63,7.89,10.3,8.89l.33.13.27-.2A43.14,43.14,0,0,0,73,59.2l.13-.13V46ZM61.89,66.89c-2.14-1.4-6.62-4.55-9.09-8V54.66h9.09ZM63,53.52V45.36a4.11,4.11,0,0,1,.94.07L72,46.83v6.69Z"/></g></g></svg>