<svg xmlns="http://www.w3.org/2000/svg" viewBox="0 0 71 43.81"><defs><style>.cls-1{fill:#fff;}</style></defs><title>Asset 2</title><g id="Layer_2" data-name="Layer 2"><g id="Layer_24" data-name="Layer 24"><path class="cls-1" d="M5.29,0A5.33,5.33,0,0,0,0,5.29V38.52a5.33,5.33,0,0,0,5.29,5.29H65.71A5.33,5.33,0,0,0,71,38.52V5.29A5.33,5.33,0,0,0,65.71,0ZM8.45,4.53h54.1l-26,21.67a2.26,2.26,0,0,1-2.08,0ZM4.53,7.15,22.94,22.49,4.53,36.77Zm61.94,0V36.77L48.06,22.49Zm-40,18.29,5.07,4.23a6.1,6.1,0,0,0,7.88,0l5.07-4.23,17.8,13.83H8.69Z"/></g></g></svg>