<svg xmlns="http://www.w3.org/2000/svg" viewBox="0 0 55.97 70.9"><defs><style>.cls-1{fill:#fff;}</style></defs><title>Asset 2</title><g id="Layer_2" data-name="Layer 2"><g id="Layer_1-2" data-name="Layer 1"><path class="cls-1" d="M11.86,37.69h-10a1.72,1.72,0,0,0-1.32.57A1.72,1.72,0,0,0,0,39.58V51.2a1.89,1.89,0,0,0,1.89,1.89h.24a1,1,0,0,1,.94.94v14A2.84,2.84,0,0,0,5.9,70.9H8.55a2.84,2.84,0,0,0,2.83-2.83V53.94a1,1,0,0,1,.94-.94h0a1.89,1.89,0,0,0,1.89-1.89v-11a2.17,2.17,0,0,0-.38-1.32A2.47,2.47,0,0,0,11.86,37.69Z"/><path class="cls-1" d="M34,38a2.31,2.31,0,0,0-1.37-.38H23.24A2.37,2.37,0,0,0,20.88,40V51.16a2,2,0,0,0,.94,1.65,1.72,1.72,0,0,0,1,.24H23a1,1,0,0,1,.94.94V68a2.84,2.84,0,0,0,2.83,2.83h2.6A2.84,2.84,0,0,0,32.21,68V54a1,1,0,0,1,.94-.94h0A1.89,1.89,0,0,0,35,51.16V40A2.39,2.39,0,0,0,34,38Z"/><path class="cls-1" d="M55.41,38.59a2.4,2.4,0,0,0-1.84-.9H44.07a2.37,2.37,0,0,0-2.36,2.36V51.2a1.89,1.89,0,0,0,1.89,1.89h.24a1,1,0,0,1,.94.94v14a2.84,2.84,0,0,0,2.83,2.83h2.65a2.84,2.84,0,0,0,2.83-2.83V54a1,1,0,0,1,.94-.94h0A1.89,1.89,0,0,0,56,51.2V40.1A3,3,0,0,0,55.41,38.59Z"/><circle class="cls-1" cx="7.18" cy="31.79" r="4.06"/><circle class="cls-1" cx="28.15" cy="31.79" r="4.06"/><circle class="cls-1" cx="48.98" cy="31.79" r="4.06"/><path class="cls-1" d="M45.35,24.89a1.08,1.08,0,0,0,.52-.14.92.92,0,0,0,.28-1.28l-3.87-6a6.84,6.84,0,0,0,5.24-6.66v-4A6.85,6.85,0,0,0,40.67,0H15.26A6.85,6.85,0,0,0,8.41,6.85v4a6.89,6.89,0,0,0,5.24,6.66l-3.87,6a.92.92,0,0,0,.28,1.28,1,1,0,0,0,.52.14,1,1,0,0,0,.8-.43l4.39-6.85H27.21v6.33a1,1,0,0,0,.94.94,1,1,0,0,0,.94-.94V17.62H40.2l4.39,6.85A.91.91,0,0,0,45.35,24.89ZM20.22,11.67a.47.47,0,0,1-.47.47H14a.47.47,0,0,1-.47-.47V6A.48.48,0,0,1,14,5.48h5.72a.48.48,0,0,1,.47.47ZM32,12.19a.5.5,0,0,1-.43.24H24.33a.5.5,0,0,1-.43-.24.43.43,0,0,1,0-.47l3.64-6.28a.5.5,0,0,1,.85,0L32,11.71A.8.8,0,0,1,32,12.19Zm7,.24a3.31,3.31,0,1,1,0-6.61,3.36,3.36,0,0,1,2.36,1,3.28,3.28,0,0,1,1,2.36A3.38,3.38,0,0,1,39.06,12.42Z"/></g></g></svg>