<svg xmlns="http://www.w3.org/2000/svg" viewBox="0 0 72 72"><defs><style>.cls-1{fill:#fff;}</style></defs><title>Asset 5</title><g id="Layer_2" data-name="Layer 2"><g id="mod_index" data-name="mod index"><path class="cls-1" d="M72,5.65V48.26a5.66,5.66,0,0,1-5.65,5.65H51.87a9.37,9.37,0,0,0,1.54-6.07H65.9V6.07H31.16V44l-6.07,2.37V5.65A5.66,5.66,0,0,1,30.73,0H66.35A5.66,5.66,0,0,1,72,5.65ZM48,58.44H37.93l8.72-5.55a4.87,4.87,0,0,0,2.08-5.7A4.78,4.78,0,0,0,44.23,44h0a4.76,4.76,0,0,0-1.73.33L25.85,50.86H25.8a3.9,3.9,0,0,1-4.37-1.08,4.08,4.08,0,0,1-.95-2.7V31.74a10.7,10.7,0,0,0-1.09-.06,10.57,10.57,0,0,0-6.31,2.12L.8,42.88A2,2,0,0,0,0,44.46V70.28A1.72,1.72,0,0,0,1.72,72h8.2a29.66,29.66,0,0,0,16.53-5.05A4.25,4.25,0,0,0,34,68.55a4.25,4.25,0,0,0,8,0,4.25,4.25,0,0,0,7.6-2.26V60.05A1.61,1.61,0,0,0,48,58.44ZM35.91,26.77l.82.79,1.34,1.34a1.9,1.9,0,0,0,2.68,0h0l1.34-1.34,3.25-3.31a1.9,1.9,0,1,0-2.68-2.68h0l-3.29,3.29-.79-.79a1.9,1.9,0,1,0-2.68,2.68Zm.82-10.7,1.34,1.34a1.9,1.9,0,0,0,2.68,0h0l1.34-1.34,3.29-3.29a1.9,1.9,0,1,0-2.68-2.68l-3.29,3.29-.79-.79A1.9,1.9,0,1,0,36,15.29Zm13.69,11h9.49a1.81,1.81,0,0,0,0-3.63H50.42a1.81,1.81,0,0,0,0,3.63Zm0-11.48h9.49a1.81,1.81,0,1,0,0-3.63H50.42a1.81,1.81,0,1,0,0,3.63ZM61.71,36.73a1.81,1.81,0,0,0-1.81-1.81H50.42a1.81,1.81,0,0,0,0,3.63h9.5A1.81,1.81,0,0,0,61.71,36.73Zm-25.8,1.52.82.79L38,40.41a1.9,1.9,0,0,0,2.68,0h0l1.34-1.34,3.29-3.29a1.91,1.91,0,0,0-2.68-2.71l-3.29,3.29-.79-.79a1.9,1.9,0,1,0-2.68,2.68Z"/></g></g></svg>