<svg xmlns="http://www.w3.org/2000/svg" viewBox="0 0 68 68"><defs><style>.cls-1{fill:#fff;}</style></defs><title>Asset 4</title><g id="Layer_2" data-name="Layer 2"><g id="mod_cofig" data-name="mod cofig"><path class="cls-1" d="M4,0A4,4,0,0,0,0,4V64a4,4,0,0,0,4,4H64a4,4,0,0,0,4-4V4a4,4,0,0,0-4-4Zm.78,4.74H63.26V63.26H4.74Zm11.63,4a2.49,2.49,0,0,0-2.13,2.38v1.57h-5A2.48,2.48,0,0,0,7,15.16,2.46,2.46,0,0,0,9.5,17.4h4.74V19a2.45,2.45,0,0,0,2.38,2.38h3.17A2.45,2.45,0,0,0,22.13,19V17.4H58.5A2.48,2.48,0,0,0,60.91,15a2.48,2.48,0,0,0-2.41-2.38H22.13V11.07a2.47,2.47,0,0,0-2.35-2.38ZM48,21.35a2.44,2.44,0,0,0-2.13,2.38V25.3H9.25A2.37,2.37,0,0,0,9.5,30H45.87v1.6A2.45,2.45,0,0,0,48.25,34h3.14a2.45,2.45,0,0,0,2.38-2.35V30H58.5a2.37,2.37,0,1,0,0-4.74H53.77V23.73a2.45,2.45,0,0,0-2.38-2.38ZM32.16,34A2.51,2.51,0,0,0,30,36.37V38H9.25A2.37,2.37,0,0,0,9.5,42.7H30v1.57a2.48,2.48,0,0,0,2.38,2.38h3.17A2.48,2.48,0,0,0,38,44.27V42.7H58.5a2.48,2.48,0,0,0,2.41-2.38A2.44,2.44,0,0,0,58.5,38H38v-1.6A2.5,2.5,0,0,0,35.58,34ZM12.41,49a2.44,2.44,0,0,0-2.13,2.35v7.93a2.45,2.45,0,0,0,2.38,2.35h7.9a2.44,2.44,0,0,0,2.35-2.35V51.39A2.44,2.44,0,0,0,20.57,49Zm17.4,0a2.44,2.44,0,0,0-2.13,2.35v7.93A2.44,2.44,0,0,0,30,61.67H38a2.44,2.44,0,0,0,2.35-2.35V51.39A2.44,2.44,0,0,0,38,49Zm17.4,0a2.41,2.41,0,0,0-2.13,2.35v7.93a2.44,2.44,0,0,0,2.35,2.35h7.93a2.44,2.44,0,0,0,2.35-2.35V51.39A2.44,2.44,0,0,0,55.36,49Z"/></g></g></svg>