<svg xmlns="http://www.w3.org/2000/svg" viewBox="0 0 71.92 73.9"><defs><style>.cls-1{fill:#fff;}</style></defs><title>Asset 14</title><g id="Layer_2" data-name="Layer 2"><g id="Layer_1-2" data-name="Layer 1"><path class="cls-1" d="M71.92,37.18V50.5L58.1,58.65V40.17a9.54,9.54,0,0,0-4.31-8l1.82-.51a.59.59,0,0,0,.46-.56V28.67l-.15-.1A4.81,4.81,0,0,1,54,25.17c-.05-.46-.1-.86-.1-1h-.41a.82.82,0,0,1-.81-.66l-.3-2a1,1,0,0,1,1-1.16l.1-3.9a4.36,4.36,0,0,1,4.41-4.31h2.84a4.36,4.36,0,0,1,4.41,4.31l.15,3.85a1,1,0,0,1,1,1.16l-.3,2a.78.78,0,0,1-.81.66h-.41c-.05.2-.05.61-.1,1a4.81,4.81,0,0,1-1.87,3.39l-.15.1V31.1a.59.59,0,0,0,.46.56l5.67,1.62A4,4,0,0,1,71.92,37.18Z"/><path class="cls-1" d="M19.5,21.37l-.3,2a.78.78,0,0,1-.81.66H18c-.05.2-.05.61-.1,1A4.81,4.81,0,0,1,16,28.47l-.15.1V31a.59.59,0,0,0,.46.56l1.32.41a9.62,9.62,0,0,0-4.56,8.15v18L0,50.45V37.13a3.92,3.92,0,0,1,3.09-3.85l3.6-1,2.08-.61a.59.59,0,0,0,.46-.56V28.67l-.1-.15a4.81,4.81,0,0,1-1.87-3.39c-.05-.46-.05-.81-.1-1H6.74a.82.82,0,0,1-.81-.66l-.3-2a1,1,0,0,1,1-1.16l.1-3.9A4.4,4.4,0,0,1,11.09,12h2.84a4.37,4.37,0,0,1,4.41,4.36l.1,3.9A1,1,0,0,1,19.5,21.37Z"/><rect class="cls-1" x="30.69" y="45.08" width="10.54" height="2.03"/><path class="cls-1" d="M50.35,32.37,42.6,30.14V28.21a9.2,9.2,0,0,0,3-6,3.27,3.27,0,0,0,2-2.53l.51-3.09a3.58,3.58,0,0,0-.81-2.84,4.37,4.37,0,0,0-.71-.66l-.1-4.51A8.65,8.65,0,0,0,37.79,0H33.43a8.65,8.65,0,0,0-8.71,8.56l-.15,4.61a2.89,2.89,0,0,0-.71.66A3.58,3.58,0,0,0,23,16.66l.51,3.09a3.35,3.35,0,0,0,2,2.53,9.43,9.43,0,0,0,3,6v1.92l-2.38.66-5.37,1.52a8,8,0,0,0-6.23,7.8V61.44l1,.61L35.71,73.9,55.61,62.5l1-.56V40.17A8.12,8.12,0,0,0,50.35,32.37ZM27.55,22c-.05-.66-.1-1.27-.15-1.57h-.66a1.25,1.25,0,0,1-1.22-1L25,16.36a1.51,1.51,0,0,1,1.37-1.72v.76a.5.5,0,0,0,.91.3l.71-.91a11,11,0,0,0,2.13-5.37,2.59,2.59,0,0,1,1.11-1.77,3.83,3.83,0,0,0,1.27-1.42l.05-.05a6.79,6.79,0,0,0,4.86,2.08,4,4,0,0,1,2.43.81,3.85,3.85,0,0,1,1.47,2.08,10.48,10.48,0,0,0,1.72,3.55l.76,1a.5.5,0,0,0,.91-.3v-.76a1.54,1.54,0,0,1,1.37,1.72l-.51,3.09a1.2,1.2,0,0,1-1.22,1h-.66c-.05.3-.1.91-.15,1.57a7.31,7.31,0,0,1-2.84,5.17l-.2.15v3.8l-4.91,3-5.07-3v-3.8l-.15-.2A7.39,7.39,0,0,1,27.55,22ZM44.93,56.32a6.11,6.11,0,0,1-1.22,1.06l-.61.41v3.49H28.77V41H43.15V50.7l6.69-7.5,3.8,3.34Z"/><rect class="cls-1" x="30.69" y="50.14" width="10.54" height="2.03"/><rect class="cls-1" x="30.69" y="55.21" width="5.47" height="2.03"/><path class="cls-1" d="M49.94,45.33l-7.65,8.61a7.24,7.24,0,0,0-.71,1l-.71,1.37a.5.5,0,0,0,.71.66l1.27-.86a4.73,4.73,0,0,0,.91-.81l7.65-8.61Z"/></g></g></svg>