<svg xmlns="http://www.w3.org/2000/svg" viewBox="0 0 62 78.23"><defs><style>.cls-1{fill:#fff;}</style></defs><title>Asset 16</title><g id="Layer_2" data-name="Layer 2"><g id="Near_Miss_Report" data-name="Near Miss Report"><path class="cls-1" d="M49.35,0H12.65A12.66,12.66,0,0,0,0,12.65V65.58A12.66,12.66,0,0,0,12.65,78.23H49.35A12.66,12.66,0,0,0,62,65.58V12.65A12.66,12.66,0,0,0,49.35,0Zm9.24,65.59a9.24,9.24,0,0,1-9.23,9.23H12.65a9.24,9.24,0,0,1-9.23-9.23V12.65a9.24,9.24,0,0,1,9.23-9.23H49.35a9.24,9.24,0,0,1,9.23,9.23ZM25.3,17.5H36.7a2.19,2.19,0,1,0,0-4.37H25.3a2.19,2.19,0,0,0,0,4.37ZM49.46,52.41H35.62a10.31,10.31,0,0,1-9.24,0H12.54a2.19,2.19,0,0,0,0,4.37H49.46a2.19,2.19,0,1,0,0-4.37ZM12.54,49.13h10a10.34,10.34,0,0,1-1.79-4.38H12.54a2.19,2.19,0,0,0,0,4.38ZM49.46,60.07H12.54a2.19,2.19,0,0,0,0,4.37H49.46a2.19,2.19,0,1,0,0-4.37ZM12.54,41.48h8.21a10.33,10.33,0,0,1,1.79-4.38h-10a2.19,2.19,0,0,0,0,4.38ZM49.46,21.78H12.54a2.19,2.19,0,0,0,0,4.37H49.46a2.19,2.19,0,1,0,0-4.37Zm0,15.31h-10a10.34,10.34,0,0,1,1.79,4.38h8.21a2.19,2.19,0,1,0,0-4.38Zm0-7.66H12.54a2.19,2.19,0,0,0,0,4.37H26.38a10.31,10.31,0,0,1,9.24,0H49.46a2.19,2.19,0,1,0,0-4.37Zm0,15.32H41.25a10.31,10.31,0,0,1-1.79,4.38h10a2.19,2.19,0,1,0,0-4.38ZM31.07,50.11a2.05,2.05,0,0,0,2.05-2.05v-.67H36.2a.85.85,0,0,0,.85-.85,2.37,2.37,0,0,0-.68-1.79,3.17,3.17,0,0,1-.91-1.92L35.4,42a8.72,8.72,0,0,0-.94-4.15,3.6,3.6,0,0,0-2.17-1.62,1.32,1.32,0,0,0-2.44,0,3.6,3.6,0,0,0-2.17,1.62A8.74,8.74,0,0,0,26.75,42l-.06.79a3.15,3.15,0,0,1-.91,1.92,2.37,2.37,0,0,0-.68,1.79.85.85,0,0,0,.85.85H29v.67A2.06,2.06,0,0,0,31.07,50.11Zm.35-2.05a.35.35,0,1,1-.69,0v-.67h.69v.67Zm-4.18-2.38A4.93,4.93,0,0,0,28.39,43l.06-.81a7.71,7.71,0,0,1,.66-3.34,2.05,2.05,0,0,1,2-1,2,2,0,0,1,1.94,1,7.65,7.65,0,0,1,.66,3.34l.06.81a4.91,4.91,0,0,0,1.15,2.72Z"/></g></g></svg>