<svg xmlns="http://www.w3.org/2000/svg" viewBox="0 0 67 64"><defs><style>.cls-1{fill:#fff;}</style></defs><title>Asset 3</title><g id="Layer_2" data-name="Layer 2"><g id="Layer_1-2" data-name="Layer 1"><path class="cls-1" d="M1.45,0A1.45,1.45,0,0,0,0,1.45V62.55A1.45,1.45,0,0,0,1.45,64H62.55a1.45,1.45,0,0,0,0-2.91H2.91V1.45A1.45,1.45,0,0,0,1.45,0ZM53.82,13.82a4.39,4.39,0,0,0-4.36,4.36,4.3,4.3,0,0,0,.89,2.61l-8.7,13.7a4.31,4.31,0,0,0-4.73,1l-7.23-4.66a4.18,4.18,0,0,0,.14-1,4.36,4.36,0,1,0-8.73,0A4.29,4.29,0,0,0,22,32.45L13.7,45.86a4.38,4.38,0,1,0,2.57,1.34L24.43,34a4.24,4.24,0,0,0,1,.14,4.32,4.32,0,0,0,2.64-.91l7.57,4.86c0,.13,0,.27,0,.41a4.36,4.36,0,1,0,8.2-2.09l8.93-14a4.26,4.26,0,0,0,1,.14,4.36,4.36,0,1,0,0-8.73Zm0,2.91a1.45,1.45,0,1,1-1.45,1.45A1.43,1.43,0,0,1,53.82,16.73ZM25.45,28.36A1.45,1.45,0,1,1,24,29.82,1.43,1.43,0,0,1,25.45,28.36ZM40,37.09a1.45,1.45,0,1,1-1.45,1.45A1.43,1.43,0,0,1,40,37.09ZM13.09,48.73a1.45,1.45,0,1,1-1.45,1.45A1.43,1.43,0,0,1,13.09,48.73Z"/><path class="cls-1" d="M47.52,49.52a8.29,8.29,0,0,1,2.59,9.12h5.63V44.29L46,46.61a.83.83,0,0,0-.62.59.79.79,0,0,0,.27.8Z"/><path class="cls-1" d="M55.73,43.39a1,1,0,0,1,.47.13,1,1,0,0,1,.47-.13l.23,0L62,44.63,60.6,38.78a1,1,0,0,0-1-.77h-.11v-.9a.92.92,0,0,0-.94-.9H53.86a.92.92,0,0,0-.94.9V38h-.19a.93.93,0,0,0-.92.7l-1.37,5.92,5.06-1.21Zm.94-.9V38.91h1.88l.94,3.59Zm-2.81-3.59h1.88V42.5H52.92Z"/><path class="cls-1" d="M56.67,58.64H62.3a8.29,8.29,0,0,1,2.59-9.12L66.71,48a.79.79,0,0,0,.27-.8.83.83,0,0,0-.62-.59l-9.69-2.32Z"/></g></g></svg>