<svg xmlns="http://www.w3.org/2000/svg" viewBox="0 0 76.65 68.15"><defs><style>.cls-1{fill:#fff;}</style></defs><title>Asset 1</title><g id="Layer_2" data-name="Layer 2"><g id="Layer_1-2" data-name="Layer 1"><path class="cls-1" d="M76.48,44.82l-.06-.23,0-.12-.16-.51-.33-1-1.32-4.08-2.18-6.68a5.85,5.85,0,0,0,1-1.56c.65-1.46,1.34-2.92,1.94-4.4.3-.78.58-1.49.83-2.25l.09-.29.11-.37a4.42,4.42,0,0,0,.13-1.08A4.59,4.59,0,0,0,76,20.12a4.81,4.81,0,0,0-1.11-1.81,4.88,4.88,0,0,0-1.39-1,12,12,0,0,0-1.12-.44c-.59-.22-1.18-.41-1.79-.59a21.41,21.41,0,0,0-3.7-.78h-.16l-.34-1c-2.1-6.14-4.25-11.11-5.14-10.32s-.11,5.32,1.8,11.68l5.17,17.24,2.64,8.62,1.32,4.25a.83.83,0,0,1-.3.86l-.14.08h-.16l-.13,0L44,55.88,30.23,60.42l-6.88,2.26-3.43,1.13-1.56.51a1.22,1.22,0,0,1-.78-.07,1.17,1.17,0,0,1-.48-.51L17,63.59c0-.07,0-.07-.06-.23l-.22-.78-.88-3.12-1.79-6.23Q12.26,47,10.36,40.71L6.47,28.12,4.58,22.07a.41.41,0,0,1,.18-.45h.12l.78-.25,1.56-.5C24,15.55,40.65,10.1,57.4,4.94l.58-.2.3-.12h0a.67.67,0,0,1,.26-.15,1.25,1.25,0,0,1,.76,0c.37.14.68.14.69-.4a1.46,1.46,0,0,0-.45-1A2.15,2.15,0,0,0,58,2.51a5.23,5.23,0,0,0-.88.13l-.92.19-1.88.38q-1.89.39-3.89.84c-2.62.59-5.32,1.25-8.08,2-1.88.49-3.8,1-5.72,1.56a12.35,12.35,0,0,0-4.28-2.69C30,3.95,27.6,3,25.19,2.06,24,1.6,22.74,1.18,21.54.79q-.92-.3-1.85-.55L19.36.15,18.94.06A5.12,5.12,0,0,0,18.06,0a4.79,4.79,0,0,0-1.68.36,4.88,4.88,0,0,0-2.67,2,5.26,5.26,0,0,0-.33.61c-.09.2-.19.47-.22.55l-.26.72L12.4,5.71q-.5,1.43-.94,2.89A55.06,55.06,0,0,0,10,14.49a3.54,3.54,0,0,0,0,1.07L4.48,17.21l-.65.19-.35.11A4.74,4.74,0,0,0,.22,22.45,5.8,5.8,0,0,0,.3,23c0,.17.11.43.13.5L2,28.73l2.16,7A5.79,5.79,0,0,0,3,37.45c-.58,1.48-1.28,2.94-1.88,4.42-.3.78-.58,1.49-.83,2.25l-.09.29-.09.37A4.42,4.42,0,0,0,0,45.85a4.6,4.6,0,0,0,.45,2.09,4.81,4.81,0,0,0,1.08,1.81,4.88,4.88,0,0,0,1.39,1A12,12,0,0,0,4,51.21c.59.22,1.18.41,1.79.59a21.5,21.5,0,0,0,3.63.78L11.8,60l.81,2.6.41,1.3.21.65a3.08,3.08,0,0,0,.19.51,6,6,0,0,0,.27.55,5,5,0,0,0,4,2.52A5,5,0,0,0,19,68.07a5.63,5.63,0,0,0,.6-.15l.33-.11,1.28-.42L31.58,64l9-2.74a13.24,13.24,0,0,0,3.47,2c2.39.94,4.77,1.92,7.19,2.83,1.21.45,2.42.88,3.65,1.27q.92.3,1.85.55l.33.09.43.09a5.12,5.12,0,0,0,.86.06A4.79,4.79,0,0,0,60,67.71a4.88,4.88,0,0,0,2.67-2,5.26,5.26,0,0,0,.33-.61c.09-.2.19-.47.22-.55l.26-.72.5-1.43q.5-1.43.94-2.89a55.06,55.06,0,0,0,1.5-5.92c0-.14,0-.28.05-.42h.07l4.1-1.3,2-.62.26-.08.19-.06.23-.09a5.05,5.05,0,0,0,.89-.46,5.17,5.17,0,0,0,2.28-5.2A3.89,3.89,0,0,0,76.48,44.82ZM15.73,9.57c.49-1.62,1-3.3,1.38-4.91a1,1,0,0,1,.57-.78,1.06,1.06,0,0,1,.51-.12h.36l.62.16c4,2.34,8.37,3.55,12.73,4.89q-3.27,1-6.57,1.95L14,14.33A47.12,47.12,0,0,0,15.73,9.57Zm-8.81,38c-.51-.15-1-.29-1.56-.42L4.65,47a1,1,0,0,1-.26-.07,1.08,1.08,0,0,1-.65-1,.68.68,0,0,0,.16-.15l.21-.3q.21-.31.4-.62a14.48,14.48,0,0,0,.68-1.29,21.15,21.15,0,0,0,.78-2q1,3.21,2,6.42A9.66,9.66,0,0,0,6.92,47.57Zm53.74,10.9c-.49,1.62-1,3.3-1.38,4.91a1,1,0,0,1-.57.78,1.06,1.06,0,0,1-.51.12h-.36l-.62-.16a52.32,52.32,0,0,0-11.31-4.46l12.46-3.89,3.78-1.18q-.83,1.92-1.46,3.91ZM71.87,23.26a14.49,14.49,0,0,0-.68,1.29c-.29.62-.53,1.25-.78,1.9q-1-3.19-2.08-6.39a12.52,12.52,0,0,0,1.19.43c.51.15,1,.29,1.56.42l.71.18a1,1,0,0,1,.26.07,1.08,1.08,0,0,1,.65,1,.68.68,0,0,0-.16.15l-.21.3a6.66,6.66,0,0,0-.42.63ZM50.44,20.52c-1.76,3.89-3.8,7.7-5.93,11.45l-1.08,1.85-.11.19a2,2,0,0,1-2.24.92l-.36-.07c-2.9-.43-5.76-1-8.57-1.71l-4.67,7a18.39,18.39,0,0,1-5.63,5.72c-.67.4-1.33.54-1.65-.06a1.66,1.66,0,0,1,0-1.3c3.12-4.89,5.86-10.13,9.08-14.93l.12-.19a2.1,2.1,0,0,1,2.27-.86,57.73,57.73,0,0,1,6.51,2.09l2.39.41c1.19-2.54,2.39-5.09,3.66-7.59,1-2,2.14-3.89,3.29-5.75l-2,.33a4.32,4.32,0,0,1-3.47-.91,1.74,1.74,0,0,1-.73-1.29c0-.3.06-.78.2-.78,3-.66,5.76-2.34,9-2l1.2,0a.88.88,0,0,1,.78,1h0v.23c.68,1.6,1.43,3.19,2,4.83a15.29,15.29,0,0,1,.59,3.21c.07.61-.5,1.22-1.43,1.56a1.6,1.6,0,0,1-2-.44A14.52,14.52,0,0,1,50.44,20.52Zm1.11,12.15a3.29,3.29,0,0,1,1.13-2.76A2.2,2.2,0,0,1,54,29.25c.3,0,.78,0,.78.1.44,2.34,1.92,4.42,1.32,7.07.55,1.21,1.17,2.38,1.6,3.62A8.93,8.93,0,0,1,58,42.5c0,.47-.58,1-1.5,1.31s-1.65.17-1.92-.21A10.71,10.71,0,0,1,53,39.22c0-.24-.07-.5-.1-.78C51.87,36.7,51.79,34.65,51.55,32.67Zm-7.11,12v-.4c-.68-.85-.48-2-.45-3,0-.44.4-1,1.47-1.69A4.07,4.07,0,0,1,46.81,39c.29-.06.71-.11.72-.05.09,1.25,1.21,2.18.26,3.74a12.64,12.64,0,0,1,1,1.78,2.62,2.62,0,0,1,0,1.32c0,.26-.69.62-1.62.93s-1.6.33-1.81.16A2.92,2.92,0,0,1,44.44,44.71Zm-6.29-.1a20.83,20.83,0,0,1,1.21,2.34,4.17,4.17,0,0,1,.1,1.67c0,.32-.65.74-1.56,1.05s-1.62.28-1.85,0a4.84,4.84,0,0,1-1.15-2.9V46.3c-.78-1.14-.66-2.55-.73-3.89,0-.56.33-1.24,1.36-2a3.17,3.17,0,0,1,1.33-.58c.29-.05.72-.08.73,0C37.75,41.41,39,42.71,38.15,44.61Zm-12,7.11a2,2,0,0,1,.06-.24c-.55-.44-.21-1.15-.05-1.81.06-.27.51-.65,1.63-1.21A7,7,0,0,1,29.19,48a2.6,2.6,0,0,1,.69-.12c-.06.78.89,1.19-.21,2.26a4.77,4.77,0,0,1,.78,1c.09.22,0,.51-.18.78a4.33,4.33,0,0,1-1.68.78,3.56,3.56,0,0,1-1.76.3A1.07,1.07,0,0,1,26.19,51.72Z"/></g></g></svg>