<svg xmlns="http://www.w3.org/2000/svg" viewBox="0 0 71.97 68"><defs><style>.cls-1{fill:#fff;}</style></defs><title>Asset 15</title><g id="Layer_2" data-name="Layer 2"><g id="Layer_1-2" data-name="Layer 1"><path class="cls-1" d="M34,61.71a.36.36,0,0,0-.57-.14,5.27,5.27,0,0,1-3.45,1.36,5.74,5.74,0,0,1-5.46-5.43h9.85l1.48-1.77L35.47,55h-.59a4.7,4.7,0,0,1-4-2.53H5.07V48.18l6.11-6.28V29.62A18.73,18.73,0,0,1,26,11V9.18a4.08,4.08,0,0,1,3.11-4,4,4,0,0,1,4.75,4V11A18.55,18.55,0,0,1,48.26,25.38a.19.19,0,0,0,.3.11,4.53,4.53,0,0,1,2.67-.89h1.61a.35.35,0,0,0,.34-.42,23.68,23.68,0,0,0-14.46-17,9,9,0,0,0-17.55,0A23.89,23.89,0,0,0,6.11,29.62V39.84L.74,45.36A2.61,2.61,0,0,0,0,47.18V55A2.53,2.53,0,0,0,2.53,57.5h16.9A10.8,10.8,0,0,0,30,68a10.42,10.42,0,0,0,7-2.79L35,63.26A4.46,4.46,0,0,1,34,61.71Z"/><path class="cls-1" d="M70.85,45a39.13,39.13,0,0,1-4.48-.63l-.13,0a1.5,1.5,0,0,1-.47-.75,6.24,6.24,0,0,1-.35-2.06l.3-.42a34.89,34.89,0,0,1,2.84-3.5,1.15,1.15,0,0,0,0-1.6l-2.83-2.83a1.16,1.16,0,0,0-1.6,0,19.63,19.63,0,0,1-3.63,2.63L60,36a4.34,4.34,0,0,1-1.67-.22,8.53,8.53,0,0,1-1.41-.68l0-.1a39.59,39.59,0,0,1-.47-5.09,1.15,1.15,0,0,0-1.14-1.12h-4a1.15,1.15,0,0,0-1.14,1.12,23,23,0,0,1-.71,5l0,.14a1.13,1.13,0,0,1-.59.42,9.1,9.1,0,0,1-2,.34,3.24,3.24,0,0,1-.58-.3,19.56,19.56,0,0,1-3.63-2.63A1.16,1.16,0,0,0,41,33l-2.83,2.83a1.16,1.16,0,0,0,0,1.6A34.31,34.31,0,0,1,41,40.89l.27.38a2.44,2.44,0,0,1-.14,1.42,8.42,8.42,0,0,1-.86,1.6l-.16,0a19.56,19.56,0,0,1-4.43.7,1.15,1.15,0,0,0-1.12,1.15v4a1.15,1.15,0,0,0,1.12,1.15,34.54,34.54,0,0,1,4.48.46l.13,0c.13,0,.34.38.47.78a7.17,7.17,0,0,1,.4,2.21l-.31.44A34.35,34.35,0,0,1,38,58.72a1.16,1.16,0,0,0,0,1.6l2.83,2.83a1.16,1.16,0,0,0,1.6,0,19.47,19.47,0,0,1,3.63-2.63,4.68,4.68,0,0,1,.55-.29,5.08,5.08,0,0,1,1.58.17,3.84,3.84,0,0,1,1.14.72l.06.2a19.53,19.53,0,0,1,.7,4.43,1.16,1.16,0,0,0,1.15,1.12h4a1.15,1.15,0,0,0,1.15-1.12,35,35,0,0,1,.46-4.48l0-.14c0-.14.36-.35.72-.47A10.14,10.14,0,0,1,60,60.23l.5.28a19.47,19.47,0,0,1,3.63,2.63,1.16,1.16,0,0,0,1.6,0l2.83-2.83a1.16,1.16,0,0,0,0-1.6,34.57,34.57,0,0,1-2.84-3.49l-.31-.44a3,3,0,0,1,.13-1.51,9.67,9.67,0,0,1,.68-1.44h.09a35.11,35.11,0,0,1,4.53-.46A1.15,1.15,0,0,0,72,50.19v-4A1.25,1.25,0,0,0,70.85,45ZM53.28,56.57a8.4,8.4,0,1,1,8.4-8.4A8.4,8.4,0,0,1,53.28,56.57Z"/></g></g></svg>