<svg xmlns="http://www.w3.org/2000/svg" viewBox="0 0 67 67"><defs><style>.cls-1{fill:#fff;}</style></defs><title>Asset 7</title><g id="Layer_2" data-name="Layer 2"><g id="Layer_1-2" data-name="Layer 1"><path class="cls-1" d="M33.5,0A33.5,33.5,0,1,0,67,33.5,33.5,33.5,0,0,0,33.5,0Zm5.08,15.39c.71-1.71,2.13-2.69,3.83-2s2,2.41,1.28,4.12l-.31.73-5.12-2.14ZM31.67,47.64a3.3,3.3,0,0,1-6.09-2.55l.31-.73L32,46.91Zm13.64-.09c-.84,2-2.83,2.32-4.84,1.48l-22-9.23c-2-.84-3.19-2.48-2.34-4.49s2.83-2.32,4.84-1.48l22,9.23C45,43.9,46.12,45.6,45.31,47.55Zm.84-15.68-4,9.5L22.68,33.21l4-9.5a10.51,10.51,0,0,1,11-6.4l5.18,2.17A10.5,10.5,0,0,1,46.14,31.87Z"/></g></g></svg>