<svg xmlns="http://www.w3.org/2000/svg" viewBox="0 0 62.21 75"><defs><style>.cls-1{fill:#fff;}</style></defs><title>Asset 12</title><g id="Layer_2" data-name="Layer 2"><g id="Noti_Settings" data-name="Noti Settings"><path class="cls-1" d="M7.85,23.21a2.21,2.21,0,0,0-4.42,0v4.66H7.85Z"/><path class="cls-1" d="M3.43,72.79a2.21,2.21,0,0,0,4.42,0V45.55H3.43Z"/><rect class="cls-1" y="30.82" width="11.29" height="12.27" rx="1.97" ry="1.97"/><path class="cls-1" d="M20.94,23.21V50h4.74V28.8a23.35,23.35,0,0,1-3-7.69A2.29,2.29,0,0,0,20.94,23.21Z"/><path class="cls-1" d="M20.51,72.79a2.32,2.32,0,0,0,4.63,0v-6H20.51Z"/><path class="cls-1" d="M26.3,52.13H19a2,2,0,0,0-2,2v8.32a2,2,0,0,0,2,2H26.3a2,2,0,0,0,2-2V54.11A2,2,0,0,0,26.3,52.13Z"/><path class="cls-1" d="M38.55,72.79a2.38,2.38,0,0,0,4.74,0V55.45H38.55Z"/><rect class="cls-1" x="34.65" y="39.98" width="11.29" height="12.27" rx="1.97" ry="1.97"/><path class="cls-1" d="M43.71,0a18.5,18.5,0,1,0,18.5,18.5A18.5,18.5,0,0,0,43.71,0Zm2.81,8.5a1.55,1.55,0,1,1,2.82,1.18l-.17.4L46.34,8.9ZM42.7,26.31a1.82,1.82,0,0,1-3.36-1.41l.17-.4,3.36,1.41Zm7.53-.05c-.46,1.11-1.56,1.28-2.67.82L35.38,22c-1.11-.46-1.76-1.37-1.29-2.48s1.56-1.28,2.67-.82l12.17,5.09A1.87,1.87,0,0,1,50.23,26.26Zm.46-8.66-2.2,5.25-10.76-4.5,2.2-5.25A5.81,5.81,0,0,1,46,9.56l2.86,1.2A5.8,5.8,0,0,1,50.69,17.6Z"/></g></g></svg>