<svg xmlns="http://www.w3.org/2000/svg" viewBox="0 0 72.67 75.79"><defs><style>.cls-1{fill:#fff;}</style></defs><title>Asset 4</title><g id="Layer_2" data-name="Layer 2"><g id="Layer_1-2" data-name="Layer 1"><path class="cls-1" d="M38.45,57a2.65,2.65,0,0,0,1.18,2.2,17.64,17.64,0,0,1,1-4.81A2.65,2.65,0,0,0,38.45,57Z"/><polygon class="cls-1" points="14.41 23.87 20.06 23.87 17.23 19.63 14.41 23.87"/><path class="cls-1" d="M31.82,39.78V50.38H42.69a17.83,17.83,0,0,1,5.1-4.91l-2.28-5.7Z"/><circle class="cls-1" cx="25.19" cy="57.01" r="2.65"/><path class="cls-1" d="M39.63,59.21a2.65,2.65,0,0,1,1-4.81,17.68,17.68,0,0,1,2.05-4H31.82V39.78H45.51l2.28,5.7a17.68,17.68,0,0,1,2.35-1.27L47.64,38a1.32,1.32,0,0,0-1.23-.83H30.5a1.33,1.33,0,0,0-1.33,1.33V50.38h-5.3v-4a1.33,1.33,0,0,0-1.33-1.33H15.91V43.75a1.33,1.33,0,0,0-1.33-1.33h-8A1.33,1.33,0,0,0,5.3,43.75v6.63H4a1.33,1.33,0,0,0-1.29,1L0,62a1.32,1.32,0,0,0,1.29,1.65H39.87a17.8,17.8,0,0,1-.3-3.21C39.56,60,39.6,59.62,39.63,59.21Zm-14.44.45A2.65,2.65,0,1,1,27.84,57,2.66,2.66,0,0,1,25.19,59.66Z"/><path class="cls-1" d="M55.68,30.49a1.33,1.33,0,0,0-1.33-1.33H53v-17L55.62,4.4a1.33,1.33,0,0,0,0-.17,1.44,1.44,0,0,0,0-.21,1.3,1.3,0,0,0,0-.32s0-.09,0-.13l0,0a1.33,1.33,0,0,0-.19-.33,1,1,0,0,0-.07-.1,1.31,1.31,0,0,0-.3-.23l-.09-.07L49.65.14A1.34,1.34,0,0,0,49.06,0H11.93A1.33,1.33,0,0,0,10.6,1.33v5.3A1.33,1.33,0,0,0,11.93,8H13.5a4,4,0,0,0,2.41,2.41v6.47l-4.69,7H9.28A1.33,1.33,0,0,0,8,25.19v8a1.33,1.33,0,0,0,1.33,1.33H25.19a1.33,1.33,0,0,0,1.33-1.33v-8a1.33,1.33,0,0,0-1.33-1.33H23.25l-4.69-7V10.36A4,4,0,0,0,21,8H45.08V29.17H43.75a1.33,1.33,0,0,0-1.33,1.33v2.65a1.33,1.33,0,0,0,1.33,1.33H46.4A4,4,0,0,1,50.1,37l2.54,6.36a17.64,17.64,0,0,1,3-.56ZM20.06,23.87H14.41l2.82-4.24Z"/><circle class="cls-1" cx="57.31" cy="60.45" r="1.9"/><path class="cls-1" d="M57.31,45.08c-.48,0-.94,0-1.41.07a15.19,15.19,0,0,0-6.83,2.34,15.18,15.18,0,0,0-6.19,7.73A15.26,15.26,0,0,0,42,59.38c0,.35-.05.7-.05,1.06A15.36,15.36,0,1,0,57.31,45.08ZM67.38,61.63a1.31,1.31,0,0,1-.87,1.23l-1.27.45a.52.52,0,0,0-.3.29h0a.52.52,0,0,0,0,.42l.58,1.22a1.31,1.31,0,0,1-.26,1.49L63.6,68.4a1.31,1.31,0,0,1-1.49.26l-1.23-.58a.51.51,0,0,0-.4,0h0a.54.54,0,0,0-.28.31l-.45,1.27a1.31,1.31,0,0,1-1.23.87H56.13a1.31,1.31,0,0,1-1.23-.87l-.45-1.27a.52.52,0,0,0-.29-.3h0a.53.53,0,0,0-.42,0l-1.22.58A1.31,1.31,0,0,1,51,68.4l-1.67-1.67a1.31,1.31,0,0,1-.26-1.49L49.69,64a.52.52,0,0,0,0-.41v0a.52.52,0,0,0-.3-.27l-1.27-.45a1.31,1.31,0,0,1-.87-1.23V59.27A1.31,1.31,0,0,1,48.12,58l1.27-.45a.52.52,0,0,0,.3-.29h0a.52.52,0,0,0,0-.42l-.58-1.22a1.31,1.31,0,0,1,.26-1.49L51,52.5a1.31,1.31,0,0,1,1.49-.26l1.22.58a.52.52,0,0,0,.71-.29l.45-1.27a1.31,1.31,0,0,1,1.23-.87h2.36a1.31,1.31,0,0,1,1.23.87l.45,1.27a.52.52,0,0,0,.28.3h0a.53.53,0,0,0,.42,0l1.22-.58a1.31,1.31,0,0,1,1.49.26l1.67,1.67a1.31,1.31,0,0,1,.26,1.49l-.58,1.22a.52.52,0,0,0,0,.42h0a.52.52,0,0,0,.3.29l1.27.45a1.31,1.31,0,0,1,.87,1.23Z"/><path class="cls-1" d="M62.51,58.3h0a3.14,3.14,0,0,1,.07-2.55l.18-.39L62.4,55l-.39.18a3.17,3.17,0,0,1-2.54.07h0a3.14,3.14,0,0,1-1.75-1.84l-.14-.4h-.51l-.14.4a3.13,3.13,0,0,1-4.3,1.78L52.23,55l-.36.36.18.39a3.14,3.14,0,0,1,.07,2.55h0A3.14,3.14,0,0,1,50.27,60l-.4.14v.51l.4.14a3.14,3.14,0,0,1,1.84,1.74h0a3.14,3.14,0,0,1-.07,2.55l-.18.39.36.36.39-.18a3.17,3.17,0,0,1,2.55-.06h0a3.14,3.14,0,0,1,1.75,1.84l.14.4h.51l.14-.4a3.16,3.16,0,0,1,1.76-1.85h0a3.15,3.15,0,0,1,2.5.08l.4.19.36-.36-.18-.39a3.14,3.14,0,0,1-.07-2.53h0a3.14,3.14,0,0,1,1.85-1.75l.4-.14v-.51l-.4-.14A3.14,3.14,0,0,1,62.51,58.3ZM57.31,65a4.52,4.52,0,1,1,4.52-4.52A4.52,4.52,0,0,1,57.31,65Z"/></g></g></svg>