<svg xmlns="http://www.w3.org/2000/svg" viewBox="0 0 81 84.4"><defs><style>.cls-1{fill:#fff;}.cls-2{fill:none;}</style></defs><title>Asset 4</title><g id="Layer_2" data-name="Layer 2"><g id="Layer_24" data-name="Layer 24"><path class="cls-1" d="M74.8,14c.9-.2,1.7-.9,1.8-2.5s-.2-2-.7-2.3c1.4-5.5-2.4-6.6-2.4-6.6s-2.8-4.7-8.3-1.4a9.7,9.7,0,0,0-2.4,2.1C61.8,4.4,61.1,6.1,61,9c-.7.3-1.2.9-1.1,2.5s1,2.4,1.9,2.5c1.2,3,3.6,5.4,6.5,5.4S73.6,17,74.8,14ZM68.3,18c-3.3,0-6-4.5-6-8.2,0-.5,0-1,0-1.4,4.8.2,7.7-1.7,9.2-3.4a10.8,10.8,0,0,1,2.6,4.7h0C74.3,13.6,71.6,18,68.3,18Z"/><path class="cls-1" d="M66.4,23.6l.4-1.6a.9.9,0,0,1,.3-.5H67l-3.4-2.8-2.1.5a7.5,7.5,0,0,0-6,7.2v4.5a1.7,1.7,0,0,0,1.7,1.6H66l1.3-7.6A.9.9,0,0,1,66.4,23.6Z"/><path class="cls-1" d="M75,19.2l-2-.5-3.4,2.8h-.1a.9.9,0,0,1,.3.5l.4,1.6a.9.9,0,0,1-.9,1.2l1.3,7.6h8.8A1.6,1.6,0,0,0,81,30.9V26.4A7.5,7.5,0,0,0,75,19.2Z"/><polygon class="cls-2" points="43 39.7 40.9 41.4 45.1 41.4 43 39.7"/><path class="cls-2" d="M40.1,33.5l-.4-.3-.3-.3-.3-.4-.3-.4-.2-.4-.2-.4v-.2L14,46v4.4h4.7L40.7,33.9l-.3-.2Z"/><polygon class="cls-2" points="9.7 60.4 7.4 66.4 20.6 66.4 18.3 60.4 9.7 60.4"/><polygon class="cls-2" points="12 53.4 12 51.4 12 46.4 2 46.4 2 51.1 3.5 53.4 9 53.4 12 53.4"/><path class="cls-2" d="M46,29.4a3,3,0,1,0-3,3A3,3,0,0,0,46,29.4Zm-4,0a1,1,0,1,1,1,1A1,1,0,0,1,42,29.4Z"/><path class="cls-2" d="M32.9,65.2,40.5,61a7.3,7.3,0,0,1,5.7,0L54,65.1l.9-7.6H32.1Z"/><path class="cls-1" d="M59.9,69.9a4.7,4.7,0,0,0-2.4-3l-1.6-.8,1-8.6H57a1,1,0,0,0,1-1v-6a1,1,0,0,0-1-1H50v-7a1,1,0,0,0-1-1h-.6L44,38V34.3a5,5,0,1,0-5.9-5.5L12.7,44.4H1a1,1,0,0,0-1,1v6a1,1,0,0,0,.2.6l2,3a1,1,0,0,0,.8.4H8v3.8L5.1,67.1a1,1,0,0,0-.1.3H5v7h5a1,1,0,0,1,0,2H5v2h7a1,1,0,0,1,0,2H5v3a1,1,0,0,0,1,1H22a1,1,0,0,0,1-1v-16h0a1,1,0,0,0-.1-.3L20,59.3V51.9L42,35.4V38l-4.4,3.5H37a1,1,0,0,0-1,1v7H29a1,1,0,0,0-1,1v6a1,1,0,0,0,1,1h1.1l.9,8.7-1.4.8a4.7,4.7,0,0,0-1.9,6.8L30,77.4l10.7-5.3a6.6,6.6,0,0,1,5.7,0L57,77.2l2.1-3.5A4.7,4.7,0,0,0,59.9,69.9ZM46,44.4a1,1,0,0,1,1,1v2a1,1,0,0,1-2,0v-2A1,1,0,0,1,46,44.4Zm-42.5,9L2,51.1V46.4H12v7H3.5Zm17,13H7.4l2.3-6h8.6Zm-1.9-16H14V46L38.3,31.1v.2l.2.4.2.4.3.4.3.4.3.3.4.3.4.3.3.2ZM40,29.4a3,3,0,1,1,3,3A3,3,0,0,1,40,29.4Zm3,10.3,2.1,1.7H40.9Zm1,5.7v2a1,1,0,0,1-2,0v-2a1,1,0,0,1,2,0Zm-5,0a1,1,0,0,1,2,0v2a1,1,0,0,1-2,0ZM54,65.1,46.3,61a7.3,7.3,0,0,0-5.7,0l-7.6,4.1-.8-7.7H54.9Z"/><path class="cls-1" d="M41.6,73.9,31.1,79.1,34.2,84a1,1,0,0,0,.8.5H52a1,1,0,0,0,.9-.5L56,78.9l-10.4-5A4.7,4.7,0,0,0,41.6,73.9Z"/><circle class="cls-1" cx="43" cy="29.4" r="1"/></g></g></svg>