<svg xmlns="http://www.w3.org/2000/svg" viewBox="0 0 72 72"><defs><style>.cls-1{fill:none;stroke:#fff;stroke-linecap:round;stroke-linejoin:round;stroke-width:2px;}.cls-2{fill:#fff;}</style></defs><title>Asset 4</title><g id="Layer_2" data-name="Layer 2"><g id="Layer_1-2" data-name="Layer 1"><polygon class="cls-1" points="44.45 31.17 58.93 31.17 58.93 21.52 44.45 21.52 44.45 31.17"/><path class="cls-1" d="M48.07,25.14v2.41"/><path class="cls-1" d="M51.69,25.14v2.41"/><path class="cls-1" d="M55.31,25.14v2.41"/><path class="cls-1" d="M42,71H62.55l7.66-12.41a4.43,4.43,0,0,0-1.66-6.48L55.11,45a7.61,7.61,0,0,0-5.83,0L36.1,52.17a4.43,4.43,0,0,0-1.77,6.53L42,71Z"/><path class="cls-1" d="M38.56,50.84,49.28,45a7.61,7.61,0,0,1,5.83,0l10.82,5.7,1.44-12.31H37.21l1.34,12.42Z"/><polygon class="cls-1" points="7.03 71 26.34 71 26.34 51.69 7.03 51.69 7.03 71"/><polygon class="cls-1" points="26.34 51.69 7.03 51.69 10.65 42.03 22.72 42.03 26.34 51.69"/><polygon class="cls-1" points="15.48 36 3.41 36 1 32.38 1 25.14 15.48 25.14 15.48 36"/><path class="cls-1" d="M56.52,5.83a4.83,4.83,0,1,0-4.83,4.83,4.83,4.83,0,0,0,4.83-4.83Z"/><path class="cls-1" d="M51.69,16.69v-6"/><path class="cls-1" d="M45.66,21.52l6-4.83"/><path class="cls-1" d="M57.72,21.52l-6-4.83"/><path class="cls-1" d="M55.31,58.38a6.8,6.8,0,0,0-5.83,0L37.79,64.22,42,71H62.55l4.24-6.87L55.31,58.38Z"/><polygon class="cls-1" points="34.79 38.41 68.59 38.41 68.59 31.17 34.79 31.17 34.79 38.41"/><polygon class="cls-1" points="15.48 32.38 15.48 36 10.65 36 10.65 42.03 22.72 42.03 22.72 32.38 15.48 32.38"/><path class="cls-1" d="M46.86,5.83,15.48,25.14v7.24h7.24l29-21.72a4.83,4.83,0,0,1-4.83-4.83Z"/><path class="cls-2" d="M52.9,5.83A1.21,1.21,0,1,0,51.69,7,1.21,1.21,0,0,0,52.9,5.83"/><path class="cls-1" d="M7,66.17h7.24"/><path class="cls-1" d="M7,61.34h4.83"/></g></g></svg>