<svg xmlns="http://www.w3.org/2000/svg" viewBox="0 0 72.32 68"><defs><style>.cls-1{fill:#fff;}</style></defs><title>Asset 21</title><g id="Layer_2" data-name="Layer 2"><g id="QSHE"><path class="cls-1" d="M63.94,24.67l-1.19,1.92v24c0,2.5-1.27,3.78-3.77,3.83l-1.81,0H53A14,14,0,0,0,45,56.91c-1.7,1.16-3.45,2.33-5.16,3.48l-.51.34c-1.6,1.07-3.6,2.41-5.48,3.69a1.53,1.53,0,0,1-.82.36,1.53,1.53,0,0,1-.83-.37c-1.74-1.19-3.53-2.39-5.26-3.55l-.06,0C24.89,59.53,23,58.26,21.16,57a14.43,14.43,0,0,0-8.39-2.6H9.16c-.9,0-1.64,0-2.33,0a3.33,3.33,0,0,1-3.58-3.67c0-7.41,0-22,0-29.24V19c0-2.82,1.25-4.08,4-4.09H52.1l2-3.22H7.28C2.73,11.68,0,14.42,0,19v1.31c0,7.59,0,22.61,0,30.4a6.5,6.5,0,0,0,6.74,6.9c.72,0,1.48,0,2.41,0l3.35,0h.25a11.17,11.17,0,0,1,6.56,2c1.85,1.27,3.77,2.55,5.64,3.81l.08.05c1.73,1.17,3.54,2.37,5.28,3.57a4.36,4.36,0,0,0,5.31,0c1.83-1.25,3.68-2.5,5.59-3.76l.19-.14C43.2,62,45,60.8,46.79,59.58a11,11,0,0,1,6.27-1.94h6c3.87-.06,6.39-2.27,6.86-5.84a1.42,1.42,0,0,0,.09-.51V21.38Z"/><path class="cls-1" d="M47.08,23C46.43,24,45.8,25,45.16,26a.31.31,0,0,0,0,.08H12.34a1.58,1.58,0,0,1,0-3.16Z"/><path class="cls-1" d="M43.11,33.17l-.49,2.15-.24,1h-30a1.58,1.58,0,1,1,0-3.16H43.11Z"/><path class="cls-1" d="M12.34,43.39h41.3a1.58,1.58,0,0,1,0,3.16H12.34a1.58,1.58,0,0,1,0-3.16Z"/><path class="cls-1" d="M61.47,5.7l-.77,1.2Q54.22,17.27,47.78,27.67a4.11,4.11,0,0,0-.49,1.14c-.7,3-1.38,5.92-2.06,8.85a3.27,3.27,0,0,0-.11.93,1.15,1.15,0,0,0,1.15,1.17,1.45,1.45,0,0,0,.6-.14,4.31,4.31,0,0,0,.8-.53L49,38q2.32-1.88,4.63-3.79l.19-.17a8.17,8.17,0,0,0,1.92-2L64.49,18l4.46-7.17c.07-.08.12-.18.19-.27ZM53,31.75l-2.9,2.39c-.21.18-.35.19-.54.06s-.58-.37-.85-.56a.35.35,0,0,1-.13-.31c.32-1.42.65-2.8,1-4.22,0,0,0-.08,0-.09,1.27.79,2.51,1.59,3.81,2.39Z"/><path class="cls-1" d="M71.25,2.63Q69.42,1.47,67.56.34a2.47,2.47,0,0,0-3.41,1c-.4.63-.79,1.27-1.19,1.9l-.32.51-.08.15,0,0,.56.35.17.1,6.34,3.93.67.41.48-.75c.37-.59.74-1.19,1.11-1.79A2.45,2.45,0,0,0,71.25,2.63Z"/></g></g></svg>