<svg xmlns="http://www.w3.org/2000/svg" viewBox="0 0 70 70"><defs><style>.cls-1{fill:#fff;}</style></defs><title>Asset 16</title><g id="Layer_2" data-name="Layer 2"><g id="Layer_1-2" data-name="Layer 1"><path class="cls-1" d="M59.88,0H10.12A10.12,10.12,0,0,0,0,10.12V59.88A10.12,10.12,0,0,0,10.12,70H59.88A10.12,10.12,0,0,0,70,59.88V10.12A10.12,10.12,0,0,0,59.88,0ZM29.35,62.63l-6.22-3.27-6.22,3.27,1.19-6.93-5-4.91,7-1,3.11-6.3,3.11,6.3,7,1-5,4.91ZM34,36.83l-9.57-5-9.57,5,1.83-10.66L9,18.62l10.7-1.56,4.79-9.7,4.79,9.7L40,18.62l-7.74,7.55Zm22,5.3,1.19,6.93L51,45.79l-6.22,3.27,1.19-6.93-5-4.91,7-1L51,29.91l3.11,6.3,7,1Z"/></g></g></svg>