<svg xmlns="http://www.w3.org/2000/svg" viewBox="0 0 75.16 82"><defs><style>.cls-1{fill:#fff;}</style></defs><title>Asset 8</title><g id="Layer_2" data-name="Layer 2"><g id="Rank_Master" data-name="Rank Master"><path class="cls-1" d="M37.59,0A37.56,37.56,0,0,0,0,37.43a35.59,35.59,0,0,0,12,27V80.29a1.72,1.72,0,0,0,.85,1.49,1.82,1.82,0,0,0,.85.22,1.68,1.68,0,0,0,.86-.24L28.27,73.7A37.59,37.59,0,0,0,75.16,37.44,37.55,37.55,0,0,0,37.59,0ZM26.43,45.76l-.19-.06-8,3,.34-8.55-5.3-6.73,8.23-2.32,4.76-7.11L31,31.05l.58.16-.88,1.31L18.74,35.87l7.69,9.75ZM37.59,50.1l-8,3,.34-8.55-5.3-6.73,8.23-2.32,4.76-7.11,4.76,7.11,8.23,2.32-5.3,6.73.34,8.55Zm19.54-1.46-8-3-.32.13v-.18l7.69-9.75L44.51,32.5l-.85-1.28.69-.19,4.76-7.11L53.86,31l8.23,2.32-5.3,6.73Z"/></g></g></svg>