<svg xmlns="http://www.w3.org/2000/svg" viewBox="0 0 71.32 72"><defs><style>.cls-1{fill:#fff;}</style></defs><title>Asset 17</title><g id="Layer_2" data-name="Layer 2"><g id="Risk_mgt" data-name="Risk mgt"><path class="cls-1" d="M33.3,6.14V8.46a2.13,2.13,0,0,1-2.14,2.13H14.43a2.09,2.09,0,0,1-.76-.14,2.13,2.13,0,0,1-1.38-2V6.14A2.14,2.14,0,0,1,14.43,4H15.9V2.14A2.14,2.14,0,0,1,18,0h9.53A2.15,2.15,0,0,1,29.7,2.14V4h1.47A2.14,2.14,0,0,1,33.3,6.14Z"/><path class="cls-1" d="M35.85,59.91,33.48,64H4.19A4.21,4.21,0,0,1,0,59.83V9.26A4.2,4.2,0,0,1,4.19,5.07H9.68a5.45,5.45,0,0,0-.12,1.07V8.46a4,4,0,0,0,.07.72H4.19L4.11,59.83a.08.08,0,0,0,.08.08H35.85Z"/><path class="cls-1" d="M45.6,9.26V43l-4.11,7.12V9.26H36A5.38,5.38,0,0,0,36,8.46V6.14a4.92,4.92,0,0,0-.13-1.07h5.5A4.19,4.19,0,0,1,45.6,9.26Z"/><polygon class="cls-1" points="38.02 22.04 38.02 22.04 21.57 22.04 21.57 22.04 21.57 17.61 21.57 17.61 38.02 17.61 38.02 17.61 38.02 22.04"/><path class="cls-1" d="M17,14.92H9.1a.94.94,0,0,0-.94.94V23.8a.94.94,0,0,0,.94.94H17A.94.94,0,0,0,18,23.8V15.86A.94.94,0,0,0,17,14.92Zm.4,2.94-4.68,4.68-.75.75-.1.1a.47.47,0,0,1-.66,0L8.7,20.84a.47.47,0,0,1,0-.66l.85-.85a.47.47,0,0,1,.66,0l1.55,1.55,4.35-4.35a.46.46,0,0,1,.66,0l.66.66A.47.47,0,0,1,17.43,17.85Z"/><polygon class="cls-1" points="38.02 37.58 38.02 37.58 21.57 37.58 21.57 37.58 21.57 33.15 21.57 33.15 38.02 33.15 38.02 33.15 38.02 37.58"/><path class="cls-1" d="M17,30.45H9.1a.94.94,0,0,0-.94.94v7.94a.94.94,0,0,0,.94.94H17a.94.94,0,0,0,.94-.94V31.39A.94.94,0,0,0,17,30.45Zm.4,2.94L11.9,38.92a.47.47,0,0,1-.66,0L8.7,36.38a.47.47,0,0,1,0-.66l.85-.85a.47.47,0,0,1,.66,0l1.55,1.55,4.35-4.35a.47.47,0,0,1,.66,0l.66.66A.47.47,0,0,1,17.43,33.39Z"/><polygon class="cls-1" points="38.02 53.12 38.02 53.12 21.57 53.12 21.57 53.12 21.57 48.69 21.57 48.69 38.02 48.69 38.02 48.69 38.02 53.12"/><path class="cls-1" d="M17,46H9.1a.94.94,0,0,0-.94.94v7.94a.94.94,0,0,0,.94.94H17a.94.94,0,0,0,.94-.94V46.93A.94.94,0,0,0,17,46Zm.4,2.94-4.68,4.68-.75.75-.1.1a.46.46,0,0,1-.66,0L8.7,51.91a.47.47,0,0,1,0-.66l.85-.85a.47.47,0,0,1,.66,0L11.76,52l4.35-4.35a.46.46,0,0,1,.66,0l.66.66A.47.47,0,0,1,17.43,48.93Z"/><path class="cls-1" d="M70.89,67.72,55.25,40.64a2.77,2.77,0,0,0-4.94,0L34.67,67.72A2.76,2.76,0,0,0,37.14,72H68.41a2.76,2.76,0,0,0,2.47-4.28ZM39.2,68,52.78,44.44,66.36,68Z"/><path class="cls-1" d="M54.13,61A1.13,1.13,0,0,1,53,62.13h-.44A1.12,1.12,0,0,1,51.44,61V52a1.12,1.12,0,0,1,1.12-1.13H53A1.12,1.12,0,0,1,54.13,52Z"/><circle class="cls-1" cx="52.79" cy="64.18" r="1.42"/></g></g></svg>