<svg xmlns="http://www.w3.org/2000/svg" viewBox="0 0 70 81"><defs><style>.cls-1{fill:#fff;}</style></defs><title>Asset 7</title><g id="Layer_2" data-name="Layer 2"><g id="role_master" data-name="role master"><path class="cls-1" d="M51.8,51.5,48,48.6,37.3,68.5,36.5,59H33.6l-.9,9.5L22,48.6l-3.7,2.9A18.27,18.27,0,0,0,0,69.9V81H70V69.9A18.25,18.25,0,0,0,51.8,51.5Z"/><polygon class="cls-1" points="33.5 57 36.5 57 37.9 53 32.1 53 33.5 57"/><path class="cls-1" d="M53.7,27.7v-.3A78.39,78.39,0,0,1,35,29.5a78.39,78.39,0,0,1-18.7-2.1v.3c0,10.4,8.4,23.9,18.7,23.9S53.7,38,53.7,27.7Z"/><path class="cls-1" d="M12.7,26H57.3c.6,0,.7-.3.7-1v-.6c0-.6,0-1.4-.7-1.4H55.2C55.2,14,49,6.7,41,4.1V9.7A4.23,4.23,0,0,1,36.6,14h-3a4.49,4.49,0,0,1-4.7-4.3V4A20.14,20.14,0,0,0,14.7,23H12.6c-.6,0-1.6.8-1.6,1.4V25C11,25.7,12,26,12.7,26Z"/><path class="cls-1" d="M40,3.7A3.69,3.69,0,0,0,36.3,0H33.6a3.69,3.69,0,0,0-3.7,3.7V9.4a3.69,3.69,0,0,0,3.7,3.7h2.7A3.69,3.69,0,0,0,40,9.4Z"/></g></g></svg>