<svg xmlns="http://www.w3.org/2000/svg" viewBox="0 0 68.49 48"><defs><style>.cls-1{fill:#fff;}</style></defs><title>Asset 18</title><g id="Layer_2" data-name="Layer 2"><g id="saftey_mgt" data-name="saftey mgt"><path class="cls-1" d="M62.45,31.32A28.21,28.21,0,0,0,45.52,5.47V23a2,2,0,1,1-3.95,0V1A28.25,28.25,0,0,0,26.92,1V23A2,2,0,1,1,23,23V5.46A28.21,28.21,0,0,0,6,31.32H0v6.44H3S11,48,34.25,48,65.47,37.77,65.47,37.77h3V31.32h-6Zm-3.38,5.08c-.53.31-1.08.56-1.62.84s-1.11.51-1.68.73-1.14.44-1.72.64l-1.74.57c-1.17.33-2.35.65-3.55.89-.6.12-1.19.28-1.79.37l-1.81.29c-1.2.19-2.42.3-3.63.45s-2.44.17-3.66.24l-3.63.09-3.65-.09c-1.21-.08-2.43-.14-3.65-.25s-2.42-.26-3.63-.46l-1.81-.29c-.6-.1-1.19-.25-1.79-.38-1.19-.24-2.37-.57-3.55-.9l-1.74-.57-1.71-.64c-.56-.23-1.12-.49-1.68-.74s-1.1-.53-1.62-.84a15.2,15.2,0,0,1-3-2.09h0A18.44,18.44,0,0,0,9.65,35.9c.55.23,1.12.42,1.67.64s1.13.38,1.7.54l1.72.48,1.74.41c1.17.23,2.33.5,3.51.66s2.36.33,3.54.48,2.37.21,3.56.32l3.57.19,3.58,0,3.6,0,3.56-.18c1.18-.11,2.38-.17,3.56-.31s2.37-.27,3.54-.47S50.84,38.23,52,38l1.74-.41c.58-.15,1.14-.32,1.72-.48s1.14-.36,1.71-.54,1.12-.41,1.67-.64a17.84,17.84,0,0,0,3.2-1.62A14.92,14.92,0,0,1,59.07,36.41Z"/></g></g></svg>