<svg xmlns="http://www.w3.org/2000/svg" viewBox="0 0 79.2 82.5"><defs><style>.cls-1{fill:none;}.cls-2{fill:#fff;}</style></defs><title>Asset 5</title><g id="Layer_2" data-name="Layer 2"><g id="Layer_24" data-name="Layer 24"><rect class="cls-1" x="28.2" y="46.9" width="5.9" height="2.34" rx="0.7" ry="0.7"/><rect class="cls-1" x="19.5" y="46.9" width="5.9" height="2.34" rx="0.7" ry="0.7"/><rect class="cls-1" x="10.7" y="46.9" width="5.9" height="2.34" rx="0.7" ry="0.7"/><path class="cls-2" d="M9.6,43.1H35.2a.3.3,0,0,0,.3-.3V40.8a.3.3,0,0,0-.3-.3h-8a.3.3,0,0,1-.3-.3V38a.3.3,0,0,0-.3-.3h-8a.3.3,0,0,0-.3.3v2.2a.3.3,0,0,1-.3.3H9.6a.3.3,0,0,0-.3.3v2.1A.3.3,0,0,0,9.6,43.1Z"/><path class="cls-2" d="M38.6,79.5H6.2a.5.5,0,0,0-.5.7l.5,1.6a1,1,0,0,0,.9.7H37.8a1,1,0,0,0,.9-.7l.5-1.6A.5.5,0,0,0,38.6,79.5Z"/><path class="cls-2" d="M44.8,59.9a.7.7,0,0,0,0-.3A.7.7,0,0,1,44.8,59.9Z"/><path class="cls-2" d="M44.5,59.2h-.2L22.9,53.8H21.6L.5,59.1H.3a.7.7,0,0,0-.2.7L4.6,76.4a1,1,0,0,0,.9.7H39.3a1,1,0,0,0,.9-.7l4.6-16.5a.7.7,0,0,0-.2-.7ZM15.9,70.1a3,3,0,1,1,3-3A3,3,0,0,1,15.9,70.1Zm13,0a3,3,0,1,1,3-3A3,3,0,0,1,28.9,70.1Z"/><path class="cls-2" d="M6.9,55l14.8-4.4a2.8,2.8,0,0,1,1.4,0L37.9,55a.5.5,0,0,0,.7-.5V45.6a.7.7,0,0,0-.7-.7H6.9a.7.7,0,0,0-.7.7v8.9A.5.5,0,0,0,6.9,55Zm21.4-7.4a.7.7,0,0,1,.7-.7h4.5a.7.7,0,0,1,.7.7v.9a.7.7,0,0,1-.7.7H28.9a.7.7,0,0,1-.7-.7Zm-8.8,0a.7.7,0,0,1,.7-.7h4.5a.7.7,0,0,1,.7.7v.9a.7.7,0,0,1-.7.7H20.2a.7.7,0,0,1-.7-.7Zm-8.8,0a.7.7,0,0,1,.7-.7h4.5a.7.7,0,0,1,.7.7v.9a.7.7,0,0,1-.7.7H11.4a.7.7,0,0,1-.7-.7Z"/><g id="Your_Icon" data-name="Your Icon"><path class="cls-2" d="M56.9,25.3s1,2.6.7,2.6a13.7,13.7,0,0,0-1.7,2.2l2,3.1,3.3-1.3,1.6,1.3.2,2.9,3.9.6,1.2-2.6,1.7-.4,2.7,1.5,2.9-2-.8-2.7.8-1.6,3.2-.7.7-4-2.9-1.3L76,21l1.6-2.3-2.3-3.3-2.9,1.1-1.7-1.1-.4-2.6-3.8-.5-1.3,2.6-1.8.5L61,13.8l-3.1,1.6.9,2.8-1.1,1.9-2.8.5-.4,4Zm9.9-6.2a5.5,5.5,0,0,1,5.6,5.3,5.6,5.6,0,0,1-11.2,0A5.5,5.5,0,0,1,66.8,19.2ZM51.3,36.4l2.2-2.6-1.4-2.3,1-1.5,2.4-1.4-.7-3.1-2.5-.6-.7-1.6,1-2.4-2.6-2.3L48,19.8l-1.8-.5-.9-2.7-3.7.4-.7,2.4-1.5,1-2.6-1.2-2.4,2.8,1.4,2.6-.7,1.5-2.4,1,.3,3.2,2.6.9.7,1.4-1.1,2.3,2.7,2.3,2.2-1.5,1.9.3,1,3.1,3.4-.5a12.5,12.5,0,0,0,.5-2.5c-.1-.2,1.9-.9,1.9-.9Zm-4-4.6a5,5,0,0,1-7-.7,4.9,4.9,0,0,1,.4-7,5,5,0,0,1,7,.7A4.9,4.9,0,0,1,47.3,31.8ZM60.8,6.9,59.7,4.2l-2.3.2-.7-1.3L56.5.7,53.8.1,52.4,1.7H50.9L49.5,0,46.7,1.1l.2,2-1,1.1L43.4,4,42.3,6.9,44,8.3l.2,1.5-1.9,1.5,1.2,2.8h2.5l.9,1.1v2.2l2.5.9L51,16.7h1.4l1.4,1.7,2.8-1.2L56.2,15l.9-1.3,2.7.4.9-2.7A10.7,10.7,0,0,0,59.1,10c-.2,0,0-1.8,0-1.8ZM55.7,8.2a4.3,4.3,0,0,1-8.4,2.1,4.3,4.3,0,0,1,8.4-2.1Z"/></g></g></g></svg>