<svg xmlns="http://www.w3.org/2000/svg" viewBox="0 0 45 60"><defs><style>.cls-1{fill:#fff;}</style></defs><title>Asset 14</title><g id="Layer_2" data-name="Layer 2"><g id="Layer_1-2" data-name="Layer 1"><path class="cls-1" d="M6.31,24,32.8,18.51a.25.25,0,0,0,.2-.25V8.83a.25.25,0,0,0-.25-.25H32.7L6.2,14.06a.25.25,0,0,0-.2.25v9.44a.25.25,0,0,0,.31.25"/><path class="cls-1" d="M18.28,49l18.48-2.8A2.63,2.63,0,0,0,39,43.59V8h4V49ZM43,58H5a3,3,0,0,1-3-3V54a3,3,0,0,1,3-3H43ZM4,14.31A2.26,2.26,0,0,1,5.8,12.1L32.29,6.62A2.25,2.25,0,0,1,35,8.82v9.44a2.26,2.26,0,0,1-1.8,2.21L6.71,26a2.32,2.32,0,0,1-.46,0A2.26,2.26,0,0,1,4,23.75ZM39,6V3a2.87,2.87,0,0,0-2.61-3L2.31,7A2.87,2.87,0,0,0,0,9.82V55c0,.11,0,.22,0,.34s0,.43,0,.66H.1A5,5,0,0,0,5,60H45V6Z"/></g></g></svg>