<svg xmlns="http://www.w3.org/2000/svg" viewBox="0 0 77.6 71.16"><defs><style>.cls-1{fill:#fff;}</style></defs><title>Asset 9</title><g id="Layer_2" data-name="Layer 2"><g id="Ship_Acc_Mgnt" data-name="Ship Acc Mgnt"><path class="cls-1" d="M22.25,24.8a2.08,2.08,0,0,1,1,.29,2,2,0,0,1,1.5-.23l10.9,2.61-2.93-12.6a2.19,2.19,0,0,0-2.16-1.66h-.24V11.28a2,2,0,0,0-2-1.93H18.21a2,2,0,0,0-2,1.93v1.93h-.4a2,2,0,0,0-2,1.51l-3,12.74,10.9-2.61A2.1,2.1,0,0,1,22.25,24.8Zm2-1.93V15.14h4l2,7.73Zm-6.06-7.73h4v7.73H16.19Z"/><path class="cls-1" d="M4.55,38a17.85,17.85,0,0,1,5.58,19.64H22.25V26.73l-20.87,5A1.78,1.78,0,0,0,.05,33a1.7,1.7,0,0,0,.57,1.72Z"/><path class="cls-1" d="M24.27,57.64H36.39A17.86,17.86,0,0,1,42,38l3.93-3.28A1.7,1.7,0,0,0,46.46,33a1.79,1.79,0,0,0-1.33-1.28l-20.87-5Z"/><path class="cls-1" d="M20.23,63.44a2,2,0,0,0-2-1.93H2a1.93,1.93,0,1,0,0,3.86H18.21A2,2,0,0,0,20.23,63.44Z"/><path class="cls-1" d="M58.62,55.71H42.45a1.93,1.93,0,1,0,0,3.86H58.62a1.93,1.93,0,1,0,0-3.86Z"/><path class="cls-1" d="M26.29,63.44a2,2,0,0,0,2,1.93H40.43a1.93,1.93,0,1,0,0-3.86H28.31A2,2,0,0,0,26.29,63.44Z"/><path class="cls-1" d="M54.58,67.3H14.17a1.93,1.93,0,1,0,0,3.86H54.58a1.93,1.93,0,1,0,0-3.86Z"/><g id="Your_Icon" data-name="Your Icon"><path class="cls-1" d="M61.28,17.71s.7,1.8.52,1.8a9.64,9.64,0,0,0-1.28,1.56L62,23.26l2.43-.92,1.15.92.18,2,2.85.4.85-1.79,1.27-.29,1.94,1,2.13-1.39-.61-1.91.61-1.15,2.31-.46L77.6,17,75.47,16l-.18-1.33,1.15-1.61-1.7-2.34-2.13.78-1.22-.78L71.1,8.95,68.3,8.6l-1,1.79L66,10.76l-1.7-1.13L62,10.76l.66,1.93L61.87,14l-2.08.33-.3,2.78Zm7.26-4.3a3.93,3.93,0,0,1,4.1,3.73,4.12,4.12,0,0,1-8.2,0A3.93,3.93,0,0,1,68.54,13.41ZM57.19,25.48l1.64-1.81-1-1.6.75-1,1.75-1-.51-2.14L58,17.44l-.52-1.1.73-1.7L56.29,13l-1.5.87-1.29-.34-.69-1.86L50.11,12l-.49,1.71-1.08.67-1.93-.85-1.73,2,1,1.79-.48,1.08L43.68,19l.25,2.21,1.91.66.54,1-.8,1.62,2,1.64,1.58-1.08,1.35.21.76,2.14,2.46-.34a8.38,8.38,0,0,0,.38-1.76c-.11-.12,1.39-.64,1.39-.64Zm-2.93-3.25a3.79,3.79,0,0,1-5.15-.49,3.35,3.35,0,0,1,.3-4.9,3.79,3.79,0,0,1,5.14.49A3.36,3.36,0,0,1,54.26,22.23ZM64.14,4.84,63.31,3l-1.67.12-.55-.94L61,.51,59.06.07,58,1.21l-1.08,0L55.85,0l-2,.76L54,2.17,53.2,3l-1.75-.21-.82,2.06,1.19,1,.12,1L50.53,7.93l.91,2,1.82-.06.68.76-.08,1.54,1.87.66L57,11.68h1l1,1.19L61,12.05l-.26-1.54.68-.9,2,.26L64.13,8A7.78,7.78,0,0,0,62.87,7c-.14,0,0-1.24,0-1.24Zm-3.71.88a3,3,0,0,1-2.34,3.53,3.13,3.13,0,0,1-3.81-2.07,3,3,0,0,1,2.34-3.53A3.12,3.12,0,0,1,60.42,5.72Z"/></g></g></g></svg>