<svg xmlns="http://www.w3.org/2000/svg" viewBox="0 0 44.78 44.79"><defs><style>.cls-1{fill:#2c3e50;}</style></defs><title>Asset 2</title><g id="Layer_2" data-name="Layer 2"><g id="Layer_1-2" data-name="Layer 1"><rect class="cls-1" x="28.25" y="9.18" width="5.86" height="2.34" rx="0.7" ry="0.7"/><rect class="cls-1" x="19.46" y="9.18" width="5.86" height="2.34" rx="0.7" ry="0.7"/><rect class="cls-1" x="10.68" y="9.18" width="5.86" height="2.34" rx="0.7" ry="0.7"/><path class="cls-1" d="M9.62,5.43H35.16a.28.28,0,0,0,.28-.28V3.09a.28.28,0,0,0-.28-.28h-8a.28.28,0,0,1-.28-.28V.28A.28.28,0,0,0,26.57,0h-8a.28.28,0,0,0-.28.28V2.52A.28.28,0,0,1,18,2.8H9.62a.28.28,0,0,0-.28.28V5.15A.28.28,0,0,0,9.62,5.43Z"/><path class="cls-1" d="M38.59,41.82H6.19a.51.51,0,0,0-.51.68l.45,1.62a1,1,0,0,0,.89.68H37.76a1,1,0,0,0,.89-.68l.45-1.62A.51.51,0,0,0,38.59,41.82Z"/><path class="cls-1" d="M44.75,22.23a.68.68,0,0,0,0-.28A.69.69,0,0,1,44.75,22.23Z"/><path class="cls-1" d="M44.51,21.5a.68.68,0,0,0-.25-.12L22.94,16.14a3.38,3.38,0,0,0-1.36,0L.52,21.38a.68.68,0,0,0-.49.85l4.6,16.48a1,1,0,0,0,.89.68H39.26a1,1,0,0,0,.89-.68l4.6-16.48a.68.68,0,0,0-.24-.73ZM15.91,32.36a3,3,0,1,1,3-3A3,3,0,0,1,15.91,32.36Zm13,0a3,3,0,1,1,3-3A3,3,0,0,1,28.87,32.36Z"/><path class="cls-1" d="M6.86,17.28,21.65,12.9a2.83,2.83,0,0,1,1.35,0l14.92,4.36a.51.51,0,0,0,.68-.52V7.89a.71.71,0,0,0-.7-.72h-31a.71.71,0,0,0-.7.72v8.87A.5.5,0,0,0,6.86,17.28Zm21.39-7.4a.7.7,0,0,1,.7-.7H33.4a.7.7,0,0,1,.7.7v.94a.7.7,0,0,1-.7.7H28.95a.7.7,0,0,1-.7-.7Zm-8.79,0a.71.71,0,0,1,.7-.7h4.45a.7.7,0,0,1,.7.7v.94a.7.7,0,0,1-.7.7H20.16a.71.71,0,0,1-.7-.7Zm-8.78,0a.7.7,0,0,1,.7-.7h4.45a.7.7,0,0,1,.7.7v.94a.7.7,0,0,1-.7.7H11.38a.7.7,0,0,1-.7-.7Z"/></g></g></svg>