<svg xmlns="http://www.w3.org/2000/svg" viewBox="0 0 80.49 61.89"><defs><style>.cls-1{fill:#fff;}</style></defs><title>Asset 5</title><g id="Layer_2" data-name="Layer 2"><g id="Layer_1-2" data-name="Layer 1"><path class="cls-1" d="M23.11,19H0V32.56H23.11Z"/><path class="cls-1" d="M24.88,32.67H42V19H24.88Z"/><path class="cls-1" d="M31.86,17.13c.64,0,.8-.3.8-.88,0-2.82,0-5.65,0-8.47,0-.65-.19-.93-.88-.93-5.65,0-11.29,0-17.14,0V17a1,1,0,0,0,.27.1Z"/><path class="cls-1" d="M67.59,33.13a16,16,0,0,1,2.53.2l1.18-1.72c1.32-1.9.72-3.84.87-5.94H62.84V14.59h3.25c0-.27.06-.42.09-.57.19-.76-.56-1.86.8-2.2-.1-.21-.14-.54-.3-.6a2.76,2.76,0,0,0-.94-.06H60.2V9.71c0-2.83,0-5.65,0-8.48A3.92,3.92,0,0,0,59.71,0a4.15,4.15,0,0,0-.4,1.17c0,1.63,0,3.26,0,4.9v5.09H56.42c-1.67,0-3.34,0-5,0-.24,0-.47.27-.7.42a3.77,3.77,0,0,0,.72.37,6,6,0,0,0,1,.1c0,.62,0,1.18,0,1.73,0,.25.14.69.26.7.81.1.61.69.61,1.16,0,2.19,0,4.38,0,6.57,0,1.14,0,2.27,0,3.55H49.8a10.83,10.83,0,0,1-1.51,7.42,1.91,1.91,0,0,1-1.88,1.17q-22.4-.05-44.79,0H0a4.34,4.34,0,0,0,.16.58c2.12,4.49,4.22,9,6.39,13.46a1.56,1.56,0,0,0,1.2.6q19.85,0,39.69,0h4.28A15.87,15.87,0,0,1,67.59,33.13Z"/><path class="cls-1" d="M69.65,36.27A12.9,12.9,0,1,0,80.49,49,13,13,0,0,0,69.65,36.27Zm5.11,19.11-.77.77a.46.46,0,0,1-.64.07l-4.59-4.59a5.45,5.45,0,1,1,1.48-1.49l4.59,4.59A.46.46,0,0,1,74.76,55.38Z"/><circle class="cls-1" cx="65.71" cy="47.12" r="3.97"/><path class="cls-1" d="M65.71,51.1a4,4,0,1,1,4-4A4,4,0,0,1,65.71,51.1Z"/></g></g></svg>