<svg xmlns="http://www.w3.org/2000/svg" viewBox="0 0 66 66"><defs><style>.cls-1{fill:#fff;}</style></defs><title>Asset 1</title><g id="Layer_2" data-name="Layer 2"><g id="Layer_1-2" data-name="Layer 1"><path class="cls-1" d="M59.4,26.76V9.9a3.3,3.3,0,0,0-3.3-3.3H46.2V3.3a3.3,3.3,0,1,0-6.6,0V6.6H19.8V3.3a3.3,3.3,0,1,0-6.6,0V6.6H3.3A3.3,3.3,0,0,0,0,9.9V46.2a3.3,3.3,0,0,0,3.3,3.3H20.77A23.09,23.09,0,1,0,59.4,26.76ZM42.9,59.4A16.5,16.5,0,1,1,59.4,42.9,16.52,16.52,0,0,1,42.9,59.4Z"/><path class="cls-1" d="M49.5,39.6H46.2V33a3.3,3.3,0,0,0-6.6,0v9.9a3.3,3.3,0,0,0,3.3,3.3h6.6a3.3,3.3,0,0,0,0-6.6Z"/></g></g></svg>