<svg xmlns="http://www.w3.org/2000/svg" viewBox="0 0 71.94 58.05"><defs><style>.cls-1{fill:#fff;}</style></defs><title>Asset 13</title><g id="Layer_2" data-name="Layer 2"><g id="Layer_1-2" data-name="Layer 1"><circle class="cls-1" cx="32.41" cy="17.86" r="1.86"/><circle class="cls-1" cx="27.35" cy="17.86" r="1.86"/><circle class="cls-1" cx="22.29" cy="17.86" r="1.86"/><path class="cls-1" d="M67.94,14.1H56V4a4,4,0,0,0-4-4H4A4,4,0,0,0,0,4V31.25a4,4,0,0,0,4,4H5V42.1a1.84,1.84,0,0,0,3,1.42l8-6.57v8.4a4,4,0,0,0,4,4h34l10,8.28a1.84,1.84,0,0,0,3-1.42V49.35h1a4,4,0,0,0,4-4V18.1A4,4,0,0,0,67.94,14.1ZM6.8,31.56H4a.31.31,0,0,1-.31-.31V4A.31.31,0,0,1,4,3.69H52a.31.31,0,0,1,.31.31V31.25a.31.31,0,0,1-.31.31H17.33a1.84,1.84,0,0,0-1.17.42l-7.51,6.2V33.4A1.84,1.84,0,0,0,6.8,31.56Z"/></g></g></svg>