<svg xmlns="http://www.w3.org/2000/svg" viewBox="0 0 72.9 66.91"><defs><style>.cls-1{fill:#fff;}</style></defs><title>Asset 17</title><g id="Layer_2" data-name="Layer 2"><g id="Layer_1-2" data-name="Layer 1"><path class="cls-1" d="M36.39,21.86h0a6.28,6.28,0,0,0,4.77-2,7.12,7.12,0,0,0,2-4.77,6.77,6.77,0,1,0-6.77,6.77Zm0-11.76a5.1,5.1,0,0,1,3.66,8.65,5,5,0,0,1-3.55,1.55v0a5.09,5.09,0,0,1-5.1-5.1A4.87,4.87,0,0,1,36.39,10.1Z"/><path class="cls-1" d="M69.68,9.43H47.38L47,8.77l1.78-2.55L45.16,2.55,42.61,4.33A10.67,10.67,0,0,0,39.5,3.11L38.95,0H33.73l-.55,3.11a15.42,15.42,0,0,0-3.11,1.33L27.41,2.66,23.75,6.32l1.78,2.55c-.11.22-.11.33-.22.55H3.11A3.1,3.1,0,0,0,0,12.54V55.81a3.1,3.1,0,0,0,3.11,3.11H27.18L23,65.24H18.53v1.66H54.37V65.24H49.93l-4.22-6.32H69.79a3.1,3.1,0,0,0,3.11-3.11V12.54A3.36,3.36,0,0,0,69.68,9.43ZM27.63,4.77,30,6.44l.44-.33A14.39,14.39,0,0,1,34,4.55l.55-.11.55-2.77H37.5l.55,2.77.55.11A10,10,0,0,1,42.16,6l.44.33,2.33-1.66L46.6,6.32,44.94,8.65l.33.44a11.18,11.18,0,0,1,1.55,3.55l.11.55,2.77.55V16.2l-2.77.55v.55a10,10,0,0,1-1.44,3.55l-.33.44,1.66,2.33L45.16,25.3l-2.33-1.66-.44.33a14.39,14.39,0,0,1-3.55,1.55l-.55.11-.55,2.77H35.28l-.55-2.66-.55-.11a10.89,10.89,0,0,1-3.55-1.44L30.18,24l-2.33,1.66L26.19,24l1.66-2.33-.33-.44A14.39,14.39,0,0,1,26,17.64l-.11-.55-2.77-.55V14.09l2.77-.55L26,13a10.89,10.89,0,0,1,1.44-3.55L27.74,9,26.08,6.66ZM3.11,11.1H24.63a7.65,7.65,0,0,1-.33.89l-3.11.55v5.22l3.11.55a15.42,15.42,0,0,0,1.33,3.11l-1.78,2.66,3.66,3.66L30.07,26a15.42,15.42,0,0,0,3.11,1.33l.55,3.11h5.22l.55-3.11A15.42,15.42,0,0,0,42.61,26l2.66,1.78,3.66-3.66-1.78-2.55a15.42,15.42,0,0,0,1.33-3.11l3.11-.55V12.65l-3.11-.55a2.06,2.06,0,0,1-.22-.78H69.79a1.47,1.47,0,0,1,1.44,1.44V51.15H1.78V12.54A1.38,1.38,0,0,1,3.11,11.1Zm44.72,54H25l4.22-6.32H43.61Zm21.86-8H3.11A1.47,1.47,0,0,1,1.66,55.7V52.48H71V55.7A1.26,1.26,0,0,1,69.68,57.14Z"/><path class="cls-1" d="M17.53,39.61l-1.44,1.78H11.87l.55,1.22a7.13,7.13,0,0,0,6.44,4.11,7,7,0,0,0,6-3.33H48.38a7.28,7.28,0,0,0,6,3.33,7.06,7.06,0,0,0,6.44-4.11l.55-1.22H57.14L55.7,39.61l1.44-1.78h4.33l-.55-1.22a7,7,0,0,0-12.43-.89H24.63a7.28,7.28,0,0,0-6-3.33,7,7,0,0,0-6.44,4.22l-.55,1.22H16Zm1.11-5.44a5.47,5.47,0,0,1,4.77,2.88l.22.44H49.15l.22-.44a5.47,5.47,0,0,1,4.77-2.88,5.26,5.26,0,0,1,4.22,2.11H56l-2.88,3.44L56,43.16h2.22A5.33,5.33,0,0,1,54.15,45a5.47,5.47,0,0,1-4.77-2.88l-.22-.44H23.63l-.22.44A5.47,5.47,0,0,1,18.64,45a5.33,5.33,0,0,1-4.11-1.89h2.22l2.88-3.44-2.88-3.55H14.42A5.49,5.49,0,0,1,18.64,34.18Z"/></g></g></svg>