<svg xmlns="http://www.w3.org/2000/svg" viewBox="0 0 68.74 69.14"><defs><style>.cls-1{fill:#fff;}</style></defs><title>Asset 14</title><g id="Layer_2" data-name="Layer 2"><g id="Task_schecular" data-name="Task schecular"><rect class="cls-1" x="23.03" y="28.73" width="6.66" height="6.66"/><rect class="cls-1" x="23.03" y="38.96" width="6.66" height="6.66"/><rect class="cls-1" x="23.03" y="49.2" width="6.66" height="6.66"/><rect class="cls-1" x="11.07" y="38.96" width="6.66" height="6.66"/><rect class="cls-1" x="11.07" y="49.2" width="6.66" height="6.66"/><path class="cls-1" d="M20.53,9.19a4.75,4.75,0,0,1-4.75,4.75h0A4.75,4.75,0,0,1,11,9.19V4.75A4.75,4.75,0,0,1,15.78,0h0a4.75,4.75,0,0,1,4.75,4.75Z"/><path class="cls-1" d="M53,9.19a4.74,4.74,0,0,1-4.75,4.75h0a4.75,4.75,0,0,1-4.75-4.75V4.75A4.75,4.75,0,0,1,48.21,0h0A4.74,4.74,0,0,1,53,4.75V9.19Z"/><path class="cls-1" d="M51,69.14A17.78,17.78,0,1,1,68.74,51.36,17.79,17.79,0,0,1,51,69.14ZM51,38A13.36,13.36,0,1,0,64.32,51.36,13.36,13.36,0,0,0,51,38Z"/><path class="cls-1" d="M51.17,53.39a1.47,1.47,0,0,1-2-.65h0a1.48,1.48,0,0,1,.65-2l9.56-4.82a1.48,1.48,0,0,1,2,.65h0a1.47,1.47,0,0,1-.66,2Z"/><path class="cls-1" d="M48.42,51.78a2.29,2.29,0,1,1,2.1,2.47A2.29,2.29,0,0,1,48.42,51.78Z"/><path class="cls-1" d="M51,31a20.64,20.64,0,0,1,2.6.18V28.73H46.94v2.64A20.45,20.45,0,0,1,51,31Z"/><path class="cls-1" d="M41.64,33.26V28.73H35v6.66h3.38A20.33,20.33,0,0,1,41.64,33.26Z"/><path class="cls-1" d="M34,62.53h0a20.46,20.46,0,0,1-1.13-2h-28V24H59.12v8.62h0a20.25,20.25,0,0,1,2.32,1.21l.41.25A20.49,20.49,0,0,1,64,35.66V8.26H55.47v.93a7.26,7.26,0,1,1-14.53,0V8.26H23v.93a7.26,7.26,0,1,1-14.52,0V8.26H0v56.1H35.32A20.79,20.79,0,0,1,34,62.53Z"/></g></g></svg>