<svg xmlns="http://www.w3.org/2000/svg" viewBox="0 0 59.62 70.08"><defs><style>.cls-1{fill:#fff;}</style></defs><title>Asset 11</title><g id="Layer_2" data-name="Layer 2"><g id="Task_settings" data-name="Task settings"><path class="cls-1" d="M10.19,8.92V2.87a2.87,2.87,0,0,0-5.74,0V8.92Z"/><path class="cls-1" d="M4.46,31.85V67.21a2.87,2.87,0,0,0,5.74,0V31.85Z"/><path class="cls-1" d="M14.65,26.11a2.56,2.56,0,0,1-2.56,2.56H2.56A2.56,2.56,0,0,1,0,26.11V15.3a2.56,2.56,0,0,1,2.56-2.56h9.53a2.56,2.56,0,0,1,2.56,2.56Z"/><path class="cls-1" d="M33.33,37.68V2.87a3.08,3.08,0,0,0-6.15,0V37.68Z"/><path class="cls-1" d="M26.62,59.47v7.74a3,3,0,0,0,6,0V59.47Z"/><path class="cls-1" d="M36.69,53.76a2.56,2.56,0,0,1-2.56,2.56H24.59A2.56,2.56,0,0,1,22,53.76V43a2.56,2.56,0,0,1,2.56-2.56h9.53A2.56,2.56,0,0,1,36.69,43Z"/><path class="cls-1" d="M56.19,21.85v-19a3.08,3.08,0,0,0-6.15,0v19Z"/><path class="cls-1" d="M50,44.71v22.5a3.08,3.08,0,0,0,6.15,0V44.71Z"/><path class="cls-1" d="M59.62,38a2.56,2.56,0,0,1-2.56,2.56H47.53A2.56,2.56,0,0,1,45,38V27.19a2.56,2.56,0,0,1,2.56-2.56h9.53a2.56,2.56,0,0,1,2.56,2.56Z"/></g></g></svg>