<svg xmlns="http://www.w3.org/2000/svg" viewBox="0 0 63.49 69.5"><defs><style>.cls-1{fill:#fff;}</style></defs><title>Asset 6</title><g id="Layer_2" data-name="Layer 2"><g id="Layer_1-2" data-name="Layer 1"><rect class="cls-1" x="19.77" y="20.97" width="22.17" height="4.79"/><rect class="cls-1" x="11.98" y="20.97" width="4.79" height="4.79"/><polygon class="cls-1" points="16.78 31.16 11.98 28.76 11.98 33.55 16.78 31.16"/><rect class="cls-1" x="19.77" y="28.76" width="22.17" height="4.79"/><rect class="cls-1" x="19.77" y="36.55" width="22.17" height="4.79"/><rect class="cls-1" x="11.98" y="36.55" width="4.79" height="4.79"/><rect class="cls-1" x="19.77" y="44.34" width="22.17" height="4.79"/><rect class="cls-1" x="11.98" y="44.34" width="4.79" height="4.79"/><rect class="cls-1" x="19.77" y="52.13" width="22.17" height="4.79"/><rect class="cls-1" x="11.98" y="52.13" width="4.79" height="4.79"/><path class="cls-1" d="M53.92,14.72V6H33.17a5.82,5.82,0,0,0-6-6,5.82,5.82,0,0,0-6,6H0V69.5H53.92V33.89a9.59,9.59,0,0,0,0-19.17ZM27.18,4a1.5,1.5,0,1,1-1.5,1.5A1.5,1.5,0,0,1,27.18,4ZM47.93,16.81a9.57,9.57,0,0,0,0,15V63.51H6V15H47.93Zm10,13.07-5.19-5.2V19.77h1.8v4.16l4.67,4.67Z"/></g></g></svg>