<svg xmlns="http://www.w3.org/2000/svg" viewBox="0 0 54.86 71"><defs><style>.cls-1{fill:#fff;}</style></defs><title>Asset 18</title><g id="Layer_2" data-name="Layer 2"><g id="Layer_1-2" data-name="Layer 1"><path class="cls-1" d="M27.43,0a8,8,0,0,0-7.29,4.84H14.52a1.68,1.68,0,0,0-1.61,1.61V8.07H1.61A1.69,1.69,0,0,0,0,9.68v59.7A1.68,1.68,0,0,0,1.61,71H53.25a1.68,1.68,0,0,0,1.61-1.61V9.68a1.68,1.68,0,0,0-1.61-1.61H42V6.45a1.68,1.68,0,0,0-1.61-1.61H34.72A8,8,0,0,0,27.43,0Zm0,3.23a4.79,4.79,0,0,1,4.69,3.61,1.66,1.66,0,0,0,1.56,1.24h5v4.84H16.14V8.07h5a1.66,1.66,0,0,0,1.56-1.24A4.79,4.79,0,0,1,27.43,3.23ZM3.23,11.3h9.68v3.23a1.68,1.68,0,0,0,1.61,1.61H40.34A1.68,1.68,0,0,0,42,14.52V11.3h9.68V67.77H3.23V11.3ZM25.39,25a1.61,1.61,0,0,0-1.54,1.16L23,29c-.38.14-.75.31-1.11.48L19.39,28a1.66,1.66,0,0,0-1.94.25L14.6,31.16a1.66,1.66,0,0,0-.28,1.92l1.41,2.52c-.18.38-.33.76-.48,1.16l-2.8.78a1.66,1.66,0,0,0-1.16,1.56v4.06a1.66,1.66,0,0,0,1.16,1.56l2.8.81c.14.39.3.77.48,1.13l-1.41,2.52a1.66,1.66,0,0,0,.28,1.92L17.45,54a1.66,1.66,0,0,0,1.94.28l2.52-1.41c.37.18.76.34,1.16.48l.78,2.77a1.66,1.66,0,0,0,1.54,1.19h4.08A1.66,1.66,0,0,0,31,56.1l.78-2.77c.4-.14.79-.3,1.16-.48l2.52,1.41A1.66,1.66,0,0,0,37.42,54l2.85-2.87a1.66,1.66,0,0,0,.28-1.92l-1.41-2.52c.18-.37.34-.75.48-1.13l2.8-.81a1.66,1.66,0,0,0,1.16-1.56V39.11a1.66,1.66,0,0,0-1.16-1.56l-2.8-.78c-.14-.4-.3-.78-.48-1.16l1.41-2.52a1.66,1.66,0,0,0-.28-1.92l-2.85-2.87A1.66,1.66,0,0,0,35.47,28l-2.55,1.41c-.36-.17-.73-.34-1.11-.48L31,26.17A1.66,1.66,0,0,0,29.47,25H25.39Zm1.24,3.23h1.61l.68,2.34A1.64,1.64,0,0,0,30,31.69a9.88,9.88,0,0,1,2.24.93,1.64,1.64,0,0,0,1.56,0L36,31.44l1.16,1.13-1.21,2.14a1.65,1.65,0,0,0,0,1.59,9.69,9.69,0,0,1,.93,2.22A1.65,1.65,0,0,0,38,39.66l2.35.68V42L38,42.61a1.65,1.65,0,0,0-1.11,1.13A9.68,9.68,0,0,1,36,46a1.65,1.65,0,0,0,0,1.59l1.21,2.14L36,50.83l-2.14-1.19a1.64,1.64,0,0,0-1.56,0,9.87,9.87,0,0,1-2.24.93,1.64,1.64,0,0,0-1.11,1.11l-.68,2.37H26.63l-.68-2.37a1.64,1.64,0,0,0-1.11-1.11,9.87,9.87,0,0,1-2.24-.93,1.64,1.64,0,0,0-1.56,0l-2.14,1.19L17.72,49.7l1.21-2.14a1.65,1.65,0,0,0,0-1.59A9.69,9.69,0,0,1,18,43.74a1.65,1.65,0,0,0-1.11-1.13L14.52,42V40.34l2.34-.68A1.65,1.65,0,0,0,18,38.53a9.69,9.69,0,0,1,.93-2.22,1.64,1.64,0,0,0,0-1.59l-1.21-2.14,1.16-1.13L21,32.63a1.64,1.64,0,0,0,1.56,0,9.88,9.88,0,0,1,2.24-.93,1.64,1.64,0,0,0,1.11-1.11l.68-2.34Zm.81,6.45a6.45,6.45,0,1,0,6.45,6.45A6.48,6.48,0,0,0,27.43,34.69Zm0,3.23a3.23,3.23,0,1,1-3.23,3.23A3.2,3.2,0,0,1,27.43,37.92Z"/></g></g></svg>