<svg xmlns="http://www.w3.org/2000/svg" viewBox="0 0 66.9 70.36"><defs><style>.cls-1{fill:#fff;}</style></defs><title>Asset 8</title><g id="Layer_2" data-name="Layer 2"><g id="Layer_1-2" data-name="Layer 1"><path class="cls-1" d="M49.2,26.26c-1,3.6-2,4.7-2.7,4.7a16,16,0,0,1-1.9,5.1v5.6l-11.1,6-11.1-5.9v-5.6A16.48,16.48,0,0,1,20.5,31c-.7-.1-1.7-1.1-2.7-4.7-1.4-5,.1-5.7,1.4-5.6a19.45,19.45,0,0,1-.5-2h0a13.4,13.4,0,0,1,0-6.6,13.45,13.45,0,0,1,3.8-6.7A23.41,23.41,0,0,1,26,2.46,18.29,18.29,0,0,1,29.4.66h0a15.47,15.47,0,0,1,3.1-.6,13.09,13.09,0,0,1,7.9,1.7,9,9,0,0,1,3.8,3.6s6.4.5,4.2,13.4a11.7,11.7,0,0,1-.5,2C49.1,20.56,50.6,21.26,49.2,26.26ZM28.1,70.36H0V61a6.55,6.55,0,0,1,2.4-5.1,111.4,111.4,0,0,1,19.3-12.5Zm17.2-27a120.25,120.25,0,0,1,19.2,12.4,6.71,6.71,0,0,1,2.4,5.1v9.4H38.8Zm-16.1,9.7,4.3-5.5,4.3,5.5-2.3,3.6,3.3,13.6H28l3.3-13.6Z"/></g></g></svg>