<svg xmlns="http://www.w3.org/2000/svg" viewBox="0 0 64.66 70.34"><defs><style>.cls-1{fill:#fff;}</style></defs><title>Asset 1</title><g id="Layer_2" data-name="Layer 2"><g id="Layer_1-2" data-name="Layer 1"><path class="cls-1" d="M62.44,23.64H2.22a1.81,1.81,0,0,0-2,1.62V63.15c0,4,3.89,7.19,8.68,7.19H55.71c4.79,0,8.68-3.23,8.68-7.19V25.26A1.81,1.81,0,0,0,62.44,23.64Zm-2,39.5c0,2.18-2.14,4-4.77,4H8.95c-2.63,0-4.77-1.77-4.77-4V26.88H60.49V63.15Z"/><path class="cls-1" d="M2.22,21.47H62.44a2.05,2.05,0,0,0,2.22-1.84V10.74A2.05,2.05,0,0,0,62.44,8.9H53.3V4.08C53.3,1.83,51.09,0,48.37,0s-4.93,1.83-4.93,4.08V8.9H21.21V4.08C21.21,1.83,19,0,16.28,0s-4.94,1.83-4.94,4.08V8.9H2.22A2.05,2.05,0,0,0,0,10.74v8.89A2.05,2.05,0,0,0,2.22,21.47ZM47.42,4.08a1,1,0,0,1,1.91,0V12a1,1,0,0,1-1.91,0Zm-32.1,0a1,1,0,0,1,1.91,0V12a1,1,0,0,1-1.91,0ZM4.44,12.58h7c.34,2,2.4,3.49,4.88,3.49s4.53-1.52,4.87-3.49H43.5c.34,2,2.4,3.49,4.87,3.49s4.53-1.52,4.87-3.49h7v5.21H4.44Z"/><path class="cls-1" d="M27.52,58.68c2.54,2.49,7,.83,8.1-1.77a67.81,67.81,0,0,1,10.62-17c3.58-4.26-4.83-8.28-8.37-4.06a74.56,74.56,0,0,0-8.25,12c-1-1.16-2-2.33-2.91-3.53-3.37-4.34-11.77-.31-8.37,4.06A102.11,102.11,0,0,0,27.52,58.68Z"/></g></g></svg>