<svg xmlns="http://www.w3.org/2000/svg" viewBox="0 0 73.53 76"><defs><style>.cls-1{fill:#fff;}</style></defs><title>Asset 3</title><g id="Layer_2" data-name="Layer 2"><g id="Layer_1-2" data-name="Layer 1"><path class="cls-1" d="M54.69,41.58v8.18L67.55,66.14A3,3,0,0,1,63,70l-.14-.18L54.69,59.36v9.14a3,3,0,0,1-5.92,0V59.36L40.56,69.8a3,3,0,1,1-4.8-3.48l.14-.18L48.76,49.77V41.58H34.47A4.56,4.56,0,0,1,29.91,37h0v0h.2a7.81,7.81,0,0,0,4.81-1.67l9.92-7.8a7.78,7.78,0,0,0-9.63-12.22l-5,3.92-.32-.26V5.16A4.56,4.56,0,0,1,34.47.6H69a4.56,4.56,0,0,1,4.56,4.56V37A4.56,4.56,0,0,1,69,41.58ZM13,14.91A7.45,7.45,0,1,0,5.53,7.45h0A7.45,7.45,0,0,0,13,14.91ZM8.15,76a3.54,3.54,0,0,0,3.54-3.54V51.84a1.34,1.34,0,0,1,1.08-1.35,1.3,1.3,0,0,1,1.55,1.28V72.46a3.54,3.54,0,1,0,7.08,0V26.3L28,31.8a3.33,3.33,0,0,0,4.19,0L42,24.09a3.43,3.43,0,0,0,.89-4.44,3.33,3.33,0,0,0-4.58-1.11l-.33.23-7.8,6.16-7.83-6.47a3.32,3.32,0,0,0-2.12-.78H5.74A5.74,5.74,0,0,0,0,23.42V37.83a5.74,5.74,0,0,0,4.65,5.63v29A3.54,3.54,0,0,0,8.15,76Z"/></g></g></svg>