<svg xmlns="http://www.w3.org/2000/svg" viewBox="0 0 65.97 65.99"><defs><style>.cls-1{fill:#fff;}</style></defs><title>Asset 2</title><g id="Layer_2" data-name="Layer 2"><g id="Layer_1-2" data-name="Layer 1"><path class="cls-1" d="M66,33A33.05,33.05,0,1,1,53.24,7V1.8a1.8,1.8,0,0,1,3.6,0V11a1.81,1.81,0,0,1-1.8,1.8H45.89a1.8,1.8,0,1,1,0-3.6h4.22A29.37,29.37,0,1,0,62.38,33,1.8,1.8,0,0,1,66,33ZM34.79,31.2V9.61a1.8,1.8,0,1,0-3.6,0V33A1.8,1.8,0,0,0,33,34.8H56.36a1.8,1.8,0,1,0,0-3.6ZM31.71,53.32a1.85,1.85,0,0,0-.52,1.28,1.78,1.78,0,0,0,1.8,1.8,1.86,1.86,0,0,0,1.28-.52,1.81,1.81,0,0,0-2.55-2.55ZM10.12,31.73A1.8,1.8,0,0,0,11.4,34.8a1.8,1.8,0,1,0-1.28-3.08Z"/></g></g></svg>