<svg xmlns="http://www.w3.org/2000/svg" viewBox="0 0 63 52.42"><defs><style>.cls-1{fill:#fff;}</style></defs><title>Asset 9</title><g id="Layer_2" data-name="Layer 2"><g id="Layer_1-2" data-name="Layer 1"><path class="cls-1" d="M62.6,38.11C59.93,27.3,42.22,23.44,43,24.32c2.17,2.48,3.55,3.85,3.41,6C46.14,34.58,36,32.38,35.63,41c-.41,8.8,8.85,12.33,16,11.28C59.51,51,64.49,45.82,62.6,38.11Zm-11.5,8H48.56V37.88H51.1Zm-.23-9.76a1.47,1.47,0,1,1,.43-1A1.42,1.42,0,0,1,50.87,36.34Z"/><path class="cls-1" d="M33.54,40.6c.25-5.09,3.57-6.77,6.65-8-2.33-1.19-4.48-2.29-5.84-2.82l-.42-3.2c1.48-1.92,1.69-3.62,2.54-6.39a2.25,2.25,0,0,0,1.27-1.49l.85-4.9a1.57,1.57,0,0,0-.85-1.7c0-7.46-3-12.15-11-12.15s-11,4.69-11,12.15a2.64,2.64,0,0,0-.85,1.7l.85,4.9A2.86,2.86,0,0,0,17,20.24c.64,3,.85,4.47,2.54,6.39l-.42,3.2C16.35,30.9,10.63,34.31,6.19,36,2.37,37.5-.38,39.42,0,43.26A22.42,22.42,0,0,0,1.1,47.52H35.44A10.88,10.88,0,0,1,33.54,40.6Z"/></g></g></svg>