<svg xmlns="http://www.w3.org/2000/svg" viewBox="0 0 63.86 63.87"><defs><style>.cls-1{fill:#fff;}</style></defs><title>Asset 3</title><g id="Layer_2" data-name="Layer 2"><g id="Layer_24" data-name="Layer 24"><path class="cls-1" d="M62.08,46.39H55V30.88a1.77,1.77,0,0,0-1.77-1.77H27.24a1.77,1.77,0,0,0-1.77,1.77V46.39h-5V39.52a1.77,1.77,0,0,0-1.77-1.77h-.31V27.08a1.77,1.77,0,0,0-1.77-1.77H12.79v-9L38.45,4.53V15.15a5.33,5.33,0,1,0,7.1,5,1.77,1.77,0,1,0-3.55,0,1.79,1.79,0,1,1-1.79-1.79A1.77,1.77,0,0,0,42,16.62V1.77A1.77,1.77,0,0,0,39.48.16L10.26,13.54a1.77,1.77,0,0,0-1,1.61V25.31H5.41a1.77,1.77,0,0,0-1.77,1.77V37.74H3.32a1.77,1.77,0,0,0-1.77,1.77v6.9A1.75,1.75,0,0,0,.11,48.78L5.29,62.71A1.78,1.78,0,0,0,7,63.87H52.21a1.76,1.76,0,0,0,1.45-.74L63.54,49.2A1.79,1.79,0,0,0,62.08,46.39ZM46.31,32.65h5.1v5.09H46.32V32.65Zm0,8.65h5.1v5.09H46.32V41.3Zm-8.64-8.65h5.09v5.09H37.67Zm0,8.65h5.09v5.09H37.67ZM29,32.65h5.09v5.09H29Zm0,8.65h5.09v5.09H29ZM7.18,28.87h7.64v8.88H7.18ZM5.08,41.3H16.91v5.09H5.08Zm46.21,19H8.17L4.31,49.94H58.65Z"/></g></g></svg>