<svg xmlns="http://www.w3.org/2000/svg" viewBox="0 0 54 66"><defs><style>.cls-1{fill:#fff;}</style></defs><title>Asset 2</title><g id="Layer_2" data-name="Layer 2"><g id="Layer_24" data-name="Layer 24"><path class="cls-1" d="M37.8,63.5c-4.2,0-8.2-2.6-12.4-2.6S17.2,63.5,13,63.5A20.1,20.1,0,0,1,2.9,60.4C.3,59-1.1,61.5,1,62.7c0,0,4,3.3,12.2,3.3,4.5,0,7.7-2.5,12.2-2.5S33.2,66,37.8,66c7.8,0,12.3-3.3,12.3-3.3,2.1-1.4-.1-3.5-2.2-2.1S44,63.5,37.8,63.5ZM12,18l15-6,15,6V6H12ZM22.5,0a2.9,2.9,0,0,0-3,3h15a2.9,2.9,0,0,0-3-3ZM0,25.2,8.1,59s1.1,1.5,5.6,1.5,7.5-2.3,12.3-2.3,7.6,2.3,12.9,2.3S45.9,59,45.9,59L54,25.2,27,15Z"/></g></g></svg>