<svg xmlns="http://www.w3.org/2000/svg" viewBox="0 0 71.11 72"><defs><style>.cls-1{fill:#fff;}</style></defs><title>Asset 10</title><g id="Layer_2" data-name="Layer 2"><g id="work_flow_config" data-name="work flow config"><rect class="cls-1" x="28.52" y="39.4" width="14.08" height="14.07"/><rect class="cls-1" x="24.49" y="19.08" width="22.14" height="7.51"/><rect class="cls-1" x="53.01" y="39.4" width="14.08" height="14.07"/><rect class="cls-1" x="48.97" y="19.08" width="22.14" height="7.51"/><rect class="cls-1" x="4.03" y="39.4" width="14.08" height="14.07"/><rect class="cls-1" y="19.08" width="22.14" height="7.51"/><rect class="cls-1" x="24.49" width="22.14" height="7.51"/><polygon class="cls-1" points="61.48 24.49 59.32 24.49 59.32 13.32 11.79 13.32 11.79 24.49 9.63 24.49 9.63 11.16 61.48 11.16 61.48 24.49"/><rect class="cls-1" x="34.48" y="4.32" width="2.16" height="20.16"/><polygon class="cls-1" points="61.48 61.94 9.63 61.94 9.63 48.61 11.79 48.61 11.79 59.78 59.32 59.78 59.32 48.61 61.48 48.61 61.48 61.94"/><rect class="cls-1" x="34.48" y="48.61" width="2.16" height="20.16"/><polygon class="cls-1" points="32.4 67.7 35.41 72 38.71 67.7 32.4 67.7"/><rect class="cls-1" x="5.67" y="28.45" width="2.16" height="4.86"/><polygon class="cls-1" points="3.6 33.22 6.61 37.53 9.9 33.22 3.6 33.22"/><rect class="cls-1" x="14.31" y="32.66" width="2.16" height="4.86"/><polygon class="cls-1" points="18.54 32.75 15.53 28.45 12.24 32.75 18.54 32.75"/><rect class="cls-1" x="30.16" y="28.45" width="2.16" height="4.86"/><polygon class="cls-1" points="28.08 33.22 31.09 37.53 34.39 33.22 28.08 33.22"/><rect class="cls-1" x="38.8" y="32.66" width="2.16" height="4.86"/><polygon class="cls-1" points="43.03 32.75 40.02 28.45 36.72 32.75 43.03 32.75"/><rect class="cls-1" x="54.64" y="28.45" width="2.16" height="4.86"/><polygon class="cls-1" points="52.57 33.22 55.58 37.53 58.88 33.22 52.57 33.22"/><rect class="cls-1" x="63.29" y="32.66" width="2.16" height="4.86"/><polygon class="cls-1" points="67.52 32.75 64.51 28.45 61.21 32.75 67.52 32.75"/></g></g></svg>