<svg xmlns="http://www.w3.org/2000/svg" viewBox="0 0 76.22 55.6"><defs><style>.cls-1{fill:#fff;}</style></defs><title>Asset 19</title><g id="Layer_2" data-name="Layer 2"><g id="Layer_1-2" data-name="Layer 1"><path class="cls-1" d="M68.18,23.74H55.76V20.07h4.76A1.07,1.07,0,0,0,61.62,19V12.65a1.07,1.07,0,0,0-1.09-1.09H49.36a1.07,1.07,0,0,0-1.09,1.09V19a1.07,1.07,0,0,0,1.09,1.09h4.76v3.67H41.31a.87.87,0,0,0-.86.86v4h1.72V25.46H54.12v3.12h1.72V25.46H67.4v3.12h1.72v-4A1,1,0,0,0,68.18,23.74Z"/><path class="cls-1" d="M74.42,0H1.8A1.77,1.77,0,0,0,0,1.8V48a1.77,1.77,0,0,0,1.8,1.8h4V46.23H3.59V3.51h69V46.23H46.7v3.59H74.42a1.77,1.77,0,0,0,1.8-1.8V1.8A1.77,1.77,0,0,0,74.42,0Z"/><path class="cls-1" d="M25.15,46.15l-1.09,4.69,3.59-2.58-.47-2.11,1.56-1.72a.15.15,0,0,0,0-.23l-.94-2.26c0-.08-.08-.08-.16-.08H24.76a.27.27,0,0,0-.16.08l-.94,2.26v.23Z"/><path class="cls-1" d="M26.16,17.26A10.46,10.46,0,1,0,36.63,27.72,10.47,10.47,0,0,0,26.16,17.26Zm0,18.51A8.12,8.12,0,0,1,18,27.65a7.87,7.87,0,0,1,.23-2,10.63,10.63,0,0,0,4.61,1.17,6.93,6.93,0,0,0,4.37-1.41c.16-.08,3.75-2.66,6.56-.08a7.4,7.4,0,0,1,.31,2.34A7.87,7.87,0,0,1,26.16,35.77Z"/><path class="cls-1" d="M44.9,55.6V50.84a9.07,9.07,0,0,0-9.06-9.06h-.31L31.32,55.6Z"/><path class="cls-1" d="M20.93,55.6l-4-13.82h-.39A9.07,9.07,0,0,0,7.5,50.84V55.6Z"/></g></g></svg>