<svg xmlns="http://www.w3.org/2000/svg" viewBox="0 0 302.3 58.4"><defs><style>.cls-1{fill:#34495e;}.cls-2{fill:#606060;}.cls-3{fill:#390;}.cls-4,.cls-5{fill:#fff;}.cls-5{font-size:40px;font-family:SourceSansPro-Semibold, Source Sans Pro;font-weight:700;}</style></defs><title>Asset 9</title><g id="Layer_2" data-name="Layer 2"><g id="Layer_1-2" data-name="Layer 1"><path class="cls-1" d="M291.7,45.2a13.41,13.41,0,0,1-13.6,13.2H13.6A13.41,13.41,0,0,1,0,45.2v-32A13.41,13.41,0,0,1,13.6,0H278a13.41,13.41,0,0,1,13.6,13.2l.1,32Z"/><polygon class="cls-2" points="289.4 11.4 289.4 52.6 302.3 45.7 302.3 11.4 289.4 11.4"/><path class="cls-3" d="M302.3,11.2H270.7a17.1,17.1,0,1,0,0,34.2h31.6Z"/><path class="cls-4" d="M22.3,31.4H15.61L13.85,37H11.47l6.22-18.37h2.63L26.53,37H24.07Zm-.59-1.88-.87-2.8c-.64-2-1.23-4.06-1.82-6.19h-.11c-.59,2.13-1.18,4.14-1.82,6.19l-.9,2.8Z"/><path class="cls-4" d="M33.75,23.06a5.61,5.61,0,0,1,3.81,1.57l-.11-2.32V17.06h2.32V37h-1.9l-.2-1.6h-.08a6.14,6.14,0,0,1-4.12,1.93c-3.42,0-5.63-2.58-5.63-7.11S30.65,23.06,33.75,23.06ZM34,35.4a4.61,4.61,0,0,0,3.47-1.88V26.42A4.73,4.73,0,0,0,34.15,25c-2.18,0-3.92,2.1-3.92,5.21S31.6,35.4,34,35.4Z"/><path class="cls-4" d="M47.75,23.06a5.61,5.61,0,0,1,3.81,1.57l-.11-2.32V17.06h2.32V37h-1.9l-.2-1.6h-.08a6.14,6.14,0,0,1-4.12,1.93c-3.42,0-5.63-2.58-5.63-7.11S44.65,23.06,47.75,23.06ZM48,35.4a4.61,4.61,0,0,0,3.47-1.88V26.42A4.73,4.73,0,0,0,48.15,25c-2.18,0-3.92,2.1-3.92,5.21S45.6,35.4,48,35.4Z"/><path class="cls-4" d="M70.3,18.3a6.78,6.78,0,0,1,5,2.27L74,22a4.91,4.91,0,0,0-3.67-1.71c-3.5,0-5.82,2.86-5.82,7.42s2.21,7.53,5.71,7.53a5.36,5.36,0,0,0,4.2-2l1.32,1.43a7,7,0,0,1-5.57,2.66c-4.62,0-8.06-3.53-8.06-9.52S65.6,18.3,70.3,18.3Z"/><path class="cls-4" d="M78.87,23.39h1.9l.2,2.46h.08a4.65,4.65,0,0,1,3.86-2.8,3.38,3.38,0,0,1,1.46.28l-.45,2a3.8,3.8,0,0,0-1.32-.22c-1.15,0-2.52.84-3.44,3.14V37h-2.3Z"/><path class="cls-4" d="M93.4,23.06c3.47,0,5.43,2.49,5.43,6.38a8.16,8.16,0,0,1-.08,1.26H89.57c.17,2.94,1.93,4.79,4.54,4.79a6.14,6.14,0,0,0,3.39-1.06l.81,1.51a8.1,8.1,0,0,1-4.48,1.4c-3.64,0-6.52-2.66-6.52-7.11S90.29,23.06,93.4,23.06Zm3.42,6.13c0-2.77-1.23-4.31-3.36-4.31-1.9,0-3.64,1.57-3.92,4.31Z"/><path class="cls-4" d="M100.71,23.39h2.35l2,7.87c.31,1.29.56,2.52.81,3.78H106c.31-1.26.59-2.52.92-3.78l2.1-7.87h2.24l2.13,7.87c.34,1.29.64,2.52,1,3.78h.11c.31-1.26.56-2.49.84-3.78l2-7.87h2.18L115.83,37H113l-2-7.31c-.34-1.29-.59-2.55-.92-3.92H110c-.31,1.37-.59,2.66-1,3.95L107.18,37h-2.69Z"/><path class="cls-4" d="M128.23,18.63h2.35v7.7h8.54v-7.7h2.32V37h-2.32V28.35h-8.54V37h-2.35Z"/><path class="cls-4" d="M151.3,23.06c3.47,0,5.43,2.49,5.43,6.38a8.16,8.16,0,0,1-.08,1.26h-9.18c.17,2.94,1.93,4.79,4.54,4.79a6.14,6.14,0,0,0,3.39-1.06l.81,1.51a8.1,8.1,0,0,1-4.48,1.4c-3.64,0-6.52-2.66-6.52-7.11S148.2,23.06,151.3,23.06Zm3.42,6.13c0-2.77-1.23-4.31-3.36-4.31-1.9,0-3.64,1.57-3.92,4.31Z"/><path class="cls-4" d="M167.4,28.38c0-1.74-.59-3.42-2.8-3.42a7.32,7.32,0,0,0-4.06,1.46l-.92-1.6A10.1,10.1,0,0,1,165,23.06c3.33,0,4.73,2.21,4.73,5.6V37h-1.9l-.2-1.62h-.06a7.39,7.39,0,0,1-4.51,2,3.71,3.71,0,0,1-4-3.86C159,30.5,161.61,29,167.4,28.38Zm-3.72,7.11a5.58,5.58,0,0,0,3.72-1.82V29.89c-4.56.56-6.1,1.68-6.1,3.42A2.09,2.09,0,0,0,163.68,35.49Z"/><path class="cls-4" d="M174,17.06h2.3V34.42c0,.73.31,1,.64,1a1.94,1.94,0,0,0,.5-.06l.31,1.74a3.1,3.1,0,0,1-1.32.22c-1.74,0-2.44-1.09-2.44-3.08Z"/><path class="cls-4" d="M181.57,25.27h-2V23.53l2.13-.14.28-3.81h1.93v3.81h3.67v1.88H183.9v7.56c0,1.68.53,2.63,2.1,2.63a5,5,0,0,0,1.54-.36l.45,1.74a8.4,8.4,0,0,1-2.52.5c-2.91,0-3.89-1.85-3.89-4.54Z"/><path class="cls-4" d="M190.64,17.06h2.3V22.5l-.08,2.8a6.51,6.51,0,0,1,4.54-2.24c2.86,0,4.14,1.85,4.14,5.32V37h-2.3V28.68c0-2.55-.78-3.64-2.58-3.64-1.4,0-2.35.73-3.72,2.1V37h-2.3Z"/><path class="cls-4" d="M211.53,17.06h2.3V34.42c0,.73.31,1,.64,1a1.94,1.94,0,0,0,.5-.06l.31,1.74a3.1,3.1,0,0,1-1.32.22c-1.74,0-2.44-1.09-2.44-3.08Z"/><path class="cls-4" d="M224,23.06c3.33,0,6.3,2.6,6.3,7.17s-3,7.11-6.3,7.11-6.3-2.6-6.3-7.11S220.63,23.06,224,23.06Zm0,12.38c2.35,0,3.92-2.1,3.92-5.21S226.32,25,224,25,220,27.09,220,30.22,221.64,35.43,224,35.43Z"/><path class="cls-4" d="M234.8,36.52v-.11a2.51,2.51,0,0,1-1.2-2.21,3.19,3.19,0,0,1,1.48-2.52v-.11a4.8,4.8,0,0,1,3.36-8.51,5.44,5.44,0,0,1,1.93.34h4.73v1.76h-2.8a4,4,0,0,1,1.12,2.8,4.67,4.67,0,0,1-5,4.73,4.76,4.76,0,0,1-2-.48,2.06,2.06,0,0,0-.87,1.62c0,.87.56,1.48,2.41,1.48h2.63c3.16,0,4.76,1,4.76,3.25,0,2.52-2.66,4.7-6.89,4.7-3.33,0-5.63-1.32-5.63-3.67A3.93,3.93,0,0,1,234.8,36.52Zm4,5.15c2.6,0,4.31-1.34,4.31-2.77,0-1.26-1-1.68-2.74-1.68H238a6.63,6.63,0,0,1-1.76-.22,2.87,2.87,0,0,0-1.4,2.3C234.83,40.75,236.31,41.68,238.77,41.68Zm2.55-13.78a2.9,2.9,0,1,0-5.77,0,2.9,2.9,0,1,0,5.77,0Z"/><text class="cls-5" transform="translate(261.47 41.27)">+</text></g></g></svg>