<?xml version="1.0" encoding="utf-8"?>
<!-- Generator: Adobe Illustrator 21.0.0, SVG Export Plug-In . SVG Version: 6.00 Build 0)  -->
<svg version="1.1" id="Layer_1" xmlns="http://www.w3.org/2000/svg" xmlns:xlink="http://www.w3.org/1999/xlink" x="0px" y="0px"
	 viewBox="0 0 185 62" style="enable-background:new 0 0 185 62;" xml:space="preserve">
<style type="text/css">
	.st0{fill:#CCCCCC;}
	.st1{fill:#606060;}
	.st2{fill:#F4A519;}
	.st3{fill:#FFFFFF;}
</style>
<path class="st0" d="M174.4,46.9c0,7.3-5.9,13.2-13.2,13.2H13.4c-7.3,0-13.2-5.9-13.2-13.2v-32c0-7.3,5.9-13.2,13.2-13.2h147.7
	c7.3,0,13.2,5.9,13.2,13.2v32H174.4z"/>
<polygon class="st1" points="172.1,13.2 172.1,54.4 185,47.5 185,13.2 "/>
<path class="st2" d="M185,13h-31.6c-9.5,0-17.1,7.7-17.1,17.1c0,9.5,7.7,17.1,17.1,17.1H185V13z"/>
<rect x="158.4" y="29.2" class="st3" width="12.7" height="2.1"/>
<rect x="163.7" y="23.9" class="st3" width="2.1" height="12.7"/>
<g>
	<path class="st3" d="M175.7,29.9c0,6.2-5,11.2-11.2,11.2s-11.2-5-11.2-11.2s5-11.2,11.2-11.2C170.6,18.8,175.7,23.8,175.7,29.9
		 M177.6,29.9c0-7.3-5.9-13.1-13.1-13.1c-7.3,0-13.1,5.9-13.1,13.1S157.3,43,164.5,43C171.7,43.1,177.6,37.2,177.6,29.9L177.6,29.9z
		"/>
</g>
<g>
	<g>
		<path d="M58,33.7h-6.9l-1.8,5.8h-2.5l6.4-18.9H56l6.4,18.9h-2.6L58,33.7z M57.4,31.8l-0.9-2.9c-0.6-2.1-1.3-4.2-1.8-6.4h-0.1
			c-0.6,2.2-1.2,4.2-1.8,6.4l-1,2.9H57.4z"/>
		<path d="M69.8,25.2c1.6,0,2.6,0.6,3.9,1.6l-0.1-2.4V19H76v20.5h-1.9l-0.3-1.6h-0.1c-1.1,1-2.6,2-4.2,2c-3.5,0-5.8-2.6-5.8-7.3
			C63.7,28,66.6,25.2,69.8,25.2z M70,37.9c1.3,0,2.4-0.6,3.6-1.9v-7.3c-1.2-1-2.2-1.4-3.4-1.4c-2.2,0-4,2.2-4,5.4
			C66.1,35.8,67.6,37.9,70,37.9z"/>
		<path d="M85.7,25.2c1.6,0,2.6,0.6,3.9,1.6l-0.1-2.4V19H92v20.5H90l-0.2-1.7h-0.1c-1.1,1-2.6,2-4.2,2c-3.5,0-5.8-2.6-5.8-7.3
			C79.6,28,82.5,25.2,85.7,25.2z M86,37.9c1.3,0,2.4-0.6,3.6-1.9v-7.3c-1.2-1-2.2-1.4-3.4-1.4c-2.2,0-4,2.2-4,5.4
			C82.1,35.8,83.6,37.9,86,37.9z"/>
	</g>
</g>
</svg>
