<?xml version="1.0" encoding="utf-8"?>
<!-- Generator: Adobe Illustrator 21.0.0, SVG Export Plug-In . SVG Version: 6.00 Build 0)  -->
<svg version="1.1" id="Layer_1" xmlns="http://www.w3.org/2000/svg" xmlns:xlink="http://www.w3.org/1999/xlink" x="0px" y="0px"
	 viewBox="0 0 283 62" style="enable-background:new 0 0 283 62;" xml:space="preserve">
<style type="text/css">
	.st0{fill:#CCCCCC;}
	.st1{fill:#606060;}
	.st2{fill:#5C81EA;}
	.st3{fill:#FFFFFF;}
</style>
<path class="st0" d="M262.4,47c0,7.3-6.1,13.2-13.6,13.2H25.3c-7.5,0-13.6-5.9-13.6-13.2V15c0-7.3,6.1-13.2,13.6-13.2h223.4
	c7.5,0,13.6,5.9,13.6,13.2v32H262.4z"/>
<polygon class="st1" points="260.1,13.2 260.1,54.4 273,47.5 273,13.2 "/>
<path class="st2" d="M273,13h-31.6c-9.5,0-17.1,7.7-17.1,17.1c0,9.5,7.7,17.1,17.1,17.1H273V13z"/>
<g>
	<path d="M37.9,34.5h-6l-1.6,5h-2.1L33.7,23h2.4l5.6,16.5h-2.2L37.9,34.5z M37.3,32.8l-0.8-2.5c-0.6-1.8-1.1-3.7-1.6-5.6h-0.1
		c-0.5,1.9-1.1,3.7-1.6,5.6l-0.8,2.5H37.3z"/>
	<path d="M47.2,27c1.4,0,2.3,0.5,3.4,1.4l-0.1-2.1v-4.7h2.1v17.9h-1.7l-0.2-1.4h-0.1c-1,0.9-2.3,1.7-3.7,1.7c-3.1,0-5.1-2.3-5.1-6.4
		C41.8,29.4,44.4,27,47.2,27z M47.4,38.1c1.1,0,2.1-0.6,3.1-1.7V30c-1-0.9-2-1.3-3-1.3c-2,0-3.5,1.9-3.5,4.7
		C44,36.3,45.2,38.1,47.4,38.1z"/>
	<path d="M60.1,27c1.4,0,2.3,0.5,3.4,1.4l-0.1-2.1v-4.7h2.1v17.9h-1.7l-0.2-1.4h-0.1c-1,0.9-2.3,1.7-3.7,1.7c-3.1,0-5.1-2.3-5.1-6.4
		C54.8,29.4,57.3,27,60.1,27z M60.3,38.1c1.1,0,2.1-0.6,3.1-1.7V30c-1-0.9-2-1.3-3-1.3c-2,0-3.5,1.9-3.5,4.7
		C57,36.3,58.2,38.1,60.3,38.1z"/>
	<path d="M72.9,23h9.6v1.8H75v5.6h6.3v1.8H75v7.4h-2.1V23z"/>
	<path d="M88.5,27c3,0,5.7,2.3,5.7,6.5c0,4.1-2.7,6.4-5.7,6.4s-5.7-2.3-5.7-6.4C82.8,29.3,85.5,27,88.5,27z M88.5,38.1
		c2.1,0,3.5-1.9,3.5-4.7s-1.4-4.7-3.5-4.7S85,30.6,85,33.4S86.4,38.1,88.5,38.1z"/>
	<path d="M96.4,21.6h2.1v15.6c0,0.7,0.3,0.9,0.6,0.9c0.1,0,0.2,0,0.5-0.1l0.3,1.6c-0.3,0.1-0.6,0.2-1.2,0.2c-1.6,0-2.2-1-2.2-2.8
		V21.6H96.4z"/>
	<path d="M101.8,21.6h2.1v15.6c0,0.7,0.3,0.9,0.6,0.9c0.1,0,0.2,0,0.5-0.1l0.3,1.6c-0.3,0.1-0.6,0.2-1.2,0.2c-1.6,0-2.2-1-2.2-2.8
		V21.6H101.8z"/>
	<path d="M112,27c3,0,5.7,2.3,5.7,6.5c0,4.1-2.7,6.4-5.7,6.4s-5.7-2.3-5.7-6.4C106.3,29.3,109,27,112,27z M112,38.1
		c2.1,0,3.5-1.9,3.5-4.7s-1.4-4.7-3.5-4.7s-3.5,1.9-3.5,4.7C108.4,36.2,109.9,38.1,112,38.1z"/>
	<path d="M118.3,27.3h2.1l1.8,7.1c0.3,1.2,0.5,2.3,0.7,3.4h0.1c0.3-1.1,0.5-2.3,0.8-3.4l1.9-7.1h2l1.9,7.1c0.3,1.2,0.6,2.3,0.9,3.4
		h0.1c0.3-1.1,0.5-2.2,0.8-3.4l1.8-7.1h2l-3.3,12.3h-2.5l-1.8-6.6c-0.3-1.2-0.5-2.3-0.8-3.5h-0.1c-0.3,1.2-0.5,2.4-0.9,3.6l-1.7,6.6
		h-2.4L118.3,27.3z"/>
	<path d="M141.3,27c3.1,0,4.9,2.2,4.9,5.7c0,0.4,0,0.8-0.1,1.1h-8.3c0.2,2.6,1.7,4.3,4.1,4.3c1.2,0,2.1-0.4,3-1l0.7,1.4
		c-1.1,0.7-2.4,1.3-4,1.3c-3.3,0-5.9-2.4-5.9-6.4C135.8,29.4,138.5,27,141.3,27z M144.4,32.5c0-2.5-1.1-3.9-3-3.9
		c-1.7,0-3.3,1.4-3.5,3.9H144.4z"/>
	<path d="M148.2,27.3h1.7l0.2,2.2h0.1c0.8-1.5,2.1-2.5,3.5-2.5c0.5,0,0.9,0.1,1.3,0.3l-0.4,1.8c-0.4-0.1-0.7-0.2-1.2-0.2
		c-1,0-2.3,0.8-3.1,2.8v7.9h-2.1V27.3z"/>
	<path d="M160.2,23h2.2l6,10.4l1.8,3.4h0.1c-0.1-1.7-0.3-3.5-0.3-5.3V23h2v16.5h-2.2l-6-10.4l-1.8-3.4h-0.1c0.1,1.7,0.3,3.4,0.3,5.2
		v8.6h-2V23z"/>
	<path d="M182.1,31.8c0-1.6-0.5-3.1-2.5-3.1c-1.4,0-2.7,0.7-3.7,1.3l-0.8-1.4c1.1-0.7,2.8-1.6,4.8-1.6c3,0,4.3,2,4.3,5v7.5h-1.7
		l-0.2-1.5h-0.1c-1.2,1-2.5,1.8-4.1,1.8c-2.1,0-3.6-1.3-3.6-3.5C174.6,33.7,176.9,32.3,182.1,31.8z M178.8,38.2
		c1.2,0,2.2-0.6,3.4-1.6v-3.4c-4.1,0.5-5.5,1.5-5.5,3.1C176.7,37.6,177.6,38.2,178.8,38.2z"/>
	<path d="M187.1,27.3h1.7L189,29h0.1c1.1-1.2,2.3-2.1,3.8-2.1c1.9,0,2.9,0.9,3.4,2.3c1.3-1.4,2.5-2.3,4-2.3c2.5,0,3.7,1.7,3.7,4.8
		v7.8h-2V32c0-2.3-0.7-3.3-2.3-3.3c-1,0-1.9,0.6-3.1,1.9v8.9h-2.1V32c0-2.3-0.7-3.3-2.3-3.3c-0.9,0-1.9,0.6-3.1,1.9v8.9H187V27.3
		H187.1z"/>
	<path d="M211.6,27c3.1,0,4.9,2.2,4.9,5.7c0,0.4,0,0.8-0.1,1.1h-8.3c0.2,2.6,1.7,4.3,4.1,4.3c1.2,0,2.1-0.4,3-1l0.7,1.4
		c-1.1,0.7-2.4,1.3-4,1.3c-3.3,0-5.9-2.4-5.9-6.4C206.1,29.4,208.8,27,211.6,27z M214.7,32.5c0-2.5-1.1-3.9-3-3.9
		c-1.7,0-3.3,1.4-3.5,3.9H214.7z"/>
</g>
<g>
	<path class="st3" d="M252.7,35.4h-5.8l1.5-1.5c0.2-0.2,0.2-0.4,0-0.6c-0.2-0.2-0.4-0.2-0.6,0l-2.2,2.2c-0.2,0.2-0.2,0.4,0,0.6
		l2.2,2.2c0.1,0.1,0.2,0.1,0.3,0.1s0.2,0,0.3-0.1c0.2-0.2,0.2-0.4,0-0.6l-1.5-1.5h5.8c0.2,0,0.4-0.2,0.4-0.4
		C253.1,35.6,252.9,35.4,252.7,35.4L252.7,35.4z"/>
	<path class="st3" d="M242.3,29c1.3,0,2.6-0.8,3.6-2.2c0.9-1.3,1.4-2.8,1.4-4.2c0-2.8-2.3-5-5-5c-2.8,0-5,2.3-5,5
		c0,1.4,0.5,2.9,1.4,4.2C239.7,28.2,241,29,242.3,29L242.3,29z M242.3,18.3c2.3,0,4.2,1.9,4.2,4.2c0,1.2-0.5,2.6-1.3,3.7
		c-0.8,1.2-1.9,1.9-2.9,1.9s-2.1-0.7-2.9-1.9c-0.8-1.1-1.3-2.6-1.3-3.7C238.1,20.2,240,18.3,242.3,18.3L242.3,18.3z"/>
	<path class="st3" d="M244.4,38.9L244.4,38.9c0-0.1-0.1-0.1-0.1-0.1c-0.2-0.2-0.4-0.2-0.6,0c-0.2,0.2-0.2,0.4,0,0.6
		c0.1,0.1,0.4,0.2,0.5,0C244.4,39.3,244.5,39.1,244.4,38.9L244.4,38.9L244.4,38.9z"/>
	<path class="st3" d="M249.3,30.5h-0.1c-0.8-1-1.9-1.8-3.1-2.4c-0.2-0.1-0.3,0-0.5,0.1c-1,1-2.1,1.5-3.3,1.5s-2.3-0.5-3.3-1.5
		c-0.1-0.1-0.3-0.2-0.5-0.1c-1.5,0.7-2.7,1.8-3.6,3.2c-0.9,1.4-1.4,3.1-1.4,4.7l0,0c0,0.1,0,0.2,0.1,0.3c2.4,2.1,5.4,3.3,8.6,3.3
		c0.2,0,0.3,0,0.5,0s0.4-0.2,0.4-0.4s-0.2-0.4-0.4-0.4s-0.3,0-0.5,0c-2.9,0-5.7-1.1-7.9-3c0-1.5,0.5-2.9,1.3-4.1
		c0.8-1.2,1.8-2.1,3-2.8c1.1,1,2.4,1.5,3.7,1.5s2.6-0.5,3.7-1.5c0.8,0.4,1.5,1,2.2,1.7c-2.4,0.5-4.2,2.7-4.2,5.2
		c0,2.9,2.4,5.3,5.3,5.3c2.9,0,5.3-2.4,5.3-5.3C254.6,32.8,252.2,30.5,249.3,30.5L249.3,30.5z M249.3,40.3c-2.5,0-4.5-2-4.5-4.5
		s2-4.5,4.5-4.5s4.5,2,4.5,4.5S251.7,40.3,249.3,40.3L249.3,40.3z"/>
</g>
</svg>
