<svg xmlns="http://www.w3.org/2000/svg" viewBox="0 0 184.8 58.4"><defs><style>.cls-1{fill:#34495e;}.cls-2{fill:#606060;}.cls-3{fill:#390;}.cls-4{isolation:isolate;}.cls-5{fill:#fff;}</style></defs><title>Asset 2</title><g id="Layer_2" data-name="Layer 2"><g id="Layer_1-2" data-name="Layer 1"><path class="cls-1" d="M174.2,45.2A13.19,13.19,0,0,1,161,58.4H13.2A13.19,13.19,0,0,1,0,45.22s0,0,0,0v-32A13.19,13.19,0,0,1,13.18,0H160.9a13.19,13.19,0,0,1,13.2,13.18v32Z"/><polygon class="cls-2" points="171.9 11.5 171.9 52.7 184.8 45.8 184.8 11.5 171.9 11.5"/><path class="cls-3" d="M184.8,11.3H153.2a17.1,17.1,0,0,0,0,34.2H184.8Z"/><g class="cls-4"><path class="cls-5" d="M50.86,32.1H44.65L43,37.3H40.8l5.77-17.06H49L54.79,37.3H52.5Zm-.55-1.74-.81-2.6c-.6-1.9-1.14-3.77-1.69-5.75h-.1c-.55,2-1.09,3.85-1.69,5.75l-.83,2.6Z"/><path class="cls-5" d="M59.05,38.37v4.26H56.92v-18h1.77l.18,1.46h.08a6.54,6.54,0,0,1,4-1.77c3.25,0,5,2.52,5,6.45,0,4.29-2.57,6.81-5.46,6.81A5.86,5.86,0,0,1,59,36.16Zm3.09-2.55c2.08,0,3.61-1.9,3.61-5,0-2.78-.94-4.65-3.33-4.65a5.32,5.32,0,0,0-3.38,1.72v6.63A5,5,0,0,0,62.15,35.82Z"/><path class="cls-5" d="M73.48,38.37v4.26H71.35v-18h1.77l.18,1.46h.08a6.54,6.54,0,0,1,4-1.77c3.25,0,5,2.52,5,6.45,0,4.29-2.57,6.81-5.46,6.81a5.86,5.86,0,0,1-3.51-1.46Zm3.09-2.55c2.08,0,3.61-1.9,3.61-5,0-2.78-.94-4.65-3.33-4.65a5.32,5.32,0,0,0-3.38,1.72v6.63A5,5,0,0,0,76.58,35.82Z"/><path class="cls-5" d="M85.78,18.79h2.13V34.91c0,.68.29.94.6.94a1.8,1.8,0,0,0,.47-.05l.29,1.61a2.86,2.86,0,0,1-1.22.21c-1.61,0-2.26-1-2.26-2.86Z"/><path class="cls-5" d="M92.51,41c1.43,0,2.34-1.14,2.86-2.7l.29-.94L90.59,24.66H92.8l2.57,7c.39,1.09.83,2.39,1.22,3.56h.1c.36-1.14.73-2.44,1.07-3.56l2.26-7h2.08L97.35,38.34c-.88,2.5-2.18,4.39-4.73,4.39a4.19,4.19,0,0,1-1.48-.26l.42-1.69A3.72,3.72,0,0,0,92.51,41Z"/></g><path class="cls-5" d="M163.5,19a2.19,2.19,0,0,0-3.08.35h0l-8.56,12.89-3.74-3.74a1.85,1.85,0,0,0-2.79,2.43l.18.18,5.64,5.64a1.92,1.92,0,0,0,2.34.32,2.17,2.17,0,0,0,.82-.63l9.54-14.35a2.19,2.19,0,0,0-.34-3.08Z"/></g></g></svg>