<svg xmlns="http://www.w3.org/2000/svg" viewBox="0 0 190.3 58.4"><defs><style>.cls-1{fill:#ccc;}.cls-2{fill:#606060;}.cls-3{fill:#c00;}.cls-4{fill:#fff;}</style></defs><title>Asset 3</title><g id="Layer_2" data-name="Layer 2"><g id="Layer_1-2" data-name="Layer 1"><path class="cls-1" d="M179.7,45.2a13.41,13.41,0,0,1-13.6,13.2H13.6A13.41,13.41,0,0,1,0,45.2v-32A13.41,13.41,0,0,1,13.6,0H166a13.41,13.41,0,0,1,13.6,13.2l.1,32Z"/><polygon class="cls-2" points="177.4 11.4 177.4 52.6 190.3 45.7 190.3 11.4 177.4 11.4"/><path class="cls-3" d="M190.3,11.2H158.7a17.1,17.1,0,1,0,0,34.2h31.6Z"/><path d="M33.2,32.4l-1.6,5.1H29.4l5.5-16.2h2.5l5.5,16.2H40.7L39,32.4Zm5.3-1.6-1.6-4.7a19.19,19.19,0,0,1-.8-3h0c-.2,1-.5,1.9-.8,2.9l-1.6,4.7h4.8Z"/><path d="M45.2,29.7c0-1.5,0-2.7-.1-3.8H47l.1,2h0a4.62,4.62,0,0,1,4.1-2.3c2.8,0,4.9,2.4,4.9,5.9,0,4.2-2.5,6.2-5.3,6.2a4.27,4.27,0,0,1-3.6-1.8h0v6.3H45.1V29.7Zm2.1,3.1a2.77,2.77,0,0,0,.1.9,3.3,3.3,0,0,0,3.2,2.5c2.2,0,3.5-1.8,3.5-4.5,0-2.3-1.2-4.3-3.5-4.3A3.37,3.37,0,0,0,47.4,30a2.77,2.77,0,0,0-.1.9Z"/><path d="M58.8,29.7c0-1.5,0-2.7-.1-3.8h1.9l.1,2h0a4.62,4.62,0,0,1,4.1-2.3c2.8,0,4.9,2.4,4.9,5.9,0,4.2-2.5,6.2-5.3,6.2a4.27,4.27,0,0,1-3.6-1.8h0v6.3h-2Zm2.1,3.1a2.77,2.77,0,0,0,.1.9,3.3,3.3,0,0,0,3.2,2.5c2.2,0,3.5-1.8,3.5-4.5,0-2.3-1.2-4.3-3.5-4.3A3.37,3.37,0,0,0,61,30a2.77,2.77,0,0,0-.1.9Z"/><path d="M72.5,29.5c0-1.4,0-2.5-.1-3.6h1.8l.1,2.3h.1a3.36,3.36,0,0,1,3.2-2.5,1.27,1.27,0,0,1,.6.1v2c-.2,0-.4-.1-.7-.1a2.91,2.91,0,0,0-2.8,2.7c0,.3-.1.6-.1,1v6.1H72.5Z"/><path d="M90.6,31.6c0,4.3-3,6.2-5.8,6.2-3.1,0-5.6-2.3-5.6-6,0-3.9,2.5-6.2,5.8-6.2S90.6,28,90.6,31.6Zm-9.2.1c0,2.5,1.5,4.5,3.5,4.5s3.5-1.9,3.5-4.5c0-2-1-4.5-3.5-4.5S81.4,29.5,81.4,31.7Z"/><path d="M93.9,25.9l2.3,6.5a20.09,20.09,0,0,1,.9,3h.1c.3-1,.6-1.9,1-3l2.3-6.5h2.2L98.1,37.5h-2L91.7,25.9Z"/><path d="M105.6,32.1a3.67,3.67,0,0,0,4,4,8.24,8.24,0,0,0,3.2-.6l.4,1.5a10,10,0,0,1-3.9.7c-3.6,0-5.7-2.4-5.7-5.9s2.1-6.3,5.4-6.3c3.8,0,4.8,3.3,4.8,5.5a2.79,2.79,0,0,1-.1,1h-8.1Zm6.2-1.5c0-1.3-.6-3.4-2.9-3.4-2.1,0-3.1,2-3.2,3.4Z"/><path class="cls-4" d="M169.3,29.1h-.1a.37.37,0,0,0-.3.1l-.8.8a.37.37,0,0,0-.1.3v3.1a2,2,0,0,1-.6,1.4,1.82,1.82,0,0,1-1.4.6H155.9a2,2,0,0,1-1.4-.6,1.82,1.82,0,0,1-.6-1.4V23.2a2,2,0,0,1,.6-1.4,1.82,1.82,0,0,1,1.4-.6H166a.75.75,0,0,1,.5.1h.1a.37.37,0,0,0,.3-.1l.6-.6c.1-.1.1-.2.1-.4s-.1-.2-.2-.3a3.19,3.19,0,0,0-1.4-.3H155.9a3.42,3.42,0,0,0-3.5,3.5V33.2a3.42,3.42,0,0,0,3.5,3.5H166a3.42,3.42,0,0,0,3.5-3.5V29.5c0-.2,0-.3-.2-.4Z"/><path class="cls-4" d="M172.4,22.1l-1.3-1.3a1,1,0,0,0-1.4,0l-7.9,7.9-3.2-3.2a1,1,0,0,0-1.4,0l-1.3,1.3a1,1,0,0,0,0,1.4l5.2,5.2a1,1,0,0,0,1.4,0l9.9-9.9a.91.91,0,0,0,.3-.7,1.08,1.08,0,0,0-.3-.7Z"/></g></g></svg>