<?xml version="1.0" encoding="utf-8"?>
<!-- Generator: Adobe Illustrator 21.0.0, SVG Export Plug-In . SVG Version: 6.00 Build 0)  -->
<svg version="1.1" id="Layer_1" xmlns="http://www.w3.org/2000/svg" xmlns:xlink="http://www.w3.org/1999/xlink" x="0px" y="0px"
	 viewBox="0 0 183.9 58.4" style="enable-background:new 0 0 183.9 58.4;" xml:space="preserve">
<style type="text/css">
	.st0{fill:#34495E;}
	.st1{fill:#606060;}
	.st2{fill:#CC0000;}
	.st3{fill:#FFFFFF;}
	.st4{clip-path:url(#SVGID_2_);fill:#FFFFFF;}
</style>
<path class="st0" d="M183.9,45.2c0,7.3-6.1,13.2-13.6,13.2H17.8c-7.5,0-13.6-5.9-13.6-13.2v-32C4.2,5.9,10.3,0,17.8,0h152.4
	c7.5,0,13.6,5.9,13.6,13.2L183.9,45.2L183.9,45.2z"/>
<polygon class="st1" points="181.6,11.4 181.6,52.6 194.5,45.7 194.5,11.4 "/>
<path class="st2" d="M194.5,11.2h-31.6c-9.5,0-17.1,7.7-17.1,17.1c0,9.5,7.7,17.1,17.1,17.1h31.6V11.2z"/>
<g>
	<path class="st3" d="M55.9,30.9L54.3,36h-2.2l5.5-16.2h2.5L65.6,36h-2.2l-1.7-5.1H55.9z M61.2,29.3l-1.6-4.7c-0.4-1.1-0.6-2-0.8-3
		h0c-0.2,1-0.5,1.9-0.8,2.9l-1.6,4.7H61.2z"/>
	<path class="st3" d="M67.5,33.8c0.6,0.4,1.7,0.8,2.8,0.8c1.5,0,2.3-0.8,2.3-1.7c0-1-0.6-1.6-2.2-2.1c-2.1-0.7-3.1-1.9-3.1-3.3
		c0-1.9,1.5-3.4,4-3.4c1.2,0,2.2,0.3,2.9,0.7l-0.5,1.5c-0.5-0.3-1.3-0.7-2.4-0.7c-1.2,0-1.9,0.7-1.9,1.6c0,1,0.7,1.4,2.2,2
		c2,0.8,3,1.8,3,3.5c0,2-1.6,3.5-4.3,3.5c-1.3,0-2.4-0.3-3.3-0.8L67.5,33.8z"/>
	<path class="st3" d="M77,33.8c0.6,0.4,1.7,0.8,2.8,0.8c1.5,0,2.3-0.8,2.3-1.7c0-1-0.6-1.6-2.2-2.1c-2.1-0.7-3.1-1.9-3.1-3.3
		c0-1.9,1.5-3.4,4-3.4c1.2,0,2.2,0.3,2.9,0.7l-0.5,1.5c-0.5-0.3-1.3-0.7-2.4-0.7c-1.2,0-1.9,0.7-1.9,1.6c0,1,0.7,1.4,2.2,2
		c2,0.8,3,1.8,3,3.5c0,2-1.6,3.5-4.3,3.5c-1.3,0-2.4-0.3-3.3-0.8L77,33.8z"/>
	<path class="st3" d="M89.2,21.1c0,0.7-0.5,1.3-1.3,1.3c-0.7,0-1.3-0.6-1.3-1.3c0-0.7,0.6-1.3,1.3-1.3
		C88.7,19.8,89.2,20.4,89.2,21.1z M86.8,36V24.4h2.1V36H86.8z"/>
	<path class="st3" d="M102.4,24.4c0,0.8-0.1,1.8-0.1,3.2v6.7c0,2.7-0.5,4.3-1.7,5.3c-1.1,1.1-2.8,1.4-4.2,1.4c-1.4,0-2.9-0.3-3.9-1
		l0.5-1.6c0.8,0.5,2,0.9,3.4,0.9c2.2,0,3.7-1.1,3.7-4.1V34h0c-0.6,1.1-1.9,1.9-3.7,1.9c-2.9,0-4.9-2.4-4.9-5.7
		c0-3.9,2.6-6.2,5.2-6.2c2,0,3.1,1.1,3.6,2h0l0.1-1.8H102.4z M100.2,29c0-0.4,0-0.7-0.1-1c-0.4-1.2-1.4-2.2-3-2.2
		c-2,0-3.5,1.7-3.5,4.4c0,2.3,1.2,4.2,3.4,4.2c1.3,0,2.5-0.8,2.9-2.2c0.1-0.4,0.2-0.8,0.2-1.1V29z"/>
	<path class="st3" d="M105.7,27.5c0-1.2,0-2.2-0.1-3.1h1.9l0.1,1.9h0c0.6-1.1,1.9-2.2,3.8-2.2c1.6,0,4.1,1,4.1,4.9V36h-2.1v-6.7
		c0-1.9-0.7-3.4-2.7-3.4c-1.4,0-2.5,1-2.8,2.2c-0.1,0.3-0.1,0.6-0.1,1v7h-2.1V27.5z"/>
</g>
<g>
	<defs>
		<rect id="SVGID_1_" x="156.5" y="16" width="20.9" height="20"/>
	</defs>
	<clipPath id="SVGID_2_">
		<use xlink:href="#SVGID_1_"  style="overflow:visible;"/>
	</clipPath>
	<path class="st4" d="M171.5,23.5l3.1,1.1l-2.6,7c-0.2,0.7-1.5,2.7-2.4,3.1l-0.2,0.6c-0.1,0.2-0.2,0.2-0.4,0.2c0,0-0.1,0-0.1,0
		c-0.2-0.1-0.3-0.3-0.2-0.5l0.2-0.6c-0.5-0.9-0.1-3.5,0.1-4L171.5,23.5z M175.9,16.1c-0.8-0.3-1.8,0.3-2.1,1.1l-1.9,5.1l3.1,1.1
		l1.9-5.1C177.1,17.7,176.8,16.4,175.9,16.1L175.9,16.1z M170.4,23.2c0.1,0,0.2,0,0.3,0c0.3,0,0.6-0.2,0.7-0.5l2-5.3
		c0.1-0.4-0.1-0.8-0.4-1c-0.4-0.1-0.8,0.1-1,0.4l-2,5.3C169.8,22.6,170,23.1,170.4,23.2L170.4,23.2z M167.2,33.1
		c-0.2-0.2-0.5-0.4-0.9-0.6c-0.3-0.1-0.7-0.2-0.9-0.2c0,0-0.1,0-0.1,0c-0.1-0.4-0.5-0.7-0.9-0.8c-0.6-0.1-1.1,0.2-1.4,0.4
		c0-0.2,0.1-0.4,0.1-0.5c0.1-0.5,0.2-0.9,0.1-1.4c-0.1-0.4-0.4-0.6-0.7-0.6c-0.9-0.1-1.7,0.4-2.4,0.9c-0.7,0.5-1.2,0.8-1.6,0.6
		c-0.6-0.2-0.6-1.7-0.3-3c0.2-1.2,0.7-3.4,1.8-4.4c0.4-0.3,0.9-0.7,1.4-0.5c0.5,0.2,1,1.1,1.1,2.1c0,0.4,0.4,0.8,0.9,0.7
		c0.4,0,0.8-0.4,0.7-0.9c-0.2-1.7-1-3-2.1-3.5c-0.7-0.3-1.7-0.3-3,0.8c-1.4,1.3-1.9,3.4-2.3,5.3c-0.2,0.9-0.6,4.1,1.4,4.8
		c1.2,0.4,2.2-0.2,3-0.8c0.1-0.1,0.3-0.2,0.4-0.3c-0.1,0.6-0.2,1.2,0.1,1.7c0.5,0.8,1.3,0.9,2.2,0.3c0,0,0.1-0.1,0.1-0.1
		c0.1,0.2,0.2,0.4,0.5,0.5c0.3,0.2,0.7,0.2,0.9,0.2c0.1,0,0.3,0,0.3,0c0.1,0.1,0.2,0.1,0.4,0.3c0.1,0.1,0.3,0.3,0.4,0.4
		c0.1,0.1,0.3,0.2,0.5,0.2c0.2,0,0.5-0.1,0.6-0.3c0.3-0.4,0.2-0.9-0.2-1.1C167.4,33.3,167.3,33.2,167.2,33.1L167.2,33.1z
		 M167.2,33.1"/>
</g>
</svg>
