<?xml version="1.0" encoding="utf-8"?>
<!-- Generator: Adobe Illustrator 21.0.0, SVG Export Plug-In . SVG Version: 6.00 Build 0)  -->
<svg version="1.1" id="Layer_1" xmlns="http://www.w3.org/2000/svg" xmlns:xlink="http://www.w3.org/1999/xlink" x="0px" y="0px"
	 viewBox="0 0 185 62" style="enable-background:new 0 0 185 62;" xml:space="preserve">
<style type="text/css">
	.st0{fill:#34495E;}
	.st1{fill:#606060;}
	.st2{fill:#5C81EA;}
	.st3{fill:#F9F9F9;}
	.st4{fill:none;}
	.st5{clip-path:url(#SVGID_2_);fill:#FFFFFF;}
</style>
<path class="st0" d="M174.4,47c0,7.3-5.9,13.2-13.2,13.2H13.4C6.1,60.2,0.2,54.3,0.2,47V15c0-7.3,5.9-13.2,13.2-13.2h147.7
	c7.3,0,13.2,5.9,13.2,13.2v32H174.4z"/>
<polygon class="st1" points="172.1,13.2 172.1,54.4 185,47.5 185,13.2 "/>
<path class="st2" d="M185,13h-31.6c-9.5,0-17.1,7.7-17.1,17.1c0,9.5,7.7,17.1,17.1,17.1H185V13z"/>
<g>
	<path class="st3" d="M50.1,20.6h6.1c4.2,0,7.1,1.4,7.1,5c0,2-1.2,3.9-3.6,4.5v0.1c3,0.5,4.8,2.1,4.8,4.9c0,4.1-3.2,6-7.8,6h-6.6
		V20.6z M55.8,29.4c3.5,0,5-1.3,5-3.6c0-2.2-1.7-3.2-4.8-3.2h-3.2v6.7H55.8z M56.3,39.2c3.5,0,5.6-1.3,5.6-4.1c0-2.5-2-3.7-5.6-3.7
		h-3.6v7.8H56.3z"/>
	<path class="st3" d="M76.9,31.6c0-2-0.7-3.8-3.1-3.8c-1.8,0-3.4,0.8-4.6,1.6l-1-1.8c1.4-0.9,3.6-2,6-2c3.7,0,5.3,2.5,5.3,6.3v9.4
		h-2.1l-0.2-1.8h-0.1c-1.5,1.2-3.2,2.2-5.1,2.2c-2.6,0-4.5-1.6-4.5-4.3C67.5,34,70.4,32.3,76.9,31.6z M72.7,39.6
		c1.5,0,2.7-0.7,4.2-2v-4.2c-5.1,0.6-6.9,1.9-6.9,3.8C70,38.9,71.2,39.6,72.7,39.6z"/>
	<path class="st3" d="M90.6,25.6c2,0,3.4,0.8,4.5,1.8l-1.3,1.7c-0.9-0.8-1.9-1.4-3.1-1.4c-2.8,0-4.8,2.4-4.8,5.9
		c0,3.5,1.9,5.9,4.7,5.9c1.4,0,2.7-0.7,3.6-1.5l1.2,1.7c-1.4,1.2-3.1,2-5,2c-4.1,0-7.2-2.9-7.2-8C83.2,28.5,86.6,25.6,90.6,25.6z"/>
	<path class="st3" d="M98.7,18.9h2.5V34h0.1l6.5-8.1h2.9l-5.1,6.1l5.8,9.2h-2.8l-4.5-7.4l-2.9,3.3v4h-2.5V18.9z"/>
</g>
<rect x="149.1" y="16.8" class="st4" width="17.2" height="22.4"/>
<g>
	<defs>
		<rect id="SVGID_1_" x="146.4" y="20.5" width="22.6" height="19.4"/>
	</defs>
	<clipPath id="SVGID_2_">
		<use xlink:href="#SVGID_1_"  style="overflow:visible;"/>
	</clipPath>
	<path class="st5" d="M146.7,28.8c-0.1,0.1-0.2,0.3-0.2,0.5c0,0.2,0.1,0.4,0.2,0.5l9.9,8.2c0.2,0.2,0.4,0.2,0.7,0.1
		c0.2-0.1,0.4-0.3,0.4-0.6v-4.3c4,0,6.8,0.3,10.2,6.2c0.1,0.2,0.3,0.3,0.5,0.3c0.1,0,0.1,0,0.2,0c0.3-0.1,0.5-0.3,0.5-0.6v-0.5
		c0-2.2,0-5.4-1.5-8.2c-1.7-3.2-5-4.9-9.9-5.1v-4.3c0-0.2-0.1-0.5-0.4-0.6c-0.2-0.1-0.5-0.1-0.7,0.1L146.7,28.8L146.7,28.8z
		 M148.1,29.3l8.3-6.9V26c0,0.3,0.3,0.6,0.6,0.6c4.7,0,7.8,1.5,9.4,4.4c1,1.9,1.2,4,1.3,5.9c-1.4-2-2.8-3.3-4.4-4
		c-1.9-0.9-3.8-0.9-6.3-0.9c-0.2,0-0.3,0.1-0.4,0.2c-0.1,0.1-0.2,0.3-0.2,0.4v3.6L148.1,29.3z M156.4,36.2"/>
</g>
</svg>
