<svg xmlns="http://www.w3.org/2000/svg" viewBox="0 0 184.8 58.4"><defs><style>.cls-1{fill:#ccc;}.cls-2{fill:#606060;}.cls-3{fill:#f30;}.cls-4{fill:#fff;}.cls-5{fill:none;stroke:#fff;stroke-miterlimit:10;stroke-width:1.5px;}</style></defs><title>Asset 2</title><g id="Layer_2" data-name="Layer 2"><g id="Layer_1-2" data-name="Layer 1"><path class="cls-1" d="M174.2,45.2A13.19,13.19,0,0,1,161,58.4H13.2A13.19,13.19,0,0,1,0,45.2v-32A13.19,13.19,0,0,1,13.2,0H160.9a13.19,13.19,0,0,1,13.2,13.2v32Z"/><path d="M38.5,20a7,7,0,0,1,5.1,2.3l-1.4,1.5A5.29,5.29,0,0,0,38.4,22c-3.6,0-6,3-6,7.6s2.2,7.8,5.8,7.8a5.3,5.3,0,0,0,4.3-2.1l1.4,1.4a7,7,0,0,1-5.8,2.7c-4.7,0-8.3-3.6-8.3-9.8C30,23.7,33.6,20,38.5,20Z"/><path d="M55.2,30.3c0-1.8-.6-3.5-2.9-3.5a7.1,7.1,0,0,0-4.2,1.5l-1-1.7a10.86,10.86,0,0,1,5.5-1.8c3.4,0,4.9,2.2,4.9,5.8v8.6H55.6l-.2-1.6h-.1a7.64,7.64,0,0,1-4.6,2,3.75,3.75,0,0,1-4.1-4C46.6,32.5,49.3,31,55.2,30.3Zm-3.9,7.4a5.41,5.41,0,0,0,3.8-1.8V32c-4.7.6-6.2,1.8-6.2,3.5A2.15,2.15,0,0,0,51.3,37.7Z"/><path d="M62,25.2h1.9l.2,2h.1c1.4-1.4,2.8-2.4,4.7-2.4,3,0,4.2,1.9,4.2,5.4v8.9H70.8V30.6c0-2.6-.8-3.8-2.6-3.8-1.4,0-2.4.7-3.8,2.2V39.2H62v-14Z"/><path d="M83.5,24.9a6,6,0,0,1,4.1,1.7l-1.2,1.5a4.2,4.2,0,0,0-2.8-1.2c-2.6,0-4.4,2.2-4.4,5.4s1.8,5.4,4.3,5.4a4.58,4.58,0,0,0,3.3-1.4l1,1.5a7.17,7.17,0,0,1-4.6,1.8c-3.7,0-6.6-2.6-6.6-7.3S79.9,24.9,83.5,24.9Z"/><path d="M95.5,24.9c3.6,0,5.6,2.6,5.6,6.6a4.89,4.89,0,0,1-.1,1.3H91.6c.2,3,2,5,4.6,5a5.84,5.84,0,0,0,3.5-1.1l.8,1.5a8.1,8.1,0,0,1-4.6,1.4c-3.8,0-6.7-2.7-6.7-7.3S92.3,24.9,95.5,24.9ZM99,31.2c0-2.9-1.3-4.4-3.4-4.4-1.9,0-3.8,1.6-4,4.4Z"/><path d="M104.6,18.7H107V36.6c0,.7.3,1,.6,1a1.09,1.09,0,0,0,.5-.1l.3,1.8a2.57,2.57,0,0,1-1.4.2c-1.8,0-2.5-1.1-2.5-3.2C104.6,36.3,104.6,18.7,104.6,18.7Z"/><polygon class="cls-2" points="171.9 11.4 171.9 52.6 184.8 45.7 184.8 11.4 171.9 11.4"/><path class="cls-3" d="M184.8,11.2H153.2a17.1,17.1,0,1,0,0,34.2h31.6Z"/><path class="cls-4" d="M160.38,35.14h0a2,2,0,0,1-2.41-.23l-9.92-10.5a1.29,1.29,0,0,1,.28-2h0a2,2,0,0,1,2.41.23l9.92,10.5A1.29,1.29,0,0,1,160.38,35.14Z"/><path class="cls-4" d="M148.52,35.26h0a1.29,1.29,0,0,1-.34-2l9.62-10.69a2,2,0,0,1,2.4-.28h0a1.29,1.29,0,0,1,.34,2L150.92,35A2,2,0,0,1,148.52,35.26Z"/><circle class="cls-5" cx="153.97" cy="28.3" r="11.6"/></g></g></svg>