<svg xmlns="http://www.w3.org/2000/svg" viewBox="0 0 190.3 58.4"><defs><style>.cls-1{fill:#ccc;}.cls-2{fill:#606060;}.cls-3{fill:#ef0a0a;}.cls-4{fill:#fff;}</style></defs><title>Asset 1</title><g id="Layer_2" data-name="Layer 2"><g id="Layer_1-2" data-name="Layer 1"><path class="cls-1" d="M179.7,45.2a13.41,13.41,0,0,1-13.6,13.2H13.6A13.41,13.41,0,0,1,0,45.2v-32A13.41,13.41,0,0,1,13.6,0H166a13.41,13.41,0,0,1,13.6,13.2l.1,32Z"/><polygon class="cls-2" points="177.4 11.4 177.4 52.6 190.3 45.7 190.3 11.4 177.4 11.4"/><path class="cls-3" d="M190.3,11.2H158.7a17.1,17.1,0,1,0,0,34.2h31.6Z"/><path d="M63.1,36.9a13,13,0,0,1-5,.9c-5.3,0-9.3-3.4-9.3-9.5,0-5.9,4-9.9,9.9-9.9a11,11,0,0,1,4.5.8l-.6,2a9.36,9.36,0,0,0-3.8-.8c-4.4,0-7.4,2.8-7.4,7.8,0,4.6,2.7,7.6,7.3,7.6a9.49,9.49,0,0,0,4-.8Z"/><path d="M66.1,17.6h2.5V37.5H66.1Z"/><path d="M85,30.6c0,5-3.5,7.2-6.7,7.2-3.7,0-6.5-2.7-6.5-7,0-4.5,3-7.2,6.7-7.2S85,26.5,85,30.6Zm-10.8.2c0,3,1.7,5.2,4.1,5.2s4.1-2.2,4.1-5.3c0-2.3-1.1-5.2-4.1-5.2S74.2,28.2,74.2,30.8Z"/><path d="M87.7,35a6.07,6.07,0,0,0,3.2,1c1.8,0,2.6-.9,2.6-2s-.7-1.8-2.5-2.5c-2.4-.9-3.6-2.2-3.6-3.8,0-2.2,1.8-4,4.7-4a6.93,6.93,0,0,1,3.3.8l-.6,1.8a5.49,5.49,0,0,0-2.8-.8c-1.5,0-2.3.8-2.3,1.8s.8,1.6,2.6,2.3c2.4.9,3.6,2.1,3.6,4.1,0,2.4-1.8,4.1-5.1,4.1a8.19,8.19,0,0,1-3.8-.9Z"/><path d="M100.5,31.2c.1,3.3,2.2,4.7,4.6,4.7a9.17,9.17,0,0,0,3.8-.7l.4,1.8a11.27,11.27,0,0,1-4.5.8c-4.2,0-6.7-2.7-6.7-6.8s2.4-7.3,6.4-7.3c4.4,0,5.6,3.9,5.6,6.4,0,.5-.1.9-.1,1.1Zm7.2-1.8c0-1.6-.6-4-3.4-4-2.5,0-3.6,2.3-3.8,4Z"/><path class="cls-4" d="M172.6,21.9a13.79,13.79,0,0,0-4.8-4.8,13,13,0,0,0-13.2,0,13.79,13.79,0,0,0-4.8,4.8,13,13,0,0,0,0,13.2,13.79,13.79,0,0,0,4.8,4.8,13,13,0,0,0,13.2,0,13.79,13.79,0,0,0,4.8-4.8,12.59,12.59,0,0,0,1.8-6.6,12.85,12.85,0,0,0-1.8-6.6Zm-5.2,9.8a1.22,1.22,0,0,1,0,1.6l-1.5,1.5a1.22,1.22,0,0,1-1.6,0l-3.1-3.1-3.1,3.1a1.22,1.22,0,0,1-1.6,0L155,33.3a1.22,1.22,0,0,1,0-1.6l3.1-3.1L155,25.5a1.22,1.22,0,0,1,0-1.6l1.5-1.6a1.22,1.22,0,0,1,1.6,0l3.1,3.1,3.1-3.1a1.22,1.22,0,0,1,1.6,0l1.5,1.6a1.22,1.22,0,0,1,0,1.6l-3.1,3.1Z"/></g></g></svg>