<?xml version="1.0" encoding="utf-8"?>
<!-- Generator: Adobe Illustrator 21.0.0, SVG Export Plug-In . SVG Version: 6.00 Build 0)  -->
<svg version="1.1" id="Layer_1" xmlns="http://www.w3.org/2000/svg" xmlns:xlink="http://www.w3.org/1999/xlink" x="0px" y="0px"
	 viewBox="0 0 198.3 67" style="enable-background:new 0 0 198.3 67;" xml:space="preserve">
<style type="text/css">
	.st0{fill:#34495E;}
	.st1{fill:#606060;}
	.st2{fill:#EF0A0A;}
	.st3{fill:#FFFFFF;}
</style>
<path class="st0" d="M183.9,48.7c0,7.3-6.1,13.2-13.6,13.2H17.8c-7.5,0-13.6-5.9-13.6-13.2v-32c0-7.3,6.1-13.2,13.6-13.2h152.4
	c7.5,0,13.6,5.9,13.6,13.2L183.9,48.7L183.9,48.7z"/>
<polygon class="st1" points="181.6,14.9 181.6,56.1 194.5,49.2 194.5,14.9 "/>
<path class="st2" d="M194.5,14.7h-31.6c-9.5,0-17.1,7.7-17.1,17.1c0,9.5,7.7,17.1,17.1,17.1h31.6V14.7z"/>
<path class="st3" d="M67.3,40.4c-0.9,0.4-2.7,0.9-5,0.9c-5.3,0-9.3-3.4-9.3-9.5c0-5.9,4-9.9,9.9-9.9c2.4,0,3.8,0.5,4.5,0.8l-0.6,2
	c-0.9-0.4-2.2-0.8-3.8-0.8c-4.4,0-7.4,2.8-7.4,7.8c0,4.6,2.7,7.6,7.3,7.6c1.5,0,3-0.3,4-0.8L67.3,40.4z"/>
<path class="st3" d="M70.3,21.1h2.5V41h-2.5V21.1z"/>
<path class="st3" d="M89.2,34.1c0,5-3.5,7.2-6.7,7.2c-3.7,0-6.5-2.7-6.5-7c0-4.5,3-7.2,6.7-7.2C86.5,27.1,89.2,30,89.2,34.1z
	 M78.4,34.3c0,3,1.7,5.2,4.1,5.2c2.4,0,4.1-2.2,4.1-5.3c0-2.3-1.1-5.2-4.1-5.2S78.4,31.7,78.4,34.3z"/>
<path class="st3" d="M91.9,38.5c0.7,0.5,2,1,3.2,1c1.8,0,2.6-0.9,2.6-2c0-1.2-0.7-1.8-2.5-2.5c-2.4-0.9-3.6-2.2-3.6-3.8
	c0-2.2,1.8-4,4.7-4c1.4,0,2.6,0.4,3.3,0.8L99,29.8c-0.5-0.3-1.5-0.8-2.8-0.8c-1.5,0-2.3,0.8-2.3,1.8c0,1.1,0.8,1.6,2.6,2.3
	c2.4,0.9,3.6,2.1,3.6,4.1c0,2.4-1.8,4.1-5.1,4.1c-1.5,0-2.9-0.4-3.8-0.9L91.9,38.5z"/>
<path class="st3" d="M104.7,34.7c0.1,3.3,2.2,4.7,4.6,4.7c1.8,0,2.8-0.3,3.8-0.7l0.4,1.8c-0.9,0.4-2.4,0.8-4.5,0.8
	c-4.2,0-6.7-2.7-6.7-6.8s2.4-7.3,6.4-7.3c4.4,0,5.6,3.9,5.6,6.4c0,0.5-0.1,0.9-0.1,1.1H104.7z M111.9,32.9c0-1.6-0.6-4-3.4-4
	c-2.5,0-3.6,2.3-3.8,4H111.9z"/>
<g>
	<path class="st3" d="M176.8,25.4c-1.2-2-2.8-3.6-4.8-4.8s-4.2-1.8-6.6-1.8c-2.4,0-4.6,0.6-6.6,1.8c-2,1.2-3.6,2.8-4.8,4.8
		s-1.8,4.2-1.8,6.6s0.6,4.6,1.8,6.6s2.8,3.6,4.8,4.8s4.2,1.8,6.6,1.8c2.4,0,4.6-0.6,6.6-1.8s3.6-2.8,4.8-4.8s1.8-4.2,1.8-6.6
		C178.6,29.7,178,27.4,176.8,25.4L176.8,25.4z M171.6,35.2c0.2,0.2,0.3,0.5,0.3,0.8s-0.1,0.6-0.3,0.8l-1.5,1.5
		c-0.2,0.2-0.5,0.3-0.8,0.3s-0.6-0.1-0.8-0.3l-3.1-3.1l-3.1,3.1c-0.2,0.2-0.5,0.3-0.8,0.3s-0.6-0.1-0.8-0.3l-1.5-1.5
		c-0.2-0.2-0.3-0.5-0.3-0.8s0.1-0.6,0.3-0.8l3.1-3.1l-3.1-3.1c-0.2-0.2-0.3-0.5-0.3-0.8s0.1-0.6,0.3-0.8l1.5-1.6
		c0.2-0.2,0.5-0.3,0.8-0.3s0.6,0.1,0.8,0.3l3.1,3.1l3.1-3.1c0.2-0.2,0.5-0.3,0.8-0.3s0.6,0.1,0.8,0.3l1.5,1.6
		c0.2,0.2,0.3,0.5,0.3,0.8s-0.1,0.6-0.3,0.8l-3.1,3.1L171.6,35.2z"/>
</g>
</svg>
