<?xml version="1.0" encoding="utf-8"?>
<!-- Generator: Adobe Illustrator 21.0.0, SVG Export Plug-In . SVG Version: 6.00 Build 0)  -->
<svg version="1.1" id="Layer_1" xmlns="http://www.w3.org/2000/svg" xmlns:xlink="http://www.w3.org/1999/xlink" x="0px" y="0px"
	 viewBox="0 0 198.3 67" style="enable-background:new 0 0 198.3 67;" xml:space="preserve">
<style type="text/css">
	.st0{fill:#34495E;}
	.st1{fill:#606060;}
	.st2{fill:#CC0000;}
	.st3{fill:#FFFFFF;}
</style>
<path class="st0" d="M183.9,48.7c0,7.3-6.1,13.2-13.6,13.2H17.8c-7.5,0-13.6-5.9-13.6-13.2v-32c0-7.3,6.1-13.2,13.6-13.2h152.4
	c7.5,0,13.6,5.9,13.6,13.2L183.9,48.7L183.9,48.7z"/>
<polygon class="st1" points="181.6,14.9 181.6,56.1 194.5,49.2 194.5,14.9 "/>
<path class="st2" d="M194.5,14.7h-31.6c-9.5,0-17.1,7.7-17.1,17.1c0,9.5,7.7,17.1,17.1,17.1h31.6V14.7z"/>
<g>
	<path class="st3" d="M50.8,25c1.3-0.2,2.8-0.3,4.4-0.3c3,0,5.1,0.7,6.6,2c1.4,1.3,2.3,3.2,2.3,5.8c0,2.6-0.8,4.8-2.3,6.3
		c-1.5,1.5-4,2.3-7.2,2.3c-1.5,0-2.7-0.1-3.8-0.2V25z M52.9,39.3c0.5,0.1,1.3,0.1,2.1,0.1c4.5,0,6.9-2.5,6.9-6.9
		c0-3.8-2.1-6.2-6.6-6.2c-1.1,0-1.9,0.1-2.4,0.2V39.3z"/>
	<path class="st3" d="M68,35.6c0,2.9,1.9,4,4,4c1.5,0,2.4-0.3,3.2-0.6l0.4,1.5c-0.7,0.3-2,0.7-3.9,0.7c-3.6,0-5.7-2.4-5.7-5.9
		c0-3.5,2.1-6.3,5.4-6.3c3.8,0,4.8,3.3,4.8,5.5c0,0.4,0,0.8-0.1,1H68z M74.2,34.1c0-1.3-0.6-3.4-2.9-3.4c-2.1,0-3.1,2-3.2,3.4H74.2z
		"/>
	<path class="st3" d="M78.9,24H81v17h-2.1V24z"/>
	<path class="st3" d="M85.7,35.6c0,2.9,1.9,4,4,4c1.5,0,2.4-0.3,3.2-0.6l0.4,1.5c-0.7,0.3-2,0.7-3.9,0.7c-3.6,0-5.7-2.4-5.7-5.9
		c0-3.5,2.1-6.3,5.4-6.3c3.8,0,4.8,3.3,4.8,5.5c0,0.4,0,0.8-0.1,1H85.7z M91.9,34.1c0-1.3-0.6-3.4-2.9-3.4c-2.1,0-3.1,2-3.2,3.4
		H91.9z"/>
	<path class="st3" d="M99.1,26v3.3h3V31h-3v6.3c0,1.4,0.4,2.3,1.6,2.3c0.6,0,1-0.1,1.2-0.1L102,41c-0.4,0.2-1.1,0.3-1.9,0.3
		c-1,0-1.8-0.3-2.3-0.9c-0.6-0.6-0.8-1.7-0.8-3V31h-1.8v-1.6H97v-2.8L99.1,26z"/>
	<path class="st3" d="M105.5,35.6c0,2.9,1.9,4,4,4c1.5,0,2.4-0.3,3.2-0.6l0.4,1.5c-0.7,0.3-2,0.7-3.9,0.7c-3.6,0-5.7-2.4-5.7-5.9
		c0-3.5,2.1-6.3,5.4-6.3c3.8,0,4.8,3.3,4.8,5.5c0,0.4,0,0.8-0.1,1H105.5z M111.7,34.1c0-1.3-0.6-3.4-2.9-3.4c-2.1,0-3.1,2-3.2,3.4
		H111.7z"/>
</g>
<g>
	<path class="st3" d="M165,19.5c-6.2,0-11.2,5-11.2,11.2c0,6.2,5,11.2,11.2,11.2c6.2,0,11.2-5,11.2-11.2
		C176.2,24.5,171.2,19.5,165,19.5L165,19.5z M169.8,33.7l-1.8,1.8c0,0-2.8-3-3-3c-0.2,0-3,3-3,3l-1.8-1.8c0,0,3-2.8,3-3
		c0-0.3-3-3-3-3l1.8-1.8c0,0,2.8,3,3,3c0.2,0,3-3,3-3l1.8,1.8c0,0-3,2.8-3,3C166.8,30.9,169.8,33.7,169.8,33.7L169.8,33.7z
		 M169.8,33.7"/>
</g>
</svg>
