<?xml version="1.0" encoding="utf-8"?>
<!-- Generator: Adobe Illustrator 21.0.0, SVG Export Plug-In . SVG Version: 6.00 Build 0)  -->
<svg version="1.1" id="Layer_1" xmlns="http://www.w3.org/2000/svg" xmlns:xlink="http://www.w3.org/1999/xlink" x="0px" y="0px"
	 viewBox="0 0 185 62" style="enable-background:new 0 0 185 62;" xml:space="preserve">
<style type="text/css">
	.st0{fill:#CCCCCC;}
	.st1{fill:#606060;}
	.st2{fill:#3CA505;}
	.st3{fill:#FFFFFF;}
</style>
<path class="st0" d="M174.4,47c0,7.3-5.9,13.2-13.2,13.2H13.4C6.1,60.2,0.2,54.3,0.2,47V15c0-7.3,5.9-13.2,13.2-13.2h147.7
	c7.3,0,13.2,5.9,13.2,13.2v32H174.4z"/>
<g>
	<g>
		<path d="M32.4,20.6h10.9v2h-8.5v5.9h7.1v2.1h-7.1v6.9h8.7v2.1H32.3L32.4,20.6L32.4,20.6z"/>
		<path d="M49.9,32.2l-4.2-6.7h2.6l1.8,3.1c0.4,0.7,0.9,1.5,1.4,2.3h0.1c0.4-0.8,0.8-1.6,1.3-2.3l1.7-3.1H57l-4.2,7l4.6,7h-2.6
			l-2.1-3.3c-0.5-0.8-1-1.7-1.5-2.5h-0.1c-0.5,0.8-1,1.7-1.4,2.5l-1.9,3.3h-2.5L49.9,32.2z"/>
		<path d="M62.5,40.7v4.7h-2.4V25.5h2l0.2,1.6h0.1c1.3-1,2.8-1.9,4.5-1.9c3.6,0,5.5,2.8,5.5,7.1c0,4.7-2.9,7.5-6.1,7.5
			c-1.3,0-2.6-0.6-3.9-1.6L62.5,40.7z M66,37.9c2.3,0,4-2.1,4-5.5c0-3.1-1-5.1-3.7-5.1c-1.2,0-2.4,0.6-3.8,1.9v7.4
			C63.8,37.5,65.1,37.9,66,37.9z"/>
		<path d="M81.6,25.2c3.4,0,6.5,2.6,6.5,7.4c0,4.6-3,7.3-6.5,7.3c-3.4,0-6.5-2.6-6.5-7.3C75.2,27.8,78.2,25.2,81.6,25.2z M81.6,37.9
			c2.4,0,4-2.2,4-5.4s-1.6-5.4-4-5.4s-4,2.2-4,5.4S79.2,37.9,81.6,37.9z"/>
		<path d="M91.8,25.5h1.9L94,28l0,0c1-1.8,2.4-2.9,4-2.9c0.6,0,1,0.1,1.5,0.3L99,27.5c-0.5-0.2-0.8-0.2-1.4-0.2
			c-1.2,0-2.6,0.9-3.5,3.2v9h-2.4C91.8,39.5,91.8,25.5,91.8,25.5z"/>
		<path d="M102.2,27.4h-2.1v-1.8l2.2-0.2l0.3-3.9h2v3.9h3.8v1.9h-3.8v7.8c0,1.8,0.6,2.7,2.2,2.7c0.5,0,1.1-0.2,1.6-0.4l0.5,1.8
			c-0.8,0.2-1.8,0.5-2.6,0.5c-3,0-4-1.9-4-4.6L102.2,27.4L102.2,27.4z"/>
	</g>
</g>
<polygon class="st1" points="172.1,13.2 172.1,54.4 185,47.5 185,13.2 "/>
<path class="st2" d="M185,13h-31.6c-9.5,0-17.1,7.7-17.1,17.1c0,9.5,7.7,17.1,17.1,17.1H185V13z"/>
<g>
	<path class="st3" d="M172.4,20.5h-9.1v3h3v2h-3v2h3v2h-3v2h3v2h-3v2h3v2h-3v3h9.1c0.5,0,0.9-0.4,0.9-0.9V21.3
		C173.3,20.8,172.9,20.5,172.4,20.5L172.4,20.5z M171.3,37.3h-4v-2h4V37.3z M171.3,33.4h-4v-2h4V33.4z M171.3,29.4h-4v-2h4V29.4z
		 M171.3,25.4h-4v-2h4V25.4z"/>
	<path class="st3" d="M147.5,20.4v20.1l14.9,2.9V17.5L147.5,20.4z M156.9,35.5l-1.7-3.2c-0.1-0.1-0.1-0.4-0.2-0.6l0,0
		c0,0.1-0.1,0.4-0.2,0.7l-1.7,3.2h-2.7l3.2-5.1l-3-5.1h2.7l1.5,3c0.1,0.2,0.2,0.5,0.2,0.9l0,0c0-0.2,0.1-0.5,0.4-0.9l1.6-3h2.5l-3,5
		l3.1,5.1C159.5,35.5,156.9,35.5,156.9,35.5z"/>
</g>
</svg>
