<svg xmlns="http://www.w3.org/2000/svg" viewBox="0 0 71.76 64.47"><defs><style>.cls-1{fill:#fff;}</style></defs><title>Asset 8</title><g id="Layer_2" data-name="Layer 2"><g id="Layer_1-2" data-name="Layer 1"><path class="cls-1" d="M35.86,64.47,23.41,52h8.86v-9H7.37a7.12,7.12,0,0,1-5.65-2.53A6.55,6.55,0,0,1,0,36.37C0,34.48,0,32.59,0,30.69c0-.05,0-.1,0-.17H7.17v5.34H64.56V30.52h7.19v.29c0,1.63,0,3.26,0,4.9a7.22,7.22,0,0,1-7.35,7.35H39.48v9h8.84L35.86,64.47"/><path class="cls-1" d="M19.75,9H37.66V0L52.21,12.57,37.68,25.11v-9H19.75Z"/></g></g></svg>