<?xml version="1.0" encoding="utf-8"?>
<!-- Generator: Adobe Illustrator 21.0.0, SVG Export Plug-In . SVG Version: 6.00 Build 0)  -->
<svg version="1.1" id="Layer_1" xmlns="http://www.w3.org/2000/svg" xmlns:xlink="http://www.w3.org/1999/xlink" x="0px" y="0px"
	 viewBox="0 0 210.3 67" style="enable-background:new 0 0 210.3 67;" xml:space="preserve">
<style type="text/css">
	.st0{fill:#34495E;}
	.st1{fill:#606060;}
	.st2{fill:#EF0A0A;}
	.st3{enable-background:new    ;}
	.st4{fill:#FFFFFF;}
	.st5{fill:none;}
	.st6{fill:none;stroke:#FFFFFF;stroke-width:2;stroke-miterlimit:10;}
</style>
<path class="st0" d="M195.9,48.7c0,7.3-6.1,13.2-13.6,13.2H19.8c-7.5,0-13.6-5.9-13.6-13.2v-32c0-7.3,6.1-13.2,13.6-13.2h162.4
	c7.5,0,13.6,5.9,13.6,13.2L195.9,48.7L195.9,48.7z"/>
<polygon class="st1" points="193.6,14.9 193.6,56.1 206.5,49.2 206.5,14.9 "/>
<path class="st2" d="M206.5,14.7h-31.6c-9.5,0-17.1,7.7-17.1,17.1c0,9.5,7.7,17.1,17.1,17.1h31.6V14.7z"/>
<g class="st3">
	<path class="st4" d="M23.1,23.8h2.4v18.4h-2.4V23.8z"/>
	<path class="st4" d="M30.2,28.6h1.9l0.2,2h0.1c1.3-1.3,2.7-2.3,4.6-2.3c2.9,0,4.1,1.8,4.1,5.3v8.6h-2.3v-8.3c0-2.5-0.8-3.6-2.6-3.6
		c-1.4,0-2.4,0.7-3.7,2.1v9.9h-2.3V28.6z"/>
	<path class="st4" d="M47.8,43.3v4.6h-2.3V28.6h1.9l0.2,1.6h0.1c1.2-1,2.7-1.9,4.3-1.9c3.5,0,5.4,2.7,5.4,6.9c0,4.6-2.8,7.3-5.9,7.3
		c-1.3,0-2.5-0.6-3.8-1.6L47.8,43.3z M51.1,40.6c2.2,0,3.9-2,3.9-5.4c0-3-1-5-3.6-5c-1.1,0-2.3,0.6-3.6,1.8v7.1
		C49,40.2,50.2,40.6,51.1,40.6z"/>
	<path class="st4" d="M60.8,28.6h2.3v8.3c0,2.5,0.8,3.6,2.5,3.6c1.4,0,2.4-0.7,3.7-2.3v-9.7h2.3v13.6h-1.9L69.5,40h-0.1
		c-1.3,1.5-2.6,2.5-4.5,2.5c-2.9,0-4.2-1.8-4.2-5.3L60.8,28.6L60.8,28.6z"/>
	<path class="st4" d="M76.7,30.5h-2v-1.7l2.1-0.1l0.3-3.8H79v3.8h3.7v1.9H79V38c0,1.7,0.5,2.6,2.1,2.6c0.5,0,1.1-0.2,1.5-0.4
		l0.4,1.7c-0.8,0.3-1.7,0.5-2.5,0.5c-2.9,0-3.9-1.8-3.9-4.5L76.7,30.5L76.7,30.5z"/>
	<path class="st4" d="M91.5,23.8h10.6v2h-8.3V32h7v2h-7v8.2h-2.4V23.8H91.5z"/>
	<path class="st4" d="M104.7,24.3c0-0.9,0.7-1.5,1.6-1.5s1.6,0.6,1.6,1.5s-0.7,1.5-1.6,1.5C105.4,25.8,104.7,25.2,104.7,24.3z
		 M105.1,28.6h2.3v13.6h-2.3V28.6z"/>
	<path class="st4" d="M117.1,28.3c3.5,0,5.4,2.5,5.4,6.4c0,0.5,0,0.9-0.1,1.3h-9.2c0.2,2.9,1.9,4.8,4.5,4.8c1.3,0,2.4-0.4,3.4-1.1
		l0.8,1.5c-1.2,0.8-2.6,1.4-4.5,1.4c-3.6,0-6.5-2.7-6.5-7.1C111,31,114,28.3,117.1,28.3z M120.5,34.4c0-2.8-1.2-4.3-3.4-4.3
		c-1.9,0-3.6,1.6-3.9,4.3H120.5z"/>
	<path class="st4" d="M125.9,22.3h2.3v17.4c0,0.7,0.3,1,0.6,1c0.1,0,0.3,0,0.5-0.1l0.3,1.7c-0.3,0.1-0.7,0.2-1.3,0.2
		c-1.7,0-2.4-1.1-2.4-3.1V22.3z"/>
	<path class="st4" d="M137.9,28.3c1.6,0,2.6,0.6,3.8,1.6l-0.1-2.3v-5.2h2.3v19.9H142l-0.2-1.6h-0.1c-1.1,1-2.5,1.9-4.1,1.9
		c-3.4,0-5.6-2.6-5.6-7.1C132,31,134.8,28.3,137.9,28.3z M138.2,40.6c1.3,0,2.4-0.6,3.5-1.9v-7.1c-1.1-1-2.2-1.4-3.3-1.4
		c-2.2,0-3.9,2.1-3.9,5.2C134.4,38.6,135.8,40.6,138.2,40.6z"/>
</g>
<rect x="168.9" y="26.5" class="st5" width="16.8" height="14"/>
<rect x="168.9" y="25.5" class="st6" width="24.7" height="14"/>
</svg>
