<?xml version="1.0" encoding="utf-8"?>
<!-- Generator: Adobe Illustrator 21.0.0, SVG Export Plug-In . SVG Version: 6.00 Build 0)  -->
<svg version="1.1" id="Layer_1" xmlns="http://www.w3.org/2000/svg" xmlns:xlink="http://www.w3.org/1999/xlink" x="0px" y="0px"
	 viewBox="0 0 185 62" style="enable-background:new 0 0 185 62;" xml:space="preserve">
<style type="text/css">
	.st0{fill:#CCCCCC;}
	.st1{fill:#606060;}
	.st2{fill:#5C81EA;}
	.st3{fill:#333333;}
	.st4{fill:#FFFFFF;}
	.st5{fill:none;}
</style>
<path class="st0" d="M174.4,47c0,7.3-5.9,13.2-13.2,13.2H13.4C6.1,60.2,0.2,54.3,0.2,47V15c0-7.3,5.9-13.2,13.2-13.2h147.7
	c7.3,0,13.2,5.9,13.2,13.2v32H174.4z"/>
<polygon class="st1" points="172.1,13.2 172.1,54.4 185,47.5 185,13.2 "/>
<path class="st2" d="M185,13h-31.6c-9.5,0-17.1,7.7-17.1,17.1c0,9.5,7.7,17.1,17.1,17.1H185V13z"/>
<g>
	<path class="st3" d="M51.5,21.5h2.7l7.5,12.9l2.2,4.2H64c-0.1-2.1-0.4-4.4-0.4-6.5V21.5h2.5v20.7h-2.7L56,29.1l-2.2-4.2h-0.1
		c0.1,2.1,0.4,4.2,0.4,6.4v10.8h-2.5C51.5,42.1,51.5,21.5,51.5,21.5z"/>
	<path class="st3" d="M77.3,26.4c3.9,0,6.1,2.8,6.1,7.1c0,0.5,0,1.1-0.1,1.5H72.9c0.2,3.3,2.2,5.3,5.1,5.3c1.5,0,2.7-0.5,3.8-1.2
		l1,1.7c-1.3,0.8-2.9,1.6-5.1,1.6c-4.1,0-7.4-3-7.4-8C70.4,29.5,73.8,26.4,77.3,26.4z M81,33.3c0-3.1-1.3-4.8-3.8-4.8
		c-2.2,0-4.1,1.8-4.4,4.8H81z"/>
	<path class="st3" d="M85.5,26.8h2.7l2.3,8.8c0.4,1.5,0.6,2.8,1,4.2h0.1c0.4-1.5,0.6-2.8,1.1-4.2l2.4-8.8h2.5l2.4,8.8
		c0.4,1.5,0.7,2.8,1.1,4.2h0.1c0.4-1.5,0.6-2.8,1-4.2l2.2-8.8h2.4l-4.1,15.2h-3.1l-2.4-8.1c-0.4-1.5-0.6-2.9-1.1-4.4h-0.1
		c-0.4,1.6-0.6,3-1.1,4.5l-2.2,8.2h-3L85.5,26.8z"/>
</g>
<path class="st4" d="M161.8,18.6l-8.1,8.1c-0.1,0.1-0.1,0.1-0.1,0.2l-0.7,2.7c0,0.2,0,0.4,0.1,0.5s0.2,0.2,0.4,0.2h0.1l2.7-0.7
	c0.1,0,0.2-0.1,0.2-0.1l8.1-8.1l0,0l0,0l1.6-1.6c0.2-0.2,0.2-0.5,0-0.7l-2-2c-0.1-0.1-0.2-0.2-0.4-0.2c-0.1,0-0.3,0.1-0.4,0.2
	L161.8,18.6L161.8,18.6L161.8,18.6L161.8,18.6z M155.7,28.6L154,29l0.4-1.7l7.7-7.7l1.3,1.3L155.7,28.6z M163.8,18l1.3,1.3l-0.9,0.9
	l-1.3-1.3L163.8,18z"/>
<rect x="149.1" y="16.8" class="st5" width="17.2" height="22.4"/>
<path class="st4" d="M165.8,22.3c-0.3,0-0.5,0.2-0.5,0.5v16.5h-16.1V19.7h9.5c0.3,0,0.5-0.2,0.5-0.5s-0.2-0.5-0.5-0.5h-10
	c-0.3,0-0.5,0.2-0.5,0.5v20.7c0,0.3,0.2,0.5,0.5,0.5h17.1c0.3,0,0.5-0.2,0.5-0.5v-17C166.3,22.6,166.1,22.3,165.8,22.3L165.8,22.3z"
	/>
</svg>
