<?xml version="1.0" encoding="utf-8"?>
<!-- Generator: Adobe Illustrator 21.0.0, SVG Export Plug-In . SVG Version: 6.00 Build 0)  -->
<svg version="1.1" id="Layer_1" xmlns="http://www.w3.org/2000/svg" xmlns:xlink="http://www.w3.org/1999/xlink" x="0px" y="0px"
	 viewBox="0 0 183.9 58.4" style="enable-background:new 0 0 183.9 58.4;" xml:space="preserve">
<style type="text/css">
	.st0{fill:#CCCCCC;}
	.st1{fill:#606060;}
	.st2{fill:#5C81EA;}
	.st3{fill:#FFFFFF;}
</style>
<path class="st0" d="M183.9,45.2c0,7.3-6.1,13.2-13.6,13.2H17.8c-7.5,0-13.6-5.9-13.6-13.2v-32C4.2,5.9,10.3,0,17.8,0h152.4
	c7.5,0,13.6,5.9,13.6,13.2v32H183.9z"/>
<polygon class="st1" points="181.6,11.4 181.6,52.6 194.5,45.7 194.5,11.4 "/>
<path class="st2" d="M194.5,11.2h-31.6c-9.5,0-17.1,7.7-17.1,17.1c0,9.5,7.7,17.1,17.1,17.1h31.6V11.2z"/>
<g>
	<path d="M13.8,20.2H16l6,10.4l1.8,3.4h0.1c-0.1-1.7-0.3-3.5-0.3-5.3v-8.5h2v16.5h-2.2l-6-10.4l-1.8-3.4h-0.1
		c0.1,1.7,0.3,3.4,0.3,5.2v8.6h-2V20.2z"/>
	<path d="M33.4,24.2c3.1,0,4.9,2.2,4.9,5.7c0,0.4,0,0.8-0.1,1.1H30c0.2,2.6,1.7,4.3,4.1,4.3c1.2,0,2.1-0.4,3-1l0.7,1.4
		c-1.1,0.7-2.4,1.3-4,1.3c-3.3,0-5.9-2.4-5.9-6.4C27.9,26.6,30.6,24.2,33.4,24.2z M36.5,29.7c0-2.5-1.1-3.9-3-3.9
		c-1.7,0-3.3,1.4-3.5,3.9H36.5z"/>
	<path d="M39,24.5h2.1l1.8,7.1c0.3,1.2,0.5,2.3,0.7,3.4h0.1c0.3-1.1,0.5-2.3,0.8-3.4l1.9-7.1h2l1.9,7.1c0.3,1.2,0.6,2.3,0.9,3.4h0.1
		c0.3-1.1,0.5-2.2,0.8-3.4l1.8-7.1h2l-3.3,12.3h-2.5l-1.8-6.6c-0.3-1.2-0.5-2.3-0.8-3.5h-0.1c-0.3,1.2-0.5,2.4-0.9,3.6l-1.7,6.6
		h-2.4L39,24.5z"/>
	<path d="M61.7,20.2h2.5l3.2,8.9l1.2,3.4h0.1l1.2-3.4l3.2-8.9h2.5v16.5h-2v-9.1c0-1.5,0.2-3.4,0.3-4.9h-0.1l-1.3,3.7l-3.2,8.6H68
		l-3.2-8.6l-1.3-3.7h-0.1c0.1,1.5,0.3,3.4,0.3,4.9v9.1h-1.9V20.2z"/>
	<path d="M83.4,24.2c3.1,0,4.9,2.2,4.9,5.7c0,0.4,0,0.8-0.1,1.1h-8.3c0.2,2.6,1.7,4.3,4.1,4.3c1.2,0,2.1-0.4,3.1-1l0.7,1.4
		c-1.1,0.7-2.4,1.3-4,1.3c-3.3,0-5.9-2.4-5.9-6.4C77.9,26.6,80.6,24.2,83.4,24.2z M86.5,29.7c0-2.5-1.1-3.9-3-3.9
		c-1.7,0-3.3,1.4-3.5,3.9H86.5z"/>
	<path d="M90.3,24.5H92l0.2,1.8h0.1c1.1-1.2,2.3-2.1,3.8-2.1c1.9,0,2.9,0.9,3.4,2.3c1.3-1.4,2.5-2.3,4-2.3c2.5,0,3.7,1.7,3.7,4.8
		v7.8h-2.1v-7.5c0-2.3-0.7-3.3-2.3-3.3c-1,0-1.9,0.6-3.1,1.9v8.9h-2.1v-7.5c0-2.3-0.7-3.3-2.3-3.3c-0.9,0-1.9,0.6-3.1,1.9v8.9h-2.1
		V24.5z"/>
	<path d="M110.2,18.8h2.1v4.9l0,2.2c1.1-1,2.5-1.7,3.8-1.7c3.2,0,4.9,2.4,4.9,6.2c0,4.2-2.5,6.6-5.3,6.6c-1.1,0-2.4-0.6-3.5-1.5H112
		l-0.2,1.2h-1.7V18.8z M115.2,35.3c2,0,3.5-1.8,3.5-4.9c0-2.7-0.9-4.5-3.2-4.5c-1,0-2.1,0.6-3.3,1.7V34
		C113.3,34.9,114.4,35.3,115.2,35.3z"/>
	<path d="M127.7,24.2c3.1,0,4.9,2.2,4.9,5.7c0,0.4,0,0.8-0.1,1.1h-8.3c0.2,2.6,1.7,4.3,4.1,4.3c1.2,0,2.1-0.4,3-1l0.7,1.4
		c-1.1,0.7-2.4,1.3-4,1.3c-3.3,0-5.9-2.4-5.9-6.4C122.3,26.6,124.9,24.2,127.7,24.2z M130.8,29.7c0-2.5-1.1-3.9-3-3.9
		c-1.7,0-3.3,1.4-3.5,3.9H130.8z"/>
	<path d="M134.7,24.5h1.7l0.2,2.2h0.1c0.8-1.5,2.1-2.5,3.5-2.5c0.5,0,0.9,0.1,1.3,0.3l-0.4,1.8c-0.4-0.1-0.7-0.2-1.2-0.2
		c-1,0-2.3,0.8-3.1,2.8v7.9h-2.1V24.5z"/>
</g>
<g>
	<path class="st3" d="M177.2,28.2c0-6.3-5.1-11.4-11.4-11.4s-11.4,5.1-11.4,11.4c0,3.3,1.4,6.3,3.7,8.4l0,0l0.4,0.3
		c0,0,0.1,0,0.1,0.1c0.2,0.2,0.4,0.3,0.6,0.5c0.1,0,0.1,0.1,0.2,0.1c0.2,0.2,0.4,0.3,0.7,0.4c0.1,0,0.1,0.1,0.2,0.1
		c0.3,0.1,0.5,0.3,0.8,0.4c0,0,0,0,0.1,0c0.9,0.4,1.8,0.7,2.7,0.9c0,0,0.1,0,0.1,0c0.3,0.1,0.6,0.1,0.9,0.1c0,0,0.1,0,0.1,0
		c0.3,0,0.6,0,0.9,0c0.3,0,0.6,0,0.9,0c0,0,0.1,0,0.1,0c0.3,0,0.6-0.1,0.9-0.1c0,0,0.1,0,0.1,0c0.9-0.2,1.9-0.5,2.7-0.8
		c0,0,0.1,0,0.1,0c0.3-0.1,0.5-0.3,0.7-0.4c0.1,0,0.1-0.1,0.2-0.1c0.2-0.1,0.4-0.3,0.7-0.4c0.1-0.1,0.2-0.1,0.2-0.2
		c0.2-0.1,0.4-0.3,0.5-0.4c0,0,0.1-0.1,0.1-0.1l0.4-0.3l0,0C175.7,34.5,177.2,31.5,177.2,28.2L177.2,28.2z M155.3,28.2
		c0-5.8,4.7-10.5,10.5-10.5s10.5,4.7,10.5,10.5c0,3.1-1.4,5.9-3.6,7.9c-0.1-0.1-0.2-0.2-0.4-0.2l-3.5-1.7c-0.3-0.2-0.5-0.5-0.5-0.8
		v-1.2c0.1-0.1,0.2-0.2,0.3-0.3c0.5-0.6,0.8-1.4,1.1-2.1c0.5-0.2,0.9-0.8,0.9-1.4v-1.5c0-0.4-0.1-0.7-0.4-1v-1.9
		c0-0.2,0.1-1.4-0.8-2.4c-0.8-0.9-2-1.3-3.7-1.3s-2.9,0.4-3.7,1.3c-0.9,1-0.8,2.2-0.8,2.4v1.9c-0.2,0.3-0.4,0.6-0.4,1v1.5
		c0,0.5,0.2,0.9,0.6,1.2c0.3,1.3,1,2.3,1.3,2.6v1.2c0,0.3-0.2,0.6-0.5,0.8l-3.3,1.8c-0.1,0.1-0.2,0.1-0.3,0.2
		C156.6,34.1,155.3,31.3,155.3,28.2L155.3,28.2z M172,36.7c-0.1,0.1-0.3,0.2-0.4,0.3c-0.1,0-0.1,0.1-0.2,0.1
		c-0.2,0.1-0.4,0.2-0.6,0.3c0,0-0.1,0-0.1,0.1c-0.5,0.2-0.9,0.4-1.4,0.6c0,0,0,0-0.1,0c-0.3,0.1-0.5,0.2-0.8,0.2h0
		c-0.3,0.1-0.5,0.1-0.8,0.2c0,0,0,0,0,0c-0.3,0-0.5,0.1-0.8,0.1c0,0-0.1,0-0.1,0c-0.3,0-0.5,0-0.8,0c-0.3,0-0.5,0-0.8,0
		c0,0-0.1,0-0.1,0c-0.3,0-0.5-0.1-0.8-0.1l0,0c-0.5-0.1-1.1-0.2-1.6-0.4c0,0,0,0,0,0c-0.3-0.1-0.5-0.2-0.8-0.3c0,0,0,0,0,0
		c-0.2-0.1-0.5-0.2-0.7-0.3c0,0-0.1,0-0.1,0c-0.2-0.1-0.4-0.2-0.6-0.4c-0.1,0-0.1-0.1-0.2-0.1c-0.2-0.1-0.4-0.3-0.6-0.4
		c0,0,0,0-0.1,0l0,0l3.3-1.8c0.6-0.3,0.9-0.9,0.9-1.5v-1.5l-0.1-0.1c0,0-0.9-1.1-1.2-2.6l0-0.2l-0.1-0.1c-0.2-0.1-0.3-0.3-0.3-0.6
		v-1.5c0-0.2,0.1-0.4,0.2-0.5l0.1-0.1v-2.3l0-0.1c0,0-0.1-1,0.6-1.8c0.6-0.7,1.6-1,3-1c1.4,0,2.4,0.3,3,1c0.7,0.8,0.6,1.8,0.6,1.8
		l0,2.4l0.1,0.1c0.1,0.1,0.2,0.3,0.2,0.5v1.5c0,0.3-0.2,0.6-0.5,0.7l-0.2,0.1l-0.1,0.2c-0.2,0.8-0.6,1.5-1,2.1
		c-0.1,0.2-0.2,0.3-0.3,0.4l-0.1,0.1v1.5c0,0.7,0.4,1.3,1,1.6l3.5,1.7c0,0,0,0,0.1,0C172.1,36.7,172,36.7,172,36.7L172,36.7z
		 M172,36.7"/>
</g>
</svg>
