<?xml version="1.0" encoding="utf-8"?>
<!-- Generator: Adobe Illustrator 21.0.0, SVG Export Plug-In . SVG Version: 6.00 Build 0)  -->
<svg version="1.1" id="Layer_1" xmlns="http://www.w3.org/2000/svg" xmlns:xlink="http://www.w3.org/1999/xlink" x="0px" y="0px"
	 viewBox="0 0 185 62" style="enable-background:new 0 0 185 62;" xml:space="preserve">
<style type="text/css">
	.st0{fill:#34495E;}
	.st1{fill:#606060;}
	.st2{fill:#5C81EA;}
	.st3{fill:#FFFFFF;}
	.st4{fill:none;}
	.st5{clip-path:url(#SVGID_2_);fill:#FFFFFF;}
</style>
<path class="st0" d="M174.4,47c0,7.3-5.9,13.2-13.2,13.2H13.4C6.1,60.2,0.2,54.3,0.2,47V15c0-7.3,5.9-13.2,13.2-13.2h147.7
	c7.3,0,13.2,5.9,13.2,13.2v32H174.4z"/>
<polygon class="st1" points="172.1,13.2 172.1,54.4 185,47.5 185,13.2 "/>
<path class="st2" d="M185,13h-31.6c-9.5,0-17.1,7.7-17.1,17.1c0,9.5,7.7,17.1,17.1,17.1H185V13z"/>
<g>
	<path class="st3" d="M56.5,21.6H59l6.8,11.8l2,3.9h0.1c-0.1-1.9-0.3-4-0.3-6v-9.7h2.3v18.8h-2.5l-6.8-11.8l-2-3.9h-0.1
		c0.1,1.9,0.3,3.9,0.3,5.9v9.8h-2.3V21.6z"/>
	<path class="st3" d="M79.9,26.1c3.5,0,5.5,2.5,5.5,6.5c0,0.5,0,0.9-0.1,1.3H76c0.2,3,2,4.9,4.6,4.9c1.3,0,2.4-0.4,3.5-1.1l0.8,1.5
		c-1.2,0.8-2.7,1.4-4.6,1.4c-3.7,0-6.7-2.7-6.7-7.3S76.8,26.1,79.9,26.1z M83.4,32.4c0-2.8-1.3-4.4-3.4-4.4c-1.9,0-3.7,1.6-4,4.4
		H83.4z"/>
	<path class="st3" d="M91.3,33.1l-4.2-6.6h2.5l1.9,3.1c0.4,0.7,0.9,1.5,1.4,2.3H93c0.4-0.8,0.8-1.6,1.3-2.3l1.7-3.1h2.5l-4.2,6.9
		l4.5,7h-2.5l-2-3.2c-0.5-0.8-1-1.7-1.5-2.5h-0.1c-0.5,0.8-0.9,1.6-1.4,2.5l-1.9,3.2h-2.5L91.3,33.1z"/>
	<path class="st3" d="M101.9,28.4h-2.1v-1.8l2.2-0.1l0.3-3.9h2v3.9h3.7v1.9h-3.7v7.7c0,1.7,0.5,2.7,2.1,2.7c0.5,0,1.1-0.2,1.6-0.4
		l0.5,1.8c-0.8,0.3-1.7,0.5-2.6,0.5c-3,0-4-1.9-4-4.6V28.4z"/>
</g>
<rect x="149.1" y="16.8" class="st4" width="17.2" height="22.4"/>
<g>
	<defs>
		<rect id="SVGID_1_" x="146.4" y="20.5" width="22.6" height="19.4"/>
	</defs>
	<clipPath id="SVGID_2_">
		<use xlink:href="#SVGID_1_"  style="overflow:visible;"/>
	</clipPath>
	<path class="st5" d="M168.7,28.8l-10-8.2c-0.2-0.2-0.4-0.2-0.7-0.1c-0.2,0.1-0.4,0.3-0.4,0.6v4.3c-4.8,0.2-8.2,1.9-9.9,5.1
		c-1.5,2.8-1.5,6-1.5,8.2v0.5c0,0.3,0.2,0.5,0.5,0.6c0.1,0,0.1,0,0.2,0c0.2,0,0.4-0.1,0.5-0.3c3.4-5.9,6.1-6.2,10.2-6.2v4.3
		c0,0.2,0.1,0.5,0.4,0.6c0.2,0.1,0.5,0.1,0.7-0.1l9.9-8.2c0.1-0.1,0.2-0.3,0.2-0.5C169,29.1,168.9,28.9,168.7,28.8L168.7,28.8z
		 M159,36.2v-3.6c0-0.2-0.1-0.3-0.2-0.4c-0.1-0.1-0.3-0.2-0.4-0.2c-2.5,0-4.4,0.1-6.3,0.9c-1.6,0.8-3,2-4.4,4c0.1-1.8,0.3-4,1.3-5.9
		c1.6-2.9,4.7-4.4,9.4-4.4c0.3,0,0.6-0.3,0.6-0.6v-3.6l8.3,6.9L159,36.2z M159,36.2"/>
</g>
</svg>
