<svg xmlns="http://www.w3.org/2000/svg" viewBox="0 0 154.8 58.4"><defs><style>.cls-1{fill:#34495e;}.cls-2{fill:#606060;}.cls-3{fill:red;}.cls-4,.cls-5{fill:#fff;}.cls-5{stroke:#fff;stroke-miterlimit:10;}</style></defs><title>Asset 5</title><g id="Layer_2" data-name="Layer 2"><g id="Layer_1-2" data-name="Layer 1"><path class="cls-1" d="M144.2,45.2A13.19,13.19,0,0,1,131,58.4H13.2A13.19,13.19,0,0,1,0,45.22H0v-32A13.19,13.19,0,0,1,13.16,0H130.9a13.19,13.19,0,0,1,13.2,13.18h0v32Z"/><polygon class="cls-2" points="141.9 11.5 141.9 52.7 154.8 45.8 154.8 11.5 141.9 11.5"/><path class="cls-3" d="M154.8,11.3H123.2a17.1,17.1,0,0,0,0,34.2h31.6Z"/><path class="cls-4" d="M47.1,22.27h2.41l6.66,11.54,2,3.81h.11c-.11-1.85-.31-3.92-.31-5.85V22.27h2.21V40.64H57.77L51.13,29.08l-2-3.78H49c.11,1.85.28,3.81.28,5.74v9.6H47.1Z"/><path class="cls-4" d="M70.23,26.7c3.33,0,6.3,2.6,6.3,7.17s-3,7.11-6.3,7.11-6.3-2.6-6.3-7.11S66.9,26.7,70.23,26.7Zm0,12.38c2.35,0,3.92-2.1,3.92-5.21s-1.57-5.26-3.92-5.26-3.92,2.13-3.92,5.26S67.91,39.07,70.23,39.07Z"/><path class="cls-5" d="M133.45,28.27a10.37,10.37,0,0,1-20.75,0,10.37,10.37,0,0,1,20.75,0Zm-5,6.84L116.23,22.87a8.49,8.49,0,0,0-1.86,5.4,8.7,8.7,0,0,0,14.1,6.84Zm3.33-6.84a8.72,8.72,0,0,0-14.39-6.62l12.29,12.29A8.42,8.42,0,0,0,131.79,28.27Z"/></g></g></svg>