<svg xmlns="http://www.w3.org/2000/svg" viewBox="0 0 169.3 58.4"><defs><style>.cls-1{fill:#ccc;}.cls-2{fill:#606060;}.cls-3{fill:#06f;}.cls-4{fill:#fff;stroke:#fff;stroke-miterlimit:10;stroke-width:2px;}</style></defs><title>Asset 2</title><g id="Layer_2" data-name="Layer 2"><g id="Layer_1-2" data-name="Layer 1"><path class="cls-1" d="M158.7,45.2a13.41,13.41,0,0,1-13.6,13.2H13.6A13.41,13.41,0,0,1,0,45.2v-32A13.41,13.41,0,0,1,13.6,0H145a13.41,13.41,0,0,1,13.6,13.2l.1,32Z"/><polygon class="cls-2" points="156.4 11.4 156.4 52.6 169.3 45.7 169.3 11.4 156.4 11.4"/><path class="cls-3" d="M169.3,12.1H137.7a17.1,17.1,0,1,0,0,34.2h31.6Z"/><path d="M51.32,31.39c0-5.91,3.3-9.41,8.09-9.41s8.06,3.5,8.06,9.41S64.17,41,59.41,41,51.32,37.33,51.32,31.39Zm12.82,0c0-4.09-1.88-6.58-4.73-6.58s-4.76,2.49-4.76,6.58,1.88,6.75,4.76,6.75S64.14,35.51,64.14,31.39Z"/><path d="M71.08,22.32h3.25v8.32h.08l6.52-8.32h3.58L78.9,29.46l6.58,11.17H81.89L77,32l-2.63,3.28v5.35H71.08Z"/><g id="Check"><path class="cls-4" d="M148.49,20,142,27.58l-3.25,3.79-1.49,1.74-.81.95-.33.38c-1-.64-1.9-1.53-2.8-2.21l-3.65-2.77c-1.08-.82-2.13,1-1.06,1.82l6.3,4.79c.75.57,1.46,1.06,2.29.32a28.89,28.89,0,0,0,2.49-2.89l10.3-12C150.86,20.46,149.37,19,148.49,20Z"/></g></g></g></svg>