<svg xmlns="http://www.w3.org/2000/svg" viewBox="0 0 174.8 58.4"><defs><style>.cls-1{fill:#ccc;}.cls-2{fill:#606060;}.cls-3{fill:#5c81ea;}.cls-4{fill:none;}.cls-5{fill:#fff;}</style></defs><title>Asset 5</title><g id="Layer_2" data-name="Layer 2"><g id="Layer_1-2" data-name="Layer 1"><path class="cls-1" d="M164.2,45.2A13.19,13.19,0,0,1,151,58.4H13.2A13.19,13.19,0,0,1,0,45.2H0v-32A13.19,13.19,0,0,1,13.2,0H150.9a13.19,13.19,0,0,1,13.2,13.2h0v32Z"/><polygon class="cls-2" points="161.9 11.4 161.9 52.6 174.8 45.7 174.8 11.4 161.9 11.4"/><path class="cls-3" d="M174.8,11.2H143.2a17.1,17.1,0,1,0,0,34.2h31.6Z"/><rect class="cls-4" x="138.9" y="15" width="17.2" height="22.4"/><path class="cls-5" d="M161.4,18.3h-9.1v3h3v2h-3v2h3v2h-3v2h3v2h-3v2h3v2h-3v3h9.1a.9.9,0,0,0,.9-.9V19c0-.5-.3-.8-.9-.7Zm-1,16.7h-4V33h4Zm0-3.9h-4v-2h4Zm0-4h-4v-2h4Zm0-4h-4v-2h4Z"/><path class="cls-5" d="M136.6,18.1V38.2l14.9,2.9V15.3Zm9.3,15.2-1.7-3.2c-.1-.1-.1-.4-.2-.6h0a1.85,1.85,0,0,1-.2.7l-1.7,3.2h-2.7l3.2-5.1-3-5.1h2.7l1.5,3a2.92,2.92,0,0,1,.2.9h0a1.8,1.8,0,0,1,.4-.9l1.6-3h2.5l-3,5,3.1,5.1Z"/><path d="M19.94,19.93h5.66c4.06,0,6.78,1.37,6.78,5.4,0,3.86-2.77,5.68-6.78,5.68h-3.3V38.3H19.94Zm5.35,9.18c3.22,0,4.76-1.18,4.76-3.78s-1.6-3.53-4.76-3.53h-3v7.31Z"/><path d="M42.28,29.68c0-1.74-.59-3.42-2.8-3.42a7.32,7.32,0,0,0-4.06,1.46l-.92-1.6a10.1,10.1,0,0,1,5.35-1.76c3.33,0,4.73,2.21,4.73,5.6V38.3h-1.9l-.2-1.62h-.06a7.39,7.39,0,0,1-4.51,2,3.71,3.71,0,0,1-4-3.86C33.91,31.8,36.48,30.32,42.28,29.68Zm-3.72,7.11A5.58,5.58,0,0,0,42.28,35V31.19c-4.56.56-6.1,1.68-6.1,3.42A2.09,2.09,0,0,0,38.56,36.79Z"/><path d="M48.92,24.69h1.9l.2,2h.08a6.42,6.42,0,0,1,4.56-2.3c2.86,0,4.14,1.85,4.14,5.32V38.3h-2.3V30c0-2.55-.78-3.64-2.58-3.64-1.4,0-2.35.73-3.72,2.1V38.3h-2.3Z"/><path d="M71.93,29.68c0-1.74-.59-3.42-2.8-3.42a7.32,7.32,0,0,0-4.06,1.46l-.92-1.6a10.1,10.1,0,0,1,5.35-1.76c3.33,0,4.73,2.21,4.73,5.6V38.3h-1.9l-.2-1.62h-.06a7.39,7.39,0,0,1-4.51,2,3.71,3.71,0,0,1-4-3.86C63.56,31.8,66.14,30.32,71.93,29.68Zm-3.72,7.11A5.58,5.58,0,0,0,71.93,35V31.19c-4.56.56-6.1,1.68-6.1,3.42A2.09,2.09,0,0,0,68.21,36.79Z"/><path d="M78.57,24.69h1.9l.2,2h.08A6,6,0,0,1,85,24.36,3.57,3.57,0,0,1,88.73,27c1.43-1.54,2.83-2.6,4.48-2.6,2.8,0,4.14,1.85,4.14,5.32V38.3h-2.3V30c0-2.55-.81-3.64-2.52-3.64-1.06,0-2.16.7-3.42,2.1V38.3H86.83V30c0-2.55-.81-3.64-2.55-3.64-1,0-2.16.7-3.42,2.1V38.3h-2.3Z"/><path d="M109.48,29.68c0-1.74-.59-3.42-2.8-3.42a7.33,7.33,0,0,0-4.06,1.46l-.92-1.6A10.1,10.1,0,0,1,107,24.36c3.33,0,4.73,2.21,4.73,5.6V38.3h-1.9l-.2-1.62h-.06a7.39,7.39,0,0,1-4.51,2,3.71,3.71,0,0,1-4-3.86C101.11,31.8,103.68,30.32,109.48,29.68Zm-3.72,7.11A5.58,5.58,0,0,0,109.48,35V31.19c-4.56.56-6.1,1.68-6.1,3.42A2.09,2.09,0,0,0,105.76,36.79Z"/></g></g></svg>