<?xml version="1.0" encoding="utf-8"?>
<!-- Generator: Adobe Illustrator 21.0.0, SVG Export Plug-In . SVG Version: 6.00 Build 0)  -->
<svg version="1.1" id="Layer_1" xmlns="http://www.w3.org/2000/svg" xmlns:xlink="http://www.w3.org/1999/xlink" x="0px" y="0px"
	 viewBox="0 0 185 62" style="enable-background:new 0 0 185 62;" xml:space="preserve">
<style type="text/css">
	.st0{fill:#CCCCCC;}
	.st1{fill:#606060;}
	.st2{fill:#CC0606;}
	.st3{fill:#FFFFFF;}
</style>
<path class="st0" d="M174.4,47c0,7.3-5.9,13.2-13.2,13.2H13.4C6.1,60.2,0.2,54.3,0.2,47V15c0-7.3,5.9-13.2,13.2-13.2h147.7
	c7.3,0,13.2,5.9,13.2,13.2v32H174.4z"/>
<g>
	<g>
		<path d="M54.1,23.6h5.8c4.2,0,7,1.4,7,5.5c0,4-2.9,5.8-7,5.8h-3.4v7.5h-2.4L54.1,23.6L54.1,23.6z M59.6,33.1
			c3.3,0,4.9-1.2,4.9-3.9s-1.7-3.6-4.9-3.6h-3.1v7.5H59.6z"/>
		<path d="M74.8,28.2c1.6,0,2.6,0.6,3.9,1.6l-0.1-2.4V22H81v20.5h-1.9l-0.2-1.7h-0.1c-1.1,1-2.6,2-4.2,2c-3.5,0-5.8-2.6-5.8-7.3
			C68.7,31,71.6,28.2,74.8,28.2z M75,40.9c1.3,0,2.4-0.6,3.6-1.9v-7.3c-1.2-1-2.2-1.4-3.4-1.4c-2.2,0-4,2.2-4,5.4
			C71.1,38.9,72.6,40.9,75,40.9z"/>
		<path d="M92,24c-0.5-0.2-1-0.3-1.6-0.3c-1.4,0-1.9,1-1.9,2.7v2.2h3v1.8h-3v12.1h-2.4v-12h-1.9v-1.8l1.9-0.2v-2.2
			c0-2.9,1.3-4.6,4.1-4.6c0.9,0,1.7,0.2,2.3,0.5L92,24z"/>
	</g>
</g>
<polygon class="st1" points="172.1,13.2 172.1,54.4 185,47.5 185,13.2 "/>
<path class="st2" d="M185,13h-31.6c-9.5,0-17.1,7.7-17.1,17.1c0,9.5,7.7,17.1,17.1,17.1H185V13z"/>
<g>
	<path class="st3" d="M167.4,31.8c-0.4-0.4-1-0.5-2.2-0.5c-0.8,0-1.7,0-2.7,0.3c-0.4-0.3-0.9-0.5-1.3-0.9c-0.9-0.9-1.8-2.1-2.2-3.5
		c0-0.1,0-0.3,0.1-0.4c0,0,0.5-3.1,0.4-4.2c0-0.1,0-0.1-0.1-0.3v-0.1c-0.1-0.4-0.4-0.7-0.9-0.7h-0.3l0,0c-0.5,0-0.9,0.3-1,0.7
		c-0.4,1.2,0,3,0.7,5.4l-0.1,0.4c-0.4,1-1,2.1-1.4,3.1v0.1c-0.5,1-0.9,1.8-1.4,2.6l-0.4,0.3c0,0-0.8,0.4-0.9,0.5
		c-1.4,0.9-2.5,1.8-2.6,2.7c0,0.3,0,0.5,0.3,0.8l0.4,0.3c0.1,0.1,0.4,0.1,0.5,0.1c1,0,2.2-1.3,3.9-4.3c2-0.7,4.2-1.2,6.1-1.4
		c1.4,0.8,3.3,1.4,4.4,1.4c0.3,0,0.4,0,0.5,0c0.3,0,0.4-0.1,0.5-0.4c0.3-0.4,0.3-0.8,0.3-1.3C167.7,32,167.6,31.9,167.4,31.8
		L167.4,31.8z M151.6,37.4c0.1-0.5,0.9-1.6,2.1-2.5c0.1,0,0.3-0.3,0.4-0.4C153,36.4,152.1,37.1,151.6,37.4L151.6,37.4z M158.4,22
		c0.4,0,0.5,0.9,0.5,1.7c0,0.8-0.1,1.3-0.4,1.8c-0.1-0.7-0.3-1.6-0.3-2.2C158.1,23.3,158.1,22,158.4,22L158.4,22z M156.3,33
		c0.3-0.4,0.5-0.9,0.8-1.3c0.7-1.2,1-2.1,1.3-2.9c0.5,1,1.3,2,2.1,2.6c0.1,0.1,0.3,0.1,0.4,0.3C159.2,32,157.6,32.4,156.3,33
		L156.3,33z M167.2,32.8c-0.1,0-0.4,0.1-0.7,0.1c-0.7,0-1.4-0.3-2.5-0.8c0.4,0,0.8,0,1.2,0c0.7,0,0.8,0,1.4,0.1
		C167.2,32.4,167.2,32.8,167.2,32.8L167.2,32.8z M169,22l-3.5-3.5c-0.8-0.8-2.4-1.4-3.4-1.4h-12c-1,0-2,0.9-2,2v21.6c0,1,0.9,2,2,2
		h18.4c1,0,2-0.9,2-2V25.4C170.4,24.3,169.8,22.8,169,22L169,22z M167.8,23.1c0.1,0.1,0.1,0.1,0.3,0.3H164v-4.1
		c0.1,0.1,0.3,0.1,0.3,0.3L167.8,23.1z M168.7,40.7c0,0.3-0.1,0.4-0.4,0.4h-18.4c-0.3,0-0.4-0.1-0.4-0.4V19c0-0.3,0.1-0.4,0.4-0.4
		h12c0.1,0,0.3,0,0.4,0V25h6.4c0,0.1,0,0.3,0,0.4V40.7L168.7,40.7z"/>
</g>
</svg>
