<?xml version="1.0" encoding="utf-8"?>
<!-- Generator: Adobe Illustrator 21.0.0, SVG Export Plug-In . SVG Version: 6.00 Build 0)  -->
<svg version="1.1" id="Layer_1" xmlns="http://www.w3.org/2000/svg" xmlns:xlink="http://www.w3.org/1999/xlink" x="0px" y="0px"
	 viewBox="0 0 185 62" style="enable-background:new 0 0 185 62;" xml:space="preserve">
<style type="text/css">
	.st0{fill:#CCCCCC;}
	.st1{fill:#606060;}
	.st2{fill:#2972C1;}
	.st3{fill:#FFFFFF;}
</style>
<path class="st0" d="M174.4,47c0,7.3-5.9,13.2-13.2,13.2H13.4C6.1,60.2,0.2,54.3,0.2,47V15c0-7.3,5.9-13.2,13.2-13.2h147.7
	c7.3,0,13.2,5.9,13.2,13.2v32H174.4z"/>
<g>
	<g>
		<path d="M42,18.6h6.6c4.7,0,7.8,1.6,7.8,6.2c0,4.5-3.2,6.6-7.8,6.6h-3.8v8.5h-2.7L42,18.6L42,18.6z M48.2,29.3
			c3.7,0,5.5-1.4,5.5-4.4s-1.9-4.1-5.5-4.1h-3.5v8.5H48.2z"/>
		<path d="M60.4,24.1h2.2l0.3,2.9h0.1c1.1-2,2.7-3.2,4.5-3.2c0.7,0,1.2,0.1,1.7,0.4l-0.5,2.3c-0.5-0.2-0.9-0.3-1.5-0.3
			c-1.3,0-2.9,1-4,3.6v10.1h-2.7V24.1z"/>
		<path d="M71.2,19.2c0-1.1,0.8-1.7,1.9-1.7c1.1,0,1.8,0.7,1.8,1.7S74,20.9,73,20.9S71.2,20.2,71.2,19.2z M71.6,24.1h2.7v15.7h-2.7
			V24.1z"/>
		<path d="M79.5,24.1h2.2l0.3,2.3h0.1c1.5-1.5,3.2-2.7,5.3-2.7c3.3,0,4.8,2.2,4.8,6.1v10h-2.7v-9.5c0-3-0.9-4.2-3-4.2
			c-1.6,0-2.7,0.8-4.3,2.4v11.4h-2.7L79.5,24.1L79.5,24.1z"/>
		<path d="M97.7,26.3h-2.3v-2l2.4-0.2l0.4-4.4h2.3v4.4h4.2v2.2h-4.2V35c0,2,0.6,3.1,2.4,3.1c0.5,0,1.3-0.3,1.8-0.5l0.5,2
			c-0.9,0.3-2,0.5-2.9,0.5c-3.3,0-4.5-2.2-4.5-5.2L97.7,26.3L97.7,26.3z"/>
	</g>
</g>
<polygon class="st1" points="172.1,13.2 172.1,54.4 185,47.5 185,13.2 "/>
<path class="st2" d="M185,13h-31.6c-9.5,0-17.1,7.7-17.1,17.1c0,9.5,7.7,17.1,17.1,17.1H185V13z"/>
<g>
	<path class="st3" d="M168.5,31.2c1.2,0,2.3-1,2.3-2.3s-1-2.3-2.3-2.3c-1.2,0-2.3,1-2.3,2.3S167.2,31.2,168.5,31.2L168.5,31.2z
		 M168.5,27.6c0.8,0,1.4,0.6,1.4,1.4s-0.6,1.4-1.4,1.4s-1.4-0.6-1.4-1.4S167.7,27.6,168.5,27.6L168.5,27.6z"/>
	<path class="st3" d="M164.9,36.2H154c-0.2,0-0.5,0.2-0.5,0.5s0.2,0.5,0.5,0.5h10.9c0.2,0,0.5-0.2,0.5-0.5S165.1,36.2,164.9,36.2
		L164.9,36.2z"/>
	<path class="st3" d="M164.9,38.5H154c-0.2,0-0.5,0.2-0.5,0.5s0.2,0.5,0.5,0.5h10.9c0.2,0,0.5-0.2,0.5-0.5S165.1,38.5,164.9,38.5
		L164.9,38.5z"/>
	<path class="st3" d="M168.9,24.4v-7.7h-19v7.7h-4.1v15.4h2.7v1.4h1.4v2.7h19v-2.7h1.4v-1.4h2.7V24.4H168.9z M150.8,17.7H168v6.8
		h-17.2V17.7z M149.9,25.4h22.2v7.2h-25.4v-7.2C146.7,25.4,149.9,25.4,149.9,25.4z M149.5,40.3v-3.2c0-0.2-0.2-0.5-0.5-0.5
		c-0.2,0-0.5,0.2-0.5,0.5v1.8h-1.8v-5.4h3.2v6.8C149.9,40.3,149.5,40.3,149.5,40.3z M168,43h-17.2v-9.5H168V43z M170.3,38.9v-1.8
		c0-0.2-0.2-0.5-0.5-0.5c-0.2,0-0.5,0.2-0.5,0.5v3.2h-0.5v-6.8h3.2v5.4C172,38.9,170.3,38.9,170.3,38.9z"/>
</g>
</svg>
