<svg xmlns="http://www.w3.org/2000/svg" viewBox="0 0 332.5 58.4"><defs><style>.cls-1{fill:#ccc;}.cls-2{fill:#606060;}.cls-3{fill:#090;}.cls-4{fill:none;}.cls-5{fill:#fff;}</style></defs><title>Asset 4</title><g id="Layer_2" data-name="Layer 2"><g id="Layer_1-2" data-name="Layer 1"><path class="cls-1" d="M321.9,45.2c0,7.3-7,13.2-15.65,13.2H15.65C7,58.4,0,52.5,0,45.2v-32C0,5.9,7,0,15.65,0H306.13c8.63,0,15.65,5.9,15.65,13.2l.12,32Z"/><polygon class="cls-2" points="319.6 11.4 319.6 52.6 332.5 45.7 332.5 11.4 319.6 11.4"/><path class="cls-3" d="M332.5,11.2H300.9a17.1,17.1,0,1,0,0,34.2h31.6Z"/><rect class="cls-4" x="294.9" y="23" width="16.8" height="14"/><path d="M15.44,18.47h5.66c4.06,0,6.78,1.37,6.78,5.4,0,3.86-2.77,5.68-6.78,5.68h-3.3v7.28H15.44Zm5.35,9.18c3.22,0,4.76-1.18,4.76-3.78s-1.6-3.53-4.76-3.53h-3v7.31Z"/><path d="M31.28,23.23h1.9l.2,2.46h.08a4.65,4.65,0,0,1,3.86-2.8,3.38,3.38,0,0,1,1.46.28l-.45,2A3.81,3.81,0,0,0,37,25c-1.15,0-2.52.84-3.44,3.14v8.74h-2.3Z"/><path d="M46,22.89c3.33,0,6.3,2.6,6.3,7.17s-3,7.11-6.3,7.11-6.3-2.6-6.3-7.11S42.68,22.89,46,22.89Zm0,12.38c2.35,0,3.92-2.1,3.92-5.21S48.36,24.79,46,24.79s-3.92,2.13-3.92,5.26S43.69,35.27,46,35.27Z"/><path d="M61.44,22.89a5.61,5.61,0,0,1,4,1.62L64.27,26a4.11,4.11,0,0,0-2.74-1.2c-2.46,0-4.26,2.13-4.26,5.26s1.71,5.21,4.2,5.21a4.86,4.86,0,0,0,3.19-1.37l1,1.51a6.74,6.74,0,0,1-4.42,1.76c-3.61,0-6.38-2.6-6.38-7.11S57.94,22.89,61.44,22.89Z"/><path d="M73.17,22.89c3.47,0,5.43,2.49,5.43,6.38a8.15,8.15,0,0,1-.08,1.26H69.34c.17,2.94,1.93,4.79,4.54,4.79a6.14,6.14,0,0,0,3.39-1.06l.81,1.51a8.1,8.1,0,0,1-4.48,1.4c-3.64,0-6.52-2.66-6.52-7.11S70.06,22.89,73.17,22.89ZM76.59,29c0-2.77-1.23-4.31-3.36-4.31-1.9,0-3.64,1.57-3.92,4.31Z"/><path d="M87.06,22.89c3.47,0,5.43,2.49,5.43,6.38a8.15,8.15,0,0,1-.08,1.26H83.22c.17,2.94,1.93,4.79,4.54,4.79a6.14,6.14,0,0,0,3.39-1.06L92,35.77a8.1,8.1,0,0,1-4.48,1.4c-3.64,0-6.52-2.66-6.52-7.11S84,22.89,87.06,22.89ZM90.48,29c0-2.77-1.23-4.31-3.36-4.31-1.9,0-3.64,1.57-3.92,4.31Z"/><path d="M100.78,22.89a5.61,5.61,0,0,1,3.81,1.57l-.11-2.32V16.9h2.32V36.83h-1.9l-.2-1.6h-.08a6.14,6.14,0,0,1-4.12,1.93c-3.42,0-5.63-2.58-5.63-7.11S97.67,22.89,100.78,22.89ZM101,35.24a4.61,4.61,0,0,0,3.47-1.88V26.25a4.73,4.73,0,0,0-3.3-1.43c-2.18,0-3.92,2.1-3.92,5.21S98.62,35.24,101,35.24Z"/><path d="M115.42,23.23h2.35l2,7.87c.31,1.29.56,2.52.81,3.78h.11c.31-1.26.59-2.52.92-3.78l2.1-7.87H126l2.13,7.87c.34,1.29.64,2.52,1,3.78h.11c.31-1.26.56-2.49.84-3.78l2-7.87h2.18l-3.64,13.61h-2.8l-2-7.31c-.34-1.29-.59-2.55-.92-3.92h-.11c-.31,1.37-.59,2.66-1,3.95l-1.9,7.28H119.2Z"/><path d="M136.73,18.94a1.6,1.6,0,0,1,3.19,0,1.6,1.6,0,0,1-3.19,0Zm.42,4.28h2.3V36.83h-2.3Z"/><path d="M144.43,25.1h-2V23.37l2.13-.14.28-3.81h1.93v3.81h3.67V25.1h-3.67v7.56c0,1.68.53,2.63,2.1,2.63a5,5,0,0,0,1.54-.36l.45,1.74a8.4,8.4,0,0,1-2.52.5c-2.91,0-3.89-1.85-3.89-4.54Z"/><path d="M153.5,16.9h2.3v5.43l-.08,2.8a6.51,6.51,0,0,1,4.54-2.24c2.86,0,4.14,1.85,4.14,5.32v8.62h-2.3V28.52c0-2.55-.78-3.64-2.58-3.64-1.4,0-2.35.73-3.72,2.1v9.86h-2.3Z"/><path d="M182.93,31.23h-6.69l-1.76,5.6h-2.38l6.22-18.37h2.63l6.22,18.37h-2.46Zm-.59-1.88-.87-2.8c-.64-2-1.23-4.06-1.82-6.19h-.11c-.59,2.13-1.18,4.14-1.82,6.19l-.9,2.8Z"/><path d="M191.75,38v4.59h-2.3V23.23h1.9l.2,1.57h.08a7,7,0,0,1,4.34-1.9c3.5,0,5.38,2.72,5.38,6.94,0,4.62-2.77,7.34-5.88,7.34a6.31,6.31,0,0,1-3.78-1.57Zm3.33-2.74c2.24,0,3.89-2,3.89-5.4,0-3-1-5-3.58-5-1.15,0-2.3.64-3.64,1.85v7.14A5.39,5.39,0,0,0,195.08,35.24Z"/><path d="M207.29,38v4.59H205V23.23h1.9l.2,1.57h.08a7,7,0,0,1,4.34-1.9c3.5,0,5.38,2.72,5.38,6.94,0,4.62-2.77,7.34-5.88,7.34a6.31,6.31,0,0,1-3.78-1.57Zm3.33-2.74c2.24,0,3.89-2,3.89-5.4,0-3-1-5-3.58-5-1.15,0-2.3.64-3.64,1.85v7.14A5.39,5.39,0,0,0,210.62,35.24Z"/><path d="M220.53,23.23h1.9l.2,2.46h.08a4.65,4.65,0,0,1,3.86-2.8,3.38,3.38,0,0,1,1.46.28l-.45,2a3.8,3.8,0,0,0-1.32-.22c-1.15,0-2.52.84-3.44,3.14v8.74h-2.3Z"/><path d="M235.26,22.89c3.33,0,6.3,2.6,6.3,7.17s-3,7.11-6.3,7.11-6.3-2.6-6.3-7.11S231.93,22.89,235.26,22.89Zm0,12.38c2.35,0,3.92-2.1,3.92-5.21s-1.57-5.26-3.92-5.26-3.92,2.13-3.92,5.26S232.94,35.27,235.26,35.27Z"/><path d="M243.07,23.23h2.38L248,31c.39,1.34.84,2.72,1.26,4h.11c.39-1.29.84-2.66,1.23-4l2.58-7.73h2.27l-4.82,13.61H248Z"/><path d="M265.25,28.21c0-1.74-.59-3.42-2.8-3.42a7.32,7.32,0,0,0-4.06,1.46l-.92-1.6a10.1,10.1,0,0,1,5.35-1.76c3.33,0,4.73,2.21,4.73,5.6v8.34h-1.9l-.2-1.62h-.06a7.39,7.39,0,0,1-4.51,2,3.71,3.71,0,0,1-4-3.86C256.88,30.34,259.45,28.85,265.25,28.21Zm-3.72,7.11a5.57,5.57,0,0,0,3.72-1.82V29.72c-4.56.56-6.1,1.68-6.1,3.42A2.08,2.08,0,0,0,261.52,35.32Z"/><path d="M271.88,16.9h2.3V34.26c0,.73.31,1,.64,1a1.91,1.91,0,0,0,.5-.06l.31,1.74a3.1,3.1,0,0,1-1.32.22c-1.74,0-2.44-1.09-2.44-3.08Z"/><path class="cls-5" d="M309,26.79a2.57,2.57,0,0,0-.11-.76,2.87,2.87,0,0,0-2.72-1.94h-5.53a18.07,18.07,0,0,0,.92-3.94c0-.14,0-.19,0-.25A2.55,2.55,0,0,0,299,17.35h-.18v2.22h0a1.35,1.35,0,0,1-.3.85l-2.22,2.77a14.92,14.92,0,0,1-4.15,3.57l-.07,9.49s8.7,2.67,11.43,2.7h0a2.7,2.7,0,0,0,2.7-2.7s0-.07,0-.11a2.67,2.67,0,0,0,2-2.59,2.64,2.64,0,0,0-.19-1,2.63,2.63,0,0,0,1.53-2.4,2.67,2.67,0,0,0-1-2.09"/></g></g></svg>