<?xml version="1.0" encoding="utf-8"?>
<!-- Generator: Adobe Illustrator 21.0.2, SVG Export Plug-In . SVG Version: 6.00 Build 0)  -->
<svg version="1.1" id="Layer_1" xmlns="http://www.w3.org/2000/svg" xmlns:xlink="http://www.w3.org/1999/xlink" x="0px" y="0px"
	 viewBox="0 0 213.2 61.7" style="enable-background:new 0 0 213.2 61.7;" xml:space="preserve">
<style type="text/css">
	.st0{fill:#00BF00;}
	.st1{fill:#353B44;}
	.st2{fill:#FFFFFF;}
	.st3{fill:#008000;}
</style>
<g>
	<g>
		<g>
			<polygon class="st0" points="199.9,9 199.9,51.4 213.2,44.3 213.2,9 			"/>
		</g>
		<g>
			<path class="st1" d="M201,46.6c0,7.5-6.1,13.6-13.6,13.6H13.6C6.1,60.2,0,54.1,0,46.6v-33C0,6.1,6.1,0,13.6,0h173.8
				c7.5,0,13.6,6.1,13.6,13.6V46.6z"/>
		</g>
		<g>
			<path class="st2" d="M46,38.2l-4.5-7.9h-3.3v7.9h-2.4V19.6h5.8c3.8,0,6.5,1.4,6.5,5.2c0,2.9-1.6,4.6-4.2,5.3l4.7,8.1H46z
				 M38.2,28.4h3.1c2.9,0,4.5-1.2,4.5-3.6s-1.6-3.3-4.5-3.3h-3.1V28.4z"/>
			<path class="st2" d="M56.9,24.1c3.5,0,5.5,2.5,5.5,6.5c0,0.5,0,0.9-0.1,1.3H53c0.2,3,2,4.9,4.6,4.9c1.3,0,2.4-0.4,3.4-1.1
				l0.8,1.5c-1.2,0.8-2.7,1.4-4.5,1.4c-3.7,0-6.6-2.7-6.6-7.2S53.7,24.1,56.9,24.1z M60.4,30.3c0-2.8-1.2-4.4-3.4-4.4
				c-1.9,0-3.7,1.6-4,4.4H60.4z"/>
			<path class="st2" d="M64.8,30.2h6.5V32h-6.5V30.2z"/>
			<path class="st2" d="M82.6,29.5c0-1.8-0.6-3.5-2.8-3.5c-1.6,0-3,0.7-4.1,1.5l-0.9-1.6c1.3-0.8,3.2-1.8,5.4-1.8
				c3.4,0,4.8,2.2,4.8,5.7v8.5h-1.9l-0.2-1.6h-0.1c-1.3,1.1-2.9,2-4.6,2c-2.3,0-4.1-1.4-4.1-3.9C74.1,31.6,76.7,30.1,82.6,29.5z
				 M78.8,36.7c1.3,0,2.4-0.7,3.8-1.8v-3.8c-4.6,0.6-6.2,1.7-6.2,3.5C76.4,36,77.5,36.7,78.8,36.7z"/>
			<path class="st2" d="M89,35.1c1.2,1,2.4,1.6,4.1,1.6c1.8,0,2.7-1,2.7-2.2c0-1.4-1.6-2-3.1-2.6c-2-0.7-4.1-1.6-4.1-4
				c0-2.2,1.8-3.9,4.7-3.9c1.7,0,3.2,0.7,4.3,1.6l-1.1,1.5c-0.9-0.7-1.9-1.2-3.1-1.2c-1.7,0-2.5,0.9-2.5,2c0,1.3,1.5,1.8,3.1,2.4
				c2,0.7,4.2,1.6,4.2,4.2c0,2.2-1.8,4.1-5.1,4.1c-2,0-3.8-0.8-5.1-1.9L89,35.1z"/>
			<path class="st2" d="M100.9,35.1c1.2,1,2.4,1.6,4.1,1.6c1.8,0,2.7-1,2.7-2.2c0-1.4-1.6-2-3.1-2.6c-2-0.7-4.1-1.6-4.1-4
				c0-2.2,1.8-3.9,4.7-3.9c1.7,0,3.2,0.7,4.3,1.6l-1.1,1.5c-0.9-0.7-1.9-1.2-3.2-1.2c-1.7,0-2.5,0.9-2.5,2c0,1.3,1.5,1.8,3.1,2.4
				c2,0.7,4.2,1.6,4.2,4.2c0,2.2-1.8,4.1-5.1,4.1c-2,0-3.8-0.8-5.1-1.9L100.9,35.1z"/>
			<path class="st2" d="M112.7,20.1c0-0.9,0.7-1.5,1.6-1.5s1.6,0.6,1.6,1.5s-0.7,1.5-1.6,1.5S112.7,20.9,112.7,20.1z M113.1,24.4
				h2.3v13.8h-2.3V24.4z"/>
			<path class="st2" d="M121.1,37.7v-0.1c-0.7-0.4-1.2-1.2-1.2-2.2c0-1.2,0.8-2.1,1.5-2.6v-0.1c-0.9-0.7-1.8-2.1-1.8-3.7
				c0-3,2.4-4.9,5.2-4.9c0.8,0,1.4,0.1,2,0.3h4.8v1.8h-2.8c0.7,0.6,1.1,1.7,1.1,2.8c0,3-2.2,4.8-5.1,4.8c-0.7,0-1.4-0.2-2.1-0.5
				c-0.5,0.4-0.9,0.9-0.9,1.6c0,0.9,0.6,1.5,2.4,1.5h2.7c3.2,0,4.8,1,4.8,3.3c0,2.6-2.7,4.8-7,4.8c-3.4,0-5.7-1.3-5.7-3.7
				C119.1,39.7,119.8,38.6,121.1,37.7z M125.1,42.9c2.6,0,4.4-1.4,4.4-2.8c0-1.3-1-1.7-2.8-1.7h-2.4c-0.5,0-1.2-0.1-1.8-0.2
				c-1,0.7-1.4,1.5-1.4,2.3C121.1,42,122.6,42.9,125.1,42.9z M127.7,29c0-2-1.3-3.2-2.9-3.2s-2.9,1.2-2.9,3.2s1.3,3.3,2.9,3.3
				C126.4,32.3,127.7,31,127.7,29z"/>
			<path class="st2" d="M134.4,24.4h1.9l0.2,2h0.1c1.3-1.3,2.7-2.3,4.6-2.3c2.9,0,4.2,1.9,4.2,5.4v8.7h-2.3v-8.4
				c0-2.6-0.8-3.7-2.6-3.7c-1.4,0-2.4,0.7-3.8,2.1v10h-2.3L134.4,24.4L134.4,24.4z"/>
		</g>
		<g>
			<g>
				<path class="st3" d="M213.2,8.8h-32.6c-9.8,0-17.7,7.9-17.7,17.7c0,9.8,7.9,17.7,17.7,17.7h32.6V8.8z"/>
			</g>
		</g>
	</g>
	<g>
		<path class="st2" d="M189.6,12.7c3.6,0.1,5.7,2.2,5.8,5.5c0,0.3,0,0.6,0.2,0.8c0.9,0.9,0.8,2.6-0.3,3.3c-0.3,0.2-0.5,0.5-0.7,0.8
			c0,0.1,0,0.1-0.1,0.2c-0.7,2-2.7,3.7-4.4,3.7c-1.7,0-3.7-1.7-4.5-3.6c-0.2-0.5-0.6-0.9-1-1.2c-0.9-0.7-1-2.4-0.2-3.2
			c0.2-0.2,0.2-0.5,0.2-0.8c0.1-0.7,0.1-1.5,0.2-2.2c0.1-0.5,0.3-1.1,0.6-1.3C187,13.9,188.4,13.3,189.6,12.7z"/>
		<path class="st2" d="M193,31.4c0.8,0.6,1.5,1.1,2,1.5c-0.2,1.2-0.4,2.3-0.7,3.7c-0.7,0.1-1.6,0.3-2.6,0.3
			c-3.7,0.2-7.3-0.2-10.8-1.7c-0.8-0.4-1.7-0.7-1.7-1.9c0-1.4,0.2-2.8,1.7-3.3c1.6-0.6,3.2-1.1,4.9-1.7c0.8,1.8,1.5,3.7,2.4,5.8
			c0.4-1.1,0.8-1.9,1-2.7c0.1-0.2-0.2-0.6-0.4-0.8c-0.4-0.7-1-1.4-0.2-2.1c0.5-0.5,2.6-0.5,2.8,0.1c0.2,0.5,0.2,1.3-0.1,1.6
			c-0.8,0.8-0.6,1.6-0.2,2.4c0.2,0.4,0.3,0.8,0.6,1.5C192.3,33,192.6,32.2,193,31.4z"/>
		<path class="st2" d="M193.5,29.3c1.6-1.2,2.9-2.2,4.4-3.3c0.1,0.8,0.2,1.3,0.3,2c0.7,0,1.5,0.1,2.2,0c1-0.1,1.3,0.3,1.3,1.3
			c0,0.9-0.2,1.4-1.2,1.3c-0.7-0.1-1.5,0-2.3,0c-0.1,0.6-0.2,1.2-0.3,2C196.4,31.5,195.1,30.5,193.5,29.3z"/>
		<path class="st2" d="M200.2,39c-0.1-0.8-0.2-1.3-0.3-2c-0.8,0-1.7,0-2.6,0c-1,0-0.9-0.7-0.9-1.3c0-0.6-0.1-1.3,0.9-1.3
			c0.9,0,1.7,0,2.6,0c0.1-0.7,0.2-1.2,0.3-2c1.6,1.2,2.9,2.2,4.4,3.3C203.1,36.8,201.8,37.8,200.2,39z"/>
	</g>
</g>
</svg>
