<svg xmlns="http://www.w3.org/2000/svg" viewBox="0 0 190.3 58.4"><defs><style>.cls-1{fill:#ccc;}.cls-2{fill:#606060;}.cls-3{fill:#c00;}.cls-4{fill:#fff;}</style></defs><title>Asset 1</title><g id="Layer_2" data-name="Layer 2"><g id="Layer_1-2" data-name="Layer 1"><path class="cls-1" d="M179.7,45.2a13.41,13.41,0,0,1-13.6,13.2H13.6A13.41,13.41,0,0,1,0,45.2v-32A13.41,13.41,0,0,1,13.6,0H166a13.41,13.41,0,0,1,13.6,13.2l.1,32Z"/><polygon class="cls-2" points="177.4 11.4 177.4 52.6 190.3 45.7 190.3 11.4 177.4 11.4"/><path class="cls-3" d="M190.3,11.2H158.7a17.1,17.1,0,1,0,0,34.2h31.6Z"/><path class="cls-4" d="M151,29.2a25.58,25.58,0,0,0,2.7-.5,8.23,8.23,0,0,0,3.7,6.9,7.17,7.17,0,0,0,4.7,1.3,8.12,8.12,0,0,0,4.1-15,8.16,8.16,0,0,0-9.7.8c.8.7,1.6,1.4,2.6,2.2-2.6.6-5,1.2-7.6,1.8.1-2.6.2-5.1.4-7.8.9.7,1.6,1.4,2.3,1.9a31.22,31.22,0,0,1,3.5-2,18.12,18.12,0,0,1,3.1-.9H163c.1.1.3.1.4.2a10.63,10.63,0,0,1,8.7,7.2,18,18,0,0,1,.6,2.2V30c0,.1-.1.2-.1.4a10.83,10.83,0,0,1-6.3,8.3,17,17,0,0,1-3.2,1h-2.5c-.1-.1-.2-.1-.4-.1a10.33,10.33,0,0,1-8.1-6,21.72,21.72,0,0,1-1.2-3.6A2.2,2.2,0,0,0,151,29.2Z"/><path d="M43.9,20.3a22.27,22.27,0,0,1,4.7-.4c2.6,0,4.3.5,5.5,1.6a4.75,4.75,0,0,1,1.5,3.6A5.1,5.1,0,0,1,52,30v.1c1.5.5,2.4,1.9,2.8,3.9a29.14,29.14,0,0,0,1.5,5.3H53.8a30.45,30.45,0,0,1-1.3-4.6c-.6-2.6-1.6-3.6-3.8-3.7H46.4v8.3H43.9ZM46.3,29h2.5c2.6,0,4.3-1.4,4.3-3.6,0-2.5-1.8-3.6-4.4-3.6a11,11,0,0,0-2.4.2Z"/><path d="M60.6,32.8c.1,3.4,2.2,4.8,4.7,4.8a8.83,8.83,0,0,0,3.8-.7l.4,1.8a11.11,11.11,0,0,1-4.6.9c-4.2,0-6.8-2.8-6.8-6.9s2.4-7.4,6.4-7.4c4.5,0,5.7,3.9,5.7,6.5,0,.5-.1.9-.1,1.2H60.6ZM67.9,31c0-1.6-.7-4.1-3.5-4.1-2.5,0-3.6,2.3-3.8,4.1Z"/><path d="M73.1,36.7a6.15,6.15,0,0,0,3.3,1c1.8,0,2.7-.9,2.7-2s-.7-1.8-2.6-2.5c-2.5-.9-3.6-2.2-3.6-3.9,0-2.2,1.8-4,4.7-4a6.54,6.54,0,0,1,3.4.9L80.4,28a4.54,4.54,0,0,0-2.9-1c-1.5,0-2.3.9-2.3,1.9s.8,1.6,2.6,2.3c2.4.9,3.6,2.1,3.6,4.1,0,2.4-1.9,4.1-5.1,4.1a9,9,0,0,1-3.9-.9Z"/><path d="M86.1,32.8c.1,3.4,2.2,4.8,4.7,4.8a8.83,8.83,0,0,0,3.8-.7l.4,1.8a11.11,11.11,0,0,1-4.6.9c-4.2,0-6.8-2.8-6.8-6.9S86,25.3,90,25.3c4.5,0,5.7,3.9,5.7,6.5,0,.5-.1.9-.1,1.2H86.1ZM93.4,31c0-1.6-.7-4.1-3.5-4.1-2.5,0-3.6,2.3-3.8,4.1Z"/><path d="M101.9,21.5v3.9h3.6v1.9h-3.6v7.4c0,1.7.5,2.7,1.9,2.7a4.14,4.14,0,0,0,1.4-.2l.1,1.9a6.46,6.46,0,0,1-2.2.3,3.39,3.39,0,0,1-2.7-1.1,5.17,5.17,0,0,1-1-3.6V27.2H97.3V25.3h2.1V22Z"/></g></g></svg>