<?xml version="1.0" encoding="utf-8"?>
<!-- Generator: Adobe Illustrator 21.0.0, SVG Export Plug-In . SVG Version: 6.00 Build 0)  -->
<svg version="1.1" id="Layer_1" xmlns="http://www.w3.org/2000/svg" xmlns:xlink="http://www.w3.org/1999/xlink" x="0px" y="0px"
	 viewBox="0 0 183.9 58.4" style="enable-background:new 0 0 183.9 58.4;" xml:space="preserve">
<style type="text/css">
	.st0{fill:#34495E;}
	.st1{fill:#606060;}
	.st2{fill:#CC0000;}
	.st3{fill:#FFFFFF;}
</style>
<path class="st0" d="M183.9,45.2c0,7.3-6.1,13.2-13.6,13.2H17.8c-7.5,0-13.6-5.9-13.6-13.2v-32C4.2,5.9,10.3,0,17.8,0h152.4
	c7.5,0,13.6,5.9,13.6,13.2L183.9,45.2L183.9,45.2z"/>
<polygon class="st1" points="181.6,11.4 181.6,52.6 194.5,45.7 194.5,11.4 "/>
<path class="st2" d="M194.5,11.2h-31.6c-9.5,0-17.1,7.7-17.1,17.1c0,9.5,7.7,17.1,17.1,17.1h31.6V11.2z"/>
<g>
	<path class="st3" d="M156.2,29.2c0.9-0.1,1.8-0.3,2.7-0.5c0.1,2.9,1.3,5.3,3.7,6.9c1.4,1,3,1.4,4.7,1.3c3.7-0.2,6.7-2.5,7.6-5.9
		c1-3.5-0.4-7.1-3.5-9.1c-3-1.9-6.8-1.6-9.7,0.8c0.8,0.7,1.6,1.4,2.6,2.2c-2.6,0.6-5,1.2-7.6,1.8c0.1-2.6,0.2-5.1,0.4-7.8
		c0.9,0.7,1.6,1.4,2.3,1.9c1.2-0.7,2.3-1.5,3.5-2c1-0.5,2.1-0.6,3.1-0.9c0.7,0,1.5,0,2.2,0c0.1,0.1,0.3,0.1,0.4,0.2
		c4.3,0.7,7.2,3.2,8.7,7.2c0.3,0.7,0.4,1.5,0.6,2.2c0,0.8,0,1.7,0,2.5c0,0.1-0.1,0.2-0.1,0.4c-0.7,3.9-2.8,6.6-6.3,8.3
		c-1,0.5-2.1,0.7-3.2,1c-0.8,0-1.7,0-2.5,0c-0.1-0.1-0.2-0.1-0.4-0.1c-3.7-0.6-6.5-2.6-8.1-6c-0.6-1.1-0.8-2.4-1.2-3.6
		C156.2,29.7,156.2,29.5,156.2,29.2z"/>
</g>
<g>
	<path class="st3" d="M48.1,20.3c1.3-0.3,3-0.4,4.7-0.4c2.6,0,4.3,0.5,5.5,1.6c1,0.9,1.5,2.2,1.5,3.6c0,2.5-1.6,4.2-3.6,4.9v0.1
		c1.5,0.5,2.4,1.9,2.8,3.9c0.6,2.7,1.1,4.5,1.5,5.3H58c-0.3-0.5-0.7-2.2-1.3-4.6c-0.6-2.6-1.6-3.6-3.8-3.7h-2.3v8.3h-2.5V20.3z
		 M50.5,29h2.5c2.6,0,4.3-1.4,4.3-3.6c0-2.5-1.8-3.6-4.4-3.6c-1.2,0-2,0.1-2.4,0.2V29z"/>
	<path class="st3" d="M64.8,32.8c0.1,3.4,2.2,4.8,4.7,4.8c1.8,0,2.9-0.3,3.8-0.7l0.4,1.8c-0.9,0.4-2.4,0.9-4.6,0.9
		c-4.2,0-6.8-2.8-6.8-6.9c0-4.1,2.4-7.4,6.4-7.4c4.5,0,5.7,3.9,5.7,6.5c0,0.5-0.1,0.9-0.1,1.2H64.8z M72.1,31c0-1.6-0.7-4.1-3.5-4.1
		c-2.5,0-3.6,2.3-3.8,4.1H72.1z"/>
	<path class="st3" d="M77.3,36.7c0.7,0.5,2,1,3.3,1c1.8,0,2.7-0.9,2.7-2c0-1.2-0.7-1.8-2.6-2.5c-2.5-0.9-3.6-2.2-3.6-3.9
		c0-2.2,1.8-4,4.7-4c1.4,0,2.6,0.4,3.4,0.9l-0.6,1.8C84,27.5,83,27,81.7,27c-1.5,0-2.3,0.9-2.3,1.9c0,1.1,0.8,1.6,2.6,2.3
		c2.4,0.9,3.6,2.1,3.6,4.1c0,2.4-1.9,4.1-5.1,4.1c-1.5,0-2.9-0.4-3.9-0.9L77.3,36.7z"/>
	<path class="st3" d="M90.3,32.8c0.1,3.4,2.2,4.8,4.7,4.8c1.8,0,2.9-0.3,3.8-0.7l0.4,1.8c-0.9,0.4-2.4,0.9-4.6,0.9
		c-4.2,0-6.8-2.8-6.8-6.9c0-4.1,2.4-7.4,6.4-7.4c4.5,0,5.7,3.9,5.7,6.5c0,0.5-0.1,0.9-0.1,1.2H90.3z M97.6,31c0-1.6-0.7-4.1-3.5-4.1
		c-2.5,0-3.6,2.3-3.8,4.1H97.6z"/>
	<path class="st3" d="M106.1,21.5v3.9h3.6v1.9h-3.6v7.4c0,1.7,0.5,2.7,1.9,2.7c0.7,0,1.1-0.1,1.4-0.2l0.1,1.9
		c-0.5,0.2-1.3,0.3-2.2,0.3c-1.2,0-2.1-0.4-2.7-1.1c-0.7-0.7-1-2-1-3.6v-7.5h-2.1v-1.9h2.1v-3.3L106.1,21.5z"/>
</g>
</svg>
