<?xml version="1.0" encoding="utf-8"?>
<!-- Generator: Adobe Illustrator 21.0.0, SVG Export Plug-In . SVG Version: 6.00 Build 0)  -->
<svg version="1.1" id="Layer_1" xmlns="http://www.w3.org/2000/svg" xmlns:xlink="http://www.w3.org/1999/xlink" x="0px" y="0px"
	 viewBox="0 0 182.3 67" style="enable-background:new 0 0 182.3 67;" xml:space="preserve">
<style type="text/css">
	.st0{fill:#CCCCCC;}
	.st1{fill:#606060;}
	.st2{fill:#0099CC;}
	.st3{enable-background:new    ;}
	.st4{fill:none;}
	.st5{fill:#FFFFFF;}
</style>
<path class="st0" d="M167.9,48.7c0,7.3-6.1,13.2-13.6,13.2H21.8c-7.5,0-13.6-5.9-13.6-13.2v-32c0-7.3,6.1-13.2,13.6-13.2h132.4
	c7.5,0,13.6,5.9,13.6,13.2L167.9,48.7L167.9,48.7z"/>
<polygon class="st1" points="165.6,14.9 165.6,56.1 178.5,49.2 178.5,14.9 "/>
<path class="st2" d="M178.5,14.7h-31.6c-9.5,0-17.1,7.7-17.1,17.1c0,9.5,7.7,17.1,17.1,17.1h31.6V14.7z"/>
<g class="st3">
	<path d="M43.2,42.2l-4.4-7.8h-3.3v7.8h-2.4V23.8h5.8c3.7,0,6.4,1.3,6.4,5.2c0,2.9-1.6,4.6-4.1,5.2l4.7,8H43.2z M35.5,32.5h3.1
		c2.9,0,4.4-1.2,4.4-3.6c0-2.4-1.6-3.3-4.4-3.3h-3.1V32.5z"/>
	<path d="M53.9,28.3c3.5,0,5.4,2.5,5.4,6.4c0,0.5,0,0.9-0.1,1.3h-9.2c0.2,2.9,1.9,4.8,4.5,4.8c1.3,0,2.4-0.4,3.4-1.1l0.8,1.5
		c-1.2,0.8-2.6,1.4-4.5,1.4c-3.6,0-6.5-2.7-6.5-7.1C47.8,31,50.8,28.3,53.9,28.3z M57.3,34.4c0-2.8-1.2-4.3-3.4-4.3
		c-1.9,0-3.6,1.6-3.9,4.3H57.3z"/>
	<path d="M60.9,28.6h2.4l2.6,7.7c0.4,1.3,0.8,2.7,1.3,4h0.1c0.4-1.3,0.8-2.7,1.2-4l2.6-7.7h2.3l-4.8,13.6h-2.7L60.9,28.6z"/>
	<path d="M75.5,24.3c0-0.9,0.7-1.5,1.6-1.5s1.6,0.6,1.6,1.5c0,0.9-0.7,1.5-1.6,1.5S75.5,25.2,75.5,24.3z M75.9,28.6h2.3v13.6h-2.3
		V28.6z"/>
	<path d="M87.9,28.3c3.5,0,5.4,2.5,5.4,6.4c0,0.5,0,0.9-0.1,1.3h-9.2c0.2,2.9,1.9,4.8,4.5,4.8c1.3,0,2.4-0.4,3.4-1.1l0.8,1.5
		c-1.2,0.8-2.6,1.4-4.5,1.4c-3.6,0-6.5-2.7-6.5-7.1C81.8,31,84.8,28.3,87.9,28.3z M91.3,34.4c0-2.8-1.2-4.3-3.4-4.3
		c-1.9,0-3.6,1.6-3.9,4.3H91.3z"/>
	<path d="M95.2,28.6h2.4l2,7.9c0.3,1.3,0.6,2.5,0.8,3.8h0.1c0.3-1.3,0.6-2.5,0.9-3.8l2.1-7.9h2.2l2.1,7.9c0.3,1.3,0.6,2.5,1,3.8h0.1
		c0.3-1.3,0.6-2.5,0.8-3.8l2-7.9h2.2l-3.6,13.6h-2.8l-2-7.3c-0.3-1.3-0.6-2.5-0.9-3.9h-0.1c-0.3,1.4-0.6,2.7-1,3.9l-1.9,7.3H99
		L95.2,28.6z"/>
</g>
<rect x="140.9" y="26.5" class="st4" width="16.8" height="14"/>
<path class="st5" d="M145.4,41.2V30.9h-4.3v10.3H145.4z M158.5,29.6c1.1,0,1.9,0.9,1.9,1.9c0,0.6-0.3,1.2-0.7,1.5
	c0.3,0.2,0.5,0.5,0.6,0.9h2.7c0.1,0,0.2,0,0.3,0.1l1.8,1.8V25.7v-3.3c0-0.3-0.3-0.6-0.6-0.6h-15.9c-0.4,0-0.6,0.3-0.6,0.6V31
	l1.3-1.9v-3.4c0-0.7,0.3-1.4,0.9-1.8c0.6-0.4,1.3-0.5,2-0.3c0.8,0.3,1.4,1.1,1.4,2v0.9v3L158.5,29.6L158.5,29.6z M160.4,40.6
	c0,1.1-0.9,1.9-1.9,1.9h-9.7c-0.1,0-0.2,0-0.3-0.1l-1.2-1.2h-1.1v0.4c0,0.2-0.2,0.4-0.4,0.4h-5.2c-0.2,0-0.4-0.2-0.4-0.4V30.5
	c0-0.2,0.2-0.4,0.4-0.4h5.2c0.3,0,0.4,0.2,0.4,0.4v0.9h0.9v-8.9c0-0.8,0.6-1.5,1.5-1.5h16c0.8,0,1.5,0.7,1.5,1.5v14.4
	c0,0.2-0.1,0.3-0.3,0.4c0,0-0.1,0-0.2,0c-0.1,0-0.2,0-0.3-0.1l-2.5-2.5h-2.4c0,0.5-0.3,1-0.7,1.3c0.4,0.3,0.7,0.9,0.7,1.5
	s-0.3,1.2-0.7,1.5C160.1,39.4,160.4,40,160.4,40.6z M158.5,32.6c0.6,0,1.1-0.5,1.1-1.1s-0.5-1.1-1.1-1.1h-5.4
	c-0.2,0-0.4-0.2-0.4-0.4v-4.4c0-0.5-0.3-1-0.9-1.2c-0.4-0.2-0.8-0.1-1.2,0.2c-0.3,0.3-0.6,0.6-0.6,1.1v3.5c0,0.1,0,0.2-0.1,0.2
	l-1.7,2.6c0,0.1-0.2,0.2-0.3,0.2h-1.7v8.2h1.3c0.1,0,0.2,0,0.3,0.1l1.2,1.2h9.5c0.6,0,1.1-0.5,1.1-1.1s-0.5-1.1-1.1-1.1h-2.8h-0.9
	v-0.9h0.9h2.8c0.6,0,1.1-0.5,1.1-1.1s-0.5-1.1-1.1-1.1h-2.8h-0.9v-0.9h0.9h2.8c0.6,0,1.1-0.5,1.1-1.1s-0.5-1.1-1.1-1.1h-2.8h-0.9
	v-0.9h0.9h2.8V32.6z"/>
</svg>
