<?xml version="1.0" encoding="utf-8"?>
<!-- Generator: Adobe Illustrator 21.0.0, SVG Export Plug-In . SVG Version: 6.00 Build 0)  -->
<svg version="1.1" id="Layer_1" xmlns="http://www.w3.org/2000/svg" xmlns:xlink="http://www.w3.org/1999/xlink" x="0px" y="0px"
	 viewBox="0 0 185 62" style="enable-background:new 0 0 185 62;" xml:space="preserve">
<style type="text/css">
	.st0{fill:#34495E;}
	.st1{fill:#FFFFFF;}
	.st2{fill:#606060;}
	.st3{fill:#206EAF;}
</style>
<path class="st0" d="M174.4,47c0,7.3-5.9,13.2-13.2,13.2H13.4C6.1,60.2,0.2,54.3,0.2,47V15c0-7.3,5.9-13.2,13.2-13.2h147.7
	c7.3,0,13.2,5.9,13.2,13.2v32H174.4z"/>
<g>
	<g>
		<path class="st1" d="M44,36.7c1.4,1.4,3.2,2.4,5.2,2.4c2.5,0,3.9-1.2,3.9-3.1c0-1.9-1.4-2.6-3.2-3.4l-2.7-1.2
			c-1.8-0.7-3.8-2.1-3.8-4.9c0-2.9,2.6-5,6-5c2.2,0,4.2,1,5.5,2.3l-1.3,1.5c-1.1-1.1-2.6-1.8-4.3-1.8c-2.2,0-3.5,1-3.5,2.8
			c0,1.8,1.7,2.5,3.1,3.1l2.7,1.1c2.2,1,3.9,2.2,3.9,5c0,3-2.5,5.4-6.5,5.4c-2.6,0-5-1.1-6.6-2.8L44,36.7z"/>
		<path class="st1" d="M67,31.9c0-1.8-0.6-3.5-2.9-3.5c-1.7,0-3.1,0.7-4.2,1.5l-1-1.7c1.3-0.8,3.3-1.8,5.5-1.8
			c3.4,0,4.9,2.2,4.9,5.8v8.6h-1.9L67.2,39h-0.1c-1.4,1.1-2.9,2-4.6,2c-2.4,0-4.1-1.4-4.1-4C58.4,34.1,61,32.6,67,31.9z M63.2,39.2
			c1.4,0,2.5-0.6,3.8-1.8v-3.9c-4.7,0.6-6.2,1.8-6.2,3.5C60.7,38.6,61.8,39.2,63.2,39.2z"/>
		<path class="st1" d="M71.8,26.7h2.5l2.6,7.9c0.4,1.4,0.9,2.8,1.3,4.1h0.1c0.4-1.4,0.9-2.7,1.3-4.1l2.6-7.9h2.3l-5,14h-2.8
			L71.8,26.7z"/>
		<path class="st1" d="M92.4,26.4C96,26.4,98,29,98,33c0,0.5,0,1-0.1,1.3h-9.4c0.2,3,2,5,4.6,5c1.4,0,2.5-0.4,3.5-1.1l0.8,1.5
			c-1.2,0.8-2.7,1.4-4.6,1.4c-3.8,0-6.7-2.7-6.7-7.3S89.2,26.4,92.4,26.4z M95.9,32.7c0-2.9-1.3-4.4-3.4-4.4c-1.9,0-3.8,1.6-4,4.4
			H95.9z"/>
	</g>
</g>
<polygon class="st2" points="172.1,13.2 172.1,54.4 185,47.5 185,13.2 "/>
<path class="st3" d="M185,13h-31.6c-9.5,0-17.1,7.7-17.1,17.1c0,9.5,7.7,17.1,17.1,17.1H185V13z"/>
<g>
	<g>
		<rect x="161.3" y="20.4" class="st1" width="2.3" height="4.8"/>
		<path class="st1" d="M167.7,18h-18.3c-0.7,0-1.3,0.5-1.3,1.3v20c0,0.7,0.5,1.3,1.3,1.3h20.6c0.7,0,1.3-0.5,1.3-1.3V21.6L167.7,18z
			 M152.7,20.5c0-0.7,0.5-1.1,1.3-1.1h11.5c0.7,0,1.3,0.5,1.3,1.1v4.6c0,0.7-0.5,1.1-1.3,1.1h-11.6c-0.7,0-1.3-0.5-1.3-1.1v-4.6
			H152.7z M168,38.1h-16.6v-9.7h16.7v9.7H168z"/>
	</g>
</g>
</svg>
