<?xml version="1.0" encoding="utf-8"?>
<!-- Generator: Adobe Illustrator 21.0.0, SVG Export Plug-In . SVG Version: 6.00 Build 0)  -->
<svg version="1.1" id="Layer_1" xmlns="http://www.w3.org/2000/svg" xmlns:xlink="http://www.w3.org/1999/xlink" x="0px" y="0px"
	 viewBox="0 0 214.9 58.4" style="enable-background:new 0 0 214.9 58.4;" xml:space="preserve">
<style type="text/css">
	.st0{fill:#CCCCCC;}
	.st1{fill:#606060;}
	.st2{fill:#CC0000;}
	.st3{clip-path:url(#SVGID_2_);fill:#F5F8FC;}
	.st4{fill:#F7F8F9;}
	.st5{fill:#FCFCFC;}
</style>
<path class="st0" d="M214.9,45.2c0,7.3-6.1,13.2-13.6,13.2H15.8c-7.5,0-13.6-5.9-13.6-13.2v-32C2.2,5.9,8.3,0,15.8,0h185.4
	c7.5,0,13.6,5.9,13.6,13.2L214.9,45.2L214.9,45.2z"/>
<polygon class="st1" points="212.6,11.4 212.6,52.6 225.5,45.7 225.5,11.4 "/>
<path class="st2" d="M225.5,11.2h-31.6c-9.5,0-17.1,7.7-17.1,17.1c0,9.5,7.7,17.1,17.1,17.1h31.6V11.2z"/>
<g>
	<path d="M17.7,36.2c1.1,0.7,2.7,1.3,4.4,1.3c2.5,0,4-1.3,4-3.3c0-1.8-1-2.8-3.6-3.8c-3.1-1.1-5.1-2.7-5.1-5.4c0-3,2.5-5.2,6.2-5.2
		c2,0,3.4,0.5,4.2,0.9l-0.7,2c-0.6-0.3-1.9-0.9-3.6-0.9c-2.6,0-3.6,1.6-3.6,2.9c0,1.8,1.2,2.7,3.8,3.7c3.2,1.3,4.9,2.8,4.9,5.6
		c0,3-2.2,5.5-6.7,5.5c-1.8,0-3.9-0.5-4.9-1.2L17.7,36.2z"/>
	<path d="M33.6,32.8c0.1,3.4,2.2,4.8,4.7,4.8c1.8,0,2.9-0.3,3.8-0.7l0.4,1.8c-0.9,0.4-2.4,0.9-4.6,0.9c-4.2,0-6.8-2.8-6.8-6.9
		c0-4.1,2.4-7.4,6.4-7.4c4.5,0,5.7,3.9,5.7,6.5c0,0.5-0.1,0.9-0.1,1.2H33.6z M40.9,31c0-1.6-0.7-4.1-3.5-4.1c-2.5,0-3.6,2.3-3.8,4.1
		H40.9z"/>
	<path d="M46.4,19h2.5v20.2h-2.5V19z"/>
	<path d="M54.5,32.8c0.1,3.4,2.2,4.8,4.7,4.8c1.8,0,2.9-0.3,3.8-0.7l0.4,1.8c-0.9,0.4-2.4,0.9-4.6,0.9c-4.2,0-6.8-2.8-6.8-6.9
		c0-4.1,2.4-7.4,6.4-7.4c4.5,0,5.7,3.9,5.7,6.5c0,0.5-0.1,0.9-0.1,1.2H54.5z M61.8,31c0-1.6-0.7-4.1-3.5-4.1c-2.5,0-3.6,2.3-3.8,4.1
		H61.8z"/>
	<path d="M77.1,38.7c-0.7,0.3-2.1,0.8-3.9,0.8c-4.1,0-6.8-2.8-6.8-7c0-4.2,2.9-7.3,7.4-7.3c1.5,0,2.8,0.4,3.5,0.7l-0.6,1.9
		c-0.6-0.3-1.5-0.7-2.9-0.7c-3.2,0-4.9,2.3-4.9,5.2c0,3.2,2,5.1,4.8,5.1c1.4,0,2.4-0.4,3.1-0.7L77.1,38.7z"/>
	<path d="M83.4,21.5v3.9H87v1.9h-3.6v7.4c0,1.7,0.5,2.7,1.9,2.7c0.7,0,1.1-0.1,1.4-0.2l0.1,1.9c-0.5,0.2-1.3,0.3-2.2,0.3
		c-1.2,0-2.1-0.4-2.7-1.1c-0.7-0.7-1-2-1-3.6v-7.5h-2.1v-1.9H81v-3.3L83.4,21.5z"/>
	<path d="M95.9,39.2V20.1h2.7l6.1,9.7c1.4,2.2,2.5,4.3,3.4,6.2l0.1,0c-0.2-2.6-0.3-4.9-0.3-7.9v-8h2.3v19.1h-2.5l-6.1-9.7
		c-1.3-2.1-2.6-4.3-3.6-6.4l-0.1,0c0.1,2.4,0.2,4.7,0.2,7.9v8.2H95.9z"/>
	<path d="M122.2,39.2l-0.2-1.7h-0.1c-0.8,1.1-2.2,2-4.2,2c-2.8,0-4.2-2-4.2-3.9c0-3.3,3-5.1,8.3-5.1v-0.3c0-1.1-0.3-3.2-3.1-3.2
		c-1.3,0-2.6,0.4-3.6,1l-0.6-1.6c1.1-0.7,2.8-1.2,4.5-1.2c4.2,0,5.2,2.9,5.2,5.6v5.1c0,1.2,0.1,2.4,0.2,3.3H122.2z M121.8,32.2
		c-2.7-0.1-5.8,0.4-5.8,3.1c0,1.6,1.1,2.4,2.4,2.4c1.8,0,2.9-1.1,3.3-2.3c0.1-0.3,0.1-0.5,0.1-0.8V32.2z"/>
	<path d="M128.2,29.2c0-1.4,0-2.6-0.1-3.7h2.2l0.1,2.2h0.1c0.8-1.3,2-2.5,4.3-2.5c1.9,0,3.3,1.1,3.9,2.8h0.1c0.4-0.8,1-1.4,1.5-1.8
		c0.8-0.6,1.7-1,3-1c1.8,0,4.5,1.2,4.5,6v8.1h-2.4v-7.8c0-2.6-1-4.2-3-4.2c-1.4,0-2.5,1.1-3,2.3c-0.1,0.3-0.2,0.8-0.2,1.3v8.5h-2.4
		V31c0-2.2-1-3.8-2.9-3.8c-1.6,0-2.7,1.3-3.1,2.5c-0.1,0.4-0.2,0.8-0.2,1.2v8.3h-2.4V29.2z"/>
	<path d="M153.3,32.8c0.1,3.4,2.2,4.8,4.7,4.8c1.8,0,2.9-0.3,3.8-0.7l0.4,1.8c-0.9,0.4-2.4,0.9-4.6,0.9c-4.2,0-6.8-2.8-6.8-6.9
		c0-4.1,2.4-7.4,6.4-7.4c4.5,0,5.7,3.9,5.7,6.5c0,0.5-0.1,0.9-0.1,1.2H153.3z M160.6,31c0-1.6-0.7-4.1-3.5-4.1
		c-2.5,0-3.6,2.3-3.8,4.1H160.6z"/>
</g>
<g>
	<g>
		<defs>
			<rect id="SVGID_1_" x="187.2" y="20.4" width="27.9" height="15.8"/>
		</defs>
		<clipPath id="SVGID_2_">
			<use xlink:href="#SVGID_1_"  style="overflow:visible;"/>
		</clipPath>
		<path class="st3" d="M206.6,26.2v2.1c0,0.4,0.2,0.8,0.4,1.1v0.7c0,0.3,0.3,0.6,0.6,0.6c0.3,0,0.6-0.3,0.6-0.6v-1
			c0-0.2-0.1-0.4-0.3-0.5c-0.1-0.1-0.2-0.2-0.2-0.3v-2.1c0-0.8,0.6-1.4,1.4-1.4h0.5c0.8,0,1.4,0.6,1.4,1.4v2.1
			c0,0.1-0.1,0.3-0.2,0.3c-0.2,0.1-0.3,0.3-0.3,0.5v2.1c0,0.3,0.1,0.5,0.4,0.6c0.3,0.1,1.7,0.8,2.9,1.9c0.1,0.1,0.2,0.2,0.2,0.4V35
			H210c-0.3,0-0.6,0.3-0.6,0.6c0,0.3,0.3,0.6,0.6,0.6h4.5c0.3,0,0.6-0.3,0.6-0.6v-1.5c0-0.5-0.2-0.9-0.6-1.2
			c-1.1-0.9-2.3-1.6-2.9-1.9v-1.5c0.3-0.3,0.4-0.7,0.4-1.1v-2.1c0-1.4-1.1-2.5-2.5-2.5h-0.5C207.7,23.7,206.6,24.9,206.6,26.2
			L206.6,26.2z M206.6,26.2"/>
	</g>
	<path class="st4" d="M187.8,36.1h4.6c0.3,0,0.6-0.3,0.6-0.6c0-0.3-0.3-0.6-0.6-0.6h-4v-0.9c0-0.1,0.1-0.3,0.2-0.4
		c1.3-1.1,2.7-1.8,2.9-1.9c0.2-0.1,0.4-0.3,0.4-0.6v-2.1c0-0.2-0.1-0.4-0.3-0.5c-0.1-0.1-0.2-0.2-0.2-0.3v-2.1
		c0-0.8,0.6-1.4,1.4-1.4h0.5c0.8,0,1.4,0.6,1.4,1.4v2.1c0,0.1-0.1,0.3-0.2,0.3c-0.2,0.1-0.3,0.3-0.3,0.5v1c0,0.3,0.3,0.6,0.6,0.6
		c0.3,0,0.6-0.3,0.6-0.6v-0.8c0.3-0.3,0.4-0.7,0.4-1.1v-2.1c0-1.4-1.1-2.5-2.5-2.5h-0.5c-1.4,0-2.5,1.1-2.5,2.5v2.1
		c0,0.4,0.2,0.8,0.4,1.1V31c-0.6,0.3-1.8,1-2.9,1.9c-0.4,0.3-0.6,0.8-0.6,1.2v1.5C187.2,35.9,187.5,36.1,187.8,36.1L187.8,36.1z
		 M187.8,36.1"/>
	<path class="st5" d="M204.5,26.3v-2.8c0-1.7-1.4-3.1-3.1-3.1h-0.6c-1.7,0-3.1,1.4-3.1,3.1v2.8c0,0.5,0.2,1,0.6,1.3v2.1
		c-0.7,0.3-2.3,1.2-3.8,2.5c-0.4,0.4-0.7,0.9-0.7,1.5v1.9c0,0.3,0.3,0.6,0.6,0.6h13.5c0.3,0,0.6-0.3,0.6-0.6v-1.9
		c0-0.6-0.3-1.1-0.7-1.5c-1.5-1.2-3.1-2.1-3.8-2.5v-2.1C204.3,27.2,204.5,26.8,204.5,26.3L204.5,26.3z M207.1,33
		c0.2,0.1,0.3,0.4,0.3,0.6V35H195v-1.3c0-0.2,0.1-0.5,0.3-0.6c1.7-1.4,3.5-2.3,3.8-2.5c0.2-0.1,0.4-0.4,0.4-0.6v-2.7
		c0-0.2-0.1-0.4-0.3-0.5c-0.2-0.1-0.3-0.3-0.3-0.6v-2.8c0-1.1,0.9-1.9,1.9-1.9h0.6c1.1,0,1.9,0.9,1.9,1.9v2.8c0,0.2-0.1,0.4-0.3,0.6
		c-0.2,0.1-0.3,0.3-0.3,0.5V30c0,0.3,0.2,0.5,0.4,0.6C203.6,30.8,205.4,31.7,207.1,33L207.1,33z M207.1,33"/>
</g>
</svg>
