<?xml version="1.0" encoding="utf-8"?>
<!-- Generator: Adobe Illustrator 21.0.0, SVG Export Plug-In . SVG Version: 6.00 Build 0)  -->
<svg version="1.1" id="Layer_1" xmlns="http://www.w3.org/2000/svg" xmlns:xlink="http://www.w3.org/1999/xlink" x="0px" y="0px"
	 viewBox="0 0 232.5 64" style="enable-background:new 0 0 232.5 64;" xml:space="preserve">
<style type="text/css">
	.st0{fill:#34495E;}
	.st1{fill:#606060;}
	.st2{fill:#CC0000;}
	.st3{fill:#FFFFFF;}
	.st4{clip-path:url(#SVGID_2_);fill:#F5F8FC;}
	.st5{fill:#F7F8F9;}
	.st6{fill:#FCFCFC;}
</style>
<path class="st0" d="M217.9,48.7c0,7.3-6.1,13.2-13.6,13.2H18.8c-7.5,0-13.6-5.9-13.6-13.2v-32c0-7.3,6.1-13.2,13.6-13.2h185.4
	c7.5,0,13.6,5.9,13.6,13.2L217.9,48.7L217.9,48.7z"/>
<polygon class="st1" points="215.6,14.9 215.6,56.1 228.5,49.2 228.5,14.9 "/>
<path class="st2" d="M228.5,14.7h-31.6c-9.5,0-17.1,7.7-17.1,17.1c0,9.5,7.7,17.1,17.1,17.1h31.6V14.7z"/>
<g>
	<path class="st3" d="M20.7,39.7c1.1,0.7,2.7,1.3,4.4,1.3c2.5,0,4-1.3,4-3.3c0-1.8-1-2.8-3.6-3.8c-3.1-1.1-5.1-2.7-5.1-5.4
		c0-3,2.5-5.2,6.2-5.2c2,0,3.4,0.5,4.2,0.9l-0.7,2c-0.6-0.3-1.9-0.9-3.6-0.9c-2.6,0-3.6,1.6-3.6,2.9c0,1.8,1.2,2.7,3.8,3.7
		c3.2,1.3,4.9,2.8,4.9,5.6c0,3-2.2,5.5-6.7,5.5c-1.8,0-3.9-0.5-4.9-1.2L20.7,39.7z"/>
	<path class="st3" d="M36.6,36.3c0.1,3.4,2.2,4.8,4.7,4.8c1.8,0,2.9-0.3,3.8-0.7l0.4,1.8c-0.9,0.4-2.4,0.9-4.6,0.9
		c-4.2,0-6.8-2.8-6.8-6.9c0-4.1,2.4-7.4,6.4-7.4c4.5,0,5.7,3.9,5.7,6.5c0,0.5-0.1,0.9-0.1,1.2H36.6z M43.9,34.5
		c0-1.6-0.7-4.1-3.5-4.1c-2.5,0-3.6,2.3-3.8,4.1H43.9z"/>
	<path class="st3" d="M49.4,22.5h2.5v20.2h-2.5V22.5z"/>
	<path class="st3" d="M57.5,36.3c0.1,3.4,2.2,4.8,4.7,4.8c1.8,0,2.9-0.3,3.8-0.7l0.4,1.8c-0.9,0.4-2.4,0.9-4.6,0.9
		c-4.2,0-6.8-2.8-6.8-6.9c0-4.1,2.4-7.4,6.4-7.4c4.5,0,5.7,3.9,5.7,6.5c0,0.5-0.1,0.9-0.1,1.2H57.5z M64.8,34.5
		c0-1.6-0.7-4.1-3.5-4.1c-2.5,0-3.6,2.3-3.8,4.1H64.8z"/>
	<path class="st3" d="M80.1,42.2C79.5,42.5,78,43,76.2,43c-4.1,0-6.8-2.8-6.8-7c0-4.2,2.9-7.3,7.4-7.3c1.5,0,2.8,0.4,3.5,0.7
		l-0.6,1.9c-0.6-0.3-1.5-0.7-2.9-0.7c-3.2,0-4.9,2.3-4.9,5.2c0,3.2,2,5.1,4.8,5.1c1.4,0,2.4-0.4,3.1-0.7L80.1,42.2z"/>
	<path class="st3" d="M86.4,25V29H90v1.9h-3.6v7.4c0,1.7,0.5,2.7,1.9,2.7c0.7,0,1.1-0.1,1.4-0.2l0.1,1.9c-0.5,0.2-1.3,0.3-2.2,0.3
		c-1.2,0-2.1-0.4-2.7-1.1c-0.7-0.7-1-2-1-3.6v-7.5h-2.1V29H84v-3.3L86.4,25z"/>
	<path class="st3" d="M98.9,42.7V23.6h2.7l6.1,9.7c1.4,2.2,2.5,4.3,3.4,6.2l0.1,0c-0.2-2.6-0.3-4.9-0.3-7.9v-8h2.3v19.1h-2.5
		l-6.1-9.7c-1.3-2.1-2.6-4.3-3.6-6.4l-0.1,0c0.1,2.4,0.2,4.7,0.2,7.9v8.2H98.9z"/>
	<path class="st3" d="M125.2,42.7L125,41h-0.1c-0.8,1.1-2.2,2-4.2,2c-2.8,0-4.2-2-4.2-3.9c0-3.3,3-5.1,8.3-5.1v-0.3
		c0-1.1-0.3-3.2-3.1-3.2c-1.3,0-2.6,0.4-3.6,1l-0.6-1.6c1.1-0.7,2.8-1.2,4.5-1.2c4.2,0,5.2,2.9,5.2,5.6v5.1c0,1.2,0.1,2.4,0.2,3.3
		H125.2z M124.8,35.7c-2.7-0.1-5.8,0.4-5.8,3.1c0,1.6,1.1,2.4,2.4,2.4c1.8,0,2.9-1.1,3.3-2.3c0.1-0.3,0.1-0.5,0.1-0.8V35.7z"/>
	<path class="st3" d="M131.2,32.7c0-1.4,0-2.6-0.1-3.7h2.2l0.1,2.2h0.1c0.8-1.3,2-2.5,4.3-2.5c1.9,0,3.3,1.1,3.9,2.8h0.1
		c0.4-0.8,1-1.4,1.5-1.8c0.8-0.6,1.7-1,3-1c1.8,0,4.5,1.2,4.5,6v8.1h-2.4v-7.8c0-2.6-1-4.2-3-4.2c-1.4,0-2.5,1.1-3,2.3
		c-0.1,0.3-0.2,0.8-0.2,1.3v8.5h-2.4v-8.2c0-2.2-1-3.8-2.9-3.8c-1.6,0-2.7,1.3-3.1,2.5c-0.1,0.4-0.2,0.8-0.2,1.2v8.3h-2.4V32.7z"/>
	<path class="st3" d="M156.3,36.3c0.1,3.4,2.2,4.8,4.7,4.8c1.8,0,2.9-0.3,3.8-0.7l0.4,1.8c-0.9,0.4-2.4,0.9-4.6,0.9
		c-4.2,0-6.8-2.8-6.8-6.9c0-4.1,2.4-7.4,6.4-7.4c4.5,0,5.7,3.9,5.7,6.5c0,0.5-0.1,0.9-0.1,1.2H156.3z M163.6,34.5
		c0-1.6-0.7-4.1-3.5-4.1c-2.5,0-3.6,2.3-3.8,4.1H163.6z"/>
</g>
<g>
	<g>
		<defs>
			<rect id="SVGID_1_" x="190.2" y="23.9" width="27.9" height="15.8"/>
		</defs>
		<clipPath id="SVGID_2_">
			<use xlink:href="#SVGID_1_"  style="overflow:visible;"/>
		</clipPath>
		<path class="st4" d="M209.6,29.7v2.1c0,0.4,0.2,0.8,0.4,1.1v0.7c0,0.3,0.3,0.6,0.6,0.6c0.3,0,0.6-0.3,0.6-0.6v-1
			c0-0.2-0.1-0.4-0.3-0.5c-0.1-0.1-0.2-0.2-0.2-0.3v-2.1c0-0.8,0.6-1.4,1.4-1.4h0.5c0.8,0,1.4,0.6,1.4,1.4v2.1
			c0,0.1-0.1,0.3-0.2,0.3c-0.2,0.1-0.3,0.3-0.3,0.5v2.1c0,0.3,0.1,0.5,0.4,0.6c0.3,0.1,1.7,0.8,2.9,1.9c0.1,0.1,0.2,0.2,0.2,0.4v0.9
			H213c-0.3,0-0.6,0.3-0.6,0.6c0,0.3,0.3,0.6,0.6,0.6h4.5c0.3,0,0.6-0.3,0.6-0.6v-1.5c0-0.5-0.2-0.9-0.6-1.2
			c-1.1-0.9-2.3-1.6-2.9-1.9v-1.5c0.3-0.3,0.4-0.7,0.4-1.1v-2.1c0-1.4-1.1-2.5-2.5-2.5h-0.5C210.7,27.2,209.6,28.4,209.6,29.7
			L209.6,29.7z M209.6,29.7"/>
	</g>
	<path class="st5" d="M190.8,39.6h4.6c0.3,0,0.6-0.3,0.6-0.6c0-0.3-0.3-0.6-0.6-0.6h-4v-0.9c0-0.1,0.1-0.3,0.2-0.4
		c1.3-1.1,2.7-1.8,2.9-1.9c0.2-0.1,0.4-0.3,0.4-0.6v-2.1c0-0.2-0.1-0.4-0.3-0.5c-0.1-0.1-0.2-0.2-0.2-0.3v-2.1
		c0-0.8,0.6-1.4,1.4-1.4h0.5c0.8,0,1.4,0.6,1.4,1.4v2.1c0,0.1-0.1,0.3-0.2,0.3c-0.2,0.1-0.3,0.3-0.3,0.5v1c0,0.3,0.3,0.6,0.6,0.6
		c0.3,0,0.6-0.3,0.6-0.6v-0.8c0.3-0.3,0.4-0.7,0.4-1.1v-2.1c0-1.4-1.1-2.5-2.5-2.5h-0.5c-1.4,0-2.5,1.1-2.5,2.5v2.1
		c0,0.4,0.2,0.8,0.4,1.1v1.5c-0.6,0.3-1.8,1-2.9,1.9c-0.4,0.3-0.6,0.8-0.6,1.2V39C190.2,39.4,190.5,39.6,190.8,39.6L190.8,39.6z
		 M190.8,39.6"/>
	<path class="st6" d="M207.5,29.8V27c0-1.7-1.4-3.1-3.1-3.1h-0.6c-1.7,0-3.1,1.4-3.1,3.1v2.8c0,0.5,0.2,1,0.6,1.3v2.1
		c-0.7,0.3-2.3,1.2-3.8,2.5c-0.4,0.4-0.7,0.9-0.7,1.5V39c0,0.3,0.3,0.6,0.6,0.6h13.5c0.3,0,0.6-0.3,0.6-0.6v-1.9
		c0-0.6-0.3-1.1-0.7-1.5c-1.5-1.2-3.1-2.1-3.8-2.5v-2.1C207.3,30.7,207.5,30.3,207.5,29.8L207.5,29.8z M210.1,36.5
		c0.2,0.1,0.3,0.4,0.3,0.6v1.3H198v-1.3c0-0.2,0.1-0.5,0.3-0.6c1.7-1.4,3.5-2.3,3.8-2.5c0.2-0.1,0.4-0.4,0.4-0.6v-2.7
		c0-0.2-0.1-0.4-0.3-0.5c-0.2-0.1-0.3-0.3-0.3-0.6V27c0-1.1,0.9-1.9,1.9-1.9h0.6c1.1,0,1.9,0.9,1.9,1.9v2.8c0,0.2-0.1,0.4-0.3,0.6
		c-0.2,0.1-0.3,0.3-0.3,0.5v2.7c0,0.3,0.2,0.5,0.4,0.6C206.6,34.3,208.4,35.2,210.1,36.5L210.1,36.5z M210.1,36.5"/>
</g>
</svg>
