<svg xmlns="http://www.w3.org/2000/svg" viewBox="0 0 190.3 58.4"><defs><style>.cls-1{fill:#ccc;}.cls-2{fill:#606060;}.cls-3{fill:#06f;}.cls-4{fill:#fff;}</style></defs><title>Asset 2</title><g id="Layer_2" data-name="Layer 2"><g id="Layer_1-2" data-name="Layer 1"><path class="cls-1" d="M179.7,45.2a13.41,13.41,0,0,1-13.6,13.2H13.6A13.41,13.41,0,0,1,0,45.2v-32A13.41,13.41,0,0,1,13.6,0H166a13.41,13.41,0,0,1,13.6,13.2l.1,32Z"/><polygon class="cls-2" points="177.4 11.4 177.4 52.6 190.3 45.7 190.3 11.4 177.4 11.4"/><path class="cls-3" d="M190.3,11.2H158.7a17.1,17.1,0,1,0,0,34.2h31.6Z"/><path d="M40.32,35a7.14,7.14,0,0,0,5.07,2.3c2.41,0,3.84-1.2,3.84-3S47.88,31.83,46.14,31L43.51,29.9c-1.71-.73-3.72-2-3.72-4.73s2.46-4.87,5.8-4.87A7.51,7.51,0,0,1,51,22.56l-1.23,1.51a5.91,5.91,0,0,0-4.17-1.74c-2.07,0-3.44,1-3.44,2.69s1.62,2.44,3.05,3.05l2.63,1.12c2.13.92,3.78,2.18,3.78,4.9,0,2.91-2.41,5.24-6.27,5.24a8.84,8.84,0,0,1-6.41-2.72Z"/><path d="M60,25.06c3.47,0,5.43,2.49,5.43,6.38a8.09,8.09,0,0,1-.08,1.26H56.17c.17,2.94,1.93,4.79,4.54,4.79a6.15,6.15,0,0,0,3.39-1.06l.81,1.51a8.1,8.1,0,0,1-4.48,1.4c-3.64,0-6.52-2.66-6.52-7.11S56.9,25.06,60,25.06Zm3.42,6.13c0-2.77-1.23-4.31-3.36-4.31-1.9,0-3.64,1.57-3.92,4.31Z"/><path d="M68.8,19.06h2.3V36.42c0,.73.31,1,.64,1a1.94,1.94,0,0,0,.5-.06l.31,1.74a3.1,3.1,0,0,1-1.32.22c-1.74,0-2.44-1.09-2.44-3.08Z"/><path d="M81,25.06c3.47,0,5.43,2.49,5.43,6.38a8.16,8.16,0,0,1-.08,1.26H77.2c.17,2.94,1.93,4.79,4.54,4.79a6.15,6.15,0,0,0,3.39-1.06l.81,1.51a8.1,8.1,0,0,1-4.48,1.4c-3.64,0-6.52-2.66-6.52-7.11S77.92,25.06,81,25.06Zm3.42,6.13c0-2.77-1.23-4.31-3.36-4.31-1.9,0-3.64,1.57-3.92,4.31Z"/><path d="M95.37,25.06a5.61,5.61,0,0,1,4,1.62l-1.15,1.48A4.11,4.11,0,0,0,95.45,27c-2.46,0-4.26,2.13-4.26,5.26s1.71,5.21,4.2,5.21a4.85,4.85,0,0,0,3.19-1.37l1,1.51a6.74,6.74,0,0,1-4.42,1.76c-3.61,0-6.38-2.6-6.38-7.11S91.87,25.06,95.37,25.06Z"/><path d="M103,27.27h-2V25.53l2.13-.14.28-3.81h1.93v3.81H109v1.88h-3.67v7.56c0,1.68.53,2.63,2.1,2.63a5,5,0,0,0,1.54-.36l.45,1.74a8.4,8.4,0,0,1-2.52.5c-2.91,0-3.89-1.85-3.89-4.54Z"/><path class="cls-4" d="M173.29,42.35l-4.42-4.42-1.6,3L162.45,28.5l12.39,4.82-3,1.6,4.42,4.42Zm-19.79-7.28V19.55H169v9.29l1.89,1.33V17.65H151.6V37h12.49l-1.33-1.89Z"/></g></g></svg>