<?xml version="1.0" encoding="utf-8"?>
<!-- Generator: Adobe Illustrator 21.0.0, SVG Export Plug-In . SVG Version: 6.00 Build 0)  -->
<svg version="1.1" id="Layer_1" xmlns="http://www.w3.org/2000/svg" xmlns:xlink="http://www.w3.org/1999/xlink" x="0px" y="0px"
	 viewBox="0 0 185 62" style="enable-background:new 0 0 185 62;" xml:space="preserve">
<style type="text/css">
	.st0{fill:#CCCCCC;}
	.st1{fill:#606060;}
	.st2{fill:#5CB85C;}
	.st3{clip-path:url(#SVGID_2_);fill:#FFFFFF;}
</style>
<path class="st0" d="M174.4,47c0,7.3-5.9,13.2-13.2,13.2H13.4C6.1,60.2,0.2,54.3,0.2,47V15c0-7.3,5.9-13.2,13.2-13.2h147.7
	c7.3,0,13.2,5.9,13.2,13.2v32H174.4z"/>
<g>
	<g>
		<path d="M41.2,37.1c1.4,1.4,3.2,2.4,5.2,2.4c2.5,0,3.9-1.2,3.9-3.1c0-1.9-1.4-2.6-3.2-3.4l-2.7-1.2c-1.8-0.7-3.8-2.1-3.8-4.9
			c0-2.9,2.6-5,6-5c2.2,0,4.2,1,5.5,2.3l-1.3,1.5c-1.1-1.1-2.6-1.8-4.3-1.8c-2.2,0-3.5,1-3.5,2.8c0,1.8,1.7,2.5,3.1,3.1l2.7,1.1
			c2.2,1,3.9,2.2,3.9,5c0,3-2.5,5.4-6.5,5.4c-2.6,0-5-1.1-6.6-2.8L41.2,37.1z"/>
		<path d="M61.4,26.9c3.6,0,5.6,2.6,5.6,6.6c0,0.5,0,1-0.1,1.3h-9.4c0.2,3,2,5,4.6,5c1.4,0,2.5-0.4,3.5-1.1l0.8,1.5
			c-1.2,0.8-2.7,1.4-4.6,1.4c-3.8,0-6.7-2.7-6.7-7.3S58.2,26.9,61.4,26.9z M64.9,33.2c0-2.9-1.3-4.4-3.4-4.4c-1.9,0-3.8,1.6-4,4.4
			H64.9z"/>
		<path d="M70.4,27.2h1.9l0.2,2h0.1c1.4-1.4,2.8-2.4,4.7-2.4c3,0,4.2,1.9,4.2,5.4v8.9h-2.4v-8.5c0-2.6-0.8-3.8-2.6-3.8
			c-1.4,0-2.4,0.7-3.8,2.2v10.2h-2.4L70.4,27.2L70.4,27.2z"/>
		<path d="M91.3,26.9c1.6,0,2.6,0.6,3.9,1.6l-0.1-2.4v-5.4h2.4v20.5h-1.9l-0.2-1.7h-0.1c-1.1,1-2.6,2-4.2,2c-3.5,0-5.8-2.6-5.8-7.3
			C85.2,29.7,88.1,26.9,91.3,26.9z M91.6,39.6c1.3,0,2.4-0.6,3.6-1.9v-7.3c-1.2-1-2.2-1.4-3.4-1.4c-2.2,0-4,2.2-4,5.4
			C87.6,37.6,89.1,39.6,91.6,39.6z"/>
	</g>
</g>
<polygon class="st1" points="172.1,13.2 172.1,54.4 185,47.5 185,13.2 "/>
<path class="st2" d="M185,13h-31.6c-9.5,0-17.1,7.7-17.1,17.1c0,9.5,7.7,17.1,17.1,17.1H185V13z"/>
<g>
	<g>
		<g>
			<defs>
				<rect id="SVGID_1_" x="145.2" y="20.8" width="21.8" height="20.2"/>
			</defs>
			<clipPath id="SVGID_2_">
				<use xlink:href="#SVGID_1_"  style="overflow:visible;"/>
			</clipPath>
			<path class="st3" d="M166.9,20.9c-0.1-0.1-0.2-0.1-0.4-0.1l-21.2,9.8c-0.1,0.1-0.2,0.2-0.2,0.3c0,0.1,0.1,0.2,0.2,0.3l6,2.9
				c0.1,0.1,0.2,0,0.3,0l11.6-9.1l-10.4,9.5c-0.1,0.1-0.1,0.2-0.1,0.3l0.5,5.9c0,0.1,0.1,0.2,0.2,0.3h0.1c0.1,0,0.2,0,0.2-0.1
				l3.2-3.7l3.9,1.9c0.1,0,0.2,0,0.3,0s0.2-0.1,0.2-0.2l5.5-17.7C167,21.1,167,21,166.9,20.9L166.9,20.9z"/>
		</g>
	</g>
</g>
</svg>
