<?xml version="1.0" encoding="utf-8"?>
<!-- Generator: Adobe Illustrator 21.0.0, SVG Export Plug-In . SVG Version: 6.00 Build 0)  -->
<svg version="1.1" id="Layer_1" xmlns="http://www.w3.org/2000/svg" xmlns:xlink="http://www.w3.org/1999/xlink" x="0px" y="0px"
	 viewBox="0 0 185 62" style="enable-background:new 0 0 185 62;" xml:space="preserve">
<style type="text/css">
	.st0{fill:#34495E;}
	.st1{fill:#606060;}
	.st2{fill:#5C81EA;}
	.st3{fill:#FFFFFF;}
	.st4{fill:none;}
</style>
<path class="st0" d="M174.4,47c0,7.3-5.9,13.2-13.2,13.2H13.4C6.1,60.2,0.2,54.3,0.2,47V15c0-7.3,5.9-13.2,13.2-13.2h147.7
	c7.3,0,13.2,5.9,13.2,13.2v32H174.4z"/>
<polygon class="st1" points="172.1,13.2 172.1,54.4 185,47.5 185,13.2 "/>
<path class="st2" d="M185,13h-31.6c-9.5,0-17.1,7.7-17.1,17.1c0,9.5,7.7,17.1,17.1,17.1H185V13z"/>
<g>
	<path class="st3" d="M56.4,36.7c1.2,1.3,2.9,2.1,4.7,2.1c2.2,0,3.6-1.1,3.6-2.8c0-1.7-1.2-2.3-2.9-3l-2.4-1.1
		c-1.6-0.7-3.5-1.9-3.5-4.4c0-2.6,2.3-4.5,5.4-4.5c2,0,3.8,0.9,5,2.1l-1.1,1.4c-1-1-2.3-1.6-3.9-1.6c-1.9,0-3.2,1-3.2,2.5
		c0,1.6,1.5,2.3,2.8,2.8l2.4,1c2,0.9,3.5,2,3.5,4.5c0,2.7-2.2,4.9-5.8,4.9c-2.4,0-4.5-1-6-2.5L56.4,36.7z"/>
	<path class="st3" d="M69.9,21.9H72v5L72,29.5c1.2-1.1,2.5-2.1,4.2-2.1c2.7,0,3.8,1.7,3.8,4.9v8h-2.1v-7.7c0-2.4-0.7-3.4-2.4-3.4
		c-1.3,0-2.2,0.7-3.5,2v9.2h-2.1V21.9z"/>
	<path class="st3" d="M89,27.4c3.1,0,5.8,2.4,5.8,6.7c0,4.2-2.8,6.6-5.8,6.6s-5.9-2.4-5.9-6.6C83.1,29.8,85.9,27.4,89,27.4z
		 M89,38.9c2.2,0,3.6-2,3.6-4.8c0-2.9-1.5-4.9-3.6-4.9c-2.2,0-3.6,2-3.6,4.9C85.3,37,86.8,38.9,89,38.9z"/>
	<path class="st3" d="M96.5,27.7h2.2l1.9,7.3c0.3,1.2,0.5,2.3,0.8,3.5h0.1c0.3-1.2,0.5-2.3,0.9-3.5l2-7.3h2.1l2,7.3
		c0.3,1.2,0.6,2.3,0.9,3.5h0.1c0.3-1.2,0.5-2.3,0.8-3.5l1.8-7.3h2l-3.4,12.6H108l-1.8-6.8c-0.3-1.2-0.5-2.4-0.9-3.6h-0.1
		c-0.3,1.3-0.5,2.5-0.9,3.7l-1.8,6.8H100L96.5,27.7z"/>
</g>
<rect x="149.1" y="16.8" class="st4" width="17.2" height="22.4"/>
<g>
	<path class="st3" d="M175,29.6c-4.6-5.5-9.5-8.2-14.6-8.1c-8.2,0.2-13.9,7.8-14.2,8.1c0,0,0,0,0,0c0,0,0,0,0,0c0,0,0,0.1,0,0.1
		c0,0,0,0,0,0c0,0,0,0.1,0,0.1c0,0,0,0,0,0.1c0,0,0,0.1,0,0.1c0,0,0,0.1,0,0.1c0,0,0,0,0,0.1c0,0,0,0.1,0,0.1c0,0,0,0,0,0
		c0,0,0,0.1,0,0.1c0,0,0,0,0,0c0,0,0,0,0,0c0.2,0.3,5.9,7.9,14.2,8.1c0.1,0,0.3,0,0.4,0c5,0,9.7-2.7,14.2-8.1
		c0.1-0.1,0.2-0.3,0.2-0.5S175.1,29.8,175,29.6L175,29.6z M160.5,37.2c-6.4-0.2-11.3-5.5-12.6-7.1c1.3-1.6,6.2-6.9,12.6-7.1
		c4.5-0.1,8.8,2.3,12.9,7.1C169.3,34.9,165,37.3,160.5,37.2L160.5,37.2z M160.5,37.2"/>
	<path class="st3" d="M161,25.1c-2.7,0-5,2.2-5,5c0,2.7,2.2,5,5,5c2.7,0,5-2.2,5-5C166,27.4,163.8,25.1,161,25.1L161,25.1z
		 M161,33.6c-1.9,0-3.5-1.6-3.5-3.5c0-1.9,1.6-3.5,3.5-3.5c1.9,0,3.5,1.6,3.5,3.5C164.5,32,162.9,33.6,161,33.6L161,33.6z M161,33.6
		"/>
</g>
</svg>
