<?xml version="1.0" encoding="utf-8"?>
<!-- Generator: Adobe Illustrator 21.0.0, SVG Export Plug-In . SVG Version: 6.00 Build 0)  -->
<svg version="1.1" id="Layer_1" xmlns="http://www.w3.org/2000/svg" xmlns:xlink="http://www.w3.org/1999/xlink" x="0px" y="0px"
	 viewBox="0 0 185 62" style="enable-background:new 0 0 185 62;" xml:space="preserve">
<style type="text/css">
	.st0{fill:#34495E;}
	.st1{fill:#FFFFFF;}
	.st2{fill:#606060;}
	.st3{fill:#5CB85C;}
	.st4{fill:#FBFBFB;}
</style>
<path class="st0" d="M174.4,47c0,7.3-5.9,13.2-13.2,13.2H13.4C6.1,60.2,0.2,54.3,0.2,47V15c0-7.3,5.9-13.2,13.2-13.2h147.7
	c7.3,0,13.2,5.9,13.2,13.2v32H174.4z"/>
<g>
	<g>
		<path class="st1" d="M28.2,34.5c1.4,1.4,3.2,2.4,5.2,2.4c2.5,0,3.9-1.2,3.9-3.1s-1.4-2.6-3.2-3.4l-2.7-1.2
			c-1.8-0.7-3.8-2.1-3.8-4.9c0-2.9,2.6-5,6-5c2.2,0,4.2,1,5.5,2.3l-1.3,1.5c-1.1-1.1-2.6-1.8-4.3-1.8c-2.2,0-3.5,1-3.5,2.8
			c0,1.8,1.7,2.5,3.1,3.1l2.7,1.1c2.2,1,3.9,2.2,3.9,5c0,3-2.5,5.4-6.5,5.4c-2.6,0-5-1.1-6.6-2.8L28.2,34.5z"/>
		<path class="st1" d="M43,24.6h2.4v8.6c0,2.6,0.8,3.8,2.6,3.8c1.4,0,2.5-0.7,3.8-2.4v-9.9h2.4v14h-1.9L52,36.4H52
			C50.7,38,49.3,39,47.3,39c-3,0-4.3-1.9-4.3-5.4V24.6z"/>
		<path class="st1" d="M58.8,18.1h2.4v5.6l-0.1,2.5c1.3-1.1,2.8-1.9,4.4-1.9c3.6,0,5.5,2.8,5.5,7.1c0,4.8-2.9,7.6-6.1,7.6
			c-1.3,0-2.8-0.6-4-1.8h-0.1l-0.2,1.4h-1.9L58.8,18.1L58.8,18.1z M64.7,37c2.3,0,4-2.1,4-5.5c0-3.1-1-5.1-3.7-5.1
			c-1.2,0-2.4,0.6-3.8,1.9v7.4C62.4,36.6,63.7,37,64.7,37z"/>
		<path class="st1" d="M74.8,24.6h1.9l0.2,2h0.1c1.2-1.4,2.6-2.4,4.3-2.4c2.2,0,3.3,1,3.8,2.6c1.4-1.6,2.9-2.6,4.6-2.6
			c2.9,0,4.2,1.9,4.2,5.4v8.9h-2.4V30c0-2.6-0.8-3.8-2.6-3.8c-1.1,0-2.2,0.7-3.5,2.2v10.2h-2.4V30c0-2.6-0.8-3.8-2.6-3.8
			c-1,0-2.2,0.7-3.5,2.2v10.2h-2.4v-14H74.8z"/>
		<path class="st1" d="M98.3,20.2c0-1,0.7-1.5,1.7-1.5c1,0,1.7,0.6,1.7,1.5c0,0.9-0.7,1.5-1.7,1.5C99,21.7,98.3,21.1,98.3,20.2z
			 M98.7,24.6h2.4v14h-2.4V24.6z"/>
		<path class="st1" d="M106.2,26.5h-2.1v-1.8l2.2-0.2l0.3-3.9h2v3.9h3.8v1.9h-3.8v7.8c0,1.8,0.6,2.7,2.2,2.7c0.5,0,1.1-0.2,1.6-0.4
			l0.5,1.8c-0.8,0.2-1.8,0.5-2.6,0.5c-3,0-4-1.9-4-4.6L106.2,26.5L106.2,26.5z"/>
	</g>
</g>
<polygon class="st2" points="172.1,13.2 172.1,54.4 185,47.5 185,13.2 "/>
<path class="st3" d="M185,13h-31.6c-9.5,0-17.1,7.7-17.1,17.1c0,9.5,7.7,17.1,17.1,17.1H185V13z"/>
<g>
	<path class="st1" d="M175.7,29.9c0,6.2-5,11.2-11.2,11.2s-11.2-5-11.2-11.2s5-11.2,11.2-11.2C170.6,18.8,175.7,23.8,175.7,29.9
		 M177.6,29.9c0-7.3-5.9-13.1-13.1-13.1c-7.3,0-13.1,5.9-13.1,13.1S157.3,43,164.5,43C171.7,43.1,177.6,37.2,177.6,29.9L177.6,29.9z
		"/>
</g>
<g>
	<path class="st4" d="M170.6,26.8V30H160l2.9-2.9l-1.1-1.1l-4.8,4.8l4.8,4.8l1.1-1.1l-2.9-2.9h12.2v-4.8H170.6z"/>
</g>
</svg>
