<svg xmlns="http://www.w3.org/2000/svg" viewBox="0 0 82.73 99.41"><defs><style>.cls-1{fill:#fff;}</style></defs><title>Asset 5</title><g id="Layer_2" data-name="Layer 2"><g id="Layer_1-2" data-name="Layer 1"><path class="cls-1" d="M67.57,12.79v5.27a7.18,7.18,0,1,1-10.27,0V12.79H25.43v5.27a7.18,7.18,0,1,1-10.27,0V12.79H0V99.41H82.73V12.79Zm8.51,79.67H6.65V34H76.08Z"/><rect class="cls-1" x="61.79" y="42.7" width="8.27" height="8.58"/><rect class="cls-1" x="61.79" y="54.67" width="8.27" height="8.58"/><rect class="cls-1" x="49.69" y="42.7" width="8.27" height="8.58"/><rect class="cls-1" x="37.59" y="42.7" width="8.27" height="8.58"/><rect class="cls-1" x="49.69" y="54.67" width="8.27" height="8.58"/><rect class="cls-1" x="49.69" y="78.6" width="8.27" height="8.58"/><rect class="cls-1" x="37.59" y="78.6" width="8.27" height="8.58"/><rect class="cls-1" x="25.49" y="78.6" width="8.27" height="8.58"/><rect class="cls-1" x="13.4" y="78.6" width="8.27" height="8.58"/><rect class="cls-1" x="37.59" y="54.67" width="8.27" height="8.58"/><rect class="cls-1" x="25.49" y="54.67" width="8.27" height="8.58"/><rect class="cls-1" x="13.4" y="54.67" width="8.27" height="8.58"/><rect class="cls-1" x="61.79" y="66.64" width="8.27" height="8.58"/><rect class="cls-1" x="49.69" y="66.64" width="8.27" height="8.58"/><rect class="cls-1" x="37.59" y="66.64" width="8.27" height="8.58"/><rect class="cls-1" x="25.49" y="66.64" width="8.27" height="8.58"/><rect class="cls-1" x="13.4" y="66.64" width="8.27" height="8.58"/><path class="cls-1" d="M62.63,26a2.44,2.44,0,0,0,2.44-2.43V2.44a2.43,2.43,0,1,0-4.87,0V23.56A2.43,2.43,0,0,0,62.63,26"/><path class="cls-1" d="M20.25,26a2.43,2.43,0,0,0,2.43-2.43V2.44a2.43,2.43,0,1,0-4.87,0V23.56A2.43,2.43,0,0,0,20.25,26"/></g></g></svg>