<svg xmlns="http://www.w3.org/2000/svg" viewBox="0 0 87.18 79.83"><defs><style>.cls-1{fill:#fff;}</style></defs><title>Asset 6</title><g id="Layer_2" data-name="Layer 2"><g id="Layer_1-2" data-name="Layer 1"><path class="cls-1" d="M21.9,79.83a13.45,13.45,0,0,1-6.67-1.4,1.75,1.75,0,0,1-.85-1.61l1.92-30.48c0-.14,0-.28,0-.42-3.14-.34-5.38-.54-5.41-.54C4.27,44.81,0,40.67,0,34.82,0,29.36,4.39,25.4,10.92,25c.07,0,1.52-.06,3.73-.21l.4,0c5.76-.41,16-1.42,20.59-3.7,2-1,5.23-3.88,8.11-6.44,3.67-3.27,5.85-5.12,7.46-5.91a2.06,2.06,0,0,1,1.48-.44h.36c7.11,0,7.19,26.54,7.19,26.81s-.08,26.81-7.19,26.81h-.33a2.07,2.07,0,0,1-1.59-.55c-1.41-.79-11.58-10.5-15.3-12.2l-.66-.24a31.58,31.58,0,0,0-6.1-1.69c.66,7.61,2.84,29.43,2.86,29.68a1.75,1.75,0,0,1-1.32,1.87,39.9,39.9,0,0,1-8.72,1.12m-4-4c2.78.93,7.56.33,10.36-.2-.6-6-2.69-27.11-2.89-30.44a1.75,1.75,0,0,1,2-1.84,36.45,36.45,0,0,1,9,2.2l.64.23c3,1.08,7,4.72,10.47,7.93L48.89,55a115.6,115.6,0,0,1-1.8-24.51c.23-4.28.77-9.42,1.41-13.42.14-.86.27-1.65.41-2.36-1,.84-2,1.73-2.83,2.49-3.19,2.84-6.49,5.77-8.89,7-5.25,2.6-16.3,3.67-22.2,4.08-1.15.28-3,3.61-3,6.9s1.91,7,3.29,7.13l.17,0,2.83.31a1.75,1.75,0,0,1,1.55,1.84c0,.66-.05,1.32-.05,1.94,0,0-1.85,29.44-1.85,29.44M53.16,12.06c-1,2.72-2.18,11.3-2.57,18.63C50,41.19,52,54.31,53.21,58c1.4-2.11,3.53-10.66,3.53-22.92s-2.19-21-3.58-23m-43,16.5C6.79,29,3.5,30.89,3.5,34.82c0,5.05,4.25,6.51,6.63,6.92a15.29,15.29,0,0,1-1.64-6.61,14.87,14.87,0,0,1,1.64-6.58M79.48,68.67c-.88,0-.88,0-16.29-14.06A1.75,1.75,0,0,1,65.56,52c5.27,4.81,13.86,12.61,14.88,13.42a1.75,1.75,0,0,1-.95,3.22M67.88,35.52c-2.93,0-3.1-.15-3.44-.45A1.75,1.75,0,0,1,65.84,32c1.29.05,12.6-.19,19.55-.36a1.75,1.75,0,1,1,.08,3.5c-9.8.24-14.89.36-17.6.36M64.38,17.1a1.75,1.75,0,0,1-.95-3.22c1-.81,9.6-8.61,14.87-13.42A1.75,1.75,0,1,1,80.66,3C65.26,17.1,65.26,17.1,64.38,17.1"/></g></g></svg>