<?xml version="1.0" encoding="utf-8"?>
<!-- Generator: Adobe Illustrator 21.0.0, SVG Export Plug-In . SVG Version: 6.00 Build 0)  -->
<svg version="1.1" id="Layer_1" xmlns="http://www.w3.org/2000/svg" xmlns:xlink="http://www.w3.org/1999/xlink" x="0px" y="0px"
	 viewBox="0 0 198.3 67" style="enable-background:new 0 0 198.3 67;" xml:space="preserve">
<style type="text/css">
	.st0{fill:#CCCCCC;}
	.st1{fill:#606060;}
	.st2{fill:#3366FF;}
	.st3{clip-path:url(#SVGID_2_);fill:#FFFFFF;}
</style>
<path class="st0" d="M183.9,48.7c0,7.3-6.1,13.2-13.6,13.2H17.8c-7.5,0-13.6-5.9-13.6-13.2v-32c0-7.3,6.1-13.2,13.6-13.2h152.4
	c7.5,0,13.6,5.9,13.6,13.2L183.9,48.7L183.9,48.7z"/>
<polygon class="st1" points="181.6,14.9 181.6,56.1 194.5,49.2 194.5,14.9 "/>
<path class="st2" d="M194.5,14.7h-31.6c-9.5,0-17.1,7.7-17.1,17.1c0,9.5,7.7,17.1,17.1,17.1h31.6V14.7z"/>
<g>
	<path d="M52.9,24.8v9.6c0,3.6,1.6,5.2,3.8,5.2c2.4,0,3.9-1.6,3.9-5.2v-9.6h2.1v9.4c0,5-2.6,7-6.1,7c-3.3,0-5.8-1.9-5.8-6.9v-9.5
		H52.9z"/>
	<path d="M66.3,33.2c0-1.5,0-2.7-0.1-3.8h1.9l0.1,2h0c0.9-1.4,2.2-2.3,4.1-2.3c2.8,0,4.9,2.4,4.9,5.9c0,4.2-2.5,6.2-5.3,6.2
		c-1.5,0-2.9-0.7-3.6-1.8h0v6.3h-2.1V33.2z M68.4,36.3c0,0.3,0,0.6,0.1,0.9c0.4,1.5,1.7,2.5,3.2,2.5c2.2,0,3.5-1.8,3.5-4.5
		c0-2.3-1.2-4.3-3.5-4.3c-1.4,0-2.8,1-3.2,2.6c-0.1,0.3-0.1,0.6-0.1,0.9V36.3z"/>
	<path d="M90,24v14c0,1,0,2.2,0.1,3h-1.9l-0.1-2h0c-0.6,1.3-2.1,2.3-4,2.3c-2.8,0-5-2.4-5-5.9c0-3.9,2.4-6.2,5.2-6.2
		c1.8,0,3,0.8,3.5,1.8h0V24H90z M87.9,34.1c0-0.3,0-0.6-0.1-0.9c-0.3-1.3-1.5-2.4-3-2.4c-2.2,0-3.5,1.9-3.5,4.5
		c0,2.4,1.2,4.3,3.4,4.3c1.4,0,2.7-0.9,3.1-2.5c0.1-0.3,0.1-0.6,0.1-0.9V34.1z"/>
	<path d="M99.9,41l-0.2-1.5h-0.1c-0.6,0.9-1.9,1.7-3.6,1.7c-2.4,0-3.6-1.7-3.6-3.3c0-2.8,2.5-4.3,7-4.3v-0.2c0-1-0.3-2.7-2.6-2.7
		c-1.1,0-2.2,0.3-3,0.9l-0.5-1.4c1-0.6,2.4-1,3.8-1c3.6,0,4.4,2.4,4.4,4.8v4.3c0,1,0,2,0.2,2.8H99.9z M99.6,35.1
		c-2.3,0-4.9,0.4-4.9,2.6c0,1.4,0.9,2,2,2c1.5,0,2.5-1,2.8-1.9c0.1-0.2,0.1-0.5,0.1-0.7V35.1z"/>
	<path d="M107.5,26v3.3h3V31h-3v6.3c0,1.4,0.4,2.3,1.6,2.3c0.6,0,1-0.1,1.2-0.1l0.1,1.6c-0.4,0.2-1.1,0.3-1.9,0.3
		c-1,0-1.8-0.3-2.3-0.9c-0.6-0.6-0.8-1.7-0.8-3V31h-1.8v-1.6h1.8v-2.8L107.5,26z"/>
	<path d="M113.9,35.6c0,2.9,1.9,4,4,4c1.5,0,2.4-0.3,3.2-0.6l0.4,1.5c-0.7,0.3-2,0.7-3.9,0.7c-3.6,0-5.7-2.4-5.7-5.9
		c0-3.5,2.1-6.3,5.4-6.3c3.8,0,4.8,3.3,4.8,5.5c0,0.4,0,0.8-0.1,1H113.9z M120.1,34.1c0-1.3-0.6-3.4-2.9-3.4c-2.1,0-3.1,2-3.2,3.4
		H120.1z"/>
</g>
<g>
	<defs>
		<rect id="SVGID_1_" x="155" y="23.5" width="19.8" height="19.8"/>
	</defs>
	<clipPath id="SVGID_2_">
		<use xlink:href="#SVGID_1_"  style="overflow:visible;"/>
	</clipPath>
	<path class="st3" d="M171,25.7c-1.1-1.1-2.3-1.8-3.6-2.2v2.8c0.6,0.3,1.2,0.7,1.8,1.3c2.6,2.6,2.6,6.9,0,9.5
		c-2.6,2.6-6.9,2.6-9.5,0c-2.6-2.6-2.6-6.9,0-9.5c0,0,0,0,0,0l1.6,1.6l0-4.9l-4.9,0l1.6,1.6c0,0,0,0,0,0c-3.6,3.6-3.6,9.6,0,13.2
		c3.7,3.7,9.6,3.7,13.2,0C174.6,35.3,174.6,29.4,171,25.7L171,25.7z M171,25.7"/>
</g>
</svg>
