<svg xmlns="http://www.w3.org/2000/svg" viewBox="0 0 190.3 58.4"><defs><style>.cls-1{fill:#ccc;}.cls-2{fill:#606060;}.cls-3{fill:#36f;}.cls-4{fill:#fff;}</style></defs><title>Asset 3</title><g id="Layer_2" data-name="Layer 2"><g id="Layer_1-2" data-name="Layer 1"><path class="cls-1" d="M179.7,45.2a13.41,13.41,0,0,1-13.6,13.2H13.6A13.41,13.41,0,0,1,0,45.2v-32A13.41,13.41,0,0,1,13.6,0H166a13.41,13.41,0,0,1,13.6,13.2l.1,32Z"/><polygon class="cls-2" points="177.4 11.4 177.4 52.6 190.3 45.7 190.3 11.4 177.4 11.4"/><path class="cls-3" d="M190.3,11.2H158.7a17.1,17.1,0,1,0,0,34.2h31.6Z"/><path d="M47.12,21.23V33.7a7.39,7.39,0,0,1-.92,3.74,6.11,6.11,0,0,1-2.65,2.47,9.21,9.21,0,0,1-4.15.86,7.76,7.76,0,0,1-5.58-1.9,6.87,6.87,0,0,1-2-5.22V21.23H35V33.42a4.87,4.87,0,0,0,1.11,3.52,4.56,4.56,0,0,0,3.4,1.13q4.46,0,4.46-4.68V21.23Z"/><path d="M59.12,40.76a5.11,5.11,0,0,1-4.3-2h-.18q.18,1.85.18,2.24v6h-3.1V25.92h2.5q.11.41.44,2h.16a4.85,4.85,0,0,1,4.35-2.21,5.06,5.06,0,0,1,4.25,2,8.91,8.91,0,0,1,1.52,5.55,8.92,8.92,0,0,1-1.55,5.58A5.11,5.11,0,0,1,59.12,40.76Zm-.75-12.58a3.22,3.22,0,0,0-2.7,1.08,5.61,5.61,0,0,0-.85,3.45v.46A6.82,6.82,0,0,0,55.66,37a3.14,3.14,0,0,0,2.76,1.19,2.8,2.8,0,0,0,2.48-1.32,6.81,6.81,0,0,0,.87-3.76,6.57,6.57,0,0,0-.86-3.71A2.88,2.88,0,0,0,58.36,28.19Z"/><path d="M71.64,40.5h-3.1V20h3.1Z"/><path d="M89,33.18a8,8,0,0,1-1.83,5.58,6.57,6.57,0,0,1-5.1,2,7,7,0,0,1-3.61-.92A6.1,6.1,0,0,1,76,37.19a9,9,0,0,1-.84-4A7.9,7.9,0,0,1,77,27.65a6.6,6.6,0,0,1,5.13-2,6.42,6.42,0,0,1,5,2A7.87,7.87,0,0,1,89,33.18Zm-10.61,0q0,5,3.73,5t3.69-5q0-5-3.72-5a3.17,3.17,0,0,0-2.83,1.29A6.57,6.57,0,0,0,78.39,33.18Z"/><path d="M101.69,40.5l-.62-2H101a6,6,0,0,1-2.12,1.81,6.71,6.71,0,0,1-2.74.48,4.64,4.64,0,0,1-3.36-1.16,4.34,4.34,0,0,1-1.21-3.28,3.85,3.85,0,0,1,1.67-3.4,9.65,9.65,0,0,1,5.1-1.25l2.52-.08v-.78a2.94,2.94,0,0,0-.65-2.09,2.66,2.66,0,0,0-2-.69,7,7,0,0,0-2.15.33,16.22,16.22,0,0,0-2,.78l-1-2.21a10.78,10.78,0,0,1,2.6-.94,12,12,0,0,1,2.66-.32,6.31,6.31,0,0,1,4.2,1.21,4.75,4.75,0,0,1,1.42,3.81V40.5Zm-4.62-2.11a3.84,3.84,0,0,0,2.71-.94,3.42,3.42,0,0,0,1-2.64V33.54l-1.87.08a6.41,6.41,0,0,0-3.18.73,2.22,2.22,0,0,0-1,2,2,2,0,0,0,.58,1.51A2.49,2.49,0,0,0,97.07,38.39Z"/><path d="M113.14,40.76a5.08,5.08,0,0,1-4.26-2,8.89,8.89,0,0,1-1.53-5.55,8.93,8.93,0,0,1,1.55-5.58,5.13,5.13,0,0,1,4.29-2,5,5,0,0,1,4.38,2.12h.16a18.42,18.42,0,0,1-.22-2.48V20h3.11V40.5h-2.43l-.54-1.91h-.14A5,5,0,0,1,113.14,40.76Zm.83-2.5a3.37,3.37,0,0,0,2.78-1.07,5.66,5.66,0,0,0,.9-3.49v-.44a6.54,6.54,0,0,0-.9-3.92,3.33,3.33,0,0,0-2.81-1.16,2.85,2.85,0,0,0-2.52,1.33,6.78,6.78,0,0,0-.88,3.78,6.61,6.61,0,0,0,.86,3.7A2.89,2.89,0,0,0,114,38.26Z"/><path class="cls-4" d="M160.76,29.34a.46.46,0,0,1-.27-.5V21.34H158c-.39,0-.48-.21-.24-.52q2.15-2.71,4.31-5.4c.47-.58.69-.56,1.19,0l4.45,5.2a1.7,1.7,0,0,1,.19.41,1.78,1.78,0,0,1-.44.12c-.73,0-1.45,0-2.18,0H165v7.68a.43.43,0,0,1-.28.47h-4Z"/><path class="cls-4" d="M151.31,29.65h3.17v5.22h16.6V29.66h3.18c0,.08,0,.16,0,.23v6.4A1.59,1.59,0,0,1,172.53,38H153a1.57,1.57,0,0,1-1.66-1.14,1.84,1.84,0,0,1-.06-.5V29.85A1,1,0,0,1,151.31,29.65Z"/></g></g></svg>