<svg xmlns="http://www.w3.org/2000/svg" viewBox="0 0 184.8 58.4"><defs><style>.cls-1{fill:#34495e;}.cls-2{fill:#606060;}.cls-3{fill:#390;}.cls-4{fill:#fff;}</style></defs><title>Asset 1</title><g id="Layer_2" data-name="Layer 2"><g id="Layer_1-2" data-name="Layer 1"><path class="cls-1" d="M174.2,45.2A13.19,13.19,0,0,1,161,58.4H13.2A13.19,13.19,0,0,1,0,45.22H0v-32A13.19,13.19,0,0,1,13.16,0H160.9a13.19,13.19,0,0,1,13.2,13.18h0v32Z"/><polygon class="cls-2" points="171.9 11.5 171.9 52.7 184.8 45.8 184.8 11.5 171.9 11.5"/><path class="cls-3" d="M184.8,11.3H153.2a17.1,17.1,0,0,0,0,34.2h31.6Z"/><path class="cls-4" d="M163.5,19a2.19,2.19,0,0,0-3.08.35h0l-8.56,12.89-3.74-3.74a1.85,1.85,0,0,0-2.79,2.43l.18.18,5.64,5.64a1.92,1.92,0,0,0,2.34.32,2.17,2.17,0,0,0,.82-.63l9.54-14.35a2.19,2.19,0,0,0-.34-3.08h0Z"/><path class="cls-4" d="M69.77,29.89,64.22,18.63h2.52l2.35,5.18c.59,1.34,1.15,2.63,1.79,4H71c.62-1.37,1.26-2.66,1.82-4l2.38-5.18h2.41L72.09,29.89V37H69.77Z"/><path class="cls-4" d="M83.77,23.06c3.47,0,5.43,2.49,5.43,6.38a8.1,8.1,0,0,1-.08,1.26H79.93c.17,2.94,1.93,4.79,4.54,4.79a6.15,6.15,0,0,0,3.39-1.06l.81,1.51a8.11,8.11,0,0,1-4.48,1.4c-3.64,0-6.52-2.66-6.52-7.11S80.66,23.06,83.77,23.06Zm3.42,6.13c0-2.77-1.23-4.31-3.36-4.31-1.9,0-3.64,1.57-3.92,4.31Z"/><path class="cls-4" d="M92.19,33.92a6.12,6.12,0,0,0,4,1.62c1.79,0,2.69-1,2.69-2.13,0-1.4-1.62-2-3.11-2.58-1.93-.7-4.06-1.62-4.06-3.92s1.74-3.86,4.68-3.86a6.79,6.79,0,0,1,4.23,1.54l-1.09,1.46a5.06,5.06,0,0,0-3.11-1.2c-1.71,0-2.49.92-2.49,2,0,1.26,1.48,1.76,3,2.35,2,.73,4.14,1.54,4.14,4.12,0,2.21-1.76,4.06-5,4.06A8.19,8.19,0,0,1,91,35.46Z"/></g></g></svg>